<svg xmlns="http://www.w3.org/2000/svg" viewBox="0 0 20 24">
  <path d="M14.68,0l.55.08A1.57,1.57,0,0,1,16,.44,3.37,3.37,0,0,1,17,2a.65.65,0,0,1,0,.28.79.79,0,0,1-.08.26,3.11,3.11,0,0,1-.25.38,11.26,11.26,0,0,0-1.61,2.76c-.72,1.68-1.4,3.37-2.09,5.05-.08.2-.16.39-.23.59a.12.12,0,0,0,0,.13c1.55,1.57,3.06,3.18,4.72,4.65.42.37.89.7,1.34,1a2.63,2.63,0,0,1,.69.68,1.84,1.84,0,0,1,.19.4.42.42,0,0,1-.15.47.94.94,0,0,0-.13.14h.21a.44.44,0,0,1,.2,0,.51.51,0,0,1,.17.22c0,.1-.07.15-.15.19a2,2,0,0,1-.93.09,9.53,9.53,0,0,1-2.47-.74,16.31,16.31,0,0,1-4.13-2.48,7.54,7.54,0,0,0-.87-.61,1.38,1.38,0,0,0-.39-.18.47.47,0,0,0-.6.19,4.11,4.11,0,0,0-.37.76c-.13.32-.23.65-.35,1a1.35,1.35,0,0,1-.19.33.26.26,0,0,1-.33.11l-.2,0a1,1,0,0,0,.09.18.28.28,0,0,1,0,.35,3.58,3.58,0,0,1-.47.68,5.53,5.53,0,0,1-.7.58.64.64,0,0,1-.26.1.53.53,0,0,1-.28,0c-.12,0-.16,0-.13.12a1.39,1.39,0,0,0,.1.26.94.94,0,0,1,.09.57.85.85,0,0,1-.11.26.45.45,0,0,0,0,.57.58.58,0,0,1,.12.25c0,.15,0,.26-.21.24a1.49,1.49,0,0,1-.39-.17,3.75,3.75,0,0,1-.36-.24l0,0c0,.05,0,.11,0,.17a4.88,4.88,0,0,1,.23.64.64.64,0,0,1-.19.59c-.21.24-.38.5-.59.74a2.72,2.72,0,0,1-.39.37.32.32,0,0,1-.4,0,1.41,1.41,0,0,1-.56-1.16.35.35,0,0,1,.07-.2.37.37,0,0,0,0-.54.53.53,0,0,1-.15-.63l.37-.87c.16-.36.32-.73.47-1.1a.47.47,0,0,0,0-.47.46.46,0,0,1,0-.29,10.11,10.11,0,0,1,.53-1.86c.56-1.57,1.12-3.13,1.7-4.7a.45.45,0,0,0,0-.42,2.09,2.09,0,0,0-.29-.42A29.84,29.84,0,0,1,5.11,8.83L2.11,5C1.56,4.34,1,3.66.45,3A2,2,0,0,1,0,2.11,1.7,1.7,0,0,1,.29.89,1,1,0,0,1,.93.53a4,4,0,0,1,2.15,0,2.53,2.53,0,0,1,1,.59A21.55,21.55,0,0,1,6.86,3.89c.3.35.58.71.86,1.08a5.66,5.66,0,0,1,.69,1.15c.11.25.24.48.37.72A1.86,1.86,0,0,0,9,7.12c.19.21.38.21.54,0a4.78,4.78,0,0,0,.44-.8c.41-1,.78-1.91,1.2-2.85.35-.76.75-1.5,1.13-2.25A2.11,2.11,0,0,1,14.07.06L14.5,0Z" fill="#ba0000"/>
</svg>
