<svg viewBox="0 0 876 5" fill="none" preserveAspectRatio="none">
<path opacity="0.2" d="M74.8006 4.66895C78.2254 4.70005 76.4259 4.52236 77.1515 4.43352C81.2439 4.42019 79.0381 4.57123 80.4167 4.66451C82.9709 4.6423 84.9445 4.50459 86.8456 4.5268C86.9907 4.55346 87.3535 4.56678 86.9182 4.59788C89.6319 4.49127 94.9434 4.65119 98.0925 4.50903C98.3247 4.5268 98.4408 4.54013 98.4988 4.55346C97.9909 4.46905 97.9184 4.38465 98.0345 4.3269C99.5727 4.33579 100.893 4.2425 101.459 4.35356C100.516 4.34467 100.443 4.38909 99.9936 4.42019L101.604 4.38465C103.041 4.54901 99.3986 4.42463 99.3986 4.54013C102.548 4.50903 106.205 4.40686 108.614 4.46461C109.107 4.62009 102.983 4.48238 106.19 4.63342L102.475 4.55346C105.305 4.8111 100.211 4.52236 102.809 4.79334C107.714 4.86885 108.295 4.74891 113.185 4.81999C114.288 4.74003 112.822 4.69561 113.94 4.61565C120.891 4.50015 119.396 5.01989 124.505 4.8422C125.825 4.74891 126.348 4.5579 129.99 4.6734L128.742 4.83776C133.488 4.86885 131.456 4.60232 136.419 4.73114C135.534 4.79778 132.689 4.77557 133.4 4.79778C136.622 4.94437 135.679 4.70893 138.16 4.71338L138.668 4.86441C143.719 4.85553 149.291 4.75336 154.878 4.73559C154.574 4.78001 153.616 4.82887 154.922 4.8733C161.975 4.80666 169.986 4.90439 176.792 4.98435L179.389 4.85108C179.999 4.85108 180.507 4.90883 179.854 4.93549C182.509 4.98435 179.984 4.85108 181.261 4.80222C182.771 4.79334 183.25 4.8733 182.306 4.91772C186.994 4.80222 195.628 4.66007 200.577 4.78889L199.619 4.82887C203.465 4.8733 203.944 4.54901 207.514 4.66451L206.832 4.69116C215.162 4.7267 224.377 4.57123 230.733 4.74447C231.938 4.55346 238.991 4.79334 239.513 4.53125C244.273 4.64674 242.909 4.69116 249.599 4.76668C251.384 4.77557 252.255 4.59788 254.475 4.57123L254.533 4.70893L257.537 4.56234L259.133 4.7267L261.209 4.69116C260.382 4.68228 259.453 4.62897 259.583 4.58899C262.82 4.53125 267.478 4.69116 267.55 4.76224L275.213 4.66007C275.039 4.71338 273.762 4.73114 272.746 4.76224C276.838 4.63342 273.486 4.90883 277.23 4.78889C276.722 4.7578 277.506 4.70893 277.593 4.68228C279.465 4.77112 283.717 4.78445 286.866 4.7578L286.257 4.85108C291.945 4.89551 298.244 4.85108 304.629 4.87774C302.336 4.82443 302.873 4.66451 304.745 4.65563L305.485 4.80222C306.704 4.71782 303.526 4.74003 306.022 4.6423C308.402 4.66895 307.618 4.8111 306.254 4.85553L309.157 4.81555C309.331 4.85997 308.649 4.87774 308.46 4.93549C309.65 4.85108 313.467 5.09985 315.179 4.94881L315.339 4.99324C321.724 5.01545 324.627 4.97547 329.822 4.97991C329.924 4.85553 331.955 4.88662 333.508 4.78889C337.325 4.83776 341.577 4.93549 346.177 4.9266C349.413 4.85997 347.12 4.81999 348.572 4.74447C348.804 4.85997 353.419 4.8422 351.024 4.9266C356.553 4.89995 358.092 4.89106 365.072 4.77557C364.317 4.73114 363.461 4.71338 363.896 4.6734C365.159 4.65119 366.784 4.70893 366.61 4.76668L366.276 4.78001C374.113 4.58011 384.402 5.01989 390.642 4.73114L390.294 4.74447L396.766 4.57123C399.741 4.57123 394.981 4.66895 397.202 4.72226C404.168 4.47794 408.245 4.65563 413.978 4.47794C418.462 4.77112 429.767 4.30025 435.804 4.45129L435.441 4.37577C436.979 4.28248 437.328 4.40242 438.474 4.40686C438.3 4.34911 436.776 4.35356 437.749 4.30025C450.897 4.06926 464.901 4.11812 478.383 4.0737C483.317 4.05149 481.14 3.63836 487.38 3.77607L485.624 3.93599C495.565 3.67834 505.97 3.78051 515.708 3.5584C515.127 3.59838 515.113 3.6428 514.169 3.64725C516.23 3.73609 521.788 3.59394 521.817 3.50509C523.341 3.50509 522.18 3.58061 523.109 3.61615C525.184 3.66057 528.275 3.43846 529.393 3.53619C529.581 3.55396 528.812 3.57617 528.435 3.58505C529.77 3.52286 534.704 3.54507 533.412 3.43402C537.084 3.46067 540.407 3.31852 543.339 3.36294C545.225 3.20747 549.608 3.37183 550.188 3.16749C549.942 3.37183 556.617 3.26521 558.925 3.14527C558.156 3.21635 560.942 3.18526 560.042 3.27854C562.683 3.24745 565.092 3.18081 564.628 3.08308C569.519 3.26521 574.38 2.76769 577.152 3.03866C584.989 2.82099 592.216 2.63442 599.254 2.48339C599.036 2.68773 591.475 2.61665 591.809 2.82544C598.47 2.64331 602.302 2.41231 608.948 2.36789C610.675 2.36789 607.99 2.47006 607.41 2.51004C614.071 2.33235 620.326 2.35012 626.247 2.16355C626.247 2.18132 625.594 2.21241 624.984 2.23462C626.159 2.21241 627.712 2.23018 627.567 2.14134L626.435 2.18132C624.549 2.0747 631.05 1.84815 631.253 1.77263C629.294 2.05693 637.131 1.76375 634.025 2.13245C634.794 2.1058 635.752 2.05249 635.563 1.9903C636.71 1.9903 637.073 2.02584 635.926 2.11024C640.12 2.00807 638.611 1.93255 642.413 1.88813C642.413 1.93255 641.644 1.9592 641.252 2.01695C643.168 1.91034 645.083 1.79928 648.305 1.79928C648.116 1.82594 648.494 1.85703 647.536 1.87036C653.05 1.79484 656.911 1.53275 662.977 1.55052C661.206 1.75931 665.037 1.5905 665.386 1.75486L668.636 1.67046L667.316 1.60383C670.16 1.57717 672.671 1.43058 675.138 1.46168L673.019 1.55052L678.36 1.46612L675.326 1.43502C678.2 1.31953 674.993 1.22624 678.795 1.23512C678.026 1.25734 681.654 1.20847 683.148 1.29287C684.556 1.22624 685.993 1.15516 688.112 1.17738C688.663 1.22624 687.691 1.36395 688.054 1.39504C689.432 1.24401 694.729 1.29731 696.471 1.13295C695.89 1.17293 695.861 1.26178 696.064 1.2751L697.225 1.15072C698.546 1.17738 698.749 1.1907 698.531 1.26178C702.508 1.24845 697.254 1.06188 701.971 1.11074C701.608 1.12407 701.782 1.1374 701.013 1.16405C705.758 1.16849 710.156 1.01746 714.524 1.03522C715.815 1.1907 710.721 1.1063 712.202 1.23512C718.471 1.15516 725.176 0.933054 731.256 0.928611L730.124 0.919727C730.951 0.675405 734.652 1.00413 737.714 0.884189C736.959 0.9064 736.742 1.01746 736.945 0.990802C741.11 1.01301 745.449 0.897516 751.747 0.799787L750.964 0.861978C753.416 0.9064 757.421 0.86642 760.077 0.884189C760.861 0.821998 762.37 0.82644 761.456 0.742038C769.641 1.05299 777.027 0.497717 784.283 0.755365C783.413 0.755365 782.223 0.817556 782.905 0.813114L789.072 0.733154C788.579 0.630983 788.26 0.675405 786.954 0.599888C787.737 0.537697 789.479 0.479948 791.003 0.475506C788.231 0.555466 791.032 0.639868 792.236 0.693174C792.033 0.662079 792.439 0.626541 792.338 0.595445C795.574 0.76425 792.875 0.386661 797.272 0.493275L797.04 0.546581C798.679 0.511043 800.203 0.435526 801.974 0.44441C802.714 0.559908 800.218 0.506601 800.116 0.60433C802.612 0.586561 805.036 0.360008 807.3 0.471064C806.24 0.506601 804.716 0.515486 803.657 0.551023C806.124 0.679847 806.4 0.64431 808.228 0.657636H808.054L812.277 0.702059L811.203 0.666521C814.309 0.346682 817.56 0.586561 821.754 0.36445C817.676 0.573234 821.086 0.479948 820.767 0.613214C821.841 0.64431 823.481 0.679847 823.016 0.719827C825.004 0.60433 826.34 0.790903 829.14 0.622099C829.271 0.666521 831.274 0.622099 830.824 0.728712C833.407 0.68429 830.214 0.657636 830.432 0.599888C834.408 0.435526 839.807 0.742038 845.525 0.515486C850.459 0.413315 851.373 0.257837 855.959 0.177878C857.497 0.248953 854.696 0.333355 854.696 0.333355C857.192 0.395546 859.05 0.395546 861.401 0.368893C860.922 0.399988 861.401 0.439968 862.112 0.497717C863.998 0.511043 863.389 0.355566 865.871 0.453295C865.435 0.493275 864.884 0.56435 863.969 0.599888C866.19 0.591003 868.396 0.546581 870.703 0.551023C871.298 0.635425 869.295 0.639868 868.468 0.675405C871.051 0.68429 875.187 0.72427 876 0.617657L874.346 0.546581C875.289 0.555466 874.81 0.657636 874.113 0.666521C871.879 0.719827 870.921 0.568792 870.805 0.52437H872.444C870.805 0.244511 865.856 0.44441 862.562 0.391104L863.969 0.2223L860.574 0.337797C859.862 0.284491 859.369 0.173435 861.009 0.164551C858.644 0.0534956 858.905 0.213415 856.873 0.10236C856.655 0.0845911 856.757 0.0757067 856.96 0.0712644L854.638 0.124571C855.088 0.0845911 854.246 -0.00869538 855.683 0.0224001C851.518 -0.0753286 848.993 0.186762 847.426 0.0490534L847.774 0.0357267C842.013 0.120129 847.222 0.173435 842.898 0.351124L839.981 0.0268423L839.415 0.164551C838.82 0.164551 837.644 0.155666 837.862 0.10236C835.656 0.204531 838.24 0.160109 836.962 0.253395C834.104 0.14234 829.068 0.342239 828.429 0.129013C827.399 0.235626 831.172 0.195646 828.11 0.280048C827.239 0.0490534 824.584 0.333355 821.957 0.235626C822.755 0.111244 825.237 0.164551 822.61 0.0712644C821.043 0.280048 817.516 0.0490534 815.31 0.0934755C815.209 0.253395 810.521 0.177878 806.821 0.248953C807.053 0.195646 799.855 0.186762 796.416 0.14234L796.517 0.115687C795.864 0.280048 792.309 0.266722 789.725 0.306702C789.827 0.208973 790.291 0.168993 791.685 0.120129L789.261 0.129013C788.695 0.18232 787.926 0.213415 786.359 0.240069L786.968 0.115687C783.732 0.133455 780.467 0.284491 776.302 0.217857C776.07 0.333355 779.625 0.519928 775.228 0.613214C775.068 0.551023 774.894 0.448852 776.041 0.417757C775.663 0.426641 774.705 0.475506 773.936 0.448852L775.692 0.337797C773.791 0.297817 774.705 0.426641 773.196 0.426641C773.225 0.337797 772.064 0.368893 772.282 0.297817C772.674 0.288933 773.603 0.328913 774.183 0.293375C772.471 0.284491 770.41 0.240068 769.713 0.177878C769.858 0.226742 769.713 0.297817 768.465 0.311144C765.229 0.328913 767.348 0.208973 765.461 0.173435C764.678 0.235626 762.617 0.18232 762.573 0.315586C761.63 0.315586 761.441 0.257837 761.078 0.2223C759.41 0.284491 753.257 0.271164 755.158 0.399988L755.593 0.408873C755.506 0.408873 755.419 0.408873 755.317 0.417757C749.846 0.568792 743.911 0.386662 738.469 0.466621V0.422199C735.232 0.479948 731.242 0.48439 728.934 0.595445C727.976 0.60433 726.656 0.533255 727.062 0.475506C724.581 0.52437 724.305 0.577677 720.706 0.533255C723.202 0.435526 719.835 0.471063 723.26 0.457737C720.024 0.44441 719.298 0.382219 715.844 0.528812C717.02 0.408873 713.406 0.40443 711.868 0.453295L714.132 0.515486C712.405 0.546581 710.896 0.546581 709.372 0.551023L710.185 0.395546C703.567 0.271164 698.299 0.799787 693.249 0.546581C691.508 0.666521 696.848 0.586561 695.295 0.719827C692.262 0.728712 689.069 0.542139 688.112 0.551023C683.947 0.506601 684.251 0.804229 679.898 0.790903C680.464 0.839767 681.001 0.973033 677.75 1.05299C674.702 1.06632 673.991 0.870863 675.907 0.808672C676.633 0.795345 676.995 0.808672 676.966 0.826441C677.953 0.795345 679.23 0.76425 678.026 0.715385L677.634 0.773134C676.125 0.733154 671.945 0.782018 672.917 0.68429C670.625 0.759807 671.945 0.782018 673.643 0.790903C669.739 0.755365 667.548 0.848652 663.528 0.844209C664.167 0.86642 664.762 0.924169 664.123 0.928611C658.231 0.928611 661.54 1.05744 657.564 1.12407C655.285 1.07076 658.347 0.924169 654.342 1.03522C651.889 1.00857 653.805 0.901958 654.777 0.848652C651.135 0.990802 647.942 0.857536 645.838 0.86642L647.753 0.799787C646.607 0.839767 645.664 0.848652 644.706 0.857536L645.823 0.950822C644.691 0.94638 643.734 0.955265 643.748 0.910842C642.587 0.995245 644.662 1.0752 642.355 1.19514C640.846 1.15961 637.769 1.31064 637.232 1.17293C641.978 1.16405 636.695 1.03967 640.701 0.968591C639.931 0.995244 638.988 1.00413 637.842 0.999687C637.668 0.98636 638.001 0.968591 638.306 0.955265C633.749 0.884189 636.245 1.1374 631.543 1.19514C632.124 1.11074 630.426 1.05744 629.671 1.08409C631.572 1.06188 630.6 1.20403 628.859 1.28843C625.84 1.26622 625.593 1.37727 624.012 1.3906H625.811C625.216 1.48389 623.707 1.49277 621.603 1.54608C621.414 1.48833 623.504 1.47945 622.749 1.46168C620.442 1.63048 617.452 1.3906 614.216 1.52387C612.707 1.49277 614.042 1.37727 612.721 1.35951C609.093 1.51054 608.759 1.3062 604.928 1.44391C606.046 1.53275 606.234 1.5061 603.55 1.64825L609.833 1.48389L605.813 1.69267C607.715 1.66602 609.819 1.56829 610.965 1.57273C609.05 1.68379 609.253 1.65713 610.167 1.73265C607.54 1.60827 605.03 1.89701 601.997 1.83482L602.055 1.57273C597.513 1.51943 594.044 1.82594 588.167 1.84815L590.068 1.86592C589.299 1.98142 586.44 1.93699 584.553 2.00363C584.713 1.91478 583.523 1.89701 582.71 1.85703C582.812 1.91922 578.415 1.91478 577.907 2.09691L575.265 2.01695C570.52 2.03472 569.896 2.33679 565.339 2.36345C566.703 2.25239 564.628 2.21241 567.661 2.11024C566.137 2.12801 564.773 2.12801 564.759 2.1902C563.859 2.14578 560.55 2.35456 559.142 2.28793C558.504 2.33235 558.301 2.42564 556.603 2.43896C556.414 2.42119 556.603 2.39454 556.603 2.39454C556.603 2.43896 553.933 2.48339 555.442 2.56335C550.725 2.34123 542.337 2.71438 538.23 2.51448C534.907 2.57223 530.916 2.63442 527.898 2.66552C528.087 2.63886 527.898 2.62109 528.478 2.62554C524.313 2.57667 525.939 2.90095 521.193 2.8432C518.77 2.71882 523.704 2.74548 522.195 2.7055C521.513 2.42119 516.491 2.7899 513.284 2.64775L514.053 2.62554C511.615 2.54558 508.118 2.78101 504.142 2.7899C504.142 2.7899 504.33 2.76324 504.156 2.74548C501.442 2.91428 496.305 3.00312 492.474 3.0742C493.649 2.94982 494.201 2.99868 493.475 2.89207C491.763 2.92316 493.998 3.06976 490.573 3.13195C489.455 3.07864 486.974 3.04755 486.64 2.92761L489.876 2.89651C488.207 2.74992 485.697 2.93649 483.984 2.92316L484.202 2.85209C479.253 2.91872 479.195 3.09197 473.869 3.12751L474.421 3.17637C471.533 3.37627 471.968 3.10085 469.08 3.25633L468.181 3.08753C466.265 3.14972 461.476 3.32296 458.037 3.39404C459.967 3.243 463.987 3.13639 466.468 3.03422C464.567 3.05199 460.01 3.10974 459.023 3.20747C459.793 3.18081 460.75 3.12751 461.505 3.14972C459.183 3.30964 456.121 3.41181 452.333 3.44735C452.972 3.10085 442.451 3.46511 439.664 3.22968C432.974 3.42513 426.357 3.31408 418.564 3.41181C421.364 3.65169 416.285 3.4429 416.793 3.70944C414.979 3.74497 414.283 3.74497 414.123 3.73165L408.594 3.62059C407.273 3.55396 410.321 3.54507 410.147 3.48733C406.17 3.50065 408.463 3.3896 405.822 3.34073C406.373 3.43402 404.458 3.49177 402.179 3.474L405.387 3.57173C399.828 3.76274 400.554 3.38515 394.967 3.57173L396.737 3.474C393.864 3.54952 386.129 3.55396 383.314 3.7894C382.806 3.76274 382.124 3.69167 383.386 3.66501C376.507 3.67834 368.09 3.98485 362.735 3.86936L363.258 3.80272C361.981 3.82493 361.023 3.93599 359.427 3.8738C359.514 3.84714 359.935 3.80716 359.354 3.80272C358.672 3.82938 355.944 3.9271 354.246 3.89157L355.697 3.81161C348.992 3.74053 345.408 4.00706 339.777 4.05149C339.792 3.85603 334.509 3.7894 331.883 3.74942L331.97 3.72276C324.162 3.68278 318.691 3.85159 311.45 3.90045C306.965 3.6739 296.226 3.75386 289.014 3.60727C290.117 3.64725 288.825 3.7583 287.548 3.77607C285.85 3.73165 282.861 3.89601 283.137 3.71832H283.746C282.469 3.54507 278.986 3.58061 276.272 3.56729L275.822 3.80272C268.711 3.43846 257.174 3.90045 253.285 3.59838C251.573 3.65613 249.439 3.66501 247.741 3.72276L247.829 3.59838C243.069 3.57617 240.674 3.57173 234.797 3.62503L235.987 3.53175C232.678 3.53619 231.822 3.91378 228.76 3.93155L227.831 3.74942C222.04 3.77607 216.192 3.62948 210.474 3.81605C210.561 3.7894 210.736 3.73165 211.679 3.72276C208.951 3.72276 201.143 3.62503 202.144 3.87824C202.072 3.71388 196.18 3.87824 193.06 3.95376L193.539 3.82938C190.897 3.99374 190.825 4.03372 187.139 4.08258C186.268 4.06926 186.37 3.98485 187.531 4.01595C184.628 3.95376 185.267 4.13589 181.74 4.0737L183.046 3.99374C180.057 3.9893 180.289 4.02928 178.649 4.12256C176.763 4.17143 172.975 4.09591 172.525 3.98485C172.119 4.05149 170.479 4.14477 168.723 4.11368C168.491 4.06926 169.129 4.04704 169.449 4.03372C164.442 3.94932 162.004 4.17587 158.564 4.05149C158.492 4.01151 158.274 3.9893 157.984 3.97597C161.96 3.98485 165.153 3.9893 164.863 3.99818C164.863 3.88268 161.656 3.86491 164.21 3.70499C161.627 3.7894 157.229 3.97153 154.095 3.91822C153.95 3.90489 153.79 3.89601 153.688 3.87824L154.008 3.86491C153.282 3.85159 152.644 3.86491 152.034 3.87824C151.033 3.85603 150.409 3.8427 149.436 3.83826C149.074 3.74497 145.75 3.78051 144.154 3.77163C144.285 3.89601 142.195 3.8738 144.154 3.98041C143.893 3.97153 144.459 3.96708 145.518 3.96264C145.765 3.96264 146.041 3.9582 146.2 3.94932C146.171 3.94932 146.128 3.9582 146.084 3.9582C147.129 3.9582 148.508 3.9582 150.06 3.9582C148.798 4.02039 147.477 4.06926 145.707 3.99818C144.88 4.07814 143.98 4.1581 143.472 4.19364C141.281 4.01595 137.072 3.90934 136.477 3.80272C131.586 3.85603 124.969 3.81161 121.878 4.02928C120.485 4.05149 120.282 3.95376 119.759 3.91822C120.557 3.89601 121.515 3.90489 121.95 3.8738C119.164 3.92266 113.722 3.86047 113.04 4.02039C109.543 3.9271 115.014 3.87824 110.21 3.88268L110.863 3.83382C101.416 3.51842 95.4513 4.1581 84.9735 3.74053C85.6992 3.76719 86.062 3.78051 86.2071 3.80716C74.2491 3.56284 61.5365 3.74497 49.7236 3.48288C46.3568 3.42958 45.994 3.53175 43.9478 3.61171L43.2222 3.47844L39.7103 3.63392C34.7471 3.75386 31.0901 3.32296 24.7918 3.58061L25.6045 3.66501C23.3406 3.66501 18.4645 3.74942 18.8273 3.6428C18.5951 3.66057 18.0872 3.74053 17.202 3.69611L17.1294 3.62503L11.5858 3.76718C7.29019 3.73609 12.2533 3.48733 5.9841 3.49621C3.66216 3.53175 -0.64794 3.72721 0.222787 3.77163C1.16607 3.77163 2.6318 3.80716 2.68985 3.8738L0.556566 3.91822C0.164739 4.127 -1.48964 4.34467 3.76374 4.46905L7.4208 4.3269L8.59628 4.42019L5.51971 4.43796C7.26116 4.5268 8.3786 4.43796 9.61213 4.37577C9.90237 4.42907 10.4248 4.46461 11.1504 4.47794L14.7349 4.26471C15.1703 4.34467 13.1241 4.43352 15.5476 4.46461C17.231 4.36688 13.9222 4.29137 16.7086 4.22029C18.4645 4.30913 17.9566 4.38465 20.0028 4.29581C20.293 4.34911 19.8577 4.38465 19.045 4.41131C20.8735 4.34023 23.8775 4.36244 24.8208 4.25139C26.6494 4.35356 30.9595 4.18031 30.7998 4.38021C31.3658 4.33135 33.9925 4.21141 35.6759 4.19808C32.6283 4.43796 41.9306 4.19808 41.1324 4.45573C43.3963 4.2425 49.3028 4.36688 53.3081 4.26471C53.0904 4.28248 52.6405 4.31358 52.2923 4.30025C54.5416 4.3269 55.1947 4.39354 56.6459 4.43796C56.9506 4.26471 60.4626 4.2425 62.3637 4.14922C65.121 4.33579 60.6658 4.34467 61.5365 4.50903C61.4059 4.36688 66.3545 4.39798 65.4112 4.2736C67.5155 4.39354 67.2252 4.33579 68.3136 4.48682C68.7055 4.26916 70.2873 4.46461 72.0578 4.34467C75.1053 4.4735 72.8269 4.55346 76.1937 4.51348C77.7901 4.59344 74.786 4.64674 74.786 4.64674L74.8006 4.66895ZM154.907 4.69116C154.211 4.69561 153.63 4.69561 153.253 4.70005C153.601 4.70005 154.08 4.70005 154.907 4.69116ZM161.641 4.69116C160.828 4.69116 159.798 4.68672 158.724 4.68228C158.492 4.63786 158.739 4.59344 159.421 4.59788C159.058 4.62453 160.64 4.65119 161.641 4.69116ZM147.419 3.80716C148.479 3.7894 148.841 3.81605 148.986 3.8427C148.479 3.8427 147.898 3.85159 147.129 3.85603C147.1 3.85603 147.042 3.86936 146.998 3.86936C147.1 3.84715 147.216 3.82493 147.419 3.80716Z" fill="white"/>
</svg>
