<svg viewBox="0 0 20 18" xmlns="http://www.w3.org/2000/svg">
<path d="M15.8863 9.77135L12.3 12.6396H7.48752V11.6771H11.4001C11.4871 11.6771 11.5726 11.6534 11.6472 11.6087C11.7219 11.5639 11.783 11.4997 11.8241 11.423C11.8652 11.3463 11.8847 11.2598 11.8805 11.1729C11.8764 11.0859 11.8487 11.0017 11.8005 10.9292L10.9458 9.64719C10.7705 9.38328 10.5325 9.16686 10.2533 9.01722C9.97397 8.86759 9.66199 8.78939 9.34515 8.7896H1.7125C1.45723 8.7896 1.21241 8.891 1.03191 9.07151C0.851406 9.25201 0.75 9.49683 0.75 9.7521V15.5271C0.75 16.0377 0.952812 16.5273 1.31382 16.8883C1.67483 17.2493 2.16446 17.4521 2.67501 17.4521H11.9526C12.3641 17.4522 12.771 17.3643 13.1458 17.1943C13.5206 17.0244 13.8548 16.7762 14.1259 16.4665L20.0001 9.7521L18.6025 9.28625C18.1453 9.13384 17.6571 9.09838 17.1827 9.18312C16.7082 9.26786 16.2625 9.47009 15.8863 9.77135ZM17.3609 4.35246C17.795 3.9049 18.0635 3.28601 18.0635 2.60263C18.0635 1.91925 17.795 1.30037 17.3609 0.852802C17.1413 0.623706 16.8778 0.441329 16.586 0.316619C16.2943 0.191909 15.9803 0.127438 15.663 0.127075C15.663 0.127075 14.4657 0.124188 13.2625 1.36485C12.0594 0.124188 10.8621 0.127075 10.8621 0.127075C10.5448 0.127479 10.231 0.191874 9.93925 0.316407C9.64752 0.44094 9.38391 0.62305 9.1642 0.85184C8.73011 1.30037 8.46157 1.91829 8.46157 2.60167C8.46157 3.28505 8.73011 3.9049 9.1642 4.3515L13.2625 8.7896L17.3609 4.35246Z" />
</svg>
