<?xml version="1.0" encoding="UTF-8"?><svg id="Layer_1" xmlns="http://www.w3.org/2000/svg" viewBox="0 0 800 800"><defs><style>.cls-1{fill:#27868e;}</style></defs><path class="cls-1" d="m203.6,666.67h-70.27c-18.41,0-33.33,14.92-33.33,33.33s14.92,33.33,33.33,33.33h533.33c18.41,0,33.33-14.92,33.33-33.33s-14.92-33.33-33.33-33.33h-70.27c-8.23-92.47-35.7-253.67-127.53-300,85.47-47.43,115.1-160.33,125.47-233.33h72.33c18.41,0,33.33-14.92,33.33-33.33s-14.92-33.33-33.33-33.33H133.33c-18.41,0-33.33,14.92-33.33,33.33s14.92,33.33,33.33,33.33h72.33c10.37,73,40,185.9,125.47,233.33-91.83,46.33-119.3,207.53-127.53,300Zm96.4-113.33c0-40,100-120,100-120,0,0,100,80,100,120v113.33h-200v-113.33Z"/></svg>