<svg xmlns="http://www.w3.org/2000/svg" viewBox="0 0 16 16">
  <path d="M8,9.2A1.2,1.2,0,1,0,6.8,8,1.2,1.2,0,0,0,8,9.2Zm6.66-3.3h-.88c-.11,0-.19-.09-.24-.21a.42.42,0,0,1,0-.15.42.42,0,0,1,0-.15l.65-.59a1.27,1.27,0,0,0,.4-.94,1.3,1.3,0,0,0-.1-.52,1.43,1.43,0,0,0-.3-.44L13.12,1.81a1.13,1.13,0,0,0-.43-.29,1.35,1.35,0,0,0-.52-.11,1.3,1.3,0,0,0-.51.11,1.25,1.25,0,0,0-.44.29l-.61.59a.34.34,0,0,1-.17.05.33.33,0,0,1-.16-.05.27.27,0,0,1-.12-.09.35.35,0,0,1-.06-.14V1.34A1.3,1.3,0,0,0,9.72.41,1.33,1.33,0,0,0,8.8,0H7.25a1.38,1.38,0,0,0-1,.39,1.36,1.36,0,0,0-.39,1v.88c0,.11-.09.19-.21.24a.42.42,0,0,1-.15,0,.42.42,0,0,1-.15,0L4.8,1.81a1.35,1.35,0,0,0-.95-.4,1.25,1.25,0,0,0-.51.1,1.32,1.32,0,0,0-.44.3L1.81,2.88a1.23,1.23,0,0,0-.3.44,1.28,1.28,0,0,0,0,1,1.23,1.23,0,0,0,.3.44l.59.59a.34.34,0,0,1,.05.17.33.33,0,0,1-.05.16.27.27,0,0,1-.09.12.35.35,0,0,1-.14.06H1.34a1.37,1.37,0,0,0-.95.39,1.34,1.34,0,0,0-.39,1V8.75a1.38,1.38,0,0,0,.39,1,1.36,1.36,0,0,0,1,.39h.88c.11,0,.19.09.24.21a.3.3,0,0,1,0,.3l-.65.59a1.35,1.35,0,0,0-.4,1,1.3,1.3,0,0,0,.1.52,1.28,1.28,0,0,0,.3.43l1.07,1.09a1.13,1.13,0,0,0,.43.29,1.35,1.35,0,0,0,.52.11,1.3,1.3,0,0,0,.51-.11,1.25,1.25,0,0,0,.44-.29l.61-.59a.34.34,0,0,1,.17,0,.33.33,0,0,1,.16,0,.27.27,0,0,1,.12.09.35.35,0,0,1,.06.14v.87a1.33,1.33,0,0,0,.41.92,1.3,1.3,0,0,0,.93.38H8.75a1.33,1.33,0,0,0,1.35-1.34v-.88c0-.11.09-.19.21-.24a.3.3,0,0,1,.3,0l.61.62a1.35,1.35,0,0,0,.95.4,1.49,1.49,0,0,0,.51-.1,1.28,1.28,0,0,0,.43-.3l1.07-1.07a1.32,1.32,0,0,0,.3-.44,1.35,1.35,0,0,0,0-1,1.32,1.32,0,0,0-.3-.44l-.58-.58a.3.3,0,0,1,0-.3.27.27,0,0,1,.09-.12.24.24,0,0,1,.14,0h.87a1.37,1.37,0,0,0,.92-.41A1.34,1.34,0,0,0,16,8.8V7.25A1.33,1.33,0,0,0,14.66,5.9ZM8,10.8a2.8,2.8,0,0,1-1.56-.47A2.81,2.81,0,0,1,5.25,7.45a2.83,2.83,0,0,1,2.2-2.2,2.81,2.81,0,0,1,2.88,1.19A2.8,2.8,0,0,1,8,10.8Z" />
</svg>
