<svg xmlns="http://www.w3.org/2000/svg" viewBox="0 0 16 16">
  <path d="M11.53,1.1A6.07,6.07,0,0,0,7.82,0,5.11,5.11,0,0,0,5,.77a4.8,4.8,0,0,0-2,4.1H5.85a3,3,0,0,1,.48-1.62A1.74,1.74,0,0,1,8,2.47a1.8,1.8,0,0,1,1.59.63A2.38,2.38,0,0,1,10,4.51,2.19,2.19,0,0,1,9.5,5.74a2.5,2.5,0,0,1-.57.6A13,13,0,0,0,6.71,8.18a3.75,3.75,0,0,0-.47,2.21c0,.07,0,.23.28.23H8.73A.25.25,0,0,0,9,10.37a3.28,3.28,0,0,1,.12-.78A2.43,2.43,0,0,1,10,8.53L10.75,8a8.81,8.81,0,0,0,1.52-1.4A3.76,3.76,0,0,0,13,4.35,3.79,3.79,0,0,0,11.53,1.1ZM7.78,12.38A1.74,1.74,0,0,0,6,14.15,1.73,1.73,0,0,0,7.68,16a1.71,1.71,0,0,0,1.84-1.75A1.74,1.74,0,0,0,7.78,12.38Z"/>
</svg>
