<svg class="quickAccessBtn__icon" xmlns="http://www.w3.org/2000/svg" viewBox="0 0 111.52 111.57">
  <path class="quickAccessBtn__iconBg" d="M67.29,17.7C51.15,10,27.1,24,20.62,39.65c-2.49,8.16-5.14,17.23-2.45,25.69.69,2.52,2.47,9.44,3.9,11.6,1.17,2,6.84,7.21,8.55,8.85,3.69,3.41,8.87,4.34,13.34,6.34,21.12,7.11,47.74-7.66,51.43-29.94C99.27,43,86.37,22.24,67.29,17.7Z" style="fill: #cdcac8;stroke: #fff"/>
  <path class="quickAccessBtn__iconText" d="M64.14,3.05h0L61.19,9.09,60.05,9,58.43,2.48h0l-.21,3.74L58,7.56l.89.27-.1,1-3.52-.36.11-1,.92-.09L57,1.29,56.07,1l.11-1,.9.09L59.3.32,60.83,6.8h0l2.82-6,3.14.32-.11,1-.92.09-.63,6.09.89.26-.1,1-3.52-.36.11-1,.92-.09.14-1.33ZM67.31,9l.61.11,4.83-6.19,1.66.56.07,7.85.55.28-.33,1L72,11.62l.32-1,.6.09,0-1.23-2.62-.89-.73,1,.53.29-.33,1L67,9.94Zm3.75-1.41,1.85.63L73,5h0Zm12.47.12a3.32,3.32,0,0,1,1.63,1.79,2.48,2.48,0,0,1-.23,2.13,2.48,2.48,0,0,1-1.71,1.3,3.39,3.39,0,0,1-2.37-.49l-1.26-.71-.93,1.65.71.6-.51.89L75.79,13.1l.5-.89.88.29,3-5.33-.71-.6L80,5.68l.79.44Zm-3.29,2.87,1.26.71a1.41,1.41,0,0,0,1.13.2,1.43,1.43,0,0,0,.81-.69,1.45,1.45,0,0,0,.18-1.06,1.41,1.41,0,0,0-.74-.89l-1.26-.71ZM94.66,22.26a5,5,0,0,1-1.72,1.15,3.88,3.88,0,0,1-1.85.28l.49,2.08-1.52-.19-.47-2.42-.38-.27c-.12-.1-.24-.2-.35-.31a3.52,3.52,0,0,1-1.11-2.84,4.54,4.54,0,0,1,1.43-2.94l.1-.09a4.53,4.53,0,0,1,2.93-1.44,3.5,3.5,0,0,1,2.85,1.09,3.56,3.56,0,0,1,1.11,2.86,4.52,4.52,0,0,1-1.42,3ZM93.55,21A3.81,3.81,0,0,0,94.68,19a2,2,0,0,0-2.29-2.29,3.93,3.93,0,0,0-1.89,1.16l-.1.1a3.9,3.9,0,0,0-1.16,1.91,2,2,0,0,0,2.29,2.29,3.86,3.86,0,0,0,1.92-1.15Zm8,3.4-.86.57-.65-.66-3.71,2.47a1.67,1.67,0,0,0-.8,1.08,2.09,2.09,0,0,0,1.39,2.08,1.61,1.61,0,0,0,1.31-.32l3.7-2.47-.35-.85.85-.57,2,2.93-.85.58-.66-.67L99.19,31a2.7,2.7,0,0,1-2.37.43,3.68,3.68,0,0,1-2-1.63,3.72,3.72,0,0,1-.73-2.48,2.74,2.74,0,0,1,1.32-2l3.71-2.47L98.74,22l.86-.57.5.76,1,1.42Zm3,7,.93-.43L107,34.18l-.94.43-.54-.75-5.56,2.56.22.9-.93.43-1.48-3.21.93-.43.55.76,5.56-2.56Zm2.66,12.75-.35-1.22,1-.49a1.78,1.78,0,0,0,.2-.72,2.33,2.33,0,0,0-.11-.91,2,2,0,0,0-1.26-1.42,3.42,3.42,0,0,0-2.19,0l-.28.08a3.44,3.44,0,0,0-1.87,1.17,2,2,0,0,0-.31,1.84,2.91,2.91,0,0,0,.4.85,1.51,1.51,0,0,0,.57.51l1.14-.15.35,1.22-1.62.47a3.58,3.58,0,0,1-1.28-1,4.19,4.19,0,0,1-.84-1.61,3.7,3.7,0,0,1,.35-3,4.34,4.34,0,0,1,2.63-1.9l.27-.08a4.32,4.32,0,0,1,3.24.19,3.6,3.6,0,0,1,1.93,2.37,4.25,4.25,0,0,1,.16,1.82,3.74,3.74,0,0,1-.55,1.53Zm-4,2.89.27.89,6.12-.61.08-.93,1-.1.34,3.48-1,.11-.26-.85-2.28.22.08.75,2.54,1.4,0-.51,1-.1.33,3.38-1,.1-.25-.91-3-1.82-3.13,2.7-.06.87-1,.1-.34-3.38,1-.1.12.52,2.3-1.89-.09-1-2.36.24-.09.88-1,.11-.35-3.49Zm.52,13.27,0,.61,6.84,3.87-.31,1.72-7.75,1.23-.2.59-1-.18.52-2.87,1,.19v.6L104,65.9l.49-2.72-1.09-.57-.2.56-1-.18.51-2.86Zm2,3.49-.34,1.93,3.12-.42v0Zm-1.77,13.74.44-1.19,1.13.23a1.73,1.73,0,0,0,.6-.46,2.54,2.54,0,0,0,.45-.8,2,2,0,0,0-.15-1.9,3.54,3.54,0,0,0-1.78-1.3l-.28-.1a3.56,3.56,0,0,0-2.2-.18,2,2,0,0,0-1.35,1.3,2.85,2.85,0,0,0-.19.92,1.55,1.55,0,0,0,.15.75l1,.56-.45,1.2L99.73,76a3.72,3.72,0,0,1-.44-1.58,4.3,4.3,0,0,1,.29-1.8,3.67,3.67,0,0,1,2.11-2.23,4.35,4.35,0,0,1,3.25,0l.27.1a4.39,4.39,0,0,1,2.49,2.09,3.65,3.65,0,0,1,.13,3.07,4.25,4.25,0,0,1-1,1.55,3.74,3.74,0,0,1-1.36.91Zm-4.74,8.22.65-1.09,1.07.43a1.85,1.85,0,0,0,.67-.34,2.63,2.63,0,0,0,.59-.7,2,2,0,0,0,.18-1.89,3.41,3.41,0,0,0-1.5-1.6l-.25-.15a3.49,3.49,0,0,0-2.13-.57,2,2,0,0,0-1.56,1,2.89,2.89,0,0,0-.35.87,1.49,1.49,0,0,0,0,.76l.88.74-.65,1.09-1.45-.87a3.78,3.78,0,0,1-.14-1.62,4.37,4.37,0,0,1,.62-1.72,3.66,3.66,0,0,1,2.46-1.8,4.43,4.43,0,0,1,3.19.63l.24.15a4.37,4.37,0,0,1,2.06,2.51,3.64,3.64,0,0,1-.42,3A4.31,4.31,0,0,1,102.13,86a3.81,3.81,0,0,1-1.5.65Zm-6.53,4.86,1.9-2.16-1.82-1.61-1.82,2.06.71.73-.86,1L89,89.08,93.48,84l.77.67-.47.8,4.59,4,.74-.56.77.68-.6.68L95.43,94.7l-1.75-1.54.86-1,.82.62,1.8-2.05-1.61-1.41-1.9,2.16Zm-6.14,8.26,1-.8.91.77a2.19,2.19,0,0,0,.66-.22,3.62,3.62,0,0,0,.78-.49,1.78,1.78,0,0,0,.66-.92.92.92,0,0,0-.19-.83.83.83,0,0,0-.76-.31,6,6,0,0,0-1.45.42,5.37,5.37,0,0,1-2.32.54,2.18,2.18,0,0,1-1.64-.86,2,2,0,0,1-.41-1.9,3.83,3.83,0,0,1,1.38-1.93,4.76,4.76,0,0,1,1.64-.9,3.81,3.81,0,0,1,1.62-.17l1.12,1.39-1,.84-.91-.83a2.12,2.12,0,0,0-.76.16,3.4,3.4,0,0,0-.86.52,1.68,1.68,0,0,0-.65.9.93.93,0,0,0,.19.83,1,1,0,0,0,.78.39,3.48,3.48,0,0,0,1.3-.33A7.06,7.06,0,0,1,90,94.52a2,2,0,0,1,1.65.8,2,2,0,0,1,.38,1.87,3.65,3.65,0,0,1-1.3,1.93,5.13,5.13,0,0,1-1.58.89,4.21,4.21,0,0,1-1.56.24Zm-7.72,4.53,1.12-.63.77.92a2.19,2.19,0,0,0,.68-.11,3.25,3.25,0,0,0,.85-.35,1.69,1.69,0,0,0,.8-.79.91.91,0,0,0,0-.85.84.84,0,0,0-.7-.43,5.63,5.63,0,0,0-1.49.17,5.4,5.4,0,0,1-2.38.14A2.16,2.16,0,0,1,77,100.36a2,2,0,0,1-.09-1.93,3.81,3.81,0,0,1,1.68-1.67,5,5,0,0,1,1.76-.62,3.78,3.78,0,0,1,1.62.11l.87,1.56-1.15.65-.76-1a2.11,2.11,0,0,0-.78,0,3.53,3.53,0,0,0-.93.37,1.65,1.65,0,0,0-.78.77.89.89,0,0,0,0,.85,1,1,0,0,0,.69.52,3.57,3.57,0,0,0,1.34-.11A6.84,6.84,0,0,1,83,99.71a2,2,0,0,1,1.49,1.06,2,2,0,0,1,.06,1.91,3.63,3.63,0,0,1-1.59,1.67,5.14,5.14,0,0,1-1.71.62,4.16,4.16,0,0,1-1.58,0Zm-31.42,5.11h0l2.92-6,1.14.12,1.62,6.49h0l.22-3.75.13-1.33-.89-.27.11-1,3.51.36-.1,1-.92.08-.63,6.09.89.27-.11,1-.9-.09-2.22-.23-1.52-6.48h0l-2.82,6-3.13-.32.1-1,.93-.08.62-6.09-.89-.27.1-1,3.52.36-.11,1-.92.08-.13,1.34Zm-3.17-5.93-.6-.12-4.84,6.2-1.66-.56-.06-7.86L36.5,100l.33-1,2.75.94-.33,1-.6-.09,0,1.23,2.62.88.73-1-.52-.29.33-1,2.75.94ZM40.47,104l-1.86-.63,0,3.16h0ZM28,103.89a3.34,3.34,0,0,1-1.64-1.79,2.51,2.51,0,0,1,.23-2.14,2.47,2.47,0,0,1,1.71-1.29,3.41,3.41,0,0,1,2.38.49l1.25.71.93-1.65-.71-.6.51-.89,3.07,1.74-.5.89-.88-.29-3,5.32.7.6-.51.9-.79-.45ZM31.28,101,30,100.31a1.42,1.42,0,0,0-1.13-.2,1.37,1.37,0,0,0-.81.69,1.36,1.36,0,0,0-.18,1.06,1.34,1.34,0,0,0,.74.88l1.25.71ZM16.86,89.3a5.13,5.13,0,0,1,1.72-1.16,4,4,0,0,1,1.85-.27L20,85.79l1.51.19.48,2.42c.13.08.25.18.38.27l.34.3a3.54,3.54,0,0,1,1.12,2.84,4.62,4.62,0,0,1-1.44,3l-.09.09a4.57,4.57,0,0,1-2.94,1.44,3.48,3.48,0,0,1-2.84-1.1,3.53,3.53,0,0,1-1.12-2.85,4.5,4.5,0,0,1,1.42-3ZM18,90.6a3.86,3.86,0,0,0-1.13,1.91,1.84,1.84,0,0,0,.57,1.74,1.77,1.77,0,0,0,1.72.55A3.85,3.85,0,0,0,21,93.65l.1-.1a3.9,3.9,0,0,0,1.15-1.92,1.75,1.75,0,0,0-.56-1.71A1.83,1.83,0,0,0,20,89.35a3.86,3.86,0,0,0-1.92,1.15ZM10,87.14l.86-.57.65.66,3.69-2.45a1.64,1.64,0,0,0,.81-1.07,1.79,1.79,0,0,0-.34-1.26,1.82,1.82,0,0,0-1-.82,1.63,1.63,0,0,0-1.3.32L9.67,84.4l.35.85-.85.56L7.22,82.88l.86-.56.65.66,3.69-2.45a2.69,2.69,0,0,1,2.36-.43,3.7,3.7,0,0,1,2,1.63,3.71,3.71,0,0,1,.72,2.48,2.71,2.71,0,0,1-1.32,2l-3.7,2.45.35.85-.85.57-.5-.75-.94-1.42ZM7,80.15,6,80.59,4.55,77.38l.94-.44L6,77.7l5.56-2.56-.22-.9.93-.43L13.78,77l-.93.43-.54-.76L6.74,79.25ZM4.29,67.43l.36,1.22-1,.49a1.83,1.83,0,0,0-.2.72,2.73,2.73,0,0,0,.11.91,2,2,0,0,0,1.27,1.42,3.42,3.42,0,0,0,2.19,0l.28-.08a3.48,3.48,0,0,0,1.86-1.17,2,2,0,0,0,.31-1.85,3,3,0,0,0-.4-.84,1.57,1.57,0,0,0-.57-.51l-1.14.15L7,66.64l1.62-.48a3.7,3.7,0,0,1,1.29,1,4.48,4.48,0,0,1,.84,1.61,3.67,3.67,0,0,1-.34,3,4.34,4.34,0,0,1-2.62,1.92l-.28.08a4.35,4.35,0,0,1-3.23-.18,3.66,3.66,0,0,1-1.95-2.36,4.43,4.43,0,0,1-.16-1.82,3.77,3.77,0,0,1,.54-1.53Zm4-2.91L8,63.63l-6.13.61-.08.93-1,.1L.44,61.78l1-.1.26.85L4,62.3l-.07-.74-2.55-1.4,0,.51-1,.1L0,57.39l1-.1.25.91,3,1.81,3.14-2.69.06-.87,1-.1.34,3.38-1,.1-.13-.52L5.4,61.2l.09.95,2.37-.23L8,61l1-.1.35,3.49ZM7.77,51.25l0-.62L1,46.77,1.26,45,9,43.82l.19-.59,1,.18-.51,2.86-1-.18v-.6l-1.22.16L7,48.38,8.08,49l.21-.56,1,.18-.52,2.86Zm-1.95-3.5.35-1.92L3,46.24v0Zm1.84-13.7-.44,1.19L6.09,35a1.69,1.69,0,0,0-.6.45,2.54,2.54,0,0,0-.45.8,2,2,0,0,0,.15,1.89A3.51,3.51,0,0,0,7,39.45l.28.1a3.47,3.47,0,0,0,2.19.19,2,2,0,0,0,1.35-1.29,2.85,2.85,0,0,0,.19-.92,1.48,1.48,0,0,0-.15-.75l-1-.56L10.27,35l1.58.59a3.86,3.86,0,0,1,.43,1.57A4.48,4.48,0,0,1,12,39a3.62,3.62,0,0,1-2.1,2.21,4.35,4.35,0,0,1-3.25,0l-.27-.1A4.4,4.4,0,0,1,3.89,39a3.66,3.66,0,0,1-.13-3.06,4.22,4.22,0,0,1,1-1.54,3.64,3.64,0,0,1,1.35-.9Zm4.68-8.25-.66,1.09-1.06-.43a1.64,1.64,0,0,0-.67.34,2.46,2.46,0,0,0-.59.7,2,2,0,0,0-.19,1.89A3.49,3.49,0,0,0,10.67,31l.26.16a3.53,3.53,0,0,0,2.12.57,2,2,0,0,0,1.57-1,2.8,2.8,0,0,0,.34-.86,1.62,1.62,0,0,0,0-.76l-.89-.74.65-1.09,1.45.87a3.63,3.63,0,0,1,.14,1.62,4.25,4.25,0,0,1-.61,1.71,3.66,3.66,0,0,1-2.47,1.8,4.3,4.3,0,0,1-3.18-.63l-.25-.14A4.4,4.4,0,0,1,7.74,30a3.61,3.61,0,0,1,.43-3A4.24,4.24,0,0,1,9.4,25.57a3.9,3.9,0,0,1,1.49-.64Zm6.53-4.87L17,23.1l1.83,1.61,1.81-2.07-.71-.73.86-1,1.75,1.54L18,27.54l-.77-.68.47-.79-4.59-4-.73.56-.78-.68.6-.68,3.85-4.37,1.75,1.54-.86,1-.82-.61-1.8,2.05L16,22.23l1.91-2.17ZM25,12.73l-1,.81-.91-.77a2.23,2.23,0,0,0-.66.21,4.06,4.06,0,0,0-.78.49,1.82,1.82,0,0,0-.66.92.92.92,0,0,0,.19.83.83.83,0,0,0,.76.31,6,6,0,0,0,1.44-.42,5.37,5.37,0,0,1,2.32-.54,2.15,2.15,0,0,1,1.63.85,2,2,0,0,1,.42,1.89,3.79,3.79,0,0,1-1.38,1.93,4.92,4.92,0,0,1-1.63.91,3.74,3.74,0,0,1-1.61.16L22,18.93l1-.84.91.83a2.16,2.16,0,0,0,.76-.16,3.59,3.59,0,0,0,.86-.52,1.69,1.69,0,0,0,.64-.9.93.93,0,0,0-.19-.83,1,1,0,0,0-.77-.39,3.44,3.44,0,0,0-1.3.33,6.89,6.89,0,0,1-2.45.63,2,2,0,0,1-1.64-.79,2,2,0,0,1-.38-1.87,3.62,3.62,0,0,1,1.28-1.92,5.06,5.06,0,0,1,1.59-.89,3.94,3.94,0,0,1,1.55-.24Zm7.71-4.58-1.12.62-.76-.91a2.48,2.48,0,0,0-.69.1,3.61,3.61,0,0,0-.84.36,1.77,1.77,0,0,0-.81.79.91.91,0,0,0,0,.85.85.85,0,0,0,.7.43,5.74,5.74,0,0,0,1.5-.17,5.37,5.37,0,0,1,2.37-.14,2.15,2.15,0,0,1,1.47,1.12,2.06,2.06,0,0,1,.09,1.93A3.78,3.78,0,0,1,33,14.8a5,5,0,0,1-1.76.62,3.8,3.8,0,0,1-1.62-.12l-.87-1.55,1.16-.65.75,1a2.1,2.1,0,0,0,.78,0,3.53,3.53,0,0,0,.93-.37,1.73,1.73,0,0,0,.79-.77.92.92,0,0,0-.06-.85,1,1,0,0,0-.69-.52,3.38,3.38,0,0,0-1.34.11,7.06,7.06,0,0,1-2.51.21,2,2,0,0,1-1.49-1.06A2,2,0,0,1,27,8.88a3.64,3.64,0,0,1,1.59-1.67,5.3,5.3,0,0,1,1.71-.62,4.16,4.16,0,0,1,1.58,0Z" style="fill: #cdcac8"/>
  <path class="quickAccessBtn__iconOuter" d="M74.79,51.84,65,49.47l-.08,0h0l-2.62-.64c-.21-.85-.41-1.7-.62-2.55l0-.19h0C60,39.26,58.43,32.88,56.89,26.52H56.3L51.6,46v.07h0l0,.13c-.21.88-.43,1.76-.64,2.64l-2.55.62h0l-10,2.4-9.82,2.36v.54l9.81,2.36L48.2,59.5l.14,0h0l2.62.63h0l.62,2.56q2.43,10,4.81,19.78l.55-.09L61.64,63v0h0l.05-.19.63-2.62,2.53-.61h0l.13,0,9.79-2.36,9.79-2.36v-.56ZM56.5,56.53c-.46.08-1.11-.45-1.73-1-.26-.21-.52-.42-.78-.6v-.93c.26-.18.52-.41.77-.62.61-.52,1.25-1.06,1.72-1a3.23,3.23,0,0,1,2.09,2.06C58.58,55.15,57.3,56.41,56.5,56.53Z" style="fill: #161614"/>
  <path class="quickAccessBtn__iconInner" d="M64.88,59.41l-3.37-5,3.37-4.81.06-.08,5.87-8.6-.68-.62-8.58,5.83-.07,0-4.86,3.38-5-3.37-.08-.06-8.72-5.93-.54.7,5.89,8.65.05.07,3.37,4.68-3.37,5.16-.06.09-5.88,8.64.7.56,8.59-5.8,0,0,4.92-3.36,4.94,3.36.12.08c2.27,1.54,4.37,3,6.42,4.32l2,1.38.6-.68L64.94,59.5ZM54.77,55.58c-.26-.21-.52-.42-.78-.6v-.93c.26-.18.52-.41.77-.62.61-.52,1.25-1.06,1.72-1a3.23,3.23,0,0,1,2.09,2.06c0,.66-1.27,1.92-2.07,2C56,56.61,55.39,56.08,54.77,55.58Z" style="fill: #161614"/>
</svg>
