<svg viewBox="0 0 963 56" fill="none" preserveAspectRatio="none">
<path opacity="0.7" d="M958.997 5.61077C956.087 6.33821 953.112 6.91827 950.093 7.34688C944.105 7.92135 938.056 8.16955 932.032 8.58087C931.663 8.59992 931.306 8.67941 930.985 8.81348C930.664 8.94755 930.388 9.13277 930.178 9.35551C931.857 9.25083 933.561 9.20962 935.24 9.01435C937.302 8.78376 938.719 9.9286 938.309 10.8335C936.894 14.0733 940.266 13.1664 942.191 13.47C943.057 13.517 943.928 13.4856 944.783 13.3765L944.285 15.1872L951.694 13.9729L951.915 14.4898L936.821 18.7476C943.101 19.8044 948.523 18.4495 954.339 17.8022C951.049 20.3308 945.697 18.3884 942.665 21.6877L948.357 21.1397L948.356 21.339L940.823 22.9062L940.822 23.1689L947.883 23.1859L947.882 23.4939L941.116 24.1027C944.936 26.7571 949.288 23.9683 952.864 25.4173L937.022 27.5625L937.12 27.9342L954.966 28.8829L954.965 29.5895L947.559 29.5717L947.666 31.0667C943.381 31.9624 939.219 33.0032 934.971 33.8174C933.489 34.1128 931.811 33.8098 930.255 34.0145C928.28 34.2271 926.353 34.603 924.402 34.9063L924.289 35.5855C928.867 36.2668 933.431 37.4192 938.035 37.5118C943.515 37.6065 949.01 36.6866 954.529 36.3737C957.269 36.2172 960.046 36.4413 962.811 36.4841L962.981 37.7256C960.449 38.1182 957.943 38.5742 955.387 38.9032C949.472 39.6772 943.534 40.3967 937.125 41.1967L938.493 42.3776C936.993 44.9015 933.973 43.2727 931.183 43.4109L931.991 46.339C925.916 46.9766 919.779 47.8497 913.582 48.2334C898.867 49.1041 884.139 49.9746 869.4 50.5644C852.117 51.2929 834.835 51.9218 817.467 52.3513C808.135 52.5735 798.779 52.3064 789.435 52.284C748.727 52.2709 708.023 52.2699 667.323 52.281C644.117 52.2978 620.899 52.4415 597.681 52.4764C574.895 52.5002 552.105 52.4909 529.311 52.4483C519.437 52.4246 509.563 52.256 499.688 52.3772C489.023 52.4694 478.37 52.8243 467.704 52.9709C464.433 53.0174 461.151 52.62 457.831 52.6573C446.956 52.758 436.081 53.0581 425.194 53.1135C412.356 53.1824 399.507 53.0066 386.67 53.0845C382.202 53.0738 377.757 53.7516 373.301 53.7862C368.363 53.8197 363.353 53.4453 358.379 53.3066C355.91 53.2372 353.441 53.2947 350.8 53.2884L351.863 52.5934C351.576 52.5139 351.278 52.4585 350.975 52.4282C326.222 52.6406 301.469 52.8621 276.716 53.0926L236.722 53.4768C222.972 53.5978 209.221 53.6101 195.47 53.8308C177.51 54.132 159.561 54.6053 141.601 54.9608C136.873 55.0582 132.146 54.9381 127.431 55.0446C119.543 55.1797 111.655 55.3963 103.767 55.5676C102.506 55.6439 101.238 55.5012 100.065 55.1511L105.598 53.7602C88.5318 51.9799 72.0498 53.4895 55.5714 53.4953C55.3616 53.4948 55.0902 53.4397 54.9666 53.4938C51.1471 55.7766 46.8559 53.9635 42.819 54.2528C41.7599 54.4095 40.7283 54.6531 39.7437 54.9792C39.2744 55.1049 38.7429 55.4026 38.3358 55.3291C32.1667 54.2091 25.9922 55.3811 19.9182 55.8557C18.5735 55.9029 17.2263 55.8996 15.8819 55.846C18.2351 52.527 22.3565 53.0895 25.8633 52.5453C29.864 51.9389 33.877 51.3506 37.8409 50.6263C38.9029 50.4295 39.781 49.725 41.2144 49.049L34.4262 48.7791C34.9709 48.1372 35.4907 47.5406 36.0105 46.9711C34.7817 46.4986 33.4818 46.1336 32.1373 45.8838C30.9033 45.754 29.5076 46.1674 28.1993 46.128C27.2501 45.9635 26.3424 45.6892 25.5103 45.3153L21.089 46.3374L20.7816 45.8475L23.2531 44.6667L21.7112 44.2372L33.2216 41.5471L28.9775 40.7488L28.9043 40.35L35.0775 39.7216C31.2639 39.5132 26.7713 39.3212 22.3039 38.9753C21.5758 38.9192 20.2942 38.0646 20.3813 37.7568C21.2527 34.706 18.475 34.8443 15.8089 34.8288C15.3203 34.8359 14.8322 34.8043 14.3527 34.7347C17.7234 34.3261 19.2074 33.1248 17.67 30.811L22.0055 29.5894L21.8219 28.9458L7.77318 29.7546L7.63842 29.3466L15.3439 28.0062C15.4057 27.952 15.9131 27.4097 16.5814 26.6594L13.0017 26.7686L13.0025 26.4606C14.7683 26.1477 16.5586 25.8712 18.3123 25.4949C21.0045 24.9216 23.7091 24.3574 26.3399 23.6389C27.1181 23.4234 27.6506 22.7362 28.2936 22.2395C27.679 21.7585 27.0201 21.309 26.3218 20.894C25.7551 20.6809 25.1542 20.5212 24.5332 20.4186L26.301 19.2814C26.0298 19.1358 25.8821 18.9905 25.7709 19.0084C24.3634 19.1953 22.9678 19.4637 21.5481 19.6052C18.4984 19.9331 15.5465 20.7595 12.3899 19.4021C10.9348 18.7735 8.76173 19.031 6.91058 18.8816C6.91106 18.6823 6.91154 18.483 6.91202 18.2837L12.5406 18.2972L12.2575 17.9704C13.1439 17.4745 14.0911 17.04 15.0872 16.6727C17.4059 15.9761 19.777 15.3769 22.1889 14.8779C23.5245 14.6584 24.898 14.5884 26.2627 14.6703C27.4012 14.7481 28.5475 14.6133 29.595 14.2784C30.6425 13.9436 31.5572 13.4195 32.2538 12.7551L29.6998 12.3685L29.7004 12.0967L34.1205 11.5638L34.1211 11.3463C29.6533 11.1273 25.1738 10.6726 20.7053 10.7434C15.3974 10.8394 10.1129 11.4881 4.79251 11.6655C3.23715 11.7162 1.63428 10.9876 0.0428642 10.6214L0.045037 9.71551L25.776 6.5975L25.7863 2.29447C27.82 1.94664 29.882 1.69438 31.9598 1.53925C48.0073 1.04326 64.1791 0.248618 80.2871 0.260073C118.305 0.260669 156.333 0.696122 194.35 0.886952C209.656 0.968958 224.962 0.742962 240.268 0.888379C261.942 1.10343 283.603 1.69892 305.278 1.81432C317.621 1.84392 329.879 1.23919 342.186 0.996932C348.852 0.886096 355.517 1.02891 362.182 1.04489C379.34 1.08604 396.485 1.00034 413.642 1.04149C421.443 1.0602 429.256 1.30542 437.093 1.36951C447.741 1.46149 458.389 1.50514 469.038 1.50048C475.518 1.51603 481.986 1.32318 488.454 1.32057C503.871 1.35755 519.312 1.39459 534.692 1.43147C557.009 1.42159 579.326 1.29393 601.643 1.32028C647.42 1.3878 693.205 1.49761 738.998 1.64972L811.441 1.82348C824.797 1.85551 838.14 1.83316 851.483 1.91951C855.383 1.92887 859.097 2.3998 862.203 4.59954C863.299 5.38125 865.657 5.51373 867.434 5.46364C876.149 5.43018 884.863 5.30312 893.578 5.08245C896.109 5.01604 898.629 4.18865 901.122 4.29428C908.12 4.44695 915.105 5.0616 922.104 5.10556C925.523 5.11376 928.932 4.21603 932.352 3.79846C932.958 3.64412 933.609 3.60822 934.241 3.69428C939.174 5.27334 944.26 4.93224 949.383 4.75428C952.519 4.64403 955.654 4.76932 958.789 4.77684L958.997 5.61077Z" fill="#1E212E"/>
</svg>
