<svg viewBox="0 0 296 64" fill="none" preserveAspectRatio="none">
<path d="M4.13728 9.30353C4.06237 7.03302 5.89114 5.15597 8.16284 5.17172L86.4123 5.71429L218.449 4L287.305 5.08295C289.438 5.1165 291.169 6.81827 291.239 8.95054L292 32L291.242 54.9618C291.171 57.1293 289.385 58.845 287.217 58.8298L209.588 58.2857L79.3231 60L8.07142 58.9189C5.83466 58.885 4.06051 57.0233 4.13428 54.7875L4.88615 32L4.13728 9.30353Z" fill="white" fill-opacity="0.05" vector-effect="non-scaling-stroke" />
<path d="M86.4123 5.71453L86.4123 5.71429L86.4123 5.71453ZM86.4088 6.21437L86.4188 6.21424L218.449 4.50005L218.456 4.49996L287.297 5.58288C289.163 5.61224 290.678 7.1013 290.74 8.96703L291.5 32L290.743 54.9453C290.68 56.8419 289.118 58.3431 287.22 58.3298L209.591 57.7856L209.581 57.7858L79.3235 59.5L8.07901 58.419C6.12184 58.3893 4.56946 56.7603 4.63401 54.804L5.38588 32.0165L5.38643 32L5.38588 31.9835L4.63701 9.28705C4.57146 7.30034 6.17164 5.65793 8.15937 5.67171L86.4088 6.21437Z" stroke="white" stroke-opacity="0.3" vector-effect="non-scaling-stroke" />
</svg>
