<svg xmlns="http://www.w3.org/2000/svg" viewBox="0 0 24 24" fill="#fff">
  <path d="M2,18.53c0-.4,0-.64,0-1l4,.91c.5-1.06.22-1.71-.8-1.92A6.4,6.4,0,0,0,.24,17.63l.59-.84a11.93,11.93,0,0,0,2.08-4.44A11.87,11.87,0,0,0,3,7.28c-.41.68-.76,1.24-1.1,1.81a.6.6,0,0,0,.27.92c.28.15.55.33.83.49A6.19,6.19,0,0,1,1.6,10,.78.78,0,0,1,1.13,9c.42-.91.58-2.06,1.73-2.42,0-.21-.06-.42-.11-.8L5.56,9.9l.16-.26c.41,1.26.8,2.55,1.24,3.82s1,2.55,1.47,3.89a5,5,0,0,0,1.32-3.14A7.13,7.13,0,0,0,7.32,7.73L11,9V7.71c0-1-.07-1.09-1-1a7.34,7.34,0,0,0-.92.15c-.47.11-.94.24-1.4.37a7.42,7.42,0,0,0,1.1-4.38l2.34.85V0l2.09.16c0,.53.06,1,.1,1.49a3.42,3.42,0,0,0-.64,0c-.46.09-.93.22-1.39.33a18,18,0,0,0,.49,1.78,1.68,1.68,0,0,0,.63.61c.29.21.61.37.91.56a4.29,4.29,0,0,1,1.5,4.63c-1.16-2-2.33-2.94-3.44-2.69A2.7,2.7,0,0,0,13.2,10c.5.21,1,.39,1.52.56a2.87,2.87,0,0,1,2,2.6,7.24,7.24,0,0,1-2.32,6.34,5.71,5.71,0,0,1-.86.61c-.11-1-1-1.45-2-1.11a8.54,8.54,0,0,0,0,1.43A.82.82,0,0,0,12,21a7.68,7.68,0,0,0,1.66,0,2,2,0,0,0,2-1.5,1.14,1.14,0,0,1,1.26-1c1.09-.05,1.54-.8,1.2-2l-.7.34c1.27-2.81,1.48-5.38-.75-7.65l1.81.83c.12-.88.21-1.71.35-2.52,0-.19.26-.51.37-.49a11.89,11.89,0,0,1,1.56.4c-.58,0-.29.47-.25.78a7.26,7.26,0,0,1-1.18.12c-.41,0-.52.15-.55.51-.12,1.25-.11,1.27,1,1.83a8,8,0,0,1,1.13.67,2.83,2.83,0,0,1,1.22,2.39,5.36,5.36,0,0,1-1.64,3.69c-.41-.94-1-1.33-1.58-1.09s-.51.9-.2,1.7L19,18a5.91,5.91,0,0,0,4.15-1.78,5.17,5.17,0,0,1,.77-.61l.12.16L21.87,18a4.5,4.5,0,0,1-1,.95,2.68,2.68,0,0,0-1.38,1.75c-.2.6-.34,1.22-.53,1.83a1.68,1.68,0,0,1-1.65,1.31c-.83,0-1.65.18-2.47.18C12,24,9.2,24,6.38,23.93a2.86,2.86,0,0,1-2.62-1.88c-.41-.91-.91-1.78-1.3-2.69a1.27,1.27,0,0,0-1-.85,9.89,9.89,0,0,1-1.32-.36S0,18,0,17.88Zm6.11,1.25a2.93,2.93,0,0,1,1.54.85c.24.27.76.26,1.23.41V18.72l-3.43.58v.22a5.92,5.92,0,0,0,.66.25ZM6.43,17c0,.88-.12,1.61.68,2l1.1-1.11Z"/>
</svg>
