<svg viewBox="0 0 268 96" fill="none" preserveAspectRatio="none">
<path d="M4.0782 9.92123C4.03541 7.66388 5.86816 5.81847 8.12575 5.84571L78.4 6.69388L197.6 4L259.383 5.69141C261.519 5.74989 263.232 7.47737 263.272 9.6141L264 48L263.275 86.2317C263.234 88.4299 261.426 90.1824 259.227 90.1556L189.6 89.3061L72 92L7.96892 90.3089C5.77218 90.2509 4.0336 88.4316 4.07525 86.2345L4.8 48L4.0782 9.92123Z" fill="#D9D9D9" vector-effect="non-scaling-stroke"/>
<path d="M78.4026 7.19395L78.4113 7.19375L197.599 4.50015L259.369 6.19122C261.238 6.2424 262.737 7.75393 262.772 9.62358L263.5 47.9905V48.0095L262.775 86.2222C262.739 88.1457 261.157 89.6791 259.233 89.6556L189.606 88.8062L189.597 88.8061L189.589 88.8063L72.0008 91.4998L7.98213 89.8091C6.05998 89.7583 4.53871 88.1664 4.57516 86.244L5.29991 48.0095L5.30009 48L5.29991 47.9905L4.57811 9.91175C4.54067 7.93657 6.14433 6.32184 8.11972 6.34568L78.394 7.19384L78.4026 7.19395Z" stroke="white" vector-effect="non-scaling-stroke"/>
</svg>
