<svg xmlns="http://www.w3.org/2000/svg" fill="none" viewBox="0 0 277 26" preserveAspectRatio="none"><g fill="#1E212E" opacity=".5"><path d="M1.165 24.3912a16.9422 16.9422 0 0 1 2.5532-.816c1.7175-.2734 3.4527-.3954 5.1808-.593a.631.631 0 0 0 .3002-.1092c.092-.0626.1709-.1489.231-.2525-.4816.0504-.9703.0715-1.452.164-.5913.1093-.9985-.4206-.8817-.8412.4037-1.5057-.563-1.0809-1.1154-1.2197a2.564 2.564 0 0 0-.7437.0462l.1417-.8412-2.1248.572-.0637-.2397 4.3273-1.9936c-1.8024-.4837-3.357.1514-5.025.4584.942-1.1777 2.479-.2818 3.3465-1.817l-1.6325.2608v-.0925l2.1601-.7361v-.1219H4.3415v-.143l1.9406-.2903c-1.0978-1.2281-2.3443.0715-3.3712-.5972l4.5433-1.0136-.0283-.1725-5.1206-.4206v-.3281H4.43l-.0318-.6939c1.2287-.4206 2.4221-.9085 3.6403-1.2913.425-.1388.9065 0 1.3527-.0967.5666-.101 1.119-.2776 1.6785-.4206l.0319-.3155c-1.3138-.3112-2.624-.8412-3.9449-.879-1.5723-.0378-3.148.3954-4.731.5468-.7861.0757-1.5829-.0253-2.3761-.0421L0 9.4852c.726-.185 1.4448-.3996 2.1778-.5552 1.6963-.366 3.3996-.7066 5.2374-1.0851l-.393-.5468c.4284-1.1735 1.296-.4206 2.0963-.4879l-.2337-1.3585c1.7423-.3029 3.5022-.715 5.2799-.9001 4.2211-.4206 8.4457-.8412 12.6739-1.1314 4.9576-.3575 9.9153-.6688 14.8977-.8875 2.6772-.1135 5.3614 0 8.0421 0 11.6788-.0392 23.3564-.0841 35.0328-.1346 6.6575-.0336 13.3184-.1261 19.9798-.1682 6.537-.0365 13.075-.0575 19.614-.0631 2.833 0 5.666.0673 8.499 0 3.06-.0547 6.116-.2313 9.175-.3112.939-.0253 1.881.1556 2.833.1346 3.12-.059 6.24-.2104 9.363-.2482 3.683-.0463 7.369.021 11.052-.0294 1.282 0 2.557-.3197 3.835-.3407 1.417-.021 2.854.1472 4.281.206.709.0295 1.417 0 2.175 0l-.305.324c.082.0365.168.0619.255.0756 7.101-.1261 14.203-.2565 21.304-.3911l11.473-.223c3.945-.0715 7.89-.0925 11.835-.2103 5.152-.1598 10.301-.3995 15.454-.5846 1.356-.0504 2.712 0 4.065-.0547 2.263-.0715 4.525-.1808 6.788-.2691.362-.0369.726.028 1.063.1892l-1.587.652c4.898.8075 9.625.0883 14.353.0672.06 0 .138.0253.173 0 1.094-1.064 2.327-.227 3.485-.3659a3.693 3.693 0 0 0 .881-.3407c.135-.0588.287-.1976.404-.164 1.771.5131 3.541-.0378 5.284-.265a9.5587 9.5587 0 0 1 1.158 0c-.673 1.5436-1.856 1.287-2.862 1.5436-1.147.286-2.298.5636-3.435.9043-.304.0926-.556.4206-.966.736l1.947.1178c-.156.2986-.304.5762-.453.8412.353.218.726.386 1.112.5005.354.059.754-.1346 1.129-.1177.273.0753.534.2016.772.3743l1.268-.4795.089.2271-.708.551.442.1977-3.3 1.2618 1.218.366.021.185-1.77.2986c1.094.0925 2.383.1767 3.665.3323.209.0252.577.4206.552.5636-.248 1.4174.549 1.35 1.314 1.3543.14-.0038.28.0103.418.042-.967.1935-1.392.7529-.949 1.8254l-1.243.5721.053.2986 4.03-.3912.039.1893-2.21.6309c-.018.0252-.163.2776-.354.6267l1.027-.0547v.143c-.507.1472-1.02.2776-1.523.4543-.772.2691-1.547.5341-2.302.8706-.223.1009-.375.4206-.559.6519.177.2226.366.4306.566.6225.163.0983.336.1718.514.2187l-.506.53c.077.0673.12.1346.152.1261.404-.0883.804-.2145 1.211-.2818.875-.1556 1.721-.5425 2.627.0842.418.2902 1.042.1682 1.573.2355v.2776h-1.615l.081.1514c-.254.2313-.525.434-.811.6057-.664.326-1.344.6068-2.036.8412a3.297 3.297 0 0 1-1.168.1009c-.327-.0349-.656.029-.956.1856-.3.1567-.562.401-.762.7103l.733.1766v.1262l-1.267.2524v.1009c1.281.0967 2.567.3028 3.849.265 1.522-.0505 3.038-.3575 4.564-.4458.447-.0253.907.3112 1.364.4794v.4206l-7.38 1.4763v1.9979c-.583.1637-1.175.2831-1.771.3575-4.603.2481-9.242.6351-13.863.6477-10.907.0421-21.818-.1178-32.724-.164-4.391-.0211-8.783.1009-13.174.0504-6.218-.0757-12.433-.328-18.651-.3575-3.541 0-7.058.2944-10.588.4206-1.912.0589-3.825 0-5.737 0-4.922 0-9.841.0589-14.763.0589-2.238 0-4.48-.1051-6.728-.1262-3.055-.0308-6.11-.0392-9.165-.0252-1.859 0-3.715.0967-5.57.1051h-13.265c-6.403.0295-12.805.1136-19.208.1262a13137.341 13137.341 0 0 1-39.406 0H43.4999c-3.8316 0-7.6596.0253-11.4876 0-1.119 0-2.1849-.2145-3.0773-1.2323-.3152-.3617-.9915-.4206-1.5015-.3954-2.5.0253-5.0001.094-7.5002.2061-.7259.0337-1.4483.4206-2.1636.3743-2.0079-.063-4.0122-.3406-6.0201-.3533-.9809 0-1.9582.4206-2.9391.6183a.9037.9037 0 0 1-.5418.0505c-1.4165-.7276-2.8755-.5636-4.345-.4753-.8995.0547-1.799 0-2.6984 0l-.0603-.3869Z"/><path d="M275.111 1.6088a16.989 16.989 0 0 1-2.553.816c-1.718.2734-3.453.3954-5.181.593a.6289.6289 0 0 0-.3.1092c-.092.0626-.171.1489-.231.2526.481-.0505.97-.0715 1.452-.164.591-.1094.998.4205.881.8411-.403 1.5057.563 1.081 1.116 1.2197.248.0209.498.0054.743-.0462l-.141.8412 2.125-.572.063.2397-4.327 1.9936c1.802.4837 3.357-.1514 5.025-.4584-.942 1.1776-2.479.2818-3.347 1.817l1.633-.2608v.0925l-2.16.736v.122h2.025v.143l-1.94.2903c1.098 1.2281 2.344-.0715 3.371.5972l-4.543 1.0136.028.1725 5.121.4206v.3281h-2.125l.032.6939c-1.229.4206-2.422.9085-3.641 1.2913-.425.1388-.906 0-1.352.0967-.567.1009-1.119.2776-1.679.4206l-.032.3155c1.314.3112 2.624.8411 3.945.879 1.572.0379 3.148-.3954 4.731-.5468.786-.0757 1.583.0253 2.376.0421l.05.5762c-.726.1851-1.445.3996-2.178.5552-1.696.3659-3.399.7066-5.237 1.0851l.393.5468c-.429 1.1735-1.296.4206-2.097.4879l.234 1.3585c-1.742.3029-3.502.715-5.28.9001-4.221.4206-8.446.8412-12.674 1.1314-4.957.3575-9.915.6688-14.897.8875-2.678.1135-5.362 0-8.042 0-11.679.0392-23.357.0841-35.033.1346-6.658.0336-13.319.1262-19.98.1682-6.537.0365-13.075.0575-19.614.0631-2.833 0-5.666-.0673-8.499 0-3.06.0547-6.116.2313-9.175.3112-.939.0253-1.881-.1556-2.833-.1346-3.12.0589-6.24.2103-9.363.2482-3.683.0463-7.369-.021-11.052.0294-1.282 0-2.557.3197-3.835.3407-1.417.0211-2.854-.1472-4.282-.2061-.708-.0294-1.416 0-2.174 0l.305-.3238a1.0257 1.0257 0 0 0-.255-.0757c-7.1015.1261-14.2027.2565-21.304.3911l-11.4734.2229c-3.9449.0715-7.8898.0926-11.8346.2103-5.1524.1599-10.3013.3996-15.4537.5847-1.3563.0504-2.7126 0-4.0653.0546-2.2628.0715-4.5256.1809-6.7884.2692-.3617.0369-.7257-.028-1.0624-.1892l1.5865-.652c-4.8975-.8075-9.625-.0883-14.3524-.0673-.0602 0-.1382-.0252-.1736 0-1.0942 1.0642-2.3265.2272-3.4845.366a3.6928 3.6928 0 0 0-.8817.3406c-.1346.0589-.2869.1977-.4037.1641-1.7706-.5132-3.5412.0378-5.2835.265a9.5595 9.5595 0 0 1-1.158 0c.6729-1.5436 1.8557-1.2871 2.8613-1.5436 1.1474-.286 2.2983-.5636 3.435-.9043.3045-.0926.5559-.4206.9667-.7361l-1.9476-.1177c.1558-.2987.3045-.5763.4532-.8412a4.6107 4.6107 0 0 0-1.1119-.5005c-.3541-.0589-.7542.1346-1.1296.1177-.2724-.0753-.533-.2017-.772-.3743l-1.2677.4795-.0886-.2271.7083-.551-.4427-.1977 3.3004-1.2618-1.2182-.3659-.0212-.1851 1.7706-.2986c-1.0943-.0925-2.3832-.1767-3.6652-.3323-.2089-.0252-.5771-.4206-.5524-.5636.248-1.4174-.5489-1.3501-1.3137-1.3543a1.6545 1.6545 0 0 1-.4179-.0421c.9668-.1934 1.3917-.7528.949-1.8254l1.243-.572-.0531-.2986-4.03.3912-.0389-.1893 2.2097-.6309c.0177-.0252.163-.2776.3542-.6267l-1.027.0547v-.143c.5064-.1472 1.0199-.2776 1.5227-.4543.772-.2691 1.5475-.5341 2.3018-.8706.223-.1009.3754-.4206.5595-.6519a6.1651 6.1651 0 0 0-.5666-.6225 1.9563 1.9563 0 0 0-.5135-.2187l.5064-.53c-.0779-.0673-.1204-.1346-.1522-.1262-.4037.0884-.8039.2146-1.2111.2819-.8747.1556-1.721.5425-2.6276-.0842-.4178-.2902-1.041-.1682-1.5723-.2355v-.2776H3.591l-.0814-.1514c.254-.2313.5254-.434.8109-.6057a17.0504 17.0504 0 0 1 2.0362-.8412 3.298 3.298 0 0 1 1.1686-.101c.3266.035.6554-.029.9557-.1856s.5623-.401.7617-.7102l-.733-.1766V5.655l1.2678-.2524v-.101C8.4954 5.205 7.21 4.999 5.928 5.0368c-1.5227.0505-3.0383.3575-4.5646.4458-.4462.0253-.9065-.3112-1.3633-.4794v-.4206L7.38 3.1062V1.1083A12.077 12.077 0 0 1 9.1506.7508C13.754.5027 18.393.1158 23.0143.1031c10.9068-.042 21.8172.1178 32.724.164 4.3911.021 8.7821-.101 13.1732-.0504 6.2183.0757 12.4331.328 18.6514.3575 3.5412 0 7.0576-.2945 10.5881-.4206 1.912-.059 3.824 0 5.737 0 4.922 0 9.841-.059 14.763-.059 2.238 0 4.48.1052 6.728.1263 3.055.0308 6.11.0392 9.165.0252 1.859 0 3.714-.0967 5.57-.1051h13.265c6.403-.0295 12.805-.1136 19.208-.1262 13.133-.0197 26.268-.0197 39.406 0h20.783c3.832 0 7.66-.0253 11.488 0 1.119 0 2.185.2145 3.077 1.2323.315.3617.991.4206 1.501.3954 2.5-.0252 5.001-.094 7.501-.2061.726-.0337 1.448-.4206 2.163-.3743 2.008.063 4.012.3406 6.02.3533.981 0 1.959-.4206 2.939-.6183a.9047.9047 0 0 1 .542-.0505c1.417.7276 2.876.5636 4.345.4753.9-.0547 1.799 0 2.699 0l.06.387Z"/></g></svg>