<svg class="icon icon--watch" xmlns="http://www.w3.org/2000/svg" viewBox="0 0 24 33">
  <path d="M15.73,9.6a3.33,3.33,0,0,0-.44-.86,5,5,0,1,0-6.58,0,3.33,3.33,0,0,0-.44.86,12,12,0,1,0,7.46,0ZM12,2a3,3,0,0,1,3,3,3,3,0,0,1-1.25,2.42,3.86,3.86,0,0,0-3.5,0A3,3,0,0,1,9,5,3,3,0,0,1,12,2Zm0,29A10,10,0,1,1,22,21,10,10,0,0,1,12,31Zm4-10a1,1,0,0,1-1,1H14a1,1,0,0,1-.25-.05,2,2,0,1,1-2.7-2.7A1,1,0,0,1,11,19V17a1,1,0,0,1,2,0v2a1,1,0,0,1-.05.25,2.05,2.05,0,0,1,.8.8A1,1,0,0,1,14,20h1A1,1,0,0,1,16,21Zm-5-7V13a1,1,0,0,1,2,0v1a1,1,0,0,1-2,0Zm2,14v1a1,1,0,0,1-2,0V28a1,1,0,0,1,2,0ZM5,22H4a1,1,0,0,1,0-2H5a1,1,0,0,1,0,2Zm16-1a1,1,0,0,1-1,1H19a1,1,0,0,1,0-2h1A1,1,0,0,1,21,21Zm-4.76-4.24a1,1,0,0,1,0-1.42l.71-.7a1,1,0,1,1,1.41,1.41l-.7.71a1,1,0,0,1-1.42,0ZM7.76,25.24a1,1,0,0,1,0,1.42l-.71.7a1,1,0,0,1-.71.3,1,1,0,0,1-.7-.3,1,1,0,0,1,0-1.41l.7-.71A1,1,0,0,1,7.76,25.24Zm0-9.9a1,1,0,0,1,0,1.42,1,1,0,0,1-1.42,0l-.7-.71a1,1,0,0,1,1.41-1.41ZM18.36,26a1,1,0,0,1,0,1.41,1,1,0,0,1-.7.3,1,1,0,0,1-.71-.3l-.71-.7a1,1,0,0,1,1.42-1.42Z"/>
</svg>
