<svg xmlns="http://www.w3.org/2000/svg" fill="none" viewBox="0 0 26 20"><path fill="#5865F2" stroke="#fff" stroke-width="2" d="M8.5022 18.5556c.4244-.5594.8109-1.1511 1.1485-1.7751 2.2068.5224 4.4666.5247 6.6625.0055.3507.6314.742 1.2301 1.1627 1.7963l.1923.2588.3072.0977c.0017.0005.0901.0307.1932.0471.1152.0184.2908.0282.4911-.0321 1.8847-.5546 3.7859-1.3929 5.7562-2.7667.298-.1885.4592-.4987.4848-.804.4837-4.7863-.822-8.9493-3.4293-12.6132l-.0553-.0778-.0691-.0659-.0035-.0034c-.0295-.0287-.1669-.1625-.3951-.239-1.4531-.6388-3.0186-1.1015-4.6439-1.3703l-.0659-.011-.0668-.002a1.0984 1.0984 0 0 0-.4492.0812 1.0944 1.0944 0 0 0-.3847.265l-.08.0855-.0581.1016a14.1766 14.1766 0 0 0-.2744.5058 18.6594 18.6594 0 0 0-3.8542 0 10.9308 10.9308 0 0 0-.2902-.5154c-.1636-.2808-.4088-.4028-.5349-.451a1.127 1.127 0 0 0-.4011-.0731h-.0822l-.081.0133c-1.637.2708-3.2006.7378-4.6683 1.3813a1.0293 1.0293 0 0 0-.2397.128 1.0926 1.0926 0 0 0-.0926.0744c-.0167.0149-.031.0287-.0315.0291l-.0718.0686-.057.0813C1.5314 7.0449.6892 11.2396 1.096 15.3807c.025.306.1862.6173.485.8063 1.9702 1.3737 3.871 2.2118 5.7446 2.7664.1912.0578.4025.0637.6077.005.1732-.0496.4034-.1667.569-.4029Zm1.8305-7.7769h-.0001v.009c0 .6851-.4976 1.1195-.98 1.1195-.4682 0-.98-.4415-.98-1.1195 0-.685.4975-1.1194.98-1.1194.4943 0 .9861.4442.9801 1.1104Zm7.3021 0h-.0001v.009c0 .6887-.4904 1.1195-.98 1.1195-.4682 0-.9801-.4415-.9801-1.1195 0-.685.4976-1.1194.9801-1.1194.4944 0 .9861.4442.9801 1.1104Z"/></svg>