<svg xmlns="http://www.w3.org/2000/svg" viewBox="0 0 422.38 55.72" preserveAspectRatio="none">
  <path d="M420.67,4.17a20.84,20.84,0,0,1-3.91,1.75c-2.62.58-5.28.84-7.92,1.26a.84.84,0,0,0-.46.23A1.75,1.75,0,0,0,408,8a19.12,19.12,0,0,0,2.23-.35c.9-.24,1.52.91,1.34,1.81-.63,3.24.85,2.33,1.7,2.63a2.76,2.76,0,0,0,1.14-.09l-.23,1.81,3.26-1.23.09.52-6.62,4.28c2.75,1.05,5.13-.31,7.68-1-1.44,2.53-3.79.6-5.12,3.9l2.49-.55v.19l-3.3,1.58v.26h3.09v.31l-3,.62c1.67,2.65,3.59-.15,5.15,1.3L411,26.15l0,.38,7.83.92v.71h-3.25l.05,1.49c-1.88.9-3.71,1.95-5.58,2.77-.65.3-1.38,0-2.07.2-.86.22-1.71.6-2.56.9l0,.68c2,.68,4,1.82,6,1.91,2.41.09,4.82-.84,7.24-1.16a22.05,22.05,0,0,1,3.63.1l.08,1.24c-1.12.4-2.22.86-3.34,1.19-2.59.78-5.2,1.51-8,2.32l.6,1.18c-.66,2.52-2,.9-3.21,1l.35,2.93c-2.67.64-5.36,1.52-8.08,1.92-6.45.89-12.92,1.78-19.38,2.39-7.58.75-15.17,1.4-22.79,1.85-4.09.24-8.19,0-12.29,0q-26.79.07-53.57.17c-10.18,0-20.37.22-30.55.28q-15,.09-30,.07c-4.33,0-8.66-.17-13,0-4.68.1-9.35.47-14,.63-1.43.05-2.87-.34-4.33-.3-4.77.12-9.54.43-14.32.5-5.63.09-11.26-.07-16.9,0-2,0-3.91.68-5.86.72-2.17,0-4.36-.33-6.55-.46-1.08-.07-2.16,0-3.32,0l.47-.7a1.29,1.29,0,0,0-.39-.16q-16.29.36-32.58.76L103.77,53c-6,.14-12.07.17-18.1.41-7.88.33-15.75.82-23.63,1.2-2.08.11-4.15,0-6.22.11-3.46.14-6.92.37-10.38.55a2.26,2.26,0,0,1-1.62-.41l2.43-1.4c-7.49-1.76-14.72-.23-21.95-.2-.09,0-.21-.05-.26,0-1.68,2.29-3.56.48-5.33.78a4.69,4.69,0,0,0-1.35.73c-.21.12-.44.42-.62.35-2.71-1.11-5.42.07-8.08.55a10.46,10.46,0,0,1-1.77,0c1-3.33,2.84-2.77,4.38-3.32,1.76-.61,3.52-1.2,5.26-1.93.46-.2.85-.91,1.48-1.58l-3-.26c.24-.65.47-1.24.7-1.81A6.2,6.2,0,0,0,14,45.69c-.54-.13-1.15.29-1.73.25a3.26,3.26,0,0,1-1.17-.81l-2,1-.13-.49,1.09-1.18-.68-.43,5-2.71-1.86-.79,0-.4,2.71-.63c-1.67-.21-3.64-.39-5.6-.73a1.75,1.75,0,0,1-.84-1.22c.38-3-.84-2.91-2-2.92a1.8,1.8,0,0,1-.64-.09c1.48-.42,2.14-1.62,1.47-3.93l1.9-1.23-.08-.64-6.16.83-.06-.41,3.38-1.35c0-.06.25-.6.54-1.35l-1.57.11v-.3c.78-.32,1.56-.6,2.33-1a36.2,36.2,0,0,0,3.53-1.86c.34-.22.57-.91.86-1.41a12.86,12.86,0,0,0-.87-1.34,2.54,2.54,0,0,0-.78-.47l.78-1.14c-.12-.15-.19-.29-.24-.27-.61.18-1.23.46-1.85.6-1.34.33-2.63,1.16-4-.19-.63-.63-1.59-.37-2.4-.52v-.59H5.47l-.12-.32A8.65,8.65,0,0,1,6.59,16.5a23.46,23.46,0,0,1,3.12-1.8,3.68,3.68,0,0,1,1.79-.21,2,2,0,0,0,1.46-.4,3.91,3.91,0,0,0,1.17-1.53L13,12.18v-.27L15,11.37v-.22a40.51,40.51,0,0,0-5.89-.58c-2.32.1-4.64.76-7,.94-.68.05-1.38-.67-2.08-1v-.9L11.29,6.42V2.11A14.26,14.26,0,0,1,14,1.35C21.05.83,28.15,0,35.21,0c16.68,0,33.36.34,50,.48C92,.54,98.68.29,105.39.42c9.51.18,19,.75,28.52.84,5.41,0,10.79-.61,16.19-.87,2.93-.12,5.85,0,8.77,0,7.53,0,15-.09,22.58-.07,3.42,0,6.85.24,10.28.29q7,.12,14,.09c2.84,0,5.68-.19,8.51-.2l20.29,0c9.79,0,19.58-.19,29.37-.2q30.12,0,60.25.15L356,.58c5.86,0,11.71,0,17.56.05a5,5,0,0,1,4.7,2.66,2.44,2.44,0,0,0,2.3.86q5.73-.08,11.46-.42c1.12-.07,2.22-.9,3.32-.8,3.06.15,6.13.75,9.2.79,1.5,0,3-.9,4.5-1.32a1,1,0,0,1,.82-.11c2.17,1.57,4.4,1.22,6.65,1,1.37-.12,2.75,0,4.12,0Z" />
</svg>
