<svg xmlns="http://www.w3.org/2000/svg" viewBox="0 0 580 133" preserveAspectRatio="none">
  <path d="M577.14,105c-3.21.45-6.39,2-9.59,2.28-2.65.19-5.32-.84-8-1.34.59-.27,1.18-.54,1.77-.79l-.05-.63.84-.41v-.64l-.95-.56-.13-1.8a8.3,8.3,0,0,1,1.14-2.18,2.84,2.84,0,0,1,.23-.25c.86.46,1.66.87,2.27-.64a3.21,3.21,0,0,0,2-.58,32.78,32.78,0,0,0,4.27-4.3,19.79,19.79,0,0,0,1.7-3.1l-.17-.77h3.39V87.83a4.42,4.42,0,0,0-1.15-.14l.73-.37c1.54-.8,3.05-1.89,4.57-2.84l-.1-3c-1.67-.08-3.34-.6-5-.21-3.3.77-6.59,3-9.87,2.79a3.88,3.88,0,0,1-.88-1c-.42-1-.82-2-1.19-3.18.38-1.19.7-2.82,1.17-3.34A51.79,51.79,0,0,1,569,72.19c1.06-.91,2.14-1.57,3.2-2.33v-.73l-2.15.28h0l.75-.65,0-2.4c0-.07,0-.12,0-.14l1.44-1h3V63.52l-.42-.08.66-.46-.08-1-3.54.84-4.55-.91,2.12-2.38c-.1-.59-.17-1.14-.23-1.66l4.77-2.6c-1.49-2.36-3.21.09-4.89-.26A6.23,6.23,0,0,1,570.35,51l.54-.19V50.5a2.35,2.35,0,0,1,.46-.28,1.9,1.9,0,0,0-.46-.18h-.1a1.72,1.72,0,0,0-.32,0c-1,0-2.07.11-2.56-1.66l3.26-2.71v-.47l-3.43,1.34c1.82-7.86,5-3.28,7-9.3-2.68,1.2-5.22,3.37-8,3.23a.66.66,0,0,0-.26-.25c-.75-.22-1.5-.41-2.24-.58l-.09,0,9.08-10.2-.13-1.23-4.46,2.93.29-4.31a2.27,2.27,0,0,1-1.56.24c-.41-.25-.94-.14-1.41-.24l-.06-.07,1.49-2.82-.19-1.16-2.33,2.15a21.7,21.7,0,0,1,.16-4.1c.25-2.15-.61-4.86-1.85-4.3a16.51,16.51,0,0,1-3,.84,4.52,4.52,0,0,1,.49-1.29,1.06,1.06,0,0,1,.63-.56c3.63-1,7.27-1.64,10.87-3a25.55,25.55,0,0,0,5.36-4.17l-.12-2a38.33,38.33,0,0,0-5.67,0,18.83,18.83,0,0,1-4.28.38c1.13-.78,2.17-2.37,2.91-6.54a8.25,8.25,0,0,0-2.43,0c-3.65,1.16-7.37,4-11.09,1.36-.24-.18-.56.53-.85.83A6.68,6.68,0,0,1,554.17,4c-2.43.71-5-3.57-7.31,1.87-.08.13-.24,0-.37,0h-.27a35.6,35.6,0,0,0-3.53-.48,3.77,3.77,0,0,0-2.4.9c-6.92.77-13.87,2.09-21,.19,0,0-.05-.09-.07-.14a19,19,0,0,0-1.13-2.59l1.57-1.57a2.21,2.21,0,0,0-2.23-1l-1.16.12A5,5,0,0,0,512.79.08c-8-.13-16.07,0-24.11,0H445.05q-41.37-.16-82.73,0C348.88.14,335.44.57,322,.72H294.15c-3.9,0-7.79.54-11.7.54q-9.61.11-19.23-.13C258.49,1,253.79.48,249.09.48c-10.33,0-20.66.31-31,.31-4,0-8-.31-12,0-7.41.64-14.79,2.15-22.22,2.15-13.06-.15-26.11-1.44-39.16-1.83-9.22-.26-18.44.36-27.66.26C94.12,1.13,71.21.31,48.31.53c-9.7.06-19.44,2-29.1,3.31a13.65,13.65,0,0,0-3.72,1.83V15.89L0,23.44v2.15c1,.86,1.93,2.58,2.86,2.46,3.21-.46,6.39-2,9.58-2.29,2.66-.19,5.33.84,8,1.34-.59.27-1.18.54-1.77.79l.05.63-.84.41v.64l.95.56.13,1.8a8.3,8.3,0,0,1-1.14,2.18,2.84,2.84,0,0,1-.23.25c-.86-.46-1.66-.87-2.27.64a3.21,3.21,0,0,0-2,.58,32.78,32.78,0,0,0-4.27,4.3A19.79,19.79,0,0,0,7.37,43l.17.77H4.15v1.42a4.42,4.42,0,0,0,1.15.14l-.73.37C3,46.48,1.52,47.57,0,48.52l.1,2.95c1.67.08,3.34.6,5,.21,3.31-.77,6.59-3,9.87-2.79a3.88,3.88,0,0,1,.88,1c.42,1,.82,2,1.19,3.18-.38,1.19-.7,2.82-1.17,3.34A50.63,50.63,0,0,1,11,60.81c-1,.91-2.13,1.57-3.19,2.33v.73L10,63.59h0l-.75.65,0,2.39a1.27,1.27,0,0,1,0,.15l-1.44,1h-3v1.68l.42.08L4.6,70l.08,1,3.54-.84,4.55.91-2.12,2.38c.09.59.17,1.14.23,1.66L6.11,77.7C7.6,80.06,9.32,77.61,11,78A6.23,6.23,0,0,1,9.65,82l-.54.19v.27a2.35,2.35,0,0,1-.46.28,1.9,1.9,0,0,0,.46.18h.1a1.72,1.72,0,0,0,.32,0c1,0,2.07-.11,2.56,1.66L8.83,87.36v.47l3.43-1.34c-1.82,7.86-5,3.28-7,9.3,2.68-1.2,5.22-3.37,8-3.23a.66.66,0,0,0,.26.25c.75.22,1.5.41,2.24.58l.09,0L6.7,103.64l.13,1.23,4.46-2.93L11,106.25a2.26,2.26,0,0,1,1.56-.24c.41.25.94.14,1.41.24l.06.07-1.49,2.82.19,1.16,2.33-2.15a21.7,21.7,0,0,1-.16,4.1c-.25,2.15.61,4.86,1.85,4.3a16.51,16.51,0,0,1,3.05-.84,4.52,4.52,0,0,1-.49,1.29,1,1,0,0,1-.63.56c-3.63,1-7.27,1.64-10.87,3a25.55,25.55,0,0,0-5.36,4.17l.12,2a38.32,38.32,0,0,0,5.67,0,18.88,18.88,0,0,1,4.28-.38c-1.12.78-2.17,2.37-2.92,6.54a8.31,8.31,0,0,0,2.44,0c3.65-1.16,7.37-4,11.09-1.36.24.18.56-.53.85-.83A6.68,6.68,0,0,1,25.83,129c2.43-.71,5,3.57,7.31-1.87.08-.13.24,0,.37,0h.27c1.18.21,2.35.39,3.52.48a3.78,3.78,0,0,0,2.41-.9c6.92-.77,13.87-2.09,21-.19a.84.84,0,0,1,.06.14,20.3,20.3,0,0,0,1.14,2.59l-1.57,1.57a2.23,2.23,0,0,0,2.23,1l1.16-.12a5,5,0,0,0,3.51,1.29c8,.13,16.07,0,24.11,0H135q41.37.15,82.73,0c13.44-.06,26.88-.49,40.32-.64h27.85c3.9,0,7.79-.54,11.7-.54q9.61-.11,19.24.13c4.72.11,9.42.65,14.12.65,10.33,0,20.66-.31,31-.31,4,0,8,.31,12.05,0,7.41-.64,14.79-2.15,22.22-2.15,13.06.15,26.11,1.45,39.16,1.83,9.22.26,18.44-.36,27.66-.26,22.89.24,45.8,1.06,68.69.84,9.71-.06,19.45-2,29.11-3.31a13.65,13.65,0,0,0,3.72-1.83V117.11L580,109.56v-2.15C579,106.55,578.07,104.83,577.14,105Z" />
</svg>
