<svg width="23" height="24" viewBox="0 0 23 24" fill="none" xmlns="http://www.w3.org/2000/svg">
<g clip-path="url(#clip0_1447_150952)">
<path d="M22.5104 14.3878C22.1723 16.0807 19.4823 17.9336 16.3928 18.2926C14.7817 18.4797 13.1955 18.6517 11.5041 18.5762C8.73799 18.4528 6.55532 17.9336 6.55532 17.9336C6.55532 18.1957 6.57192 18.4452 6.60514 18.6786C6.96475 21.3357 9.31203 21.4949 11.5355 21.5691C13.7797 21.6438 15.778 21.0305 15.778 21.0305L15.8701 23.0053C15.8701 23.0053 14.3004 23.8257 11.5041 23.9766C9.96218 24.0591 8.04759 23.9389 5.81762 23.3644C0.981191 22.1184 0.149436 17.1004 0.022169 12.0089C-0.0166223 10.4972 0.00729011 9.07177 0.00729011 7.87958C0.00729011 2.67325 3.51193 1.14719 3.51193 1.14719C5.27906 0.357269 8.31129 0.0250852 11.4636 0H11.5411C14.6934 0.0250852 17.7276 0.357269 19.4946 1.14719C19.4946 1.14719 22.9991 2.67325 22.9991 7.87958C22.9991 7.87958 23.0431 11.7208 22.5104 14.3878Z" fill="white"/>
<path d="M19 8.40803V15H16.3871V8.60179C16.3871 7.25305 15.8194 6.56848 14.6837 6.56848C13.4281 6.56848 12.7988 7.38056 12.7988 8.98633V12.4884H10.2013V8.98633C10.2013 7.38056 9.5719 6.56848 8.31627 6.56848C7.18062 6.56848 6.61287 7.25305 6.61287 8.60179V15H4V8.40803C4 7.06078 4.3432 5.99018 5.03257 5.19811C5.74344 4.40604 6.67442 4 7.83008 4C9.16716 4 10.1797 4.51367 10.8492 5.54114L11.5 6.63162L12.151 5.54114C12.8203 4.51367 13.8328 4 15.1701 4C16.3256 4 17.2566 4.40604 17.9676 5.19811C18.6568 5.99018 19 7.06078 19 8.40803Z" fill="#3A2A25"/>
</g>
<defs>
<clipPath id="clip0_1447_150952">
<rect width="23" height="24" fill="white"/>
</clipPath>
</defs>
</svg>
