<svg width="24" height="24" viewBox="0 0 24 24" fill="none" xmlns="http://www.w3.org/2000/svg">
<path d="M12.0011 0C8.74209 0 8.33309 0.0142459 7.05307 0.0724996C5.77556 0.130998 4.90355 0.33325 4.14054 0.630012C3.35128 0.936503 2.68177 1.3465 2.01477 2.01375C1.34727 2.68076 0.937257 3.35025 0.629758 4.13925C0.332249 4.90251 0.129743 5.77475 0.0722516 7.05175C0.0150042 8.33175 0 8.741 0 12C0 15.259 0.0145039 15.6667 0.0724954 16.9467C0.131255 18.2242 0.333506 19.0963 0.630002 19.8593C0.936757 20.6485 1.34676 21.318 2.01402 21.985C2.68078 22.6525 3.35028 23.0635 4.13904 23.37C4.90254 23.6668 5.77482 23.869 7.05207 23.9275C8.33209 23.9857 8.74084 24 11.9996 24C15.2589 24 15.6667 23.9858 16.9467 23.9275C18.2242 23.869 19.0972 23.6668 19.8607 23.37C20.6497 23.0635 21.3182 22.6525 21.985 21.985C22.6525 21.318 23.0625 20.6485 23.37 19.8595C23.665 19.0963 23.8675 18.224 23.9275 16.947C23.985 15.667 24 15.259 24 12C24 8.74099 23.985 8.33201 23.9275 7.052C23.8675 5.77449 23.665 4.90251 23.37 4.13951C23.0625 3.35025 22.6525 2.68075 21.985 2.01375C21.3175 1.34624 20.65 0.936247 19.86 0.63C19.0949 0.33325 18.2224 0.130998 16.9449 0.0724996C15.6649 0.0142459 15.2574 0 11.9974 0H12.0011ZM10.9246 2.1625C11.2441 2.162 11.6006 2.1625 12.0011 2.1625C15.2052 2.1625 15.5849 2.174 16.8502 2.2315C18.0202 2.28501 18.6552 2.4805 19.0782 2.64475C19.6382 2.86225 20.0375 3.12225 20.4572 3.54225C20.8772 3.96225 21.1372 4.36226 21.3552 4.92225C21.5195 5.34474 21.7152 5.97975 21.7685 7.14975C21.826 8.41475 21.8385 8.79475 21.8385 11.9973C21.8385 15.1997 21.826 15.5798 21.7685 16.8448C21.715 18.0147 21.5195 18.6498 21.3552 19.0723C21.1377 19.6323 20.8772 20.031 20.4572 20.4507C20.0372 20.8708 19.6384 21.1307 19.0782 21.3482C18.6557 21.5133 18.0202 21.7082 16.8502 21.7618C15.5852 21.8192 15.2052 21.8317 12.0011 21.8317C8.79684 21.8317 8.41709 21.8192 7.15207 21.7618C5.98207 21.7078 5.34706 21.5123 4.9238 21.348C4.3638 21.1305 3.96378 20.8705 3.54379 20.4505C3.12378 20.0305 2.86379 19.6315 2.64577 19.0712C2.48152 18.6488 2.28577 18.0137 2.23253 16.8438C2.17502 15.5787 2.16352 15.1988 2.16352 11.9943C2.16352 8.78976 2.17502 8.41174 2.23253 7.14675C2.28603 5.97675 2.48152 5.34175 2.64577 4.91875C2.86327 4.35875 3.12378 3.95875 3.54379 3.53876C3.96378 3.11875 4.3638 2.85875 4.9238 2.64075C5.34681 2.47575 5.98207 2.28076 7.15207 2.227C8.25908 2.177 8.68809 2.162 10.9246 2.15949L10.9246 2.1625ZM18.4067 4.155C17.6117 4.155 16.9667 4.79926 16.9667 5.59449C16.9667 6.3895 17.6117 7.0345 18.4067 7.0345C19.2017 7.0345 19.8467 6.3895 19.8467 5.59449C19.8467 4.7995 19.2017 4.15451 18.4067 4.15451L18.4067 4.155ZM12.0011 5.8375C8.59784 5.8375 5.83857 8.59675 5.83857 12C5.83857 15.4033 8.59784 18.1612 12.0011 18.1612C15.4044 18.1612 18.1627 15.4033 18.1627 12C18.1627 8.59675 15.4042 5.8375 12.0009 5.8375H12.0011ZM12.0011 8C14.2101 8 16.0012 9.79075 16.0012 12C16.0012 14.209 14.2101 16 12.0011 16C9.79186 16 8.00109 14.209 8.00109 12C8.00109 9.79075 9.79186 8 12.0011 8Z" fill="white"/>
</svg>
