<svg width="29" height="24" viewBox="0 0 29 24" fill="none" xmlns="http://www.w3.org/2000/svg">
<path d="M25.9536 6.0341C25.9711 6.2894 25.9711 6.54469 25.9711 6.80234C25.9711 14.6529 20.0308 23.707 9.16868 23.707V23.7023C5.95997 23.707 2.81791 22.7823 0.116699 21.0388C0.583272 21.0953 1.05218 21.1235 1.52226 21.1247C4.18138 21.127 6.76448 20.2294 8.85646 18.5765C6.32948 18.5282 4.11355 16.8706 3.33944 14.4506C4.22464 14.6223 5.13674 14.587 6.00557 14.3482C3.25057 13.7882 1.26851 11.3529 1.26851 8.52469V8.4494C2.0894 8.9094 3.00851 9.16469 3.94868 9.19293C1.35388 7.44822 0.554038 3.97528 2.12097 1.25999C5.1192 4.97175 9.54287 7.22822 14.2916 7.46704C13.8157 5.40352 14.4659 3.24116 16 1.79057C18.3785 -0.458838 22.1193 -0.343544 24.3551 2.04822C25.6776 1.78587 26.9452 1.29763 28.1052 0.605868C27.6644 1.98116 26.7417 3.1494 25.5092 3.89175C26.6798 3.75293 27.8234 3.43763 28.9004 2.95646C28.1075 4.15175 27.1089 5.19293 25.9536 6.0341Z" fill="white"/>
</svg>
