<svg class="mapIcon" xmlns="http://www.w3.org/2000/svg" viewBox="0 0 88 88">
  <path class="mapIcon__bg" d="M80.39,49.91A36.86,36.86,0,1,0,38.1,80.39,36.85,36.85,0,0,0,80.39,49.91Z" style="fill: #b67a7b"/>
  <path d="M27.24,63.16c.13.13.07.13.18.24a.28.28,0,0,1-.17-.07.4.4,0,0,1-.1-.15.1.1,0,0,0,.09,0,.19.19,0,0,1,0-.08.24.24,0,0,1,0-.08.15.15,0,0,1,.05-.06.13.13,0,0,1,.08,0c.07.06,0,.11,0,.14h-.08l0,0Zm3.57-3.5-.12,0C30.77,59.67,30.69,59.81,30.81,59.66ZM27,64.39l0-.06s0,0,0,0A.21.21,0,0,1,27,64.39ZM35.94,54v0l0,0Zm-4.85-.17-.13,0h.13Zm4.63.46,0,0,0,0ZM26.91,59s0-.07,0-.11S26.86,58.92,26.91,59Zm3.6-4.63h0ZM27,58.81l0,0a.2.2,0,0,0,.09-.09Zm.41,4.84,0,0h0Zm0-.07v0S27.36,63.57,27.37,63.58Zm0-.12v.07A.06.06,0,0,0,27.37,63.46ZM26.78,65s.12,0,.15-.2v-.06C26.93,64.89,26.78,64.8,26.78,65ZM26,59.89l.05-.11h-.1Zm7.16-16s-.08.06,0,.08l.11-.06Zm0,.28a.18.18,0,0,1-.07,0,.33.33,0,0,0,.14,0,.4.4,0,0,0,.12-.1c-.12.05-.09,0-.23.07s0-.08,0-.1,0-.06-.09,0S33.09,44.14,33.19,44.14Zm1.87,2.58c.07,0,0,0,0,0Zm-.94-1,0,.06.12-.08A.12.12,0,0,1,34.12,45.68ZM24.23,59.54h0Zm.53-2.68h-.1C24.73,56.88,24.75,57,24.76,56.86Zm8.89-12.49h0s0,0,0,0l0,0h0Zm-7.9,8.33h0v0ZM30.93,48,31,48a.16.16,0,0,0-.08-.06Zm-2.36.09s0,0,0-.05S28.57,48.07,28.57,48.09ZM34.49,46h0ZM24.12,59.11,24,59h.06s0,0,0,0,0-.13,0-.19l-.08,0c-.19-.18.19-.28.1-.42l-.14-.1h.12c-.07-.05-.16-.07-.11-.16.2-.34,0-.7.13-1l-.05,0c.3-.26-.26-.48,0-.72l0,0c0-.13,0,0,.11-.06-.13,0-.09-.18-.13-.27s0,.08,0,.07.12,0,.1-.05c-.19-.09-.15-.29-.19-.43s.19-.11.34-.14l-.16-.09c.07,0,0-.09,0-.13v.17a.08.08,0,0,1-.1,0s0,0,0,0,0,0,0,0h0s0-.14.07-.14a.25.25,0,0,1,0-.07v0s0,0,0,0h0c.06-.07-.08-.22-.13-.31.11.1.15,0,.25,0a.6.6,0,0,0-.06.19h.07c.12-.08-.06-.18,0-.3l0,0h0s0-.1-.09-.12.23-.09.16-.15-.11-.06-.08-.14l.06.05c.08-.08-.08-.1,0-.17s0,0,0,0,0-.12-.16-.23l.1.05c-.05-.11-.14-.3,0-.26-.22,0-.06-.22,0-.29s0,.05.06.05c-.09-.19.09-.31.14-.47l.16,0c0-.08-.27-.21-.23-.3l.06.06a.85.85,0,0,1,.14-.34l.1,0c0-.06,0-.12,0-.18.21,0,.15-.23.22-.39h0V52l0,.05a.23.23,0,0,1,.17-.12L25,51.85c0-.07,0-.18.2-.15s.08-.06.09-.09a.15.15,0,0,0-.12-.11.83.83,0,0,0,.21-.28c.07-.1.14-.19.25-.19.06-.21,0-.44.14-.61h0a.3.3,0,0,1,.16-.08.23.23,0,0,1,.18,0c.06-.15-.07-.38.11-.49l0,.08s0-.15,0-.16,0,0,0,0,0-.08,0-.12l0,.05c.2,0,.17-.38.34-.51,0,0,.05.08.07.08-.07-.19.12-.32.15-.41V49c0-.2.22,0,.26-.16h-.14c.07,0,.09-.09,0-.14.1,0,.1.1.21,0s-.05.08,0,.11h.12a.06.06,0,0,0,0,0s.06,0,.07,0h.07s0,0,.06,0c-.16-.17.09-.09-.11-.22.16-.15.4-.14.49-.33.2.13.32-.22.47,0a.28.28,0,0,0,.12-.28s0,0,0,0a.26.26,0,0,1,.12-.13.9.9,0,0,0-.09.32,1.64,1.64,0,0,0,.16-.29l.1.11c0-.13.11.08.11-.09l0,0c.13-.07.06-.2.18-.28l0,.05c.06,0,.06-.15.16-.05l-.08,0a.39.39,0,0,0,.19.14c.08-.06,0-.17,0-.2s0,0,0,.15a.62.62,0,0,0,.23-.32v0c.1,0,.13-.24.23-.18v0c.13.1.17-.21.27,0,0,0-.1,0,0,.11s0-.22.15-.19v0a.94.94,0,0,0,.26-.14.11.11,0,0,0,.09,0l0-.05s0,0,0,.06.25-.13.39,0c-.06-.07,0-.1,0-.14v0c.05,0,.05-.08.05-.12s.11-.1.15-.06,0-.06.07-.06,0,.12,0,.21.09-.25.23-.25l.09.09c0-.17.11-.11.11-.17s.08.07.08.15.14,0,.14-.07l0,0c.17,0,.24-.2.38-.11l0,.22c.09.08.14-.15.23,0-.05-.07-.05,0,0-.13s-.09.06-.14.06l.1-.14-.17.08c.07-.09.06-.07,0-.16s.13.09.23,0,0,.11,0,.15.18.16.24,0,0,0,0,.06.12,0,.12-.09l-.06,0s0-.09.14,0,0-.17,0-.17,0,.05,0,.12.06-.25.2-.15v0h.08c-.1,0,0,.18-.1.14,0,.12.1,0,.15.06s0-.17,0-.23,0,0,.06,0l0-.08a.16.16,0,0,0,.09,0l-.06,0c.06,0,.15.16.25.08s-.06.11,0,.15,0,0,.09.11,0-.16.19-.1,0,0,0-.07.17,0,.28,0-.07-.06,0-.1,0,.07,0,.07l0,0v0s0,.12,0,.09,0-.07,0,0,0,.21.06.23,0-.16,0-.21,0-.21,0-.13.16.19.24.21-.12-.09-.17-.17c.12.13.14.1.12,0s-.11-.12,0,0l.19.14H35l-.15-.08s.06,0,.22.11c-.14-.11,0,0,.1,0-.08,0,0,0,.06.05s.12,0,.09,0l.31.14c-.13-.08-.25-.17-.37-.26l.08,0c-.09-.06-.06-.08-.06-.11s0-.07-.14-.14-.19-.08-.27-.1H35c-.16,0-.1,0-.18,0s.18,0,.13,0a.2.2,0,0,0-.15,0c.08,0,.08-.06.08-.08s0,0,0,0,0,0,.11,0-.11,0-.11,0H35s-.06,0-.06,0a.58.58,0,0,0,.19,0c-.15-.08-.25.07-.36.1a.07.07,0,0,0-.06-.08.15.15,0,0,1-.11,0l.09,0-.06,0-.06,0,0,0a.13.13,0,0,0,.08,0l.07,0c-.07-.05-.11-.12-.22-.06,0-.1-.13-.26-.09-.29s-.12-.19-.23-.1,0-.23-.13-.15c0-.12,0,0,.12-.08s-.2,0-.07-.16c-.1,0,0,0-.1.07.13-.13-.08-.13,0-.26-.09,0,0,.06-.12.06s0-.05,0-.07l-.09.07.16-.25c-.18,0-.13.15-.28.07.06-.12-.15,0-.15-.17,0,0,0,0,.09,0l-.08,0h0c0-.1,0,0,0-.1s.11,0,.12-.09h-.16l.15-.07c0-.08-.33,0-.2-.19l0,0s.1-.11,0-.12a.49.49,0,0,1,.17.06c-.05,0-.11,0-.15,0a1.89,1.89,0,0,0,.23,0l-.15.06c0,.09.09,0,.13,0s0,.09-.06.09.12,0,.12.14-.11,0-.12.06.23,0,.38,0,.12.3.29.3,0-.12.07-.08,0,.07,0,.1c.16,0,.05.1.16.08s0,.07,0,.11,0,.09-.17.12c.2,0,.1.18.36.07v0l0,.12s0,0,0,.16-.06,0-.1,0,.15,0,.19.09-.06,0-.13.05.1,0,.15,0l0,0c0,.16.2-.12.14.05,0,0,0,0,.06-.05s0,.17-.12.15a.11.11,0,0,0,.07,0h.08c0-.07,0-.05.05-.12a.91.91,0,0,1,.16.11s0,0-.07,0c0,.18.11.24.25.33s.31.22.2.31c.08,0,.11,0,.2,0s.17.2.15.25l-.11,0a2.9,2.9,0,0,1,.57.48h0l0,.11,0,0h-.06a.19.19,0,0,0-.08,0,.33.33,0,0,1-.21.07c-.26-.14.12,0-.18-.17s-.23,0-.46,0c0,0,0,0,0,0-.24-.11.17.13,0,.09a.4.4,0,0,0-.16-.12s.06.07.06.11a.41.41,0,0,1-.1-.13c0,.14-.21,0-.19.14s0-.16-.11-.2-.1,0-.13,0a.32.32,0,0,0-.17-.09c-.13-.05,0,.06-.11.13l.12.06h0l-.2,0,.07-.06c-.09-.05-.14,0-.23,0l0,.07-.08,0c0-.14-.11,0-.06-.2-.16-.07-.27.12-.42.12,0,0,0,0,0,0s-.13,0-.18.11,0-.06,0-.09,0,.08-.16.13,0-.11,0-.11a.13.13,0,0,1,0,.06l0,.05c.07-.29-.13-.11-.09-.34,0,.06-.17.2-.12.3l0,0c0,.08,0,.06-.06.06l0-.05c-.16.11-.33,0-.5.11,0,0,.08-.1,0-.11s-.27.14-.43.24c0-.18.17-.06.17-.23a2.81,2.81,0,0,0-.55.27c-.12-.25-.18.15-.34,0,0,.08,0,.12-.09.14s-.05-.06-.05-.11-.21.16-.24,0c0,.16-.13,0-.15.14-.09,0-.14.09-.25.07.06.09-.07.07-.09.13v0c-.06-.07-.11.11-.15.08s0-.09-.06-.09-.09.19-.17.13V48.1c-.2.21-.5.19-.68.42v-.13c-.22-.07,0,.22-.12.27s-.34.09-.52.14a1,1,0,0,0-.44.27s0,0,.07.07-.09-.08-.09,0l0,0c-.24-.07-.26.37-.53.22,0,.17-.26.09-.26.34-.09,0,0-.13-.11-.09l0,.2c0,.25-.47.15-.48.42,0,0-.13,0-.11,0s0,0,.08,0a.87.87,0,0,1-.15.34c0-.09-.08,0-.16,0s.09,0,.09.14-.2.15-.28.21,0,.11.08.17c-.07.11-.07.2-.15.34h0c.09.11-.14.09-.09.15s0,0-.08-.06v.08s-.11-.13-.16-.08.06,0,.12.08l-.12,0s.1.12.16.09c-.08.14-.1.32-.18.44L26,52.08c0,.09-.06.2-.14.2s.05,0,.08,0-.13,0-.06.1c0,0,0-.07-.06-.1v.23c-.06,0-.22,0-.22.14h.1v.06h-.14l.08.12-.11-.05c0,.07.13.14.11.18s-.16.09-.31.17c.21.09-.07.19.07.27-.22.11-.19.38-.3.58v0c-.13.06.13.15.06.24l0,0c-.15.1-.1.35,0,.5,0,0-.14-.07-.1,0s.16,0,.1.06-.07,0-.07,0l.09.09a.8.8,0,0,0-.2.55c-.05,0-.09,0-.12,0s.06.31.06.45h-.13c0,.06.19.07.06.14s0-.06,0-.1c-.12.12.11.1.08.22L24.7,56c-.1.09.06.12.14.17s-.29.06-.19.26c.07,0,.11,0,.18,0s.05.15,0,.28c-.23.06,0-.06-.21,0l.06-.09c-.12.07,0-.09-.15-.09s.06.17.09.26,0-.1-.14-.07l0,0s-.06,0-.06,0,0,.05,0,.09h.16c.12.1,0,.23.12.31h-.06s.11.11.15.18h-.07l0,0v0c-.06,0-.11,0-.11.06h0c.11,0-.05.11.14.11-.13,0-.08,0-.17.07.1,0,.09.11.21.11-.14,0-.16-.1-.31,0,.09.05.12.16.27.16,0,0-.11,0-.11.11s0,0,0,0,0,.27.17.33c-.22,0,0,.23-.22.15a.21.21,0,0,0,.13.13c-.16,0,0,.11-.13.16.09,0,.06.1.11.15l0,0h-.05c.07.05,0,0-.08.09s.13,0,.21,0-.1,0-.17,0l.17.09a.15.15,0,0,1-.09,0l0,0-.08,0,.11.09c-.11.14-.29.12-.47.12l0-.06a.06.06,0,0,0-.06,0,.1.1,0,0,0,0,0s-.2-.08-.22-.15S24.08,59.24,24.12,59.11ZM36.26,47.42h0a.18.18,0,0,1,0-.11l-.18-.09c.12.07,0,.08,0,.07S36,47.29,36.26,47.42ZM24.74,55.25s0,0,.07,0a.24.24,0,0,1,0-.08h0S24.75,55.21,24.74,55.25ZM33.3,44.18s.05-.06.08-.07a.12.12,0,0,0-.08,0ZM24.75,57.39s0,0-.11.06,0,0,0,0,.22,0,.22.07l-.1-.14Zm8.63-13.28h0ZM24.67,59.17ZM24,55.45l0,0h0Zm.64,3.72v.08C24.73,59.21,24.71,59.19,24.67,59.17Zm1-6.28h0v0Zm9-5.54-.05,0C34.67,47.41,34.69,47.41,34.67,47.35Zm-3.3.59Zm2.46-3.37s0-.11,0-.13l0,0C33.82,44.44,33.76,44.59,33.83,44.57Zm0,.74-.05-.1s0,.09-.08.06C33.71,45.46,33.76,45.19,33.84,45.31Zm.19.31c-.05,0,0,0-.06.05S34,45.67,34,45.62Zm1.7,1.89,0,0,.16.07ZM28.94,48c-.05,0-.11,0-.11,0S28.93,48,28.94,48Zm6.92.43-.14-.2-.06.2A.11.11,0,0,0,35.86,48.41Zm7.63-9.5.17-.11S43.56,38.86,43.49,38.91Zm-1.77,2.66a.39.39,0,0,0,0,.09v-.13ZM62,25.49c-.08,0,0-.43-.27-.31C62,25.14,61.59,25.61,62,25.49ZM55.36,26a.11.11,0,0,1-.09.06s.08,0,.12-.06ZM56.87,25l.1,0h0Zm-14,21.85a.41.41,0,0,1-.18-.05C42.81,46.9,42.62,47.15,42.86,46.88ZM37,46.4l0,0a.24.24,0,0,0,0,.12l0-.09a.09.09,0,0,0,.06,0,.05.05,0,0,1,0,0,.06.06,0,0,1,0-.06ZM55.87,24l-.24.06h.24Zm-8.42,16.3a.11.11,0,0,1,0,0S47.45,40.24,47.45,40.25ZM65.66,23.07l0,0-.1.13c-.27.34-.48.68-.7,1,0,.12.19-.08.31-.08a1.12,1.12,0,0,1-.28.16c-.1.05-.17.09-.19.2l.19,0a4,4,0,0,0-.75.61c-.11.12-.23.24-.34.37l-.12.14-.09.11c-.24.3-.47.56-.81.53-.23.52-.72.54-1,1.2-.21.07,0-.31-.19-.14l-.28.56v0c-.13.66-1.34.81-1.65,1.49v0c0-.07-.22,0-.28.07s.09,0,.19,0a5.24,5.24,0,0,1-.76,1c.06-.24-.22.07-.36,0,0,.16.18.06.05.34a5.86,5.86,0,0,1-1,.68c0,.2-.13.31,0,.45-.32.36-.45.6-.85,1l-.06,0c.06.28-.44.28-.42.45-.05-.07,0-.14-.09-.17l-.13.24c0-.14-.07-.35-.24-.21s.13,0,.15.21l-.21-.1a.14.14,0,0,0,0,.11.17.17,0,0,0,.15.16l.12,0c-.41.41-.73.91-1.12,1.25l-.07-.14a1.28,1.28,0,0,1-.64.55s0,.14.1.14c-.1.38-.2-.14-.3.28,0-.11.08-.21,0-.28L53.6,36c-.07-.07-.54.07-.68.34a.16.16,0,0,0,.2,0l0,0a.08.08,0,0,1,0,0h0l-.1.18-.27-.07,0,.34-.15-.14c-.1.18,0,.42-.1.52-.52.35-.49.21-.93.38.25.31-.49.48-.36.76-.63.21-1.08.94-1.67,1.42l0-.07c-.36.11,0,.49-.34.68v-.1a2.48,2.48,0,0,0-1.05,1.29c0-.1-.1-.15-.19,0s.28.12.06.24a.07.07,0,0,0-.12-.06l0,.31,0,0s0,.1,0,.13,0-.1,0-.11l-.18.13a.2.2,0,0,1,0,0s-.12,0-.16.07c.13,0,.27,0,.41,0s0,.28.22.27,0-.12.11-.09c-.1.06,0,.07-.08.1.18,0,0,.1.15.07,0,0-.06.07-.07.12s0,.09-.23.13c.23,0,.06.17.36,0l0,0v.11s0,0-.05.16-.07,0-.11,0,.15,0,.19.07-.07,0-.16.06.09,0,.14,0l0,0c-.05.16.26-.13.14,0l.09,0s-.08.16-.18.16a.19.19,0,0,0,.15,0c.05-.08,0-.06.09-.13l.14.08H48.7c-.15.31.41.12.22.49.06-.06.08,0,.14-.06s.07.13.07.21l-.06,0c.15.08.29.1.31.2s-.07,0-.1,0c.14,0-.12.27.1.14v0c0,.14.28.16.39.26-.1.12-.06-.06-.19.07s.18.13.2.24h-.05c0,.16.12-.08.15,0s-.09.06-.09.11l.12,0a.57.57,0,0,1-.13.08c.15-.06.13.1.27,0,0,0-.18.08-.19.13s.06,0,.13,0,0,.15,0,.15.08,0,.19,0v-.09l.1.08h-.09c0,.08.12.05.16.11l0-.08.09,0c-.14.11,0,.11-.17.19,0,.17.26.11.34.2s0,0-.06,0,.11.06.21,0l-.11,0c0,.07.11,0,.21,0-.07,0-.1,0-.1.08a.19.19,0,0,1,.13-.05c-.33.15-.06.17-.31.3.06,0,.26,0,.36-.12.17.05.17.22.33.3,0,0-.12,0-.12,0s.24.12.41.2c-.18.13-.13-.12-.31,0a2.42,2.42,0,0,0,.5.27c-.23.24.21.07.07.31.08-.07.15-.05.19,0s-.05.09-.12.11c.12,0,.24.09.06.21.06,0,.08,0,.1,0l.09,0-.09,0s0,.1.11.07,0,0,0,0l0-.06,0,.09s.09,0,.09.13.07-.06.1,0,.06.1.1.1h-.06c-.07.1.19.1.19.21s-.13,0-.1.09.34.13.27.23-.08,0-.13,0a.81.81,0,0,1,.12.14.09.09,0,0,1,0,0c.11.19.24.27.26.15a.35.35,0,0,1,0,.23s0,0,0,0h0a.35.35,0,0,0,.1.17c0,.06-.18-.13-.16,0s0,.14.07.2l0,.11c0-.11.19,0,.19-.12,0,.14-.14.12-.19.16h0s0,0,.09.1c.18-.19.15.15.26-.12.26.26.34.61.64.76-.1.28.42.48.15.68a.55.55,0,0,0,.19.15.69.69,0,0,0,.25,0c0-.05-.07-.07-.11-.07s.25.13.31.2a1.21,1.21,0,0,0-.46-.12,2,2,0,0,0,.46.22l-.1.15c.2,0,0,.17.2.17l0,0c.16.19.29.08.46.23l-.06,0c0,.08.24.06.17.22l-.11-.1a.44.44,0,0,0,0,.29c.14.1.19-.09.25,0s0,0-.15.08a1.08,1.08,0,0,0,.54.25l0,0c.11.15.37.14.37.29h0c0,.22.38.18.19.4,0,.09-.1-.13-.13.05s.27-.05.34.15c0,0,0,0-.05,0l.38.32c0,.3.44.4.38.74,0-.11.13,0,.16-.06s0,0,0,0,.12,0,.17,0,.2.1.2.17.08,0,.13.08c-.15-.07-.13.06-.25.06.14.18.37,0,.48.21v.17c.15-.1.24.1.28,0s0,.13-.07.18c.09,0,.12.2.22.16l0-.1c.15.25.44.21.49.45l-.19.16c0,.18.28.1.24.3,0-.09,0-.07.14-.07,0-.05-.14-.08-.2-.15l.24,0-.25-.17c.18,0,.13,0,.18-.07.18.08,0,.23.23.29,0,.07-.09.08-.09.17.17.06.06.34.23.34,0,0,0,0-.09,0s.13.12.2.09l0-.09c0,.06.13,0,.18.15s.23,0,.17-.1a.1.1,0,0,1,0,.15c.16.17.29-.1.34.14,0,0,0,0,0,0a.15.15,0,0,0,.09.1c-.15-.11-.12.2-.23,0-.09.11.1.14.1.23s.15-.13.24-.13,0,.06,0,.12l0-.11a.27.27,0,0,0,.12.09l-.1,0c.06.09,0,.31.22.37-.06,0-.18,0-.15.1s0,.07,0,.2c.15.12.16-.1.3.15,0,0,0,0,0-.08.09.17.21.2.28.39,0-.08,0-.15.06-.1-.09,0,0,.16,0,.25l.06,0c0,.08-.07.05-.11,0s0,0,0-.06-.22.12-.14.24l.07,0h.08l.06,0a.16.16,0,0,0,0-.07c.09.19.3,0,.38.19,0,0,0,.28.05.4s-.05-.2.08-.2c-.06.38.46.25.54.59l-.13.07a.5.5,0,0,0,.15.17v-.13c.07,0,.16.18,0,.21.2,0,.17.12.24.25-.09-.12,0,0-.12,0,.06.17.11.15.21.21l0,.07a.28.28,0,0,0,0,.09.37.37,0,0,1,.19.09.78.78,0,0,0,.19,0l0,0a1,1,0,0,1,.34.2.83.83,0,0,0,.45.19h0l0,0c0-.14.34,0,.51.08,0,0-.09.06,0,.09s.2,0,.34,0-.19.06-.11.12l0,0s.06,0,.15,0a1.58,1.58,0,0,0-.39.24s.08-.09.08-.09-.1,0-.22,0,.13,0,0,.11l-.07-.08a.07.07,0,0,0,0,.09s0,0-.11,0l-.06.07.11,0a1.5,1.5,0,0,1,.3,0,.62.62,0,0,0-.25.28,2.61,2.61,0,0,1-.17.28l-.07-.1a.16.16,0,0,0,0,.15l0,0v.08a.08.08,0,0,1,0,0h0l-.08.08a.12.12,0,0,0,0-.1.16.16,0,0,0-.06-.08c0,.09-.17.19-.1.32-.15.09-.39.31-.43.26,0,.13-.18.21-.2.29s.1.13.08.13l-.06,0c0,.1-.33.06-.23.25-.16,0,0,0-.1-.13s-.09.08-.11.14,0,.1-.13,0c-.06.17.05,0,.08.13-.08-.07-.13,0-.19,0s-.12.17-.18.15c0,.15.06,0,0,.21,0-.07,0,0-.07,0v.2a1,1,0,0,1-.1-.29l0,0a1.43,1.43,0,0,0,0,.22.59.59,0,0,1-.12.31v0c0-.08-.06,0-.12.12s-.09-.06-.12-.26c0,.12,0-.07.07-.11l-.07,0s0,0,0-.05c0-.25-.06,0-.06-.25,0,0,0,0,0,0l-.06-.14h0l0,0-.43-1.09h0l-.1-.05a.12.12,0,0,0,0,.16c0,.07-.27,0-.36,0-.19-.23.13-.21,0-.39l-.26-.12,0-.05c0-.06-.08,0-.08,0s-.12-.18-.18-.27l0,.08c-.36-.07-.15-.49-.39-.59l-.23,0,.08-.12c-.12,0-.21,0-.28-.11-.2-.58-.82-.84-1.09-1.36V60c-.08-.6-.77-.35-.88-.86h.06c-.17-.15.05,0,0-.18-.14.09-.29-.13-.42-.19,0,0,.07,0,.11,0s.06-.11,0-.14c-.29,0-.48-.21-.68-.34,0-.09,0-.3,0-.49l-.22,0c0-.12-.08-.12-.17-.12l.13.13h0s.06,0,.06,0-.06.05-.15.13a.65.65,0,0,1-.11-.12h0l-.05,0a.09.09,0,0,1,0,0,.37.37,0,0,1,0-.11l0,0,0,0h0v0c-.06-.15-.34-.18-.48-.21.19,0,.11-.14.19-.22a1.33,1.33,0,0,0,.21.26s0,0,0,0l0,0c0-.2-.26-.14-.36-.37h0l0,0c0-.08-.15-.08-.21-.05a.25.25,0,0,0,0-.17.21.21,0,0,0-.11-.13c-.12,0-.14,0-.23-.08h.1c-.06-.17-.18,0-.22-.17,0,.07.06,0,.06,0-.15-.1-.18-.06-.38-.06l.1-.06c-.16-.06-.46-.17-.34-.28-.16.2-.31-.15-.39-.25s.07,0,.1,0c-.31-.09-.37-.4-.56-.6l.11-.16c-.1-.09-.4.12-.5,0l.1,0a1.91,1.91,0,0,1-.39-.46l.09-.08c-.09,0-.16-.1-.26-.12.1-.34-.61-.43-.58-.91l-.19.14c-.08-.08-.23-.18-.14-.34l0,0c.14-.11-.08-.1-.11-.19s-.17,0-.17.06c-.14-.33-.56-.62-.56-.92a3.19,3.19,0,0,1-1-.77h0l0,0,0-.08-.08-.14c-.05-.08-.1-.13-.17-.13s0-.21,0-.18V51a1.17,1.17,0,0,1-.44-.26c.12,0,0-.12.07-.21-.09,0-.08.09-.18.09s-.09-.22-.12-.31-.11,0-.21.09c-.09-.08-.17-.09-.27-.19l0,0c-.15.09,0-.15-.12-.1l.1-.08h-.09c.06,0,.19-.12.16-.17l-.06,0,0,0s-.18.09-.18.16c-.11-.11-.26-.16-.34-.27l.09-.06a.07.07,0,0,1-.06,0,.08.08,0,0,1,0,0,.14.14,0,0,1,0-.06v-.06s-.07,0-.09.07.11-.12-.06-.08a.28.28,0,0,0,.13,0l-.22,0c.06-.06.1-.26,0-.26a.19.19,0,0,0,0,.1h-.06l.1-.14-.16,0,.1-.1s-.2.1-.22.06,0-.19,0-.36c-.21.19-.12-.13-.28,0,.06-.26-.19-.32-.28-.5h0c0-.15-.21.07-.23,0h0c0-.18-.21-.23-.37-.23.05,0,.13-.12.07-.1s-.12.16-.12.08,0-.07,0-.07l-.14,0c0-.18-.1-.38-.27-.45,0-.05.07-.07.11-.1s-.29-.08-.39-.15l.11-.12s-.2.15-.15,0,0,0,.11,0-.16.06-.22,0l.14-.11c0-.14-.13,0-.23.05s.2-.31,0-.31-.09.1-.17.14-.15,0-.19-.15c.15-.23,0,0,.17-.18l0,.11c0-.16.07,0,.18-.1s-.16,0-.25-.06c.09-.08.07.06.17-.08h-.07a.13.13,0,0,1,.08,0c.08-.09,0,0-.05-.06l-.17.17,0,0c-.18.07-.17-.11-.31-.06,0,0,.08,0,0-.06s-.17,0-.24,0,.2-.17.1-.2-.18.2-.23.14.1,0,.1,0,0,0,0-.17c-.13.07,0-.09-.19.07a.39.39,0,0,0,.1-.19c-.07.1-.15,0-.26.12.12-.13.21-.08.3-.25-.11,0-.2,0-.34.14,0-.06,0-.12,0-.17s0,0,.05,0c-.15,0-.16-.16-.36-.05.15-.11,0-.15,0-.2a.43.43,0,0,0-.52.28c0,.16.16.1.19.26-.36.28-.27.44-.63.72-.44-.1.16-.17-.28-.23l.3-.19c-.35.08.15-.21-.05-.34-.2.12-.3.49-.44.75-.12-.12.22-.25,0-.32l-.05.15c0-.06-.06-.11,0-.17-.16-.08-.13.11-.22.22a.79.79,0,0,0,.27.21H42.6c0,.38-.49.59-.52.91,0-.07,0-.05-.08-.07s-.09.41-.2.62c-.18,0-.23-.32-.44,0,.06.14.36.2.14.42,0,0,.1-.29-.08-.29-.14.29-.1,0-.41.12,0,.26-.27.17,0,.43-.23-.07-.15,0-.4,0,.19.06-.13.39,0,.52-.23-.1,0-.44-.34-.44,0,.24-.18.51,0,.72a1,1,0,0,0-.41.16s0-.08,0-.11c-.15.41-.54.55-.73,1.21-.06-.21-.3,0-.51.22s-.37.36-.25,0a2.53,2.53,0,0,0-.13.22.05.05,0,0,0,0,0l-.2.24-.07.09a.35.35,0,0,1-.05.08h0a2.09,2.09,0,0,1-.23.29l0,0c.06.16-.24.14-.21.24,0-.05,0-.08-.06-.11l-.06.14c0-.08-.07-.21-.16-.13s.07,0,.1.12l-.13-.07c0,.08.06.21.16.16-.21.22-.35.49-.55.68l0-.09c-.08.14-.22.3-.34.3s0,.08.07.08c0,.21-.12-.09-.15.15,0-.06,0-.12,0-.16l-.16.34a.3.3,0,0,0-.21,0,.29.29,0,0,0-.16.15l.06,0,.06,0,0,.09L35.7,54v.2l-.1-.09c0,.1.06.24,0,.3-.28.18-.27.1-.51.18.19.19-.25.26-.15.42-.35.1-.55.5-.86.75v0c-.2,0,0,.28-.14.38v-.06c-.26.08-.44.47-.5.7l0,0s0,0,0,0h0l0,0c0,.08.17.08,0,.14s0-.06-.07,0V57a2.19,2.19,0,0,0-.77.68c-.08,0-.08-.05-.11-.09-.15.22-.25.49-.39.68l-.13-.08c-.08.09.12.21-.08.23,0,0,.06-.08,0-.16-.24.1,0,.2-.15.36l-.08-.16c-.19.06-.07.21,0,.32,0,.31-.35-.09-.46.25,0,.1.1.07.13.17-.19.14-.12.24-.31.38-.27-.08.08-.09-.18-.14l.16-.1c-.2,0,.06-.12-.06-.2s-.13.27-.19.41c-.09-.08.1-.14-.06-.19v.09s0-.07,0-.1-.06.06-.11.12a.59.59,0,0,0,.18.13h0c0,.22-.23.32-.23.5,0,0,0,0-.06,0s0,.22-.06.34-.16-.2-.26,0c.05.09.23.13.12.25a.12.12,0,0,0-.13-.16c-.05.16-.05,0-.23.06,0,.15-.15.08,0,.24-.14-.06-.09,0-.23,0,.11.05,0,.22.07.31-.15-.08,0-.27-.25-.27,0,.14-.06.29.06.41a.43.43,0,0,0-.23.08s0,0,0-.07c0,.23-.31.35-.23.57-.16-.2-.29.28-.37,0a.5.5,0,0,0,0,.27c-.13-.13-.16.11-.3.11,0,.1-.09.18-.09.29a.09.09,0,0,0,0-.07.1.1,0,0,0-.05,0c0,.12,0,.06-.17.06s.14.08.14.2-.1-.07-.17-.11l0,.26a.19.19,0,0,1-.13,0c0,.08,0,.17-.1.17l.09-.11-.1,0,0,.21a.35.35,0,0,1-.2,0l-.06.07,0-.08a.27.27,0,0,1-.11,0h0l-.12-.13-.43,1.09.09.25a1.2,1.2,0,0,0,0-.38c0-.11,0-.18.15-.16v.1s.18,0,.15-.14-.11-.11-.11-.06a.13.13,0,0,1,.07-.06c.11,0,0,.34,0,.53,0-.09,0-.25-.08-.25s0,.35,0,.54A1.28,1.28,0,0,0,27,64c-.1.07,0,.18,0,.31s-.09,0-.09-.1c0,.17-.06.31-.14.34s0-.28-.05-.31a2.28,2.28,0,0,0,0,.53s-.08.07-.17,0-.26-.19-.37-.37-.18-.32-.31-.35.1.24,0,.13c.08-.07,0-.14,0-.18l-.12,0a.23.23,0,0,1-.07-.1s0-.08-.1-.08,0-.1,0-.16-.06-.14.21-.12c-.28,0-.18-.3-.52-.21v.07l-.09-.19c0-.08-.07-.07,0-.25.06,0,.11.07.17.09,0-.16-.22-.1-.31-.19.08-.06.11.07.17,0s-.14-.08-.21-.12l0,0c0-.23-.25.12-.21-.12,0,0-.08,0-.08.06s0-.24.13-.18l-.1-.07h-.11c0,.11,0,.08,0,.17l-.14-.11-.16-.15s.07,0,.11,0a.58.58,0,0,0-.09-.23.77.77,0,0,0-.18-.18,3.23,3.23,0,0,1-.49-.41,1.63,1.63,0,0,1,.53-.12c-.17,0-.07,0-.1-.1a4.31,4.31,0,0,1,.6-.22v.07l.21-.17.14-.12a.92.92,0,0,1,.27-.16s0,.08,0,.11.07,0,.15,0,.15,0,.07-.12l0,0c.21-.17.3-.53.48-.77.15,0-.1.14.06.2.18-.11.23-.35.41-.48v.06c.22-.1-.12-.07,0-.2.05.06.07.06.14,0l0-.12a.2.2,0,0,1,.09.11c-.05-.16.19-.28.13-.42s.1.13.16.15.1-.13.1-.22.22-.13.22-.09c.16-.1,0-.07,0-.23l-.15.07.15-.21,0,.12c.12,0,.11-.22.2-.32h-.09l.06-.14c.13.09.16-.13.24.06.26-.16.22-.43.39-.64,0,0,0,0,0,.07a.33.33,0,0,0,.11-.15.41.41,0,0,0,0-.19s0,.09.05.12c.12-.14,0-.15.1-.33,0,.09,0,.1.1.07a.08.08,0,0,1,0-.06.09.09,0,0,1,0-.07c.14.32.25-.08.37.16,0-.06.06-.37-.09-.4v.06c-.07-.06,0-.09,0-.13v.08c.11-.28.38-.44.53-.73,0,0,0,.18,0,.14.25-.2.25-.45.39-.74.17.13-.2.28-.06.42A7.17,7.17,0,0,0,30,55c.32.11.14-.36.48-.36-.09-.06,0-.17,0-.26,0,.09.13,0,.15.06,0-.14.2-.41.33-.26-.12-.17.17-.18.13-.34.15-.06.18-.25.34-.34-.14,0,.07-.17.07-.25s0,.06,0,.06.07-.21.18-.24.07.08.13,0,0-.33.18-.33c0,0,0,.07,0,.11.2-.44.66-.69.85-1.15l.05.16c.34-.09-.05-.3.13-.46a8,8,0,0,0,1.42-1.3s-.06,0-.11,0,.15,0,.15-.07l-.08,0c.35-.07.45-.71.84-.64,0-.11.2-.29.34-.42a2.1,2.1,0,0,0,.45-.61l-.06,0c-.09-.13.08-.19.06-.25l.06,0h.07a.09.09,0,0,0,.06,0,.21.21,0,0,0,0-.06c-.13-.27,0-.24-.13-.48a.44.44,0,0,1,.3.46s-.06-.1-.12-.09a.76.76,0,0,1,0,.15.61.61,0,0,1-.07.14.4.4,0,0,1-.12.1h-.06c.08,0-.12.32,0,.18l.11-.18.22.13a1.24,1.24,0,0,1,.48.16c.18.24.1.32,0,.4l.11.17a1.42,1.42,0,0,1,.08.18.43.43,0,0,1,0,.07l.21.11-.06.07.08.07h.06a.08.08,0,0,0,0,.09h0a1.73,1.73,0,0,1,.28.19s0,0,0-.08.18.06.25.25a.33.33,0,0,0,.19.06.27.27,0,0,0,.2-.18,1.94,1.94,0,0,0,0-.34l.16.12c0-.2-.05-.35.21-.51,1-.53,1.5-1.66,2.42-2.29,0,0-.07,0-.14,0,1-.33.66-1.44,1.55-1.78v.1c.28-.35,0,.09.32-.06-.16-.21.23-.53.34-.78,0,.07-.06.12-.08.2s.19.1.25,0c-.06-.46.38-.86.62-1.26.15.08.51-.1.85-.05,0-.08,0-.22-.07-.36h0s0,0,0,0l0,0v0a.3.3,0,0,0,.21-.33l-.25.27v0a.09.09,0,0,1,0,.06c-.06.08-.09.11-.06.11-.23,0-.08-.1-.23-.22.11-.1.27-.36.4-.29a.69.69,0,0,1,.2-.13.2.2,0,0,1,0-.08s0,0,.06-.07v0h.07c.26-.15.33-.64.41-.9,0,.34.23.15.36.27a3.12,3.12,0,0,0-.46.43h.06l.06,0c.36-.1.26-.5.67-.74,0,0,0,.11,0,.14a.3.3,0,0,0,.12-.17.3.3,0,0,0,0-.21.55.55,0,0,0,.31,0A.54.54,0,0,0,47,40.9c0-.21,0-.24.15-.42v.17c.27-.15.12-.28.26-.4,0,0,0,.09.1.06.18-.29.13-.34.13-.68l.11.16c.12-.28.32-.82.51-.65-.34-.21.29-.59.47-.76a.09.09,0,0,0,0,.09.09.09,0,0,0,0,.08c.17-.56.73-.76,1.09-1.15l.26.14c.19-.2-.16-.66.06-.86l0,.17a5.07,5.07,0,0,1,.84-.83l.14.14c0-.18.18-.31.22-.49.58.08.8-1.18,1.63-1.28l-.23-.28c.18-.16.35-.44.62-.34l0,0c.19.21.18-.17.34-.25s0-.31-.1-.27c.59-.35,1.13-1.18,1.65-1.25a7.3,7.3,0,0,1,1-1.6l0,0c.2-.14.6-.42.82-.21.3-.41.24-.94.76-1.28v.17c.15-.07.2-.38.24-.41s0,0,.08.06.12-.2.18-.31l0,.11c.48-.21.73-1,1.2-1.46-.06.11.07.14.13.14-.06-.43.49-.87.62-1.11l0,.21c.2-.52.56-.07.75-.59l-.33.07c.18-.1.26-.27.12-.34.24-.08.2.16.48-.08.07.05-.14.23,0,.23l.53-.19s.07,0,.17-.17c-.33-.26.27-.32-.19-.41.56-.63.88-.56.81-.77a1,1,0,0,0,.58-.28l.11-.08v-.06a1,1,0,0,1,.38-.21,1.39,1.39,0,0,0-1,.13c0,.05.1,0,.18,0a1,1,0,0,1-.48.09,6.51,6.51,0,0,1,.88-.3,2,2,0,0,0-.54.06l-.36.13a2.68,2.68,0,0,0,.07-.27c-.14.11-.16.05-.19,0s-.09-.08-.2.05l0,.08a.52.52,0,0,0-.25,0,.51.51,0,0,0-.18.09,1,1,0,0,1-.49.25v-.11c-.17,0-.34.25-.51,0l.28,0c0-.2-.27-.26-.38-.34-.3.07-.07.3-.21.34-.09-.16,0-.09,0-.27a1.93,1.93,0,0,0-.93.55v0s0,0,0,0c-.34.07-.54.46-.78.38l0,0c-.17-.09-.33,0-.45.13s-.23.15-.34,0c-.16,0,.28-.1,0-.22-.45,0-.11.45-.5.47,0,0,0,0,0-.07a7.8,7.8,0,0,0-.77.5c-.51-.17-.9.63-1.48.5.19.06,0,.2,0,.26a0,0,0,0,0,0,0l0,0c-.14.08-.09.2-.09.28-.18,0-.25.37-.37.34.06.08,0,.13-.16.21.15-.24,0-.21,0-.4-.35.21-.12.61-.5.8h-.29c.13.24-.22.42-.15.49-.11,0-.22,0-.3-.09-.08.16-.36.23-.31.39l.17-.06c-.45.28-.42.75-.82.92l-.27-.28c-.31.08-.19.51-.53.51.16,0,.14,0,.11.21.1-.05.15-.26.27-.39l-.08.43.31-.49c-.06.29-.07.25.11.29-.14.33-.39.13-.5.47-.12.05-.15-.14-.3-.09-.09.3-.59.21-.57.51-.07,0,.08-.1,0-.15-.1.17-.2.26-.15.39l.14-.1c-.1.1,0,.23-.24.37,0,.18.05.38.17.25,0,0,0,0-.06.05a.1.1,0,0,1-.07,0,.12.12,0,0,1-.08,0l-.06-.05c-.28.32.19.44-.22.62,0,0,0-.07,0-.07a.39.39,0,0,0-.17.19c.21-.29-.33-.12,0-.4-.19-.1-.24.22-.39.27,0,.25.22.22.22.37,0-.05-.1,0-.19.08l.19,0a.51.51,0,0,0-.15.23l.06-.17c-.14.12-.52.19-.62.53,0-.11,0-.33-.19-.21-.16.35-.11,0-.33.1-.21.3.18.24-.25.58,0,.05.08.05.15.05-.31.22-.34.45-.65.65.13-.09.25-.15.18.06-.05-.14-.28.14-.44.2l0,.08c-.13,0-.08-.08,0-.17s.06,0,.1-.05-.22-.32-.42-.12.07.38.16.38c-.32.26.06.52-.28.74-.06.06-.49.08-.68.28,0,.23.32-.18.34,0-.64.07-.36.91-.95,1.21l-.13-.2a1.54,1.54,0,0,0-.28.34l.23-.09c0,.15-.27.38-.34.19-.06.36-.18.34-.4.54.2-.24,0,0,.07-.24-.28.19-.24.26-.34.47,0-.09-.21-.07-.26,0,0,.25-.27.52-.38.8l-.06,0c-.23.44-.8.68-1,1.2v0l0,0c.28,0-.13.4-.13.57-.07,0-.15-.06-.2,0,.16.14,0,.23,0,.34-.15.08-.17-.16-.34.08a.15.15,0,0,0,.09.21.69.69,0,0,0-.41.2c0-.07.11-.1.11-.13s-.11,0-.22-.06c-.09.1.12.16,0,.25l0-.22c-.08,0-.08.14-.08.18s-.11-.19-.19-.24c-.15.39.29.32.42.44a.9.9,0,0,0-.33.45.54.54,0,0,1-.08.21,1,1,0,0,1-.1.17l0,0-.13.12s0,.05,0,.07l-.13.18a.22.22,0,0,0,0-.14l-.09.06.08-.07-.12,0a.14.14,0,0,0,0,.1.12.12,0,0,0,0,.12s-.07,0-.15.06a.25.25,0,0,0,0,.25l0,0c-.27.2-.69.7-.75.63-.08.21-.26.39-.32.53s.18.19.15.22a.31.31,0,0,1-.13-.06.28.28,0,0,0,0-.09l0-.06c0,.07,0,.14,0,.19s-.57.24-.4.53c-.27.1-.06,0-.17-.19-.27.1-.07.54-.41.39-.07.29.1,0,.17.16-.31-.14-.34.39-.65.49,0,.17.14-.05.14.2-.06-.06-.13,0-.17.05l.14.16-.57-.08c0,.46.33.14.11.63v0c-.26,0-.1.4-.44.61.11-.08,0-.1-.08-.17l0,.22s0,0,0,0c-.24.06,0,.18-.27.28.06-.15-.1-.19-.2-.19v.38l-.16-.26c-.19.23-.07.86-.48.76l0-.15c-.06,0-.28-.07-.28.18,0,.07.1.2.14.12l-.14.09c-.1-.16.07-.5.16-.73,0,.11,0,.29.09.31.07-.21.09-.44.16-.64a1,1,0,0,0,.11.29c.21-.13,0-.21.08-.36s.17,0,.19.05a.81.81,0,0,1,.12-.29.88.88,0,0,1,.22-.21s0,.29.13.24c.15-.41,0-.61.17-1,.06-.6.75-.71.78-1.14-.06-.07-.28.13-.18-.09.11.13.16,0,.23,0-.05-.35.26-.27.23-.52,0,.07.16,0,.27-.06.14.14.23-.18.25.29,0-.5.46-.51.24-1l-.1.05.3-.25a.53.53,0,0,1,.41-.23c0,.12-.12.23-.12.34.26-.06.13-.43.26-.62.11.09-.1.22.09.27.11-.12.1-.29.16-.44l.05.07.08-.06a.16.16,0,0,1,0-.19c-.06-.08-.15-.15.07-.19,0,0-.06-.09-.12-.09l.09,0-.27-.08.07-.07c0-.09-.09,0-.11,0s-.15-.23-.22-.34l-.07.13c-.47,0-.15-.65-.47-.74l-.31,0,.12-.17c-.17,0-.3.09-.38-.1-.22-.74-1-1-1.36-1.61v.11c-.06-.79-1-.31-1.14-1l.09,0c-.23-.17.08,0,0-.25-.21.15-.39-.12-.56-.17.05,0,.08,0,.14,0s.12-.17,0-.2c-.38.13-.62-.17-.89-.3.09-.13,0-.41.13-.68l-.31.12c0-.13-.11-.13-.23-.13l.16.15h0l0,0,.06,0v0h0s.08.05.08,0c0,.2-.09.09-.23.23-.05-.06-.16-.13-.17-.21s0,0,0,0l.09,0h0L35.09,36h0a.32.32,0,0,1-.06-.15H35a.12.12,0,0,1,0,0h0l0-.06c-.07-.18-.45-.18-.65-.18.27-.07.17-.22.29-.34a1.87,1.87,0,0,0,.26.3.21.21,0,0,1,.06-.1c0-.27-.36-.13-.46-.43h.06a.12.12,0,0,0,.05,0c0-.1-.2-.07-.29,0,.11-.13,0-.38-.09-.4s-.2.08-.31-.05l.14,0c-.06-.2-.21-.05-.27-.16s.07,0,.07-.08c-.19-.1-.25-.06-.53,0l.16-.11c-.21-.05-.61-.14-.43-.32-.25.32-.43-.14-.53-.25.05,0,.11,0,.15-.05-.42-.06-.47-.47-.71-.71l.17-.24c-.13-.12-.57.24-.7.1l.15-.05a2,2,0,0,1-.51-.56l.15-.13c-.13,0-.21-.11-.34-.11.17-.48-.8-.46-.71-1.12l-.28.23c-.1-.11-.29-.21-.15-.45l0,0c.21-.18-.11-.12-.13-.23s-.25,0-.25.12c-.16-.43-.73-.74-.68-1.15-.37-.22-.8-.26-1.08-.6l0,0c-.07-.15-.21-.44,0-.64-.27-.19-.72-.05-.89-.42l.14,0c0-.13-.27-.1-.29-.13s0,0,.07-.08-.14-.06-.21-.1l.09,0c-.07-.37-.7-.44-.94-.76.07,0,.14-.07.14-.13-.35.11-.6-.27-.78-.34h.17c-.19,0-.16-.15-.16-.26a.38.38,0,0,0,0-.15.47.47,0,0,0-.25-.19c0,.09.06.22.08.34-.12-.19-.32-.32-.4-.19-.11-.28.19-.17-.06-.48.09,0,.26.18.29,0a2,2,0,0,1-.07-.42s0-.05-.13-.15c-.49.09-.32-.28-.66-.06l-.1-.11-.07-.09a1.62,1.62,0,0,1-.1-.18l-.15-.34a1.83,1.83,0,0,0-.18-.3c-.05-.09-.28-.23-.13-.29a1.93,1.93,0,0,0,.86-.07.69.69,0,0,1,.35,0,.81.81,0,0,1,.33.14.44.44,0,0,0,.25-.14.41.41,0,0,0,.11-.25c-.09,0-.12,0-.16.08,0-.13.34-.22.5-.24-.15.13-.4.29-.34.47a1,1,0,0,0,.27-.19l.25-.2.19.25c.06-.09.13,0,.18,0s.1.08.18-.06L26,22.71a.58.58,0,0,0,.39-.15.51.51,0,0,1,.31-.15l0,.11c.1,0,.27-.2.36,0h-.2c0,.19.16.28.22.37s.09-.32.19-.32c0,.18,0,.1-.08.26a1.25,1.25,0,0,0,.74-.28v.07c.23.05.49-.2.62,0l0,0c.14.3.54-.14.48.3.07.1-.2-.06-.1.18s.27-.32.48-.13c0,0,0,0-.05,0a3.85,3.85,0,0,0,.58.08v0l0,0h0c.12.4.73.19.83.68,0-.17.13-.14.16-.2s0,0,0,.06.16-.07.21-.11,0,0,0,0v0s0,0,.08,0,0,0-.05,0c0,.15.34,0,.34.08,0-.08.1,0,.18,0-.2,0-.14.16-.27.25.22.16.46-.23.68,0l.06.23c.15-.22.34,0,.38-.09,0,.1,0,.17,0,.28.15,0,.22.21.34.09l-.06-.12c.24.28.62.06.76.36l-.22.34c.05.23.39,0,.39.28,0-.14,0-.11.17-.16,0-.06-.21,0-.3-.11l.34-.06-.39-.11c.23,0,.2,0,.23-.19.27,0,.11.29.38.29,0,.09-.12.16-.1.28.24,0,.12.46.36.37,0,.05-.07,0-.12.05.12,0,.18.11.29,0l-.06-.1c.07.07.18-.05.26.13.14,0,.31-.13.22-.2s.07.16,0,.23c.22.17.37-.25.47.06,0,0-.06,0-.06,0a.13.13,0,0,0,.06.07l.07,0c-.23-.12-.16.29-.34.06-.11.19.16.16.16.29.21,0,.22-.22.34-.26-.05.05,0,.09,0,.16l.06-.17a.24.24,0,0,0,.16.09l-.13,0c.08.11,0,.42.31.45-.09,0-.26,0-.21.19.23.09,0,.09,0,.27.2.12.23-.18.42.12,0,0,.07-.07.07-.12.12.22.3.21.38.47,0-.11-.06-.2.09-.16-.13.05,0,.22,0,.34l.07,0c0,.11-.09.08-.15.06s0-.05,0-.08-.31.22-.21.37.3-.09.34-.17c.11.24.43-.09.51.18,0,0-.07.4,0,.55.2-.06-.05-.26.13-.29-.14.53.64.25.68.73L38,29a.91.91,0,0,0,.18.21v-.18c.1,0,.21.22,0,.28.27,0,.22.14.3.31-.12-.16,0,0-.16,0,0,.23.12.19.25.27-.08,0-.12.17-.08.21.2,0,.32.2.5.3l0,0c.27.18.27.65.61.76h0v0c.09-.23.27.11.4.11,0,0-.09.12-.06.16.16-.13.16,0,.26,0s-.19.14-.06.28.14,0,.2-.07a.38.38,0,0,0,0,.34c-.08,0,0-.09-.08-.09s0,.08-.11.17.18-.09.18,0l-.19,0c0,.07.08.07.11.07s-.19.08-.26.15c.25.11.36-.24.5-.34.06.26.34.28.47.41l-.17.09a.27.27,0,0,0,.11,0,.25.25,0,0,0,.12,0l.09.11h-.16a.38.38,0,0,0-.13.09c.14.08.23.26.45.14l0,0c.06.21.28.57.21.61.13.07.21.23.3.28s.22-.15.24-.11l-.1.09a.27.27,0,0,0-.14,0,.12.12,0,0,0,.15,0c.13.07,0,.46.26.34,0,.22,0,0-.22.13s.39.07.15.34c.19.07,0-.08.19-.13-.22.23.16.29.12.53.15,0,0-.1.2-.1l0,0s0,0,0,0v0s0,0,0,0l.18-.1-.3.45c.35,0,.25-.26.53-.06h0c-.12.2.27.09.29.38,0-.09-.1,0-.16,0l.15.05s0,0,0,0,.13,0,.1.22c-.09-.05-.2.07-.23.15h.31l-.27.11c.09.16.62.11.38.42l-.09,0c-.06,0-.19.23,0,.23s.2-.07.16-.11v.11c-.18.08-.36-.07-.5-.16.09,0,.21,0,.28-.05-.13-.07-.31-.09-.43-.16a.84.84,0,0,0,.27-.08c0-.17-.16,0-.24-.08s0-.14.11-.14a.38.38,0,0,1-.16-.12.32.32,0,0,1-.07-.19s.2,0,.23-.09c-.25-.14-.46,0-.74-.19-.44-.07-.24-.62-.57-.66-.07,0,0,.23-.13.15.14-.09,0-.14.07-.19-.31,0-.11-.2-.31-.2.06,0,.06-.13.06-.22.18-.11,0-.19.34-.19-.38,0-.2-.38-.68-.22v.14L41,34a.42.42,0,0,1,0-.34c.08,0,.14.1.21.1.06-.22-.29-.12-.39-.22.13-.09.14.08.26-.07,0-.09-.19-.09-.28-.14l.07,0c0-.31-.38.18-.28-.14,0,0-.09.05-.12.09s0-.32.22-.27a.33.33,0,0,0-.13-.07.2.2,0,0,0-.15,0c0,.13,0,.11-.09.23L40,32.91s.08,0,.11,0c.07-.61-.82-.43-.72-1.11-.07.12-.12.05-.22.07-.06-.14-.24-.3-.27-.46l.11,0c-.33-.2-.6-.3-.71-.52a.39.39,0,0,1,.15-.07c-.25,0,0-.54-.28-.34l0,.07c-.19-.32-.63-.44-.91-.68.11-.2.16.14.3-.08-.1-.25-.4-.32-.54-.56,0,0,.06,0,.09,0-.09-.29-.14.16-.27,0,.08-.06.08-.09.08-.18l-.17.07A.41.41,0,0,1,37,29c-.23.08-.33-.24-.54-.15,0-.06.21-.15.25-.23s-.16-.14-.27-.14c.05-.16-.11-.28-.06-.28-.1-.21-.11.06-.32,0l0,.19-.24-.18H36c0-.17-.27-.14-.39-.24l0,.13L35.39,28c.16-.19-.13-.2.14-.34-.17-.33-.55-.23-.8-.42,0,0,.06,0,.1,0s-.27-.14-.43-.11c.07-.05.11,0,.16-.09-.16-.15-.19,0-.42-.06.1,0,.13-.1.1-.16a.18.18,0,0,1-.08.07.15.15,0,0,1-.11,0c.46-.28-.08-.32.26-.56-.08.07-.51,0-.55.25h.08c-.08.13-.12,0-.18,0s.09,0,.11,0a1,1,0,0,1-.46-.24,1.92,1.92,0,0,0-.21-.16,1.17,1.17,0,0,0-.26-.1c.06,0,.24,0,.18-.11-.27-.24-.6-.15-1-.24.15-.29.36.17.53-.08a5.49,5.49,0,0,0-.57-.2,4.9,4.9,0,0,0-.65-.11c.08-.47-.46,0-.53-.47,0,.15-.18.15-.32.1.1-.1,0-.16,0-.23-.18.09-.53,0-.41-.27-.13.26-.24-.12-.41,0-.12-.15-.34,0-.5-.18,0,.2-.21,0-.31.08s.07,0,.07-.05-.31,0-.34,0,.05-.16,0-.19c0,.13-.35.22-.43,0,.05,0,.07-.06.11-.1a1.41,1.41,0,0,1-.41,0L27.51,24l-.4,0a.91.91,0,0,0-.4.1l.1-.22c-.32-.29-.25.37-.45.34a.58.58,0,0,0-.15-.11A.57.57,0,0,0,26,24c-.16-.06-.42-.06-.34,0l.34.11c-.06,0-.42-.12-.18,0l.23.06c-.3-.08-.15,0-.08,0s.08,0-.18.12c.14,0,.13.07.14.09s0,0,.06.07a.7.7,0,0,0,.28.12c0,.18-.25,0-.16.18l.4.14h0c.52,0,.38,1,.88,1.11h0c-.06.05-.07.19,0,.22s0-.08.07-.16a2.4,2.4,0,0,1,.68.46c-.19,0,0,.16-.11.29.14,0,.1-.16.3-.09a2.38,2.38,0,0,1,.37.68c.17-.06.22.07.36-.06.22.2.39.28.65.54l0,.06c.24-.1.13.31.28.26-.07.05-.12.05-.16.1l.17.07c-.11,0-.3.12-.22.24s.05-.11.2-.16l-.13.19c.09.06.29-.09.25-.24.25.27.58.46.79.72l-.13.07a.63.63,0,0,1,.32.44s.13-.05.13-.1c.24,0,0,.13.07.18a.16.16,0,0,0-.12,0l.43.2c-.07.08-.06.44.14.51a.26.26,0,0,0,.05-.09.14.14,0,0,0,0-.09l.13.05-.12.24.28,0-.15.15c.12.06.35-.09.41,0,.17.36.07.36.11.7.31-.26.3.32.55.17,0,.48.54.73.82,1.13h-.06c0,.28.38,0,.48.18h-.08c0,.35.53.57.84.65-.08,0-.15.11-.08.17s.15-.25.2-.09a.08.08,0,0,0-.07.11l.25,0a2.2,2.2,0,0,0,.76,1c0,.1-.09.11-.15.15.25.2.6.31.82.5l-.14.18c.1.09.31-.18.3.09,0,.06-.1-.07-.21,0,.08.33.28,0,.46.18l-.24.13c0,.26.26.07.43,0,.42,0-.22.5.23.63.13,0,.12-.15.25-.19.15.25.31.15.46.39-.18.38-.1-.1-.25.27l-.09-.21c0,.27-.15-.09-.3.09,0,.15.34.17.52.24-.13.12-.16-.13-.27.09l.11,0s-.1.06-.13,0c-.1.15.06.09.13.15a.92.92,0,0,0,.22-.26.14.14,0,0,0,0,.06c.29,0,.38.31.63.28,0,0,0,.05-.07.08s.31,0,.46.07c0,.13-.31.22-.09.34.13-.07.24-.32.38-.18s-.21,0-.21.1c.19.07,0,.08,0,.32.22-.07.08.19.34,0-.12.21-.07.14-.1.34.1-.16.29,0,.44-.11-.14.21-.36.06-.43.35.19,0,.38.07.58-.1,0,.1,0,.2,0,.31s-.06,0-.08,0c.28,0,.4.41.72.28-.31.23.31.39-.07.51a.59.59,0,0,0,.37,0c-.22.2.11.22.06.42.16-.07.24.1.38.1a.14.14,0,0,0-.09,0s-.05,0-.07.06c.17,0,.07.07,0,.24.18.05.15-.18.32-.21,0,0,0,0,0,0,.3-.41.32-1.06,1-1.27-.15,0-.06-.11-.09-.23a4.71,4.71,0,0,1,.58-.6l0,.11a4.5,4.5,0,0,1,.66-1.2l0,0s0-.09,0-.11c-.26.07-.21,0-.43.07A.6.6,0,0,1,43.6,37a.58.58,0,0,1,.26-.05s-.1,0-.12.09.2.06.21.15c.17-.16.55-.17.35-.4l-.08.07a9.85,9.85,0,0,0,.88-1.53c.25,0-.19.28.08.34.32-.26.41-.68.75-1,0,.07,0,.07,0,.1.4-.25-.19-.09.06-.36.07.09.1.09.22,0l-.07-.19a.18.18,0,0,1,.09.06.31.31,0,0,1,.05.1c-.08-.27.35-.55.26-.78.07,0,.16.22.26.22a.47.47,0,0,0,.15-.19.46.46,0,0,0,.06-.23c.2,0,.39-.28.37-.21.26-.23-.07-.12,0-.41l-.25.16.27-.41,0,.21c.2-.12.21-.41.37-.61h-.17l.14-.28c.21.14.28-.25.4.06.46-.34.43-.83.74-1.23-.05.07,0,.08,0,.12a.72.72,0,0,0,.2-.29.66.66,0,0,0,.06-.34c0,.08,0,.15.06.19.23-.25,0-.25.23-.59,0,.15.07.16.16.1a.17.17,0,0,1-.06-.11.17.17,0,0,1,0-.12c.19.55.44-.19.62.21-.07-.08.16-.68-.1-.68l0,.1c-.11-.08,0-.15.09-.24,0,.06,0,.13,0,.15.22-.53.75-.85,1.09-1.39,0,.08-.11.32,0,.23.48-.38.52-.84.92-1.35.24.21-.48.49-.27.73.42-.51.85-1,1.31-1.66.49.21.46-.58,1-.58-.11-.11,0-.29.23-.45,0,.16.21,0,.21.13.1-.23.62-.63.76-.36-.11-.28.4-.24.45-.51.3,0,.52-.34.86-.42-.19-.11.27-.24.36-.36s-.09.07-.06.09.32-.27.55-.27,0,.17.19.13c0-.12.39-.49.64-.38-.08,0-.06.09-.1.15a4.13,4.13,0,0,1,.68-.3l.34-.11.36-.07.73-.16a3.86,3.86,0,0,0,.74-.2l-.16.24c.32.11.41,0,.49-.11s.14-.28.39-.28h.26l.18,0,.2,0,.8.12a8.42,8.42,0,0,1,1.39.47l.57.26.3.14.07,0ZM35.6,34.68a.63.63,0,0,1-.11-.12c0,.08,0,.17,0,.19S35.56,34.74,35.6,34.68Zm6,7Zm3.3.92s-.09,0-.13.07a.16.16,0,0,0,0,.09v0ZM24.38,62l-.05-.06h-.19a.27.27,0,0,0,.14.07A.17.17,0,0,0,24.38,62Zm1.56,1.77h0v0Zm.27.31a0,0,0,0,1,0,0l-.07-.07A.47.47,0,0,1,26.21,64Zm.24.24-.08-.09a1.94,1.94,0,0,0,0,.24C26.45,64.39,26.45,64.33,26.45,64.27Zm.38-.35-.06.14s0,0,0,.06a.28.28,0,0,0,.08.11C26.85,64.12,26.84,64,26.83,63.92Zm5.8-6.57c-.06,0-.13.06-.14,0s0,.06,0,.08l.1-.1Zm30.53,6v0h0ZM46.4,42.82a1.13,1.13,0,0,1,.19-.19h0c-.11,0-.24.1-.24.06S46.33,42.79,46.4,42.82ZM44.63,44.7l0,0h0Zm-.1.09,0,0,0,0Zm1.82,2.51s-.05,0-.07.06l0,0S46.36,47.32,46.35,47.3Zm15.45,17,0-.05s0,0,0,0Zm-14.41-22,0,0v0a5.24,5.24,0,0,0-1.06,1c-.13,0-.13-.07-.15-.14-.33.39-.56.89-.86,1.23l-.2-.13c-.15.16.15.35-.19.42-.07,0,.12-.15.1-.28-.43.2,0,.34-.33.64l0-.1c0,.09-.05.18,0,.18l.18,0-.1.11c.1,0,.2-.09.2,0,0,.37.43.37.51.68a.14.14,0,0,0,0-.06c-.09.42.53,0,.48.37l-.05,0c.1.06,0,0,0,.14.11-.11.17,0,.24,0s0,0,0,0-.09.11-.05.11c.23-.12.32,0,.46,0a2.66,2.66,0,0,0-.18.4l.19-.12c0,.08,0,.07.1,0l-.07-.06h0c0-.11.06-.05.15-.15l0,0h0l0,0s0,0,0,.07,0,.07,0,.07,0,0,0,0l0,0c0,.09.24,0,.34,0-.16.08-.12.14-.21.23s0-.06-.1-.13,0,.05,0,.06.17,0,.19.17l0,0s0,0,0,0,.1,0,.16,0-.09.25,0,.2.13-.07.17,0l-.08,0c0,.11.13,0,.13.06s-.06,0-.06,0,.13,0,.3-.07l-.11.08c.11,0,.32,0,.19.11.18-.21.22,0,.26.06s-.07,0-.09.05c.22,0,.19.18.29.28l-.13.15c.06,0,.35-.22.4-.15l-.09,0a.55.55,0,0,1,.2.23l-.1.09a.54.54,0,0,1,.18,0c-.18.29.37.14.22.51l.19-.17c0,.05.13.07,0,.22s0,.05,0,.11l.09,0a.14.14,0,0,0,.06-.07c0,.21.29.29.21.53.17.06.4,0,.51.16h0a.36.36,0,0,1,0,.18.31.31,0,0,1-.1.15.49.49,0,0,0,.24,0c.09,0,.09,0,.09,0L50,50s.07-.05.07-.05A.15.15,0,0,0,50,50c0,.06,0,0,0,0l0,0c0,.09,0,.08.06,0l0-.07,0,0V49.8a.32.32,0,0,1,0,.09c0-.08,0,0,0,0s.07.1.05,0l-.09-.11s0,0,0-.09l.07.09s0,.06.09,0,0,.08.05.13l.21,0s0,0,.05,0c-.19-.21.07-.08-.16-.25.13-.14.37-.09.4-.29.2.15.24-.11.4,0,0,0,0,0,0,0a1,1,0,0,1,.08-.14s0,0,0,0,0,0,0,.06a.11.11,0,0,1,0-.11.16.16,0,0,1,.06-.08s0,.06,0,.09v0a1.5,1.5,0,0,1,.11-.13h0c0-.06,0,0,.05,0l0,0a.09.09,0,0,1,0,0l0,0,0,0s0,0,0,0l.08-.09c-.06.1,0,.12.06.12v0h0a.32.32,0,0,1,0-.09l-.08,0h.06c0-.05-.29-.06-.18-.08h0c.1,0,0,0,0,0s-.06,0,.09-.07,0,0,.15,0-.21,0-.22,0,0,0,0,0l-.18-.13c.15-.23-.22-.2,0-.46-.06.07-.11,0-.15.07l0,0s-.1,0-.14,0S51,48,51.07,48s0,0-.07,0,.12-.07.22-.1-.31.07-.34,0l.07-.12c-.16.08-.16,0-.21,0a.33.33,0,0,1,.12-.14c-.06,0,0-.12-.12-.07v.06c0-.15-.29-.06-.25-.22l.23-.16c.06-.12-.2,0-.09-.16-.07.07,0,.06-.14.07s.08,0,.11.07l-.19,0,.15.07c-.13,0-.1,0-.18.09s0-.16-.08-.16.11-.08.14-.14c-.13,0,.08-.24-.08-.19,0,0,0,0,.08,0s-.06-.06-.14,0v0s-.09,0-.09-.07-.16.11-.18.11,0-.08.09-.12-.28.13-.23,0h0a.08.08,0,0,0,0,0l0,0c.08.07.17-.15.19,0,.11-.1,0-.09,0-.15s-.18.12-.25.14a.11.11,0,0,0,0-.08l-.07.09,0,0h0c0-.05.09-.22-.05-.22.05,0,.17,0,.17-.11s0,0,.06-.14-.17.11-.19,0-.07,0-.07.06-.09-.1-.09-.22c0,0,0,.08-.09.08s0-.1,0-.17l0,0s0,0,0,0h.06s-.06,0,0,0,.23-.12.21-.19-.21.06-.25.11c0-.12-.24.07-.24-.06s.13-.21.1-.28,0,.13-.14.16c.2-.28-.3-.08-.23-.32l.14-.07s0,0,0-.05l0,0,0,.09s-.08-.1,0-.14c-.15,0-.11-.05-.11-.14s0,0,.08,0,0-.08-.09-.11a.19.19,0,0,0,.09-.12c-.12,0-.15-.07-.24-.1l0,0c-.12-.07,0-.31-.21-.34-.1.13-.14,0-.22,0s.07-.07.07-.09-.09,0-.15,0,.11-.14.09-.15-.09,0-.13,0a.25.25,0,0,0,0-.07.14.14,0,0,0,0-.09s0,0,0,0,0,0,.1-.1-.1.07-.1,0l.11,0s-.08,0-.05,0,.13-.06.18-.11c-.12,0-.25.16-.36.23,0-.13-.14-.11-.19-.16l.11-.07h-.12l0,0a.33.33,0,0,0,.19-.08c-.06,0-.09-.1-.21,0,0-.1,0-.24,0-.27s-.09-.16-.2-.09l-.13.07s0,0,.07-.06h0c-.05,0,.09-.23-.1-.14.06-.11,0,0,.16-.09s-.22,0,0-.15c-.1,0,0,0-.14.08.18-.14,0-.12,0-.25-.09,0,0,.07-.14.07a.09.09,0,0,0,0-.07l-.13.07.25-.26c-.19,0-.19.16-.32.09.1-.12-.14,0-.11-.16,0,0,.07,0,.11,0Zm5.32-5.52v.06l0,0ZM40.83,41.26h0Zm9.28-12.17,0,0C50.17,29,50.14,29,50.11,29.09Zm-3,4.17c-.07.06-.13.12,0,.19A1.06,1.06,0,0,1,47.06,33.26Zm0,0a.74.74,0,0,0,.16-.19.2.2,0,0,0-.1.08A.24.24,0,0,0,47.07,33.26Zm-10.78,14a0,0,0,0,1,0,0l0-.06Zm1.21-1.58c-.07.08-.27.14-.34.28l0,0C37.17,45.85,37.54,45.79,37.5,45.65ZM39,44.88c.1,0,.24,0,.15.13.46-.26-.19,0,.12-.4Zm1.16-1.07c0-.14,0-.17-.12-.09S40.15,43.78,40.18,43.81Zm5-6.85.13.13C45.34,37,45.21,37,45.14,37Zm.3-1.82-.18,0,.08.15Zm1.56,0,0,.07.11-.25Zm9.73-9.86-.14-.16C56.52,25.22,56.62,25.44,56.73,25.3Zm5.67-1.66c-.07,0-.15-.11-.19-.08S62.31,23.74,62.4,23.64ZM52.56,34.51l.09-.07,0-.14Zm8.91,24.15s0,0,0,0S61.46,58.67,61.47,58.66Zm2.61,2.48L64,61.05S64,61.11,64.08,61.14Zm-6.31-6.63s0,0,0,0,0,0,0-.06Zm-.68-.72,0,0,0-.05Zm-.94,4.14,0,0a.05.05,0,0,0,0,.08h0Zm7.66,4.84h0s0,0,0,0Zm-1.43,1.41s.11,0,0,.15c.28-.1-.08-.07.15-.3Zm.76-.55c0-.08,0-.1-.07-.07S63.12,63.6,63.14,63.63ZM63,60.41l.09-.06C63,60.3,63.07,60.38,63,60.41Zm-.73-1.14,0,0-.12-.07Zm-5-5.44-.08.11C57.27,54,57.39,53.87,57.3,53.83Zm-2.24-2.27c0-.07,0-.17-.08-.16S55,51.54,55.06,51.56Zm-3,2,.11.06,0,0Zm3.61-9.41s-.08-.07-.09,0l.07.11Zm-.15.05s.06,0,0-.09-.14,0-.12.11,0,0-.05,0a.35.35,0,0,0,.06.14.36.36,0,0,0,.11.1c-.06-.11,0-.09-.1-.21S55.54,44.22,55.57,44.24Zm4.9,5.25s0,0,0-.06A.06.06,0,0,0,60.47,49.49Zm-3.3-1.77h0Zm7.46,9.06-.09,0C64.61,56.8,64.65,56.89,64.63,56.78Zm-9.35-12v0s0,0,0,0S55.29,44.76,55.28,44.78Zm8.28,7.57h0Zm-9.94-6.56h0Zm6,2.92h0Zm5.14,8.77c.06.09,0,0-.11.13.11,0,0,.09.15.09a.31.31,0,0,0-.16.09c.1,0,.1.1.22.1-.13,0-.17-.08-.31,0,.09,0,.13.15.28.15,0,0-.1.06-.1.13s0,0,0,0,0,.28.19.34c-.23,0,0,.24-.23.15,0,0,.1.12.14.14-.17,0,0,.12-.14.17.09,0,.06.11.11.16l0,0h0c.07.06,0,0-.08.09s.13,0,.2,0-.1,0-.17,0l.16.11-.09,0s.11.07,0,.12v-.09l-.09,0,.1.12c-.14.14-.31.08-.48,0l0,0h-.06l0,0s-.18-.1-.21-.17.21,0,.26-.13l-.1-.15h.06s0,0,0,0,0-.12,0-.18l-.08,0c-.18-.17.2-.27.11-.4l-.14-.1.12,0c-.07,0-.16-.06-.12-.15.19-.33-.07-.65,0-1,0,0-.05,0-.05,0,.27-.3-.33-.41-.13-.68h0c0-.13.05,0,.1-.09-.14,0-.13-.15-.19-.22s0,.08,0,.06.12,0,.09-.07c-.21,0-.22-.22-.3-.34.09,0,.15-.15.29-.23a.74.74,0,0,0-.18,0c.05-.06,0-.09-.06-.11l0,.1s0,0,0,0l0,0c-.08.07-.07,0-.18,0s0-.12,0-.15h0l0,0h0s0,0,0,0l0,0v0l0,0c0-.09-.15-.17-.23-.22.14,0,.14,0,.24-.07a.37.37,0,0,0,0,.18l.06,0c.08-.11-.12-.13-.08-.28h.07s-.07-.08-.13-.08.17-.16.09-.18-.13,0-.13-.09h.07c0-.11-.12-.06-.08-.14s.06,0,.06,0-.1-.09-.25-.12h.11c-.09-.06-.25-.18-.11-.22-.2.08-.16-.14-.18-.21h.08c-.18-.1-.09-.3-.14-.44l.15-.08c0-.07-.34,0-.37-.07h.08a.79.79,0,0,1-.1-.34l.1,0c-.06,0-.08-.08-.14-.1.2-.19-.28-.32-.09-.6l-.19.07c0-.07-.12-.13,0-.23v0c.16-.06,0-.09,0-.12s-.15,0-.15,0a.85.85,0,0,0-.09-.31.24.24,0,0,1-.05-.14.26.26,0,0,1,0-.15c-.16-.12-.36-.17-.46-.34h0a.32.32,0,0,1,0-.17.33.33,0,0,1,.1-.14c-.12-.1-.35,0-.4-.22h.07c0-.06-.13,0-.13-.06s0,0,0,0-.07,0-.1,0l0,0c0-.17-.3-.2-.41-.34,0,0,.08,0,.08-.07-.19.07-.29-.1-.37-.12l.08,0c-.19,0,0-.24-.14-.24v.13c0-.06-.09-.06-.13,0s.08-.11,0-.19.08,0,.1,0l0-.18a.25.25,0,0,1-.09,0,.27.27,0,0,1,.07-.08l0,0c-.14.19-.1-.06-.19.16-.16-.11-.21-.34-.41-.34.07-.23-.28-.21-.11-.44a.25.25,0,0,0-.3,0h0a.27.27,0,0,1-.17,0,.92.92,0,0,0,.32-.1,1.27,1.27,0,0,0-.34,0l0-.14c-.14.06,0-.14-.14-.05v.05c-.12-.09-.19,0-.31,0l0-.05s-.15.06-.13-.08l.08,0a.45.45,0,0,0,0-.23c-.1,0-.1.14-.15.14s0-.05.08-.12a.5.5,0,0,0-.36.05s0,0,0,0-.23.06-.26,0h0c0-.18-.25.06-.19-.18,0-.05.09,0,.07-.1S58,48,58,47.94s0,0,0,0l-.27,0c-.07-.24-.34,0-.41-.29,0,.09-.06.08-.06.12s0,0,0,0,0,0-.06,0h0l0,0c0-.07-.15.05-.15,0s0,0-.08,0,.05-.1.1-.17c-.12-.06-.18.19-.3.12l-.05-.11c0,.15-.15.07-.15.13a.26.26,0,0,1,0-.15c-.06,0-.12-.06-.16,0l.05.05c-.15-.08-.27.12-.37,0l0-.22c-.08-.1-.16.1-.22,0,0,.07,0,.05,0,.13s.1,0,.15,0l-.12.12.17-.05c-.08.08-.07.06-.06.16s-.09-.13-.2-.05,0-.11,0-.15-.16-.17-.23-.06,0,0,0-.06-.1,0-.12.08l0,0s-.06.08-.13,0-.08.17,0,.17-.06-.06,0-.12-.06.23-.18.12v0H55c.09,0,0-.18.09-.13,0-.12-.09,0-.13-.08s0,.17,0,.23,0,0-.06-.06l0,.1h0l0,0,.05,0c-.05,0-.14-.16-.23-.07s.06-.11,0-.16,0,0-.09-.1,0,.16-.18.11,0,.05,0,.08-.16,0-.27,0c0,0,.08.05,0,.1s0-.07,0-.07l-.14,0,0,0s.06-.11.06-.09,0,0,0,0,0-.05,0-.08,0,0,0,0,0,0,0,0,0-.13-.09-.13a.24.24,0,0,0-.09.08.2.2,0,0,0,0,.13c-.15,0-.26.23-.42.17s-.05-.19-.14-.19.08.07-.06.18c0-.12-.13-.07-.31,0s-.42.15-.45.08l.24-.15h-.18l0,.07c-.12,0-.22,0,0-.09-.32.14-.25.07-.3,0,.11,0,0,0,.2-.06,0-.07-.09,0-.25,0a.72.72,0,0,0,.21-.13c-.14,0,0-.09,0-.14l.08,0s.15-.15.25-.23.19-.16.16-.21h0a.23.23,0,0,1-.11.07l.1-.07h0c-.24.1,0-.09-.06-.13a.86.86,0,0,0,.15,0c-.15,0,0-.06-.07-.09s.17,0,.24-.07,0,0-.1,0a.66.66,0,0,0,.24-.11s0,0,0,0,.06,0,.14,0-.09,0,0-.08a.18.18,0,0,0,.05.07s0-.08,0,0,.1.07.16.07-.22-.11-.32-.14a.28.28,0,0,0,.14-.16.77.77,0,0,1,.07-.16l.07.08a.18.18,0,0,0,0-.12l0,0a.11.11,0,0,0,0,.08.1.1,0,0,0,.05.06c0-.06.1-.12,0-.22.09,0,.24-.16.27-.12s.18-.15.07-.24,0,0,0,0l0,0,.05,0c.07,0,.15,0,.08-.11.12,0,0,0,.1.11s0-.2.15-.09c0-.09,0,0-.09-.09.15.1.12-.09.25-.09,0-.08-.06,0-.07-.1l-.09.06c.12-.1-.16-.1,0-.14,0,0,0,.08.08.08h.06l-.08-.09.27.13c0-.18-.17-.11-.1-.26.12,0,0-.15.15-.17,0,0,.05.05.05.08v-.08h0c.1,0,0-.06.1-.06s.06.11.1.11l0-.16.1.13c.07-.06,0-.32.16-.21v0s.14.07.12,0-.08-.1-.08-.08h.06c.07.08,0,.19,0,.26s0-.11-.07-.14a.9.9,0,0,0,0,.23.5.5,0,0,0-.08-.14c-.07,0,0,.09,0,.13s-.09,0-.09,0a.12.12,0,0,1,0,.09.14.14,0,0,1-.09.05s0-.12-.08-.12,0,.24,0,.39-.28.15-.26.32.12,0,.09.06-.07,0-.1,0c.05.14-.1.06-.06.16s-.08,0-.12,0-.09,0-.14-.16c.05.2-.17.13,0,.37h0l-.12.05c-.05,0,0,0-.16,0s0-.07,0-.11,0,.15-.06.21,0-.08-.06-.13,0,.1,0,.15l0,0c-.16,0,.14.19,0,.15a.17.17,0,0,0,.06.06c-.06,0-.17,0-.17-.1a.19.19,0,0,0,0,.07.14.14,0,0,0,0,.07c.07,0,.05,0,.13,0a.35.35,0,0,0-.06.14s0,0,0,0-.15.07-.15.14,0,.09-.23.17c.12,0,.09,0,.15,0s-.07.07-.18.12h-.08c0,.08.16,0,.05.12l-.18.07c.08,0,0,.06-.16.12s-.18.11,0,0l.05,0,0,0h.06L53.3,47a1.67,1.67,0,0,1,.31-.12c-.18.13-.07,0-.3.18,0,0,.24-.08.27,0l-.06,0c0,.07.13-.12.18-.12s-.09.08-.09.11l.12-.1-.13.13c.16-.14.18-.06.28-.18s-.14.16-.11.19.09,0,.13-.07.1.08.08.08,0-.06.08-.14l0-.05.09,0,0,.06s.13-.06.2-.06l0-.07.09,0c0,.14.12,0,.07.19.17.07.28-.13.43-.13,0,0,0,0,0,0s.14,0,.2-.11,0,.06,0,.09.07-.08.19-.11c0,.06,0,.09,0,.1a.07.07,0,0,1,0-.05.1.1,0,0,1,0,0c-.1.28.13.12.06.34,0-.06.19-.17.15-.29l0,0c0-.08,0-.05.07-.05a.07.07,0,0,0,0,.05c.18-.09.35,0,.54-.05,0,0-.1.07-.05.1s.3-.07.5-.11c0,.16-.21,0-.23.16a3.65,3.65,0,0,0,.65-.1c0,.26.24-.06.34.16,0-.08.08-.08.15-.08s0,.08,0,.13.28-.06.23.11c.06-.16.14,0,.22-.07h0l0-.06.06.06h0c.07,0,.15,0,.23.09,0-.11.11,0,.16-.05l0,0c0,.09.18,0,.18,0s0,.09,0,.11.21-.1.23,0,0,0-.06.05c.31,0,.51.25.85.23l-.1.09c.09.22.16-.17.32,0s.3.28.45.41a1.57,1.57,0,0,0,.47.34s0,0,0-.09,0,.12,0,.1l0-.06c.06.23.48.22.4.52.19,0,.17.23.41.26,0,.11-.13,0-.08.11l.2,0c.28,0,.17.5.41.58,0,0,0,.12,0,.11s.05,0,.05-.08a1.2,1.2,0,0,1,.34.25c-.09,0,0,.09-.09.15s.07-.08.16,0a.9.9,0,0,1,.12.36c.1,0,.11,0,.2,0a1.7,1.7,0,0,1,.26.34l0,0c.14,0,0,.16.11.16s-.07,0-.1,0l.08.05c-.06,0-.18,0-.16.09s0,0,.14,0l-.1.07s.16,0,.16-.09a3.68,3.68,0,0,1,.28.45l-.08,0a.23.23,0,0,1,.08.26s.07,0,.09,0-.11.06,0,.12c0,0-.07,0-.11,0l.18.16s-.13.2,0,.26l0,0s0,0,0,0l.05,0-.11.09.14,0-.11,0c.05,0,.21,0,.21.07s-.06.17-.12.34c.23-.07.07.2.23.18-.1.23.07.44.09.68h0c-.07.12.18.06.18.18h0c-.08.16.08.37.21.47,0,0-.14,0-.09,0s.14-.08.12,0-.07,0-.07,0l.12.05a1,1,0,0,0,0,.62s-.08,0-.12,0,.17.29.22.43l-.13,0c0,.07.2,0,.1.12s0-.07-.08-.07.15.06.15.19H64.4c-.07.11.09.11.18.13s-.26.14-.11.31.1,0,.18,0,.08.15,0,.29c-.2.09,0-.07-.2,0l0-.11c-.1.1,0-.08-.16,0s.09.16.14.24,0-.09-.15,0l0,0s-.06,0-.06,0,0,.06,0,.1l.16,0c.14.08,0,.23.16.3s0-.06-.06,0,.13.1.18.16-.22,0-.17.11.22,0,.22.05A.07.07,0,0,0,64.71,57.48Zm-.54,2h0Zm0-4.43h0s-.06.08-.06.08h.07Zm-.65.52h0s0,0,0,0S63.54,55.59,63.56,55.61Zm.94,1.23h0Zm-.77-1.23h0l0,0Zm0-3.08h0ZM54,47l0,0S54,47,54,47Zm.1,0s0,0,0,0S54,47,54.05,47Zm1.48-2.46h0v0h0ZM55.1,45s.12,0,.13-.06l0,0S55.07,44.9,55.1,45ZM54,45.25s0,.06.06.06S54.05,45.27,54,45.25ZM53.58,47l.07-.06-.15.1Zm-.6.76.17-.05-.12,0Zm4.63.21,0-.12S57.55,47.94,57.61,47.92Zm1.74.63s0-.09-.07-.08S59.28,48.59,59.35,48.55Zm3.26,3.94v0h-.05Zm-26-24.86h.06s-.07,0-.07,0ZM39.53,31c-.06,0,0,.08,0,.14Zm3.33,5.54,0,0s-.07,0-.09,0l0,0,0,0h.09Zm-1.78-4H41l0,0ZM24.31,24.62c.12,0,.22.06.22-.08a.93.93,0,0,1-.29,0c-.13,0-.24,0-.2.1C24,24.51,24.19,24.57,24.31,24.62ZM38.12,37.08c.08-.1.25,0,.08-.16A.8.8,0,0,1,38.12,37.08ZM31.7,30.21h0s0,0,0,0Zm-2.05-5.69.1.12a.52.52,0,0,0-.06-.16ZM35.07,36a.14.14,0,0,1,0-.06A.07.07,0,0,0,35.07,36ZM31.2,29.69a.14.14,0,0,0,.09,0Zm2.57,4.53s0,0,0,0S33.76,34.22,33.77,34.22ZM32,30.48l0,0,0,0Zm1.6-3.9c-.06,0-.1,0,0,0Zm2.73,1.85h-.14S36.29,28.5,36.36,28.43Zm-.2-.06a.13.13,0,0,0,.07,0,.21.21,0,0,0-.1-.11A.09.09,0,0,0,36.16,28.37ZM43.22,37l0,0v0Zm.14.05-.08,0a0,0,0,0,0,0,0ZM42.49,36c0,.06,0,.23.09.27l0,0C42.52,36.29,42.62,36,42.49,36Zm.19-1.35c0-.38-.09.15-.26-.11l.11.22C42.56,34.7,42.6,34.59,42.68,34.67Zm-.52-.85c-.11,0-.13,0-.12.09S42.12,33.84,42.16,33.82Zm-3.57-4,.14-.11C38.64,29.61,38.68,29.71,38.59,29.78Zm-1.37-.05.15-.06-.13-.08Zm.57-1.39-.17-.09.12.07ZM30.12,23l0,.21C30.16,23.2,30.25,23,30.12,23Zm-4.49-.46c.14,0,.28.08.34.05S25.7,22.43,25.63,22.54Zm4.44,8.37H30l.15.06ZM49.64,45.78h0Zm-1-1.51v.06S48.68,44.29,48.68,44.27ZM50.56,50s-.07-.22-.18-.23C50.5,49.83,50.41,50,50.56,50Zm-5.3-3.59c-.07.08-.16,0-.07.1Zm3.32,3.4-.06.07S48.56,49.84,48.58,49.81Zm1.48.15v0Zm-3.3-3.43,0,0s0,0,0,0h0S46.79,46.53,46.76,46.53Zm1.82,3.28h0A0,0,0,0,0,48.58,49.81Zm-.51-6.29v0l0,0Zm3,2.7s0-.07-.09,0H51Zm.61,2.37s0,0,0,0S51.62,48.59,51.63,48.59Zm-5.47-2.34.05,0Zm1.48,2.88,0,0,0,0ZM50,45.36h.07S50,45.31,50,45.36Zm2,2Zm-2-2s0,0,0,0S50.09,45.36,50.05,45.36Zm-2.42-2.55,0-.1s-.07.1-.11.07C47.44,43,47.57,42.69,47.63,42.81Zm.11.28c-.05,0-.06,0-.09.06S47.72,43.15,47.74,43.09Zm1.14,1.82s0,0,.11-.07Zm.86-.1,0-.07-.1,0Zm-.57.7h0l.07,0Zm2.25,2.82s-.17.09-.12.1Zm-2.58.24h-.07v0Z" transform="translate(0 0)" fill="#161614"/>
  <path class="mapIcon__innerRing" d="M44,8.31A35.71,35.71,0,1,1,18.77,18.77,35.7,35.7,0,0,1,44,8.31ZM44,6a38.09,38.09,0,1,0,14.55,2.9A38,38,0,0,0,44,6Z" fill="#161614"/>
  <path class="mapIcon__outerRing" d="M24.65,8,23.17,5.23A43.44,43.44,0,0,1,41.91.05l.15,3.12A40.35,40.35,0,0,0,24.65,8ZM10.28,20.89A41.24,41.24,0,0,1,23,8.9L21.42,6.22A44,44,0,0,0,2.88,28.32l2.91,1.11A40.72,40.72,0,0,1,10.28,20.89ZM3.12,44H0A43.72,43.72,0,0,0,2.92,59.79l2.92-1.12A40.89,40.89,0,0,1,3.12,44ZM6.46,60.19,3.6,61.43a43.89,43.89,0,0,0,5.47,9.33l2.49-1.9A41,41,0,0,1,6.46,60.19Zm6.65,10.59-2.36,2A44,44,0,0,0,44,88V84.88a40.86,40.86,0,0,1-30.89-14.1Zm34.12,14,.25,3.11a46,46,0,0,0,5.36-.74l-.62-3.06A41.87,41.87,0,0,1,47.23,84.75Zm18-5.82c-.58.37-1.17.71-1.75,1a41.82,41.82,0,0,1-5.14,2.35l1.1,2.92A44.44,44.44,0,0,0,65,82.68c.63-.34,1.27-.7,1.89-1.08a44.2,44.2,0,0,0,9.61-7.9l-2.31-2.11A40.6,40.6,0,0,1,65.22,78.93ZM87.91,41.28a43.69,43.69,0,0,0-3.8-15.4l-2.85,1.29a40.64,40.64,0,0,1,3.54,14.3c0,.83.08,1.69.08,2.53a40.7,40.7,0,0,1-7.13,23c-.53.79-1.1,1.57-1.69,2.32l2.44,1.94c.64-.81,1.26-1.65,1.83-2.5A43.77,43.77,0,0,0,88,44C88,43.1,88,42.18,87.91,41.28ZM74,16.25a41.8,41.8,0,0,1,3.21,3.94l2.54-1.82A44,44,0,0,0,44,0V3.12A41,41,0,0,1,74,16.25Z" fill="#161614"/>
</svg>
