<svg class="mapIcon" xmlns="http://www.w3.org/2000/svg" viewBox="0 0 88 88">
  <path class="mapIcon__bg" d="M80.39,49.91A36.86,36.86,0,1,0,38.1,80.39,36.85,36.85,0,0,0,80.39,49.91Z" style="fill: #27868E"/>
  <path d="M49.22,47s0,0,0,0h-.07Zm-4.48-1.1ZM43.19,52.6v0a.72.72,0,0,0,0,.17c0-.06,0-.23,0-.09S43.22,52.48,43.19,52.6Zm0,.13s0-.1,0-.09Zm3.22-8.32s0,0,0,0ZM45,52.73v0Zm.91-.1,0,0S45.84,52.66,45.86,52.63Zm-.91.09h0S45,52.72,45,52.72ZM47.67,49l0,0V49ZM45,52.74h0Zm4.34-5.49s0,0,0,0Zm0,.15s.1-.06,0-.07S49.21,47.37,49.25,47.4Zm.06-.16h0ZM45,52.76h0Zm3.91-7.52,0,0S48.91,45.29,48.86,45.24Zm.44,1.57c-.12,0,0,0,0,0Zm-.17.13Zm.21.12a0,0,0,0,0,0,0Zm-4.45,5.67s0,.09,0,0S44.9,52.69,44.89,52.73ZM49.32,47s-.23-.09-.08-.09-.17,0-.05.05h-.06A.29.29,0,0,0,49.32,47ZM44,52.61l-.06,0S44,52.64,44,52.61Zm5.31-5.37h0S49.27,47.21,49.29,47.24Zm-8.66,1.88Zm25.13-4.8a5.06,5.06,0,0,1,0,.69,5.62,5.62,0,0,0-.38-1.44c.48,1-.33,2.22,0,2.64-.09,1.16.24,1.71-.32,2.66.23-.79-.1-.44-.41,0,.11.52.31.74,0,.32a14.29,14.29,0,0,1-.73,3.57l0-.14c-.59.7-.45,1.8-.92,1-.48.63.11.63-.33,1.19.06-.07,0-.06,0-.11-.22.44-.52,1-.76,1.5l0,0-.13.14,0,0c-.66.4-1.07,1.78-1.9,2.11.28-.1,0,.27.08.31-.18-.12-.19.36-.17.38s-.08.15-.11.16a.27.27,0,0,0,.09-.11c-.46.43-.37.73-.82,1.15.26-.45-.05-.26,0-.54-.3.92-1.57,1.82-1.64,2.35-.08,0-.14,0-.12,0-.41-.13-1.53.87-.79.51-1.31,1.42-1.87,1.13-3.21,1.82.2,0,.21,0,0,.28.18-.08.43-.35.7-.52-.14.2-.3.38-.45.57.29-.22.56-.44.84-.67,0,1.09-4,1.39-3,1.65.11,0-1.44.79-.71.73-.11.08-.41.08-.37-.08-.71.31-.15.57-.92.68.18-.19-.35,0-.38.09.59-.29-.33-.22.42-.46-.82-.21-.75.7-1.22.74l.24.09a2.13,2.13,0,0,0-.45.23l.26-.19a3.31,3.31,0,0,0-1.39.46c.91-.86-1.9.29-1.38.43-.7.24-1.33.62-2.08.21.27.13.75.27.1.23.15,0-.78-.6-.83-.5,1.5.1-.32-1-.22-.25a19.71,19.71,0,0,1-5.14-2.31l.29.28c-.25-.06-.78-.36-.52-.44-.6-.08-.66-.24-1.11-.54.49.28,0,0,.42.12a2.36,2.36,0,0,0-.94-.49c-.91-.81-2.65-1.72-3.81-2.73l0,0-.06-.06c0,.77-1.75-1.72-1.95-1.36a1.71,1.71,0,0,0-.37-.68c.4.41.29,0-.1-.25l.32.1a.64.64,0,0,0-.27-.22c.16.11.27,0,.32-.12-1.08.26-1.35-.71-2-1.31l.05.06-.2-.09h.13l-.24-.31c.91.55-.22-.83-.44-.67a31.37,31.37,0,0,0-2.05-3.86c0-.47.06,0,.28,0-.32-.54-.29-1.32-.54-.93.21-.25-.22-1.44-.52-1.48.17-.09,0-.36-.2-.3l.38-.62c-.44-.61-.32.25-.68-.64.27-.06-.31-.64-.27-1.29,0,.24.12.07.2.13l-.17-.35c.25-.16-.12-.34,0-.68.48.51.13-.38,0-.49.87.52-.49-1.1.06-1.42.19.94.36-.75-.06-.3.07-.75.4.51.48.9-.55-.87-.05.41.11.72-.85-.71.25.51-.25.47a2.85,2.85,0,0,1,.21,1.08c-.68-.57.35,1,.57,1.38a15.4,15.4,0,0,0,1.38,3.35c-.2,0,.18,1.07-.45.42.39.27.83,1.7,1.11,1.17a3.29,3.29,0,0,0,.16.44,1.89,1.89,0,0,1-.06-.18c0,.12.08.23.12.35a.69.69,0,0,0,0-.1c.12.34.24.34.25.84-.14-.12-.27-.33-.4-.45a6.78,6.78,0,0,0,1.42,2s.11,0,.13-.08c0,.22.21.67-.17.38.39.39.56.56.52,0,0,0,1.14,1.14.48.6.43,1.25,1.92,1.55,2.45,2.76.32-.32,1.08.77,1.4,1h-.16c.48.39,2.29,1,1.88,1.27.26,0,1.16,1.13.89.55,2.41,1.08,2.27,1.22,4.4,2.18-.12,0-.11,0-.17,0,.65.44,0-.24.6,0-.08.09-.06.12.12.26.17-.11.41-.08.09.09,1.19.06,1.69.85,2.62,1.25.54.32.14-.08.64,0l-.42-.3a6.55,6.55,0,0,0,.75.27.92.92,0,0,1-.29,0c.31.25.53.09.84,0,.12-.4,2.09-.38,2.87-1.31.17.26.85-.43,1-.57-.22.55.35-.14.78-.4-.16.41.16.06.29-.12-.26.69.8-.11.67.41.78-.69.27-.78.68-1a12.42,12.42,0,0,0,2.43-1.38c1.75-.37,1.88-1.54,5.22-4.32-.17,0,0-.38.29-.7,0,.2.3-.14.3,0,.11-.39.71-1.26.94-1a11.44,11.44,0,0,1,1.32-2.33c-.28.07.21-.55.23-.77.24.22.57-1.37,1.06-2,0,.14,0,.17,0,.28.41-1.52,1.17-3,1.22-4.59.35-.58,1.07-7,.24-7.82a52.6,52.6,0,0,0-.59-7.35l0,0c-.48-.91.13-2.76-.27-4,.17.28.22-.93,0-.2-.23-.88-.26-1.24-.41-2,.19,0,.06-.21.14-.31a32.21,32.21,0,0,1-6.24-1.52c.48-.24-.18-.16-.3-.22.65-.07-.13-.61-.09-.11.08-.49-.7-.2-.18.08-.76-.38-2.73-.47-2.74-.95-.56,0-1.4-.71-1.54-.39-.65,0,0-.26-.69-.25,1.55.4-2.68-1.22-1.77-.65-2.35-.73-5-2.52-8.09-1l.1-.06c-.62,0-.53.5-1.16.61l.13-.11a7.42,7.42,0,0,0-2.8,1c.13-.1,0-.21-.22-.12s.28.22-.16.27c-.62,0-3.45,1.32-4,.93-.84.35-4,1.69-2.87,1-.6-.06-1.18,1-1,.25-1.23.82-.95.55-2.5.81,0,.56-1.12.87-1.4.53a.49.49,0,0,1,.28-.07c-.13-.18.58-.66-.28-.15-.19.9-.15-.21-.25.34-.24-.58-.31.56.22.19a12.18,12.18,0,0,0,0,1.91c-.26.47.23.88-.32,1.58.14.13.43-.12.37.41-.06-.82-.79,1-.29,1.08-.25.15-.16.11-.36.44.2-.13.11.67.34.67-1.17-.81.13.9-.43,1.49,0-.06,0-.13-.05-.17.12.67-.17,1.61.12,2-.38-.18-.19,1.39-.51.85a2.06,2.06,0,0,0,.17.82c-.45.22-.27,1.32-.25,1.91,0-.42-.67.62,0,.57-.12.39-.21,0-.35.1a2,2,0,0,1,.06,1.52l0-.5c-.3.1-.07.6,0,.79-.15.53-.51.41-.34.79-.2-.07-.45-.44-.62-.31l-.11-.1c.31-.05-.07-.59-.14.08-.09.13-.3-.6-.3-1,.13-1,.4-.16.56-.86-.14-.3.07-1.1,0-1.2.16.09.13-.73.2-1.09-.2-2.2,1-7.46.9-9.7.56-1.46-.27-4.31,1.84-3.81.65,0,.78-.27,1.8-.67-.05.07-.2.11-.31.19,1.29-.75,3.39-.83,4.72-1.58l-.62.21s0,0,0,0-.35.11-.3.15c-.58-.57,1.15-.47,1.47-.69.27.27,1.22-.58,1.52-.76,0,.68.64.24-.84.72.62.29,1-.4,1.82-.48-.29.38.56-.11.46-.23.58.36,1-.26,1.66-.49l-.16.19c.58-.08.39-.32.88-.37-.3.35.77-.29.85-.57-.07.51,1.38-.77,1.38-.32-.28-.35,1-.55,1.44-.67a13.57,13.57,0,0,1,4.45-.4l-.23.08c2.56,1.05,5.17,1.62,7.63,2.59-.59,0,1.17.49.9.06,3.4,2.1,8.71,1.24,10.21,4.7l-.14-.21c.17.72,0,.94.26,1.46-.48.46.44,2.29.41,3.32-.35-.25.47,1.82.39,2.18l-.17-.26c.33.88-.28.87,0,1.75l.14-.57c0,.39.09.69.23.58-.22.79-.5.33-.58,1.37.13-.44.28.48.41.06-.06.57-.38-.12-.43,0s.33,1.16.52.67c.53,2.58-.28,5,.2,7.17,0-.13,0-.29,0-.42A1.34,1.34,0,0,1,65.76,44.32ZM31.64,22.75s-.12,0-.27,0a.53.53,0,0,0,0,.12C31.41,22.8,31.57,22.79,31.64,22.75Zm1.36,1-.26.1C32.8,23.8,32.9,23.78,33,23.73Zm1-.34c-.18,0-.44,0-.4,0C33.33,23.63,34,23.43,34.05,23.39Zm-8.6,31.22c-.07-.09-.14-.13-.2-.11A.33.33,0,0,0,25.45,54.61Zm-.21-24v0ZM23.58,44.93l0,.11S23.63,44.93,23.58,44.93ZM43,68.4c-.09,0-.13,0-.15,0S43,68.43,43,68.4ZM48.16,22c.05-.09,0,0-.09,0Zm-.93,44.33.07,0S47.24,66.27,47.23,66.29ZM30,38.63v0Zm0,.1Zm-6.26,7.89c0,.06,0,.17.09.17A.46.46,0,0,0,23.74,46.62Zm1.62-19.81c.05-.18,0-.23-.17-.15C25.29,26.61,25.31,26.91,25.36,26.81Zm28,8.42,0,0S53.37,35.21,53.36,35.23ZM24,47.67H24c.14.1,0,.61.12.76A2.23,2.23,0,0,0,24,47.67Zm-.21-.77c0-.06,0-.17-.11-.09A.17.17,0,0,1,23.83,46.9Zm35.9,12.41h0ZM22.92,44.06c1.16,1.12-.25-.4.26-.55C22.88,42.36,23.1,44.15,22.92,44.06Zm.54.56.08.21C23.53,44.76,23.53,44.66,23.46,44.62Zm.73,7.29s0,0,0,0Zm-1.27-7.85ZM51.79,21.13l-.42-.07A.87.87,0,0,0,51.79,21.13Zm-28,30.15c.07.88.1-.19.36.6L24,51.24C24,51.38,23.94,51.57,23.82,51.28Zm37.91,5.63-.23,0C61.43,57.05,61.61,57.22,61.73,56.91ZM49.32,67.12h0C49.22,67.19,49.27,67.16,49.32,67.12ZM65.48,46.3a.64.64,0,0,0,.15-.62C65.59,45.93,65.47,46.17,65.48,46.3Zm-26,21,.47.12C39.84,67.38,39.55,67.29,39.46,67.28ZM35.5,65l-.12.15C35.64,65.24,35.41,65.06,35.5,65ZM24.76,54c.17.19.21.23.15-.05S24.8,54,24.76,54Zm6.93,8.27a3.11,3.11,0,0,0,.23.28C32,62.49,31.81,62.39,31.69,62.26Zm4.48-13.74a.15.15,0,0,0,0-.18C36.16,48.4,36.14,48.47,36.17,48.52Zm4.47.59v0s0,0,0,0,0,0,0,0S40.67,49.09,40.64,49.11Zm.18,0s0,0,0,0Zm.1-.16a.09.09,0,0,1,0,0,.29.29,0,0,0,0,.19s.09-.23.09-.08C41.06,49.06,41,48.89,40.92,49Zm0,0Zm-.68,6.9.06-.19C40.25,55.72,40.13,55.83,40.25,55.85Zm9-8.81Zm-8.79,2s.06.11.07,0S40.5,49,40.47,49.06Zm2.61,3.64v0S43.09,52.7,43.08,52.7Zm0,0h0Zm0,0h0v0Zm0,0Zm-2-3.6s0-.09,0-.09Zm2,3.58s0,.09,0,0S43,52.68,43,52.72Zm.17-.18v0S43.2,52.54,43.19,52.54Zm9.73-5.35s0,0,0,.05S52.93,47.2,52.92,47.19ZM38.84,56.43h0Zm1.34-1.78v0ZM36.1,46.46c.13-.13.09-.13-.07-.16ZM55.94,43v.06S56,43.05,55.94,43Zm2-4.43c0,.06,0,.12,0,.18S57.88,38.67,57.9,38.6ZM42.57,56.9Zm8.54-5.17s0,0,0,0Zm-1-9.72c-.08.12-.24,0-.07.17A1.22,1.22,0,0,1,50.15,42ZM39.5,44.91h-.06S39.52,45,39.5,44.91Zm-2.63,7.27c.05,0,0,0,0,0Zm16.71-17c.17-.08-.16-.13-.19,0A.31.31,0,0,1,53.58,35.19Zm-17.52,13a.53.53,0,0,1,.1.12C36.17,48.26,36.17,48.21,36.06,48.21ZM24.26,37.74h0S24.26,37.78,24.26,37.74ZM45.6,36.09l-.1,0S45.65,36.09,45.6,36.09Zm-4.68-4.18,0,.13.1-.18Zm4.53,4.18h0ZM40.68,38h.1C40.76,37.92,40.72,38,40.68,38Zm6.41-2.12h-.15A.12.12,0,0,0,47.09,35.86ZM35.86,40.94a.08.08,0,0,1,.1,0S35.8,40.9,35.86,40.94Zm10.06-4.69-.05,0S45.89,36.23,45.92,36.25Zm-1,3.36c.05,0,.07,0,.07,0S45,39.59,45,39.61Zm-14.34,1c.05-.12,0-.28-.14-.27C30.55,40.41,30.57,40.55,30.63,40.58Zm3.64.82Zm.35-.06c.08-.07,0-.31-.1-.21Zm23.86-2.22h0ZM34.36,41.4h-.09A.07.07,0,0,0,34.36,41.4Zm6.3-5.84h0Zm.06,0c.08,0,0,0,0,0S40.73,35.61,40.72,35.61Zm7.09,1c0,.21-.21.69-.09.52-.14.26.12.09.08.43,0-.08,0,.1,0,.13,0-.22-.08,0,0-.2-.13.15,0,.33-.09.42l.06,0-.09.13a.41.41,0,0,0,0-.09,1,1,0,0,1-.42.23c.25-.1-.44-.15-.4-.08a.93.93,0,0,1-.36-.21c.05,0,.09.09,0,0s-.1-.17-.14-.18c.23.13.11-.2,0-.08-.34-.46-.43-.32-.92-.61l.07,0c-.06,0-.18-.06-.12-.09-.13,0-.15,0-.25-.08.11,0,0,0,.09,0a.43.43,0,0,0-.21-.07,5.71,5.71,0,0,0-.95-.37c0,.11-.4,0-.41.15a.24.24,0,0,0-.17,0c.12-.05,0-.07,0,0l0-.06a.12.12,0,0,0-.07,0c1.39-.89,2.85,1.56,4,1.19.89-2-1.29-1-2.44-1.8,1.13-.62,3.8,0,2-1.83-1.55,1.08-4,2.12-5.57.12-3.14,1.1.41,1.26,1.42,1.72-.73.72-3.11-.2-2.44,1.22-.31.1-.19-.52-.15-.67,0,0,.11-.15.21-.2.37-.28,1.29.21,1.93-.28h0c.63-.08-.28-.13-.06-.19,0-.06-.11,0-.25-.06.09-.06-.74-.22-.89,0,.06,0,.13,0,.16,0s.1-.05.07,0c.05.27-.63,0-.85.11.12-.15-.09-.12.29,0-.1-.13-.25,0-.43-.18,0,0-.29-.28-.26-.54l0,.07c0-.15,0-.14,0-.26,0,.12.1-.17.14-.26v0c.09,0,0-.13.12-.16-.15-.05.08-.36.14-.41a.06.06,0,0,0,0,.08c.29-.52.8-.14,1.13,0l-.06,0a2,2,0,0,0,1.52.86c.77.52,1.35.14,2.09-.15l0,.05c.15-.08.19-.05.29-.13.07.1.44-.16.53-.27,0,.1.15-.39.25-.42l0,.08c.15-.22.2-.1.43-.25l-.18,0c.12,0,.22-.08.18-.11.27.06.11.08.35.2-.13-.11.14,0,.06-.08.16.12-.19,0,0,.11,0,0,.28.17.23,0,.33.62.71,1,.19,1.51,0,0,.05,0,.08-.07a.52.52,0,0,1-.25.18c.08-.06.21-.17.23-.26-.17.3-.43.16-.54.27s-.4.07-.59-.06c.29,0-.27,0-.07-.09-.35.18-.9.3-.92.35s-.08.06,0,.06c-.08.08.26.08.28.2,0-.06.06,0,.06-.05s.26,0,.4.07c-.11,0-.05,0-.11.06.2,0,.4.07.53,0,0,.09.38,0,.19,0a.56.56,0,0,1,.81.27s0,0,.07,0-.09-.12-.16-.17a1,1,0,0,1,.17.1.51.51,0,0,0-.25-.18c.14,0,.13,0,.1,0C47.75,36.44,47.7,36.52,47.81,36.66Zm-6.7-.75s0,0,.07,0S41.13,35.92,41.11,35.91Zm1.73.9h0c-.35.13-.7.23-1,.38h0c-.35.13-.61.78-.91.75a.89.89,0,0,0-.17.08c.08,0,.13-.06.16,0L41,38s0,0,0,.05c.15,0,.24-.18.27-.12.1-.28.12-.15.27-.27.14-.48.53-.45,1.22-.64,0-.07.33-.21.16-.05h0C43.41,36.78,43.38,36.55,42.84,36.81Zm.47-.17s.09,0,0-.06S43.31,36.62,43.31,36.64Zm-1.38,2.52h0C42,39.13,42,39.14,41.93,39.16Zm0-1.87s0,0,0,0S41.92,37.28,41.92,37.29Zm4.82,2.12.06,0-.23,0Zm-5.15-1.95s-.05.07-.09.11.07,0,0,0C41.69,37.47,41.49,37.61,41.59,37.46ZM44.94,37c.06,0,0,0,0,0Zm1,.4-.07,0Zm-3.41-2.47a.1.1,0,0,0,.09,0ZM35.34,48.77a.07.07,0,0,0-.06-.06S35.31,48.78,35.34,48.77Zm-.48-1.48,0,0,.09.19Zm.26-2-.18,0C35,45.35,35,45.22,35.12,45.24Zm0-2.57c-.09.09.16.06.19.09A.36.36,0,0,0,35.07,42.67ZM38.14,65.3l.39.12C38.42,65.28,38.31,65.14,38.14,65.3Zm.45-9.21.22-.08C38.76,55.93,38.5,55.92,38.59,56.09ZM35,51.42h0S35,51.4,35,51.42Zm25.21,4.69c-.1.09-.19.19-.29.27C60.08,56.33,60.29,56.26,60.25,56.11Zm-1-16.6,0,.08S59.25,39.52,59.2,39.51Zm0,.09h0S59.22,39.6,59.23,39.6Zm-.06-.17c0-.06,0-.13-.09-.16ZM35.5,43.35c.07,0,.08-.06.13-.12Zm23.2-2.69s-.06.08,0,.11A.37.37,0,0,0,58.7,40.66Zm-.1,0c0,.05,0,.07,0,.1A.06.06,0,0,0,58.6,40.69Zm-.38-2.07c0,.28.58.41.27.5,1.18.12-.13-.08,0-.42C58.44,38.71,58.36,38.52,58.22,38.62Zm-.12-.13c.06-.06.12-.13.18-.18C58.12,38.23,57.82,38.37,58.1,38.49Zm.46,19.74,0,0S58.54,58.23,58.56,58.23Zm0,0,.38-.43A4.28,4.28,0,0,0,58.6,58.19Zm-6.14-4.75a.42.42,0,0,0-.12.26ZM50.69,64.59c.14-.11,0,0-.07,0Zm-8.11,2.68a1.4,1.4,0,0,0,.41.19A1,1,0,0,0,42.58,67.27ZM58.1,41.32c.06-.06.41-.09.29-.24C58.43,41.2,58.08,41.18,58.1,41.32Zm0,0ZM42.26,67.23l.32,0C42.43,67.19,42.31,67.13,42.26,67.23Zm.38-18.55-.06,0S42.59,48.73,42.64,48.68Zm.54,3.92v.06S43.19,52.62,43.18,52.6Zm-.77-1.54Zm.89,1.78h0S43.3,52.86,43.3,52.84Zm-.83-1.36h0Zm1.37,1.37a.21.21,0,0,0,0-.06S43.83,52.84,43.84,52.85Zm-.53,0h0Zm-.13-.18h0S43.18,52.67,43.18,52.66Zm-.75-.7h0Zm.09-.14s0,0,0,0S42.48,51.81,42.52,51.82Zm-.05-.33h0S42.41,51.48,42.47,51.49Zm1.05-.89c.08-.05.06.08.16,0s.1.06.15.24c-.14.1.09,0,.13.07s0,0-.09.07.22.11.23.18,0,0,0,0h0c-.1,0-.17.05,0,0l-.08,0c.08,0,.28,0,.12.08,0,0,0,0,0,0,.17,0,0,0,.06,0h-.07l.08,0c-.13,0-.11.07,0,0l-.1,0h.09l-.08,0c.18,0,.11,0,0,.09.15,0,0,0,.11,0-.1.19-.07.16.09.31-.19,0,.14,0,0,0,.09,0,0,.39-.1.32s.08.1,0,0,.16.16,0,0c0,0,.11.45-.12.19h0c-.08-.08-.09-.12-.06,0-.05,0,0,0-.06-.08v0l0,0c-.07-.05,0,.09.08.11h0c0,.09,0,.06,0,.14s-.15-.05-.06.09c0,0,0,0-.08-.08,0,.08,0,0,0,.11a.29.29,0,0,0-.06-.1c0,.06,0,.08,0,.16,0-.09,0-.13-.06-.21a.76.76,0,0,0,0,.19s-.06,0,0-.08-.07,0-.07.14c0-.13-.08-.18-.08-.05,0-.12,0,0-.05-.1s0,0,0,.09v-.07c0,.05,0,0,0,0s0,.09,0,.14,0-.07,0-.12l0,.12a.56.56,0,0,1,0-.07v0l0,.07c0-.11-.05-.55-.16-.24.07-.14,0,0,.06.06a.09.09,0,0,1,0,.06.14.14,0,0,0,0-.09s0,.07,0,.09c0-.19,0,0,0-.12-.06.06,0,0,0-.1,0,.23-.18.13-.21.24,0-.06,0,0,0-.07s0,0-.06,0c0-.1,0-.11.07-.21,0,.09-.08,0-.14.14,0-.14.1-.17,0-.16.1-.13-.09.08,0,0l0,0c.12-.23,0,0-.09,0,.2-.14-.18,0,0-.19,0,0,0,0-.08,0s0-.09,0-.09-.12,0-.1-.09.05,0,.06,0,.15-.07,0,0c0-.08-.19-.15,0-.11s-.08-.09,0-.1l-.06,0,.08,0c-.09,0,0,0-.11-.07s.22,0,.1,0c.19,0-.07,0-.09-.08s0,0-.06-.06c.15,0,.18,0,.07-.09.07,0,0,0,0-.05.1,0,0,0,0,0l.07,0-.07,0c.19.06.09,0,.24,0-.08,0-.23-.06-.22-.18.14.07.06,0,0-.1.15.1.12.06,0-.08.18,0-.07,0,.08,0-.14,0,0-.07,0,0s-.05-.1.06-.05c-.11-.06,0,0,0-.09s0-.06.06-.07,0,0,0-.08,0-.16.13,0c0-.13.15-.1.18-.23l0,.08c0-.23.37,0,.42-.17,0,.07,0,.06,0,0C43.38,50.58,43.54,50.39,43.52,50.6Zm.56,1.54s0,0,0,0Zm0,0s.06,0,0,0ZM43.69,52h0S43.67,52,43.69,52Zm-.11.11Zm-.73-.24h0Zm.09.46,0-.05A.26.26,0,0,1,42.94,52.31Zm-.21-.12h0Zm0,.15s0,0-.05,0Zm.28.15Zm0,.08s0-.07,0-.08Zm.13-.06s0,.06,0,.08ZM43.19,51v0Zm1,.47h0Zm.17.44h0Zm1.32-1.3h0Zm-.46,2.19h0Zm-.78-1.93c-.07,0,0,0,0,0Zm.72-2.45s0-.08,0-.06S45.09,48.46,45.11,48.45Zm.06,4.38h0C45.16,52.88,45.16,52.86,45.17,52.83ZM46,51.5h0Zm-1.64.29h0S44.36,51.79,44.4,51.79Zm.67.76v0S45.08,52.55,45.07,52.55Zm-.65-.86s-.07-.07-.07-.11,0,0,0,0c.11,0,0,0,0,0l.07,0-.07,0c.19.06.09,0,.24,0a.66.66,0,0,0-.2-.07h0c-.08,0,0,0,0,0s0-.07,0-.12c.14.07.06,0,0-.1.15.1.13.06,0-.08.18,0-.07-.06.09-.06-.14-.05,0-.08,0-.05s0-.1.06,0c-.1,0,0,0,0-.09s0-.06,0-.07,0,0,0-.07,0-.17.14,0c0-.14.14-.11.18-.24.09.24,0,0,0-.07s.42.19.41,0c0,.08,0,.06,0,0,0,.13.19,0,.17.16.18,0,.22,0,.31.27-.13.1.1-.05.12.07s0,0-.08.07.21.11.22.18,0,.05,0,0h0c-.1,0-.17.06,0,0l-.09,0c.08,0,.28,0,.13.08,0,0,0,0,0,0,.17,0,0,0,.06,0H46l.08,0c-.13,0-.11.06,0,.05l-.09,0h0c.17,0,.11,0,0,.09.15,0,0,.05.11,0-.11.19-.07.16.08.3-.18,0,.14,0,0,0,.08,0-.06.38-.1.31s.08.11,0,0,.16.16,0,0c0,0,.11.46-.12.2h0c-.07-.08-.1-.14-.07,0,0,0,0,0,0-.09v0s0,0,0,0,.05.09.08.11h0c.05.09,0,.06,0,.14s0,.16-.11,0c.07.19.1.16-.06,0,0,.08,0,0,0,.11a.29.29,0,0,0-.06-.1c0,.06,0,.08,0,.16,0-.09,0-.13-.06-.21a1.49,1.49,0,0,0,0,.19s-.05,0-.05-.08-.07,0-.06.14c0-.13-.08-.18-.09-.05,0-.12,0,0,0-.1s0,0,0,.08v-.06c0,.05,0,0,0-.06s0,.09,0,.15,0-.08,0-.13l0,.12a.35.35,0,0,1,0-.07v0l0,.07a.28.28,0,0,1,0-.14s0,0,0,0,0-.13,0-.07c.05-.15-.14-.22-.14,0,.07-.15,0,0,.07.06a.15.15,0,0,1,0,.06.25.25,0,0,0,0-.1.41.41,0,0,1-.05.09c.06-.18,0,0,0-.12-.06.07,0,0,0-.1-.06.23-.18.12-.22.23,0-.06,0,0,0-.06s0,0-.06,0a.37.37,0,0,1,.07-.21c0,.09-.08,0-.13.14-.05-.13.11-.18,0-.16.1-.13-.1.07,0,0l0,0c.13-.22,0,0-.08,0,.2-.13-.18-.05,0-.19-.09.07-.12-.06,0-.06-.1,0-.15-.11,0-.09-.07,0,.14-.07,0,0,0-.07-.17-.15,0-.1,0-.12-.08-.1,0-.11l-.07,0,.08,0c-.09,0,0,0-.1-.07s.22,0,.09,0c.19,0-.06,0-.08-.08s0,0-.06-.06S44.31,51.65,44.42,51.69Zm1.55.46h0Zm0,0s.06,0,0,0S45.94,52.12,45.92,52.11Zm-1.08.15a.39.39,0,0,0,0,.06S44.83,52.29,44.84,52.26Zm-.1-.43Zm-.16.5s0,0-.07,0Zm.27.17Zm0,.08s0-.07,0-.08Zm.13-.06s0,.07,0,.09ZM45.09,51v0Zm.49,1s0,0,0,0S45.56,52,45.58,52Zm-.53.79c0-.06,0-.23,0-.09s0-.16,0,0v0a.07.07,0,0,1,0,.05v0a.23.23,0,0,1,0,.07,0,0,0,0,0,0,0S45.05,52.71,45.05,52.75ZM40.68,37.93c-.82,0-.14-.78-.25-1a.2.2,0,0,0,0,.08c0-.21-.14-.24,0-.27s.12-.23.18-.12.06-.08.11-.08.2.06.14.15c.13-.08.34.07.49,0,0,0,0,0-.05,0,.23.16.46-.36.42,0,0,0,.14-.11.09-.14s.07,0,.13,0c.19-.2.57-.19.84-.35.41-.36-.1-.22,0-.28-.15-.06,0,0,.07,0-.22-.09-.49-.17-.22-.14l.11.08c.21-.22-1.07-.33-.94-.48-.19-.13-1.45.34-1.45-.26-.1-.24.28-.24.3-.45v.06c.08-.13-.07-.28,0-.28.55-.61.77.72,1.29.67-.16-.14.68.25.38.16.16,0,0,.07.15.06s.2.11.33.1.42.14.58.23c-.14-.16.28,0,.06,0,0,0,.16,0,.07.05.54.32,1.22-.45,1.59-.38a2.88,2.88,0,0,0,.45-.21c-.16,0,.1-.06,0,0,.27-.13.76-.2.8-.56h0c.37-.69.44.17.77.4.61.07-.71.67-.59.36a2,2,0,0,0-1.31.28s0,0,.07-.05-.42.11-.4.18c-.16,0-.44.21-.46.13-.52.14.64.39.84.43-.06.07.31.18.39.17s.06,0,0,.07.17,0,.17,0c.74.42,1.41-.3,1.37.07.13.09.09.24.05.38v0c0,.07,0,.1.06.29-.13-.06,0,.21-.12.16,0,0,.1,0,0,0s.07.18,0,.1,0,.23-.05.15c-.19.28-.33,0-.5,0l0,0c-.07,0-.17,0-.21-.1l.06,0-.12-.1a.59.59,0,0,0,0,.08c-.08,0,0,.08-.12,0s0-.06-.05-.13l0,0c-.2-.14-.08-.33-.4-.38,0,0-.07-.07-.18-.09s0,0,0,0a5.93,5.93,0,0,0-1-.37c.08.12-.13-.06-.22-.07.1-.08-.3-.11-.47-.16.1-.05-.44-.2-.38-.06-.31,0-.5.26-.78.24,0-.11-.13.12-.18.16s0,0-.09-.06,0,0,0,0a2.41,2.41,0,0,1-.49.21l.12-.07a.24.24,0,0,0-.17,0h0l-.15,0c.1.08-.21.13-.28.23.14-.16-.12-.07-.11-.11-.34.21-.34.6-.8.86l0,0a.72.72,0,0,0-.22,0c0-.11-.25.07-.07-.08l0,0c0,.07-.31,0-.11,0a.66.66,0,0,1-.13-.08C40.47,37.87,40.4,38,40.68,37.93Zm4.91-1,0,0,.08,0Zm-.72-.6s.07.06.11.06A.11.11,0,0,0,44.87,36.28Zm-3.11-1.17h0S41.76,35.14,41.76,35.11Zm-1,2.7s.09,0,.12,0S40.81,37.77,40.8,37.81Zm-.18,0h0S40.64,37.84,40.62,37.85Zm-.18-.16h0S40.45,37.68,40.44,37.69Zm-.06-.34a.1.1,0,0,0,0,0S40.43,37.26,40.38,37.35Zm0,.26s-.17-.13-.06-.13C40.34,37.22,40.16,37.76,40.4,37.61Zm0,.12s-.07,0,0,0S40.41,37.73,40.43,37.73Zm4.62,15h0ZM57.79,40.49a.39.39,0,0,1,0,.06ZM41.47,29.57s-.11,0-.08.05ZM55.74,42.09c.1,0,0-.12,0-.16S55.66,42,55.74,42.09Zm-3.71-8a1.06,1.06,0,0,1-.06.19C52,34.15,52.27,34.29,52,34.09Zm5.87,4.72s0,.07,0,.1S58,38.69,57.9,38.81Zm-4.24,2.63.07-.08-.12.06Zm3,.24c-.1,0-.22,0-.14-.15-.45.14.19.06-.12.35ZM46.4,37.49s0,0,0,0ZM41,35.92h0ZM40.63,38l0,0A0,0,0,0,0,40.63,38ZM49,40c-.14,0,0,.07-.06.18Zm2,.88-.14-.11C50.82,40.83,50.92,40.84,51,40.87ZM42.5,50.93h0S42.51,50.94,42.5,50.93Zm-13-12.59.4.36h0s.13.05.08.06a1.56,1.56,0,0,0,0-.61c.37-1.13,2.57-.62,2.95-1.58v0c.2-.57,1.27-.36,1.49-1,.2.29.29-.71.76-.92,0,.22.2,0,.34.09.15-.66,1.07-1.48,1.64-2-.07-.28.4-.2.38-.36.08.26.11.13.2,0,0,.4.48.27.1,0,.32.33.29-.22,0-.14.73-.88,1.47-1.11,1.85-1.66-.53.55,1.64-.85.89-.66,1.62-1,2.21,1.22,4.17.74.27,0,1.21-1,2-1-.16.48.24-.08.33.06,1,.42,1.55,1.9,2.69,2.36-.38.53.25-.06.25.34,0,.06-.14-.1-.26-.07.08.36,1,0,.33.39,1.08.26.36-.09.94.82.37-.38,1.17.28.67.6l-.15-.27c-.51.17-.26.2.33.42-.11,0-.5,0-.16.11-.47.1.17.34.24-.1a2.85,2.85,0,0,0,.81.45c-.25.22.33.12.5.21-.13.14-.22.58.09.3.08.13,0,.7.46.41-.1.23-.06.15,0,.38.07-.19.35,0,.48-.15-1.12.83.39,0,.37.61,0,0-.06,0-.09,0,.34,0,.6.4.91.18,0,.37.28.72.57.5-.09.39.47.39.75.38-.13.67.28-.11.9.35-.16,0-.25-.1-.17.12,1-.4,0,1,.29,1.06-.61.81-.93-.64-1.45-.36a15,15,0,0,1-4.4-2.86c-.12-.91-1.68-.55-1.49-1.28-.08-.36-.25-.23-.74-.54.71,0-.75-.33-1-.61.13-.66-.09-.79-.64-.86.07.08.23.16.22.2s.16.11.15.07c-.48.7-.61-1-1.48-.68.49-.23,0-.63.65,0,0-.32-.63-.84-.83-.77.17-.58-.38-.28-.53-.3.1-.26-.27.08-.07.37a1.51,1.51,0,0,1-.09-.18c0,.2-.42.7-.59.47.28.4-.64.48-.82.5.09,0,.08-.12.08-.16-1.16.67-1.61-.51-2.58,0l.17-.08c-.36-.18-.93-.29-.72-.71-.07.07-.12.06-.16.16-.18-.5-.51.63-1,.43.78.8-1.13.26-.5,1a31.45,31.45,0,0,0-4.36,3.79c-.34-.34-.77.9-1.25,1.1,0-.41-.63.73-.87.73l.06-.19c-.2.3-1.28.11-.5.36-.2,0-.31.17-.2.29-.5-.09-.27-.4-.81-.39.17.09-.18.3.06.38-.38,0,.09-.63-.39-.32.33.76-1.3.62-1.28.85-.77-.38-.91.81-.47.47a.54.54,0,0,1,.34.15,1.91,1.91,0,0,1-.68-.14c.83.31.32.5.81.79,0-.05.92.22.7.36.67.41-.15,0,0,.67.33,0,.57-.09.15.06.21.15.5.38.71.12.09.23.83-.48,1.07-.07-.18.61.27-.15.45-.18.37,0,1.43-.56,2.1-.29-.16-.12,0-.2,0-.27.07.16.35-.41.55-.36,0-.09.09-.09.2-.13-.45.81.94-.34,1.11-.39.11.28.87.13.44,0,.44,0,1-.8,1.1-.19,0,0,0,0,0-.08s.12.22,0,.12c.1.51.39-.2.68.06-.12-.3,0-.25-.37-.09l.26-.3-.47.22c.24-.79.68-.11,1.19-.21-.18,0,.28.18.25.08.13.07.07-.12,0,.08.2,0,.42-.21.14-.22.07,0,.77-.28.4-.43.43.32.4-.25.9-.07-.5.47.33.61.24-.06,0,.07.08.07.17.09-.15-.21,0-.13.15-.22l-.15.08c.17,0,.44.28.73.1-.54.45.92.47.71.14.3.1.51-.1.76-.08,0,.19.76.28.23.25-.34.39.17.12.31.06,0,.17,0,.11,0,0,.52-.19.75-.31,1.21.2-.36-.33,1.2-.25,1.47.16-.2-.33,1.84.65,2.09.64a1.39,1.39,0,0,0,1,.4c0-.62,1.22.5,1.14,0,.29.35,0,.47.36.43-.14.07-.25.2,0,.13-.36.55.27.06.11-.31a5.78,5.78,0,0,0,1.17.27c-.54.19.19.45.35.13.35.31,1.06.74,1.34.49l0,.07c.09-.21.2-.33.08-.09.22.33.54-.14.37.31.24-.09.6-.15.3-.32.22.19.67-.29.48-.48.22.13.12-.11,0-.19.77.3.37.14.45-.4.2.19.11-.35.43-.44-.1,0,0,.1.07.17l.06-.19c.33-.17.52.28.48-.3.37.75.13-.5.54-.52.1.6.43-.49,0-.18.18-.5.39.49.23.7-.13-.8-.18.18-.31.41-.22-.86-.09.34-.37-.08-.78.64-1,2-2.09,2.55.05-.09-.2-.06-.24-.15s-.28-.12,0-.39c-.23.38-1-.2-.88.35l-.29-.19h0c-.6-.22.42-.56-.57-.3.58-.41-.54-.15-.55-.23s0,.09,0,.15c-.07-.12-.23-.32,0-.37-.33-.06-.34.08-.26.34,0,0-.81,0-.36-.1-.67-.46-2-.61-.86.22-.67-.21.56.58.59,1-.4.43-.41.67,0,1,0-.1-.09-.24,0-.27s0,0,0,0,0-.13-.07-.11c.8-.31-.11,1.07.74,1.33-.51-.13-.42.46-.51-.37A1,1,0,0,0,53,46.12c-.48.41,0,.72-.07,1.07-.28,0,0,.37.25.5l-.2,0c.11.23.31.65,0,.63.42,0,.18.49.16.68,0-.06-.09-.08-.14-.09.17.4.09,1.27-.39,1.24.48.34.7,1.07.11,1.33.45.83-.8,2-.59,2.48-.36.66-1.28-.14-1.16.68-.55.23-1.8-.45-1.13.35a16.18,16.18,0,0,0-.7,2.31c0-.35-.43.42-.55.58-.39-.21-1.43,1-2.15.61-1.14-.85-2.85.39-3.93-1.39-.15.33-.11-.42-.55.11.08.28.25.66,0,.18-.44,1-2.14,1-2.32.14-.05-.14.22.19.19-.11s-.46.13-.61-.24c.16,0-.36-.49-.4-.71h0c.19-.44-.2-1,.14-1.35-.14.12-.19-.06-.26,0,.2-.06-.28-.24-.23-.35-.25,0,.16-.13.27-.15,0-.35-.61.24-.44-.28-.17.28-.23.17-.25.27a1.19,1.19,0,0,1,0-.28c-.15,0-.56,0-.22.16-1.44.14-.89-.31-1.58-1-.21.26-.23.11.17.36a2.54,2.54,0,0,1-.45-.06,2.59,2.59,0,0,0,.55.28c-1.15.64-.59-2.09-1-1.55-.05-.15-.24-.71-.42-.41.36-.37-.22-.32,0-.76.47.44.59-.33,0-.21.07,0,.07-.07.09-.15-.19.13-.15.06-.22-.12l.08.13c0-.15.26-.39.08-.63.48.41.43-.79.1-.62.06-.28-.07-.43,0-.71,0,.12-.09.22-.18.07.1.08.25-.39.1-.36.34.48.86-.24.14-.14-.32-.51-.37-.47,0-1.08-.26.34-.36-.47-.41-1,.27.1.29,0,.23-.3-.2.42-.23-.24,0-.13-.2-.24-.09-.3,0-.53.23.36.26-1.65.6-2.3-.48-.18.44-.58-.18-.82-.17.34-.77.39-1.2.53.15.16-.25.17-.33.28.15-.33-.76.34-1.08.22.07,0,0-.09.08-.15-1.14.81-2.06-.3-2.92-.93.73-.32-.29-.21-.47-.33s-.37-.57-.58-.83C28.09,40.44,28.42,38,29.52,38.34Zm23.34,5.91c.06.08.14.22.1,0ZM39.55,41ZM36.7,42.16l.12.1C36.85,42.16,36.78,42.18,36.7,42.16Zm5.77,14.69a.25.25,0,0,0,.12.11c-.05-.12.09-.19.13-.34C42.54,56.57,42.47,56.55,42.47,56.85Zm0,.07s0,0,0,0S42.5,56.92,42.49,56.92Zm.56.31c-.11-.16-.41-.56-.49-.28C42.68,57.09,42.88,57.28,43.05,57.23Zm2.4-.31c.06,0,0-.16,0-.2S45.44,56.91,45.45,56.92Zm0-.19,0,0S45.44,56.74,45.45,56.73Zm-.05,1s0,0,0,0ZM51.74,45.3a.75.75,0,0,1,0,.2C51.83,45.34,52,45.24,51.74,45.3Zm-.08-.36a.3.3,0,0,0,0,.11S51.66,45,51.66,44.94ZM48.52,40.1l.1,0C48.51,40.09,48.51,40.08,48.52,40.1Zm-3.81-.66h0ZM44,39.9Zm-1.32.82c.18-.26-.42,0-.46.15.17-.4-.15,0-.39.09.1-.33-.07-.1-.15,0,.19-.51-.34-.16-.28-.61-.25.24-.36.81-.37.67h0c.11-.12-1,.18-1.29.29-.6-.48-1.11.46-2.33.73-.68,0-.39.88-1.07,1,.33,0-.1.79-.23.58-.05.37.22,1.15-.17.89.12.16-.44.62,0,.43.24,1.23,0,1,0,2-.32.07.15,0,.14.15-.47,0,.29.28-.22.17.25.1.12.48.35.56-.6-.14-.16.49-.35.67s.37.24.36,0l.08.37c-.3-.33,0,.23,0,.39.41-.15-.45.72.18,1.37-.25-.17,0,.38.16.42-.39-.15-.05.13.08.36-.33-.08-.09.06,0,.14-.55-.18-.19.34-.62.24.2.28.67.25.65.35l-.09,0c.18.21.16.47.45.55-.54.51,1.18-.13.17.37,1-.18,2.54-.29,2.49,1.08.23-.12.24.24.3.5-.13-.08-.11.15-.22.11.17.14.3.61,0,.62.28.11.19.58.34.83.15-.13.14.06.23,0-.23.1.24.05,0,.31.16-.17.44-.06.21.12.17,0,.3.05.27-.17.66.57,0-1,.75-1.11,1.17-1,2.46,1.38,2.35.71.08.29.08.13,0-.05a1.87,1.87,0,0,1,2.9.45c-.26.12-.27.2,0,.13h0c.2-.21.34.53.59.06.24.38.06-.31.25-.53.09.13.14,0,.31,0-.25-.77-.53-2.85.77-3.28,0,.32.11.1.29,0-.33.52.93.21.17-.08,1-.08,1-.13,1.55-.14-.31-.41.08,0,0-.23.08.34.12,0,.08-.15.21.17.56-.34.16-.16-.07-.22.45,0,0-.38a26.8,26.8,0,0,0,.55-3.28,4.18,4.18,0,0,0-.18-1.67c.29,0-.34-2.34-.14-2.84-.21-.07-.44-.35-.06-.1.13-.32-.78-.31-.06-.4-1-.57-.16-.07-.46-.86-.39.28-.9-.22-.43-.51,0,.07,0,.15.08.22.48-.12.24-.22-.23-.32.09,0,.45,0,.16-.12.43-.16-.16-.27-.22.11a1.26,1.26,0,0,0-.66-.2c.19-.25-.27,0-.41,0,.17-.75-.11-.06-.33,0,.31,0-.09-.81-.31-.3,0-.24,0-.15-.09-.35,0,.2-.29.12-.33.34.5-1.06-.3.12-.52-.38,0,0,.06,0,.07,0-.27.13-.66-.09-.85.22-.09-.31-.49-.57-.67-.26.05-.31-.25-.1-.36-.3-.07.17-.27.1-.39.2.2-.23-.07,0-.14-.34-.12.24-.17.59-.14.06-.22.33-.36.25-.65.18.43,0,.07-.26-.13,0-.33,0-.5-.73-.9-.23C43.29,40.4,42.92,40.76,42.72,40.72Zm5.91-9.28.1.07S48.67,31.45,48.63,31.44Zm-.4-.35c0,.09.09.2,0,.22C48.48,31.36,48.33,31.14,48.23,31.09Zm-.11,1.77.09,0C48.11,32.79,48,32.7,48.12,32.86Zm-4.88,7.68-.09.05S43.22,40.6,43.24,40.54Zm-.14.07,0,0S43.1,40.65,43.1,40.61Zm-.63,10.33h0Zm2.07-4.28h0A2.77,2.77,0,0,1,45,45.57c.11.08,0-.17.09-.26,0,.07,0,0,.11,0s.16-.42.29-.51c0-.1.1,0,.09-.08s0,.09,0,0c0,.11.15.14,0,0,.09.14.08,0,0,0a.48.48,0,0,1,.44-.16c0-.2,0,0,.06-.08-.07.08.12,0,.24,0-.08-.11,0-.07,0,0l0-.1c0,.11.12-.17.27.08,0-.16.12,0,.13-.12a1.33,1.33,0,0,0,.83.07,4.09,4.09,0,0,0,.68.32c-.13.14.18,0,0,.09,0,.09.24-.08.07.08.23,0,.11-.06.21.17.11-.15.33,0,.13.13l0-.06c-.13.06-.12.06.06.1,0,0-.15,0-.06,0-.16.06,0,.06.08,0s0,0,0,0,.1.1.2.09,0,.12.22.13c-.06-.06-.18.22,0,.14-.06,0,0,0-.08.1s.1,0,.17,0c-.08.05-.14,0-.21.08s.12,0,.22,0,0,.06,0,.1,0,0,0,0,.06.16.19.16c-.1.08-.15.18,0,.19-.11,0,0,.07-.08.12s.06.05.1.08a.08.08,0,0,0-.07,0c-.06.11.19.06,0,.09,0,0,.2,0,.06.08.15.11-.41.08-.33.52.29.13-.1-.11.11-.11,0,0,.13,0,.07,0a.24.24,0,0,1,.05.1c-.12-.1-.07,0,0,.07-.21-.12,0,.07-.13,0s0,.49-.05.53c.07.08,0,.05,0,.11s-.12,0-.2-.08c.08.09-.1.15.08.21-.19.13-.22-.06-.24.13-.15-.07.08.11,0,.08l.05,0s-.11,0-.11-.07c.08.17,0,.29-.27.39.12,0-.1.19-.11.1-.06.1-.17.28-.18.13,0,.07-.21-.06-.09.06-.28.24-.43,0-.53.22,0,0,0-.07,0-.09s-.1.05-.11.13c0-.19-.33-.15-.16,0l-.09,0c.07-.13-.1,0-.12.08,0-.22-.13-.12-.29-.07.06-.08-.08,0-.12,0,.07-.12,0,0-.09,0s0,0,0,0c.1-.18-.06-.1,0-.24s-.19.17-.11.17,0,0,0,0S46.1,49.06,46,49c0-.26-.35,0-.61-.42-.08.1-.14,0-.07-.06s-.17-.06-.07-.14c-.1,0-.17-.09-.24-.18,0,.07-.06,0-.1,0,.13,0-.25-.21,0-.23-.16-.11-.13-.32-.28-.44C44.6,47.62,44.55,46.71,44.54,46.66Zm.56.34s0,0,0,0Zm3.36,1.06h0Zm-1.28.64v0S47.17,48.69,47.18,48.7Zm.73-3.47s0,0,0,0S47.91,45.25,47.91,45.23Zm.63,3.14s0-.08,0,0A.12.12,0,0,0,48.54,48.37Zm.39-.69Zm0-.12s0,0,0,0Zm0-.11s0,0,.07,0S49,47.46,49,47.45Zm.07-.27s0,.07.08.06Zm-1-2.43h0Zm-.1,0s0,0,0,.06S48,44.7,48,44.71Zm-4.48,1.56h0S43.48,46.29,43.48,46.27ZM40.85,49a.56.56,0,0,0,0,.07A0,0,0,0,0,40.85,49Zm-2-1.51,0,0h.06Zm3.78-2.54c.09.28.34.11.41.36.1,0,0,.1.08.09s-.09,0,0,.06c-.1,0-.15.15,0,0-.15.09,0,.09,0,0,.15.17.2.26.17.44.19,0,0,0,.08.06-.12-.08.09.31,0,.28l.09,0c-.1,0,.16.12-.08.27.16,0,0,.12.12.13a1.33,1.33,0,0,0-.06.83s-.29.4-.33.68c-.15-.13,0,.18-.09,0-.1,0,.07.25-.09.07,0,.23.07.12-.16.21.14.11,0,.33-.14.13h.07c-.07-.13-.07-.13-.11,0,0,0,0-.15,0-.06-.06-.16-.06.05,0,.08h0c0,.11-.1.1-.09.2s-.11.06-.13.21c.06-.07-.22-.19-.13,0a.27.27,0,0,0-.1-.09c0,.06,0,.1,0,.17s0-.13-.08-.21c0,.08,0,.12,0,.22s-.06,0-.1,0,0,0,0,0-.16.06-.16.19c-.07-.1-.18-.15-.19,0,0-.11-.07,0-.11-.08s-.06.06-.09.1a.08.08,0,0,0,0-.07c-.1-.06-.07.19-.09,0,0,0-.05.21-.08.06,0,.08-.19,0-.17-.27h0c-.42,0-.41-.11-.24.12a.19.19,0,0,1-.1.05c.11-.12,0-.07-.07,0,.12-.21-.06,0,0-.13s-.5,0-.52-.05-.06,0-.11,0,0-.12.08-.2c-.09.08-.15-.1-.22.08-.15-.18.06-.21-.13-.24.08-.13-.11.07-.07,0l0,.05s0-.12.07-.12c-.16.09-.29,0-.38-.26,0,.11-.19-.11-.1-.12-.1-.06-.28-.16-.13-.18-.07,0,.06-.21-.06-.09-.24-.28-.05-.43-.22-.52a.13.13,0,0,1,.09,0c-.1,0,0-.11-.14-.12.2,0,.16-.32,0-.16l0-.08c.13.06-.05-.1-.08-.13.22,0,.13-.13.07-.29.08.06.05-.08,0-.11.12.07,0,0,0-.1s0,0,0,0c.18.1.1-.06.24,0,0,0-.17-.2-.17-.11s0,0,0-.06.07-.21.09-.29c.25,0,0-.35.42-.6-.1-.08,0-.14.06-.07s.06-.17.14-.07c0-.1.09-.17.18-.24s0-.06,0-.1c0,.13.21-.25.23,0,.11-.17.32-.14.45-.29a3.12,3.12,0,0,0,.83-.09c0,.06.05.07.05,0a3,3,0,0,1,1.09.51c-.09.11.17,0,.25.09s0,.06,0,.11S42.58,44.93,42.64,44.93Zm-3.46,2Zm.63,1.32Zm.48.38Zm.2.09h0S40.49,48.73,40.49,48.74Zm-.93-.44s0,0-.06,0S39.54,48.31,39.56,48.3Zm.85.52s0,0,0,0A.13.13,0,0,0,40.41,48.82Zm.27.07s0,0,0,.06Zm.22-4,0,0Zm2.28,2.9s0,0-.07,0S43.17,47.82,43.18,47.79Zm-2.34,1.26h0S40.84,49.05,40.84,49.05ZM42,44.54Z" style="fill: #161614"/>
  <path class="mapIcon__innerRing" d="M44,8.31A35.71,35.71,0,1,1,18.77,18.77,35.7,35.7,0,0,1,44,8.31ZM44,6a38.09,38.09,0,1,0,14.55,2.9A38,38,0,0,0,44,6Z" fill="#161614"/>
  <path class="mapIcon__outerRing" d="M24.65,8,23.17,5.23A43.44,43.44,0,0,1,41.91.05l.15,3.12A40.35,40.35,0,0,0,24.65,8ZM10.28,20.89A41.24,41.24,0,0,1,23,8.9L21.42,6.22A44,44,0,0,0,2.88,28.32l2.91,1.11A40.72,40.72,0,0,1,10.28,20.89ZM3.12,44H0A43.72,43.72,0,0,0,2.92,59.79l2.92-1.12A40.89,40.89,0,0,1,3.12,44ZM6.46,60.19,3.6,61.43a43.89,43.89,0,0,0,5.47,9.33l2.49-1.9A41,41,0,0,1,6.46,60.19Zm6.65,10.59-2.36,2A44,44,0,0,0,44,88V84.88a40.86,40.86,0,0,1-30.89-14.1Zm34.12,14,.25,3.11a46,46,0,0,0,5.36-.74l-.62-3.06A41.87,41.87,0,0,1,47.23,84.75Zm18-5.82c-.58.37-1.17.71-1.75,1a41.82,41.82,0,0,1-5.14,2.35l1.1,2.92A44.44,44.44,0,0,0,65,82.68c.63-.34,1.27-.7,1.89-1.08a44.2,44.2,0,0,0,9.61-7.9l-2.31-2.11A40.6,40.6,0,0,1,65.22,78.93ZM87.91,41.28a43.69,43.69,0,0,0-3.8-15.4l-2.85,1.29a40.64,40.64,0,0,1,3.54,14.3c0,.83.08,1.69.08,2.53a40.7,40.7,0,0,1-7.13,23c-.53.79-1.1,1.57-1.69,2.32l2.44,1.94c.64-.81,1.26-1.65,1.83-2.5A43.77,43.77,0,0,0,88,44C88,43.1,88,42.18,87.91,41.28ZM74,16.25a41.8,41.8,0,0,1,3.21,3.94l2.54-1.82A44,44,0,0,0,44,0V3.12A41,41,0,0,1,74,16.25Z" fill="#161614"/>
</svg>
