<svg class="mapIcon" xmlns="http://www.w3.org/2000/svg" viewBox="0 0 88 88">
  <path d="M80.39,49.91A36.86,36.86,0,1,0,38.1,80.39,36.85,36.85,0,0,0,80.39,49.91Z" style="fill: #7ca6c3"/>
  <path d="M66.74,60.25a1.28,1.28,0,0,1,.09.55.26.26,0,0,1-.09.18.33.33,0,0,1-.19.08.14.14,0,0,1,0-.09.13.13,0,0,1,0-.08s0-.09,0-.11h.07s0,0,.06,0a.39.39,0,0,0,0-.26c-.26-.28-.17-.35-.39-.61.21-.17.41.14.52.4C66.85,60.25,66.79,60.17,66.74,60.25ZM62.6,26.45c.1,0,.15,0,.17,0S62.58,26.42,62.6,26.45Zm4.94,14.66h0s0,0,0,0S67.53,41.13,67.54,41.11ZM61,60.48v0S61,60.48,61,60.48Zm-5-35ZM21,33.94c.17-.44.22.72.41.06C21.31,34.06,21.08,33.4,21,33.94Zm25.27-8.35a.39.39,0,0,0,.1.08A.35.35,0,0,0,46.24,25.59Zm-3.87.26h0Zm-.11,0,.07,0h-.11Zm-3.49,0-.2,0,.07,0ZM49.06,60.57a.49.49,0,0,1,.18.17C49.18,60.61,49.77,60.56,49.06,60.57Zm17.33-3.36s0,0,0-.07v.13h0a.66.66,0,0,0,.06.2.44.44,0,0,0,0-.19h0s.06,0,.08,0A.1.1,0,0,1,66.39,57.21Zm.87-2.6v0Zm.28-14.18c-.06.33-.23,0-.23.52,0,.21.13.24.2.21a1.74,1.74,0,0,0-.21.77c0-.1,0-.27,0-.34s-.07.16-.2.16c0,.27.19.1.12.44l-.16-.31a.78.78,0,0,0,0,.37c0-.2-.2-.18-.3-.15.12.76.44.15.62.19a8.3,8.3,0,0,0,.09,1.85L67.31,44a.89.89,0,0,0,.12.42v0l.09.2,0,0V45c-.07-.25-.13-.34-.29-.34.06.44,0,1.06.26,1.17h0a12.62,12.62,0,0,1-.23,1.8c.06.43,0,.94,0,1.23.1,0,.25.08.25.17a.24.24,0,0,1-.14,0,.5.5,0,0,0,0-.13l-.06-.06c0,.12.06.2.13.21.07.38-.31,1,0,1.26-.17.45-.07,0-.25-.12-.17.46.25.92-.11,1.07.12.53.08-.12.24,0-.34.12-.06,1-.25,1.48.14.22.09-.23.23.15-.08,0-.11.17-.11.27l.21.1-.52.5c.25.74.36-.11.46.81-.19.27.17.7,0,1.41,0-.25-.1-.1-.16-.18l.09.4s0,0,0,0c-.16.35.08.3-.06.71,0-.28-.2-.2-.28-.07l.24.58-.29-.23c0,.56.44,1.4,0,1.69l0-.28c-.07,0-.28.19-.13.58,0,.12.19.2.19,0l-.06.29c-.19-.14-.24-.85-.3-1.3.08.14.14.49.26.38-.06-.4-.19-.78-.25-1.16a1.27,1.27,0,0,0,.27.34c.1-.43-.15-.32-.15-.66.08-.12.13-.2.19-.12a2.57,2.57,0,0,1,0-1.17s.14.49.24.23c-.13-.79-.34-1-.47-1.81-.31-1,.2-1.93,0-2.61-.09,0-.15.51-.2.07.17.07.1-.27.17-.3-.25-.48.06-.72-.11-1.06,0,.09.12-.2.18-.38.21.05.08-.54.38.17-.32-.73.08-1.29-.4-1.83l-.06.19.1-.73v0a1.37,1.37,0,0,1,.19-.79c0,.18,0,.45.11.63.17-.39-.17-.81-.17-1.24.15,0,0,.44.24.32a3.58,3.58,0,0,0-.13-.86l.08,0c.21-.76-.41-.29-.13-.85-.05,0-.1-.06-.15,0,.08-.21.23-.69.34-.21a1.4,1.4,0,0,0-.17-.7c-.12.22-.06.28-.22.36l-.09-1.06c0-.12.08.08.08.23.45-1.25-.37-2.53.16-3.95-.13.16-.12-.1-.21-.23,0-.29,0-.67,0-1-.19,0-.23-.07-.23-.15a2.09,2.09,0,0,0-1,.18.63.63,0,0,0,.27,0,2.17,2.17,0,0,1-.8.09,4.62,4.62,0,0,0,.9-.25c-.36.05-.72.11-1.08.19l-.09-.16c-.31.11-.26-.13-.57,0l.06,0c-.56,0-.57.15-1.1.17l0-.06c-.18,0-.44.12-.62,0h.34c0-.12-.3-.16-.42-.22-.36,0-.12.18-.31.2s0-.06.11-.16a4.16,4.16,0,0,0-1.25.22,0,0,0,0,1,0,0c-.42,0-.79.16-1,.08l.08,0c-.34-.16-.88.15-1-.12-.16-.05.37,0,.11-.12-.5-.08-.33.23-.78.15.07,0,0,0,.07,0-.32,0-.77,0-1.1.06h0l0,0-.12,0h.07a1.2,1.2,0,0,0-.49-.08.31.31,0,0,0,0,.1l.05,0h0v0l0,.09h0a3.89,3.89,0,0,1,.06.94h-.21c-.07.25.13.45,0,.66.07-.07,0-.09.12.07,0-.08,0-.26,0-.42l.12.34-.06-.51c.08.22.06.21.14.12.08.31-.08.33,0,.63,0,.12-.1,0-.14.12s-.15.48,0,.68,0-.1,0-.1c0,.17,0,.29.07.34l0-.15c0,.13.08.15,0,.39s.15.22.15.07c0,.06,0,.2-.1.15,0,.38.21.18.12.55,0,0,0,0,0,0a.45.45,0,0,0,0,.23c0-.32-.16.1-.13-.28-.1,0,0,.29-.06.41s.16,0,.21.12,0,.07,0,.17l.08-.09a1,1,0,0,0,0,.24l0-.15a1.6,1.6,0,0,0-.07.72c0-.08-.1-.24-.14,0s0,.08-.09.26.14.06.09.53c0,0,0,0,.07-.05,0,.33,0,.5,0,.82,0-.14.05-.24.09-.06-.06-.07-.07.16-.09.31s0,0,0,0,0,0,0,0a.07.07,0,0,1,0,0l0,0c0,.1-.07,0-.07-.08s0,0,0-.09-.2-.1-.2.15.14.22.18.18c0,.35.19.32.13.66a3,3,0,0,0-.18.58c.09.12.07-.31.15-.17-.24.4.14.83,0,1.36l-.12-.06a2.41,2.41,0,0,0,0,.38l.06-.18c0,.12,0,.41-.08.31a1.06,1.06,0,0,1,0,.61c0-.28,0,0,0-.21a.89.89,0,0,0,0,.51c-.05,0-.11.07-.11.15a5.07,5.07,0,0,1,.1.77h0c.06.44-.1.92,0,1.36h0c.12-.15.08.34.12.48s-.07,0-.07.12,0,.17.1.23-.12,0-.12.24c0,.1.07.1.1.1a.78.78,0,0,0-.1.36s.05-.13,0-.15,0,0-.09.06v.07s.07,0,0,.15l0-.09v.21s.1-.08.14-.08a3.18,3.18,0,0,0,0,.87l-.1,0a.4.4,0,0,0,.08.23v.2c0-.12-.06-.16-.14-.16,0,.21,0,.5.13.55h0a6.07,6.07,0,0,1-.12.84c0,.29,0,.67.1.67,0,.18-.16.47,0,.6-.08.2,0,0-.12-.05v.25a.36.36,0,0,1,0,.18v.12s0-.08.06,0a.1.1,0,0,0-.06.08v.61s0,0,0,.06,0,.08,0,.13h0l.1.05-.1.09v.3s0,0,.07.21.08.34,0,.67c0-.1,0,0-.07-.08v0l0,.16s0,0,0,0a.08.08,0,0,0,0,0v.31l0,0a2.76,2.76,0,0,0,.75.19c-.06,0-.14,0-.18.06.7-.19,1.72,0,2.12-.34-.15.4,1.47.05.94.42a2.53,2.53,0,0,0,.85-.25c0,.3.72.07,1,.25.16-.17.68-.11,1-.21-.14,0-.22.09-.17.17.36-.12.27,0,.57.14.48-.09-.09-.23.2-.37.42.06.06.19.14.32l.62-.31.15.06a.41.41,0,0,1,.12.11.48.48,0,0,1,.18-.07l.19.15.63-.19c.38.09.55.21.61.33a.13.13,0,0,0,.06-.07.59.59,0,0,1,0,.23h-.06a2.58,2.58,0,0,1-.09.35h0l-.07.11a.21.21,0,0,1,0-.08l-.34.05c0,.11.27.18.43.18s-.6.35-1,.39c-1.09,0-.22-.38-1-.45l-1,.18v-.11a.26.26,0,0,0-.15,0,.3.3,0,0,0-.13.09c.06-.16-.78-.06-1.17-.08l.14.14c-1.09.33-1.72-.36-2.58-.18l-.6.24-.13-.21a1.4,1.4,0,0,1-1,.21c-2-.36-4.23.09-6.31-.14,0,0,.09,0,.22.08-1.81-.52-2.84.54-4.48.13l.12-.08c-.84.05.11-.07-.5-.19-.11.26-1.06.2-1.54.29a1.61,1.61,0,0,1,.38-.08c-.09-.06-.12-.21-.36-.16a7.55,7.55,0,0,1-2.53.44c-.1-.17-.83-.32-1.21-.59-.09.06-.24.19-.39.31a1,1,0,0,0-.38,0,.81.81,0,0,0-.37.12H41a.25.25,0,0,1,.12,0c.18,0,.28,0,.23,0,.34.18,0,.15,0,.34-.27,0-.84.06-.91-.09a2.3,2.3,0,0,1-.45,0,1,1,0,0,1-.34,0l.06,0a.13.13,0,0,0-.07-.06,4.4,4.4,0,0,0-1.75.34c.44-.25-.11-.28-.11-.46A7.62,7.62,0,0,0,39,62l-.06,0a.25.25,0,0,1,0-.07c-.59-.19-1,.16-1.88,0,.06,0,.17-.06.13-.13a.88.88,0,0,0-.36,0,.83.83,0,0,0-.3.18c-.08-.17-.72-.3-1.06-.22a1.11,1.11,0,0,1-.36.18,1.08,1.08,0,0,1-.4,0l.23-.13c-.63-.1-.52.18-1,.08.2,0,.22-.08.07-.1a2,2,0,0,0-1.11.38l.08-.19c-.55.11-1.57.35-1.57.08.17.41-1.18.21-1.65.21a.21.21,0,0,0,.21-.14,12.13,12.13,0,0,1-3,0l-.16-.29c-.52,0-.67.57-1.25.57l.21-.14a16.9,16.9,0,0,1-2.25,0v-.19a3.55,3.55,0,0,1-.47.09,2.6,2.6,0,0,1-.37,0l-.41,0a2.47,2.47,0,0,1-.86-.71,1.49,1.49,0,0,1-.26-.67c0-.26,0-.63-.05-.76a4.77,4.77,0,0,1,.16-2.15l-.36-.08c0-.47-.07-1.08.2-1.3v.18c.28,0,0-.47.07-.76s-.21-.44-.27-.25c.2-1.25,0-3.11.34-3.89a24.92,24.92,0,0,1-.37-3.55h0c0-.44.15-1.35.46-1.35A11.68,11.68,0,0,1,21,44.18l.12.25a2.19,2.19,0,0,0-.12-.88c0-.09.06,0,.11,0,.1-.3-.06-.46-.09-.68l.1.09c.21-.93-.2-2.39-.15-3.58,0,.21.14.09.2,0a6.87,6.87,0,0,1-.34-2.32l.13.3c-.21-1,.36-.84.13-1.8l-.19.55c0-.39,0-.72-.16-.63.11-.46.26-.06.29-.74.09,0,.06.49.19.27l.25-1a1.13,1.13,0,0,0,0-.46c-.22,0-.22-.16-.22-.31s0-.27-.21,0a6.1,6.1,0,0,1,.41-2.07c.24-.62.5-1.19.76-1.78a2.14,2.14,0,0,0,.49-.41c.17-.19.35-.42.55-.61s.18-.19.27-.27l.26-.17c.16-.09.27-.09.34,0,.12-.12.25-.22.37-.32s.21-.21.32-.3a4.78,4.78,0,0,0,.52-.58c-.15,0-.27.18-.38.27a1.29,1.29,0,0,1,.49-.41,2,2,0,0,1,.38-.21l.34-.12A3.77,3.77,0,0,0,24.9,27.4a11.46,11.46,0,0,1,1.54-1.07,1.51,1.51,0,0,1,.23.21.51.51,0,0,1,.47-.12.53.53,0,0,0,.25,0,.57.57,0,0,0,.21-.13l-.11-.06a5.58,5.58,0,0,0,1-.23,2.65,2.65,0,0,1,.89-.17l0,.11c.29,0,.73-.22,1,0h-.56c.06.19.48.27.68.37.59,0,.21-.32.5-.34.13.18,0,.1-.17.27a6.87,6.87,0,0,0,2-.37s0,.07,0,.07c.7,0,1.3-.29,1.72-.14l-.13,0c.55.26,1.42-.25,1.54.2.26.08-.6,0-.17.21.81.13.54-.39,1.26-.26-.1,0-.07,0-.1.06.52,0,1.21-.06,1.78-.1.71.37,2.17-.09,3,.34-.26-.16.2-.18.2-.25s0,0,0,.07c.3,0,.34-.13.45-.19.24.13.82-.14,1-.06,0-.09.24-.06.51-.06-.53.09-.17.19-.41.34.79.05.9-.41,1.72-.34l.45.18c.1-.26.86-.17.84-.26.14.08.35.13.32.27.33-.07.82.07,1-.09l-.34-.07c1,.1,1.63-.29,2.41-.11v.41c.52.17,1-.23,1.42,0-.16-.14-.2-.1.14-.23-.22,0-.55.08-.89.08l.7-.24L50,25.88c.46-.16.43-.12.24-.28.68-.14.72.19,1.35,0,.23.06,0,.21.26.29.56-.15,1.07.29,1.47.08.14,0-.23,0-.2.11.37,0,.63,0,.73-.15l-.31,0c.27,0,.32-.16.84-.07.3-.09.48-.29.14-.29.14,0,.43.08.33.2.81,0,.39-.43,1.17-.24,0,0-.11,0-.08.06a1.35,1.35,0,0,0,.49,0c-.69,0,.22.33-.6.25.09.22.62.05.88.13.41-.14,0-.31.25-.42,0,.07.16.07.36.1l-.19-.17a2.36,2.36,0,0,0,.53,0l-.34.06a3.72,3.72,0,0,0,1.54.14c-.17.07-.5.2-.07.28.69-.1.16.07.55.2.35,0,.37-.1.44-.15s.17-.11.73,0c.12,0,0-.1-.11-.15.39.05.67.08,1,.13a2.9,2.9,0,0,1,.91.27c-.3-.12-.53-.24-.08-.21-.12.05,0,.11.22.2a3.6,3.6,0,0,1,.55.29l.1,0c.17.18-.06.09-.24.07,0,0,0-.08-.17-.12-.36-.06-.33.29.16.5s.57-.05.51-.17a1.49,1.49,0,0,0,.76.25,1,1,0,0,1,.37.1.89.89,0,0,1,.3.24.75.75,0,0,1,.14.17c0,.08.1.2.16.3l.21.34a1.56,1.56,0,0,0,.23.34c.34.09-.38-.61,0-.48a1.79,1.79,0,0,0,.37.64,4.51,4.51,0,0,0,.52.55,2.73,2.73,0,0,1,.84,1.5l-.27-.06c.09.27.18.53.27.84a3.38,3.38,0,0,0,0-.45c.14.27.25.94,0,.76a2,2,0,0,1,.19,1.36c0-.63,0,0-.12-.46a3.3,3.3,0,0,0,0,1.13c-.08-.07-.2.16-.2.32a9.89,9.89,0,0,1,.19,1.61h.17c0,.41,0,.8,0,1.18v.52l0,.21a2.47,2.47,0,0,0-.13.89h-.13s0,.1,0,.15v0c.22-.34.16.73.25,1-.06.06-.16.09-.16.26C67.54,39.94,67.45,40.29,67.54,40.43Zm-27,21.76c0,.05.08.08.27.05v0l.06,0A2.26,2.26,0,0,1,40.53,62.19Zm-8.83-24h0a.09.09,0,0,0,0,0A.09.09,0,0,0,31.7,38.2Zm1.36,21.92h0v0Zm23.58-33v0c0,.18,0,.31-.15.28a1.4,1.4,0,0,0,.16.75.64.64,0,0,0,0-.2,1.71,1.71,0,0,1,.08.6,3.83,3.83,0,0,0-.21-.68h0a5.89,5.89,0,0,0,.15.82l-.13.07c.07.17,0,.2,0,.29h0a.3.3,0,0,0,0,.13l0,0c0,.43.12.43.14.83h-.05c0,.14.1.34,0,.48v-.27c-.07,0-.11.16-.15.26v.16c0,.11.14,0,.14.14s-.05,0-.14-.08a3.72,3.72,0,0,0,.18.94h0c0,.32.15.6.07.8V32.4c-.13.26.12.67-.1.72,0,.12,0-.28-.1-.08-.07.38.19.25.12.59,0-.05,0,0,0-.05a8,8,0,0,0,0,.83c-.15.29,0,.84-.12,1.23.15,0,.31,0,.47,0v0c.28,0,.84.09.84.27a7.39,7.39,0,0,1,1.7-.21l-.16.07a1.7,1.7,0,0,0,.55-.07c.05,0,0,0,0,.06.17.06.27,0,.41,0l-.06.06a19.34,19.34,0,0,0,2.2-.09c-.12,0-.05.08,0,.11a4.69,4.69,0,0,1,1.43-.19l-.19.07c.6-.13.52.21,1.11.08l-.34-.11c.24,0,.45,0,.39-.1.28.07,0,.15.46.17,0,.06-.3,0-.17.12l.59.15h.28c0-.26.49,0,.2-.26h.22c0-.07,0-.14,0-.21s.13,0,.16.14c-.18-.53.37-1.17,0-1.31l0,.19a6.6,6.6,0,0,0-.1-1.6,6.53,6.53,0,0,0-.2-.76c-.08-.25-.17-.49-.25-.72.15-.29.18.55.37.28a6.26,6.26,0,0,0-.92-2c.09.11.1.06.14.11-.32-.71-.14.2-.48-.34.11,0,.12-.08,0-.29a.8.8,0,0,0-.26,0,.18.18,0,0,1,.08-.09.15.15,0,0,1,.13,0c-.19,0-.39-.24-.61-.42s-.43-.35-.59-.32.24-.14.22-.26a1.13,1.13,0,0,0-.37-.28,1.7,1.7,0,0,0-.37-.1c-.13-.28-.71-.5-.57-.48-.56-.32-.15.07-.64,0,.14.09.29.17.42.27-.13-.06-.27-.08-.41-.13a2.75,2.75,0,0,0-.41-.11,2.16,2.16,0,0,1,.36,0,1.2,1.2,0,0,0-.59-.15c-.21,0-.43,0-.66,0l.19.15h-.51c0-.26-.66-.09-.36-.37a15.16,15.16,0,0,0-2.66.22c.16,0,.09-.06.13-.1A2.22,2.22,0,0,0,56.64,27.14ZM56.7,27h-.06v.06S56.7,27,56.7,27Zm-23.45.33c0,.07-.06.12-.13.1a1.61,1.61,0,0,0,.16.75.34.34,0,0,0,0-.2,1.51,1.51,0,0,1,.08.6,3.83,3.83,0,0,0-.21-.68,7.91,7.91,0,0,0,.16.82l-.14.07c.1.24-.1.19,0,.43l0,0c0,.43.12.43.14.83h-.06c0,.14.11.34,0,.48v-.27c-.1,0-.14.23-.19.32,0,.28.17.1.17.24s0,0-.14-.08a3.34,3.34,0,0,0,.19.94h0c0,.32.15.6.07.8v-.06c-.13.25.12.67-.1.72,0,.12,0-.28-.1-.08-.07.38.19.25.13.59,0,0,0,0,0,0,0,.24,0,.57,0,.83-.17.33.05,1-.17,1.39.06-.08.09,0,.11.05l.27,0-.07,0c.51,0-.07,0,.3.11.08-.15.65-.12,1-.17l-.23.05s.08.12.22.1a4.58,4.58,0,0,1,1.55-.27c.07.1.52.18.75.34l.24-.18a.58.58,0,0,0,.23,0,.62.62,0,0,0,.23-.07H37c-.21-.1,0-.08,0-.19.17,0,.52,0,.56,0a1.33,1.33,0,0,1,.28,0,.55.55,0,0,1,.18,0l0,0a3,3,0,0,0,1.07-.2c-.26.14.08.16.08.27H38.5l0,0,0,0c.37.12.63-.09,1.16,0,0,0-.1,0-.07.08a.5.5,0,0,0,.21,0,.45.45,0,0,0,.19-.11c.05.11.45.18.65.13a.6.6,0,0,1,.47-.11l-.14.07c.37.06.31-.11.62,0-.13,0-.14.07,0,.07a1.38,1.38,0,0,0,.68-.23l-.05.11c.33-.05,1-.2,1-.05-.1-.24.72-.12,1-.12-.11,0-.13.06-.13.08a7.55,7.55,0,0,1,1.84,0l.1.17c.33,0,.43-.33.77-.33l-.13.08a10.74,10.74,0,0,1,1.39,0v.12c.18-.06.41-.06.59-.11.41.28,1.64-.15,2.39.16l.05-.21c.29,0,.66,0,.8.12h-.07c0,.17.29,0,.47,0s.28-.12.16-.16a16.71,16.71,0,0,1,2.38.2l.18,0a12.36,12.36,0,0,1-.14-1.35h0c0-.21.08-.64.23-.64a5,5,0,0,1-.18-1.28l.06.11a1,1,0,0,0-.06-.41s0,0,.06,0,0-.21,0-.31l0,0a12.39,12.39,0,0,0-.08-1.66c0,.09.08,0,.1,0a3.17,3.17,0,0,1-.16-1.09l.06.14c-.11-.45.18-.39.07-.84l-.1.26c0-.19,0-.34-.08-.3.06-.2.15,0,.15-.34,0,0,0,.23.09.13l.11-.38c0-.06,0-.11-.09,0,0-.13.07-.12.11-.08V27.6c-.22,0,0-.37-.22-.15,0-.11,0-.34,0-.59-.19,0-.34-.08-.2-.25,0,.11-1.18.33-.84.54l.2,0c0,.14-.25.1-.45.1.11,0,.22-.06.22-.09-1,.17-2.11,0-3.26.14.09-.05.56-.14.26-.18a14.43,14.43,0,0,0-3,.32c-.06-.31,1.25,0,1.3-.34-1.22.05-2.47.17-3.83.34-.47-.48-1.33.19-2.17-.18.08.16-.34.22-.79.22.15-.13-.33-.13-.19-.23-.4.15-1.56.21-1.51-.1-.11.29-.8,0-1.15.18a1.19,1.19,0,0,1,.26.11l-.41-.09h0c-.48-.08-1,.07-1.63,0,.23.19-.62.09-.86.17.07,0,.2,0,.17-.06-.19-.17-.73.14-1.09,0-.16-.07,0-.19-.22-.19a1.83,1.83,0,0,1-1.32.13c.16,0,.16-.07.26-.12C34.27,27.31,33.76,27.33,33.25,27.34Zm4.1,8.34h0l0,0h.2S37.46,35.68,37.35,35.68Zm-14.8-1.62a8.17,8.17,0,0,1,0,1.78c.3,0,0,.21.38.25l.59-.11V36c.09,0,.14,0,.17,0s.48,0,.72,0L24.35,36c.67-.2,1.06.21,1.59.11l.37-.15.07.13a1,1,0,0,1,.62-.13c1.26.22,2.61-.05,3.88.09l0,0a2.49,2.49,0,0,0,.85,0,12.07,12.07,0,0,1-.17-1.59h0c0-.21.07-.64.22-.64a5,5,0,0,1-.17-1.28l.05.11a1,1,0,0,0-.06-.41s0,0,.06,0-.05-.21-.05-.31l.05,0a12.47,12.47,0,0,0-.07-1.67c0,.1.07,0,.09,0-.16-.23-.12-.85-.16-1.08l.06.14c-.11-.45.18-.39.07-.84l-.1.26c0-.19,0-.34-.08-.3.06-.2.13,0,.15-.34,0,0,0,.24.09.13l.08-.29c0-.06-.07-.24-.12-.11,0-.18.1-.07.15,0v-.25c-.21,0,0-.37-.21-.15v-.09a13.75,13.75,0,0,0-2,.13l.3-.23c-.52-.15-.71,0-.86.07a.92.92,0,0,1-.25.19.62.62,0,0,1-.38.1,6.09,6.09,0,0,0-2.92.71,4.77,4.77,0,0,0-2.09,2.19c0,.17.11,0,.21,0-.11.11-.29.08-.29.34h.13a1.73,1.73,0,0,0-.4.68,4.61,4.61,0,0,0-.17.9c0,.31,0,.61-.07.88A1.91,1.91,0,0,1,22.55,34.06ZM31.7,60.64c0-.38.18-.06.22-.38l-.1-.45h.06c0-.07,0-.11,0-.13s0-.37,0-.55l-.07.07c-.16-.52.17-.8.09-1.2l-.12-.29.1-.06c-.06-.16-.14-.19-.1-.46.18-1,0-2,.07-2.95a.12.12,0,0,0,0,.1c.25-.85-.26-1.32-.07-2.09l0,0c0-.38,0,.06.1-.22-.13,0-.1-.5-.15-.72,0,0,0,.11.05.17s.1-.06.07-.17a3.32,3.32,0,0,1-.21-1.18c.08,0,.15-.39.29-.56a.93.93,0,0,0-.16-.18.37.37,0,0,0,0-.18.3.3,0,0,0-.05-.16v.49c-.08.16-.07,0-.16,0s0-.4,0-.43a.76.76,0,0,1,0-.21.3.3,0,0,1,0-.13l0,0a2.08,2.08,0,0,0-.17-.82c.12.2.14,0,.23,0v.55l0,0,0,0c.09-.28-.08-.47,0-.88,0,0,0,.06.06.06a.29.29,0,0,0,0-.16.38.38,0,0,0-.09-.15c.09,0,.15-.34.11-.49a.3.3,0,0,1-.08-.16.37.37,0,0,1,0-.18l.05.11c.05-.29-.08-.23,0-.47,0,.1,0,.11,0,0a1,1,0,0,0-.19-.51l.1,0c0-.26-.18-.74,0-.74-.2.08-.1-.55-.1-.77,0,.08.05.1.07.1a5.55,5.55,0,0,1,0-1.41l.14-.07c0-.25-.28-.32-.28-.58l.07.09a9.19,9.19,0,0,1,0-1.05h.09c0-.13,0-.31-.08-.44.23-.32-.13-1.25.13-1.82l-.17,0a1.87,1.87,0,0,1,0-.48,5.21,5.21,0,0,0-.88.06l.06-.11a.51.51,0,0,0-.31.09h-.25c.15,0,.21-.08.21-.17-.28,0-.65,0-.73.15v0a8.07,8.07,0,0,1-1.1-.14c-.4,0-.91,0-.91.12-.23,0-.6-.19-.77,0-.27-.1,0,0,.07-.15-.28-.1-.56.15-.65-.06-.33.06.07,0,0,.14-.07-.2-.6,0-.91-.15-.13.08.14,0-.09.14,0-.07-.1-.07-.17-.07l-.06.13-.2-.21h-.3c0,.08.1.13-.3.17-.17-.11-.43.1-.87,0,.15,0,.06-.06.11-.1l-.24,0s0,0,0,0c-.22-.09-.19.06-.44,0,.07,0,.1,0,.11-.06h-.24c.29,1.09-.43,2.79-.17,4.1l0-.06c-.08,0-.19.25-.16.47s.1-.07.17-.2c.1.8.16,1.62.18,2.43-.13-.42-.12.38-.29.42.11.25.18-.14.28.42a17.66,17.66,0,0,1-.2,2.18c.16.27.12.63.31.64,0,.9.09,1.4.09,2.5l-.07,0c.24.29-.12,1,0,1.16-.09,0-.13-.15-.19-.12l.07.5c-.08-.24-.31-.37-.34,0,.18.43.12-.12.26.09l-.23.13c0,.32.28.42.34,0,0,1.1.11,2.19.07,3.18L22.63,56a4.36,4.36,0,0,1-.07,1.61s.12.14.17.06c.2.65-.24.07,0,.78-.05-.18-.08-.4-.17-.43l.18,1.32c-.05,0-.14.22-.2.49a2.13,2.13,0,0,0-.07.44.28.28,0,0,0,0,.18.34.34,0,0,0,.15-.14l.06.07a.69.69,0,0,0-.21.24.44.44,0,0,0,.3-.08l-.11.21a.31.31,0,0,0,.13-.06.24.24,0,0,0,.09-.11s0-.07.07-.09a.39.39,0,0,1,.21,0,7.29,7.29,0,0,1,1.75.41c.09-.41,1.31,0,1.52-.28a24,24,0,0,0,4.13.21l-.12,0C31,61.05,31.11,60.61,31.7,60.64Zm-.06-11.22,0,0V49.3S31.64,49.34,31.64,49.42Zm0,11.28h.07v0Zm7.22.19h-.47c.18,0,.41.09.35.13C38.84,61,38.88,61,38.84,60.89ZM55,60.79s0-.08,0-.1c0-.42.18-.08.22-.41l-.09-.45h0a.15.15,0,0,0,0-.07l0-.06c.08,0,0-.36,0-.54l-.07.06c-.16-.52.18-.8.09-1.2l-.12-.28.11-.06c-.07-.17-.15-.2-.11-.47.18-1,0-2,.07-2.94,0,0,0,0,0,.1.26-.85-.27-1.33-.06-2.09l0,0c0-.39,0,.05.1-.23-.14,0-.1-.49-.14-.72a1.16,1.16,0,0,1,0,.18s.1-.06.08-.17A3.31,3.31,0,0,1,55,50.21c.08-.05.16-.39.29-.56l-.07-.09,0,0v-.06l-.07-.08a.32.32,0,0,0,0-.17.37.37,0,0,0-.05-.17v.49c-.08.16-.07,0-.16,0s0-.4,0-.43A.76.76,0,0,1,55,49a.3.3,0,0,1,0-.13l0,0a2.11,2.11,0,0,0-.17-.82c.13.2.14-.05.23-.05v.55s0,0,0,0h0c.11-.28-.07-.48,0-.88,0,0,0,.07.06,0a.29.29,0,0,0,0-.16.42.42,0,0,0-.09-.14c.09,0,.15-.34.11-.5a.4.4,0,0,1-.08-.16.37.37,0,0,1,0-.18l.06.11c.05-.29-.09-.24,0-.47,0,.1.05.1.05,0a.92.92,0,0,0-.19-.52l.1,0c0-.26-.18-.74,0-.74-.2.08-.1-.55-.1-.77,0,.08,0,.1.07.1a5.12,5.12,0,0,1,0-1.41l.14-.07c0-.24-.28-.32-.28-.58l.07.09a6.14,6.14,0,0,1,0-1H55c0-.14,0-.31-.09-.45.24-.31-.12-1.24.14-1.82l-.18,0a1.94,1.94,0,0,1,0-.42l-.07,0-.07,0h.14c-.16-.05-.48.08-.57,0s-.15,0-.31,0c.33-.06.11-.12.25-.21-.48,0-.55.25-1.06.2l-.28-.11c-.06.16-.51.1-.51.16s-.22-.08-.19-.16c-.21.06-.51,0-.6.06l.2,0c-.62-.06-1,.17-1.47.06v-.24c-.32-.09-.59.14-.87,0,.1.08.12.05-.09.13.12,0,.35,0,.55,0l-.43.14.68-.07c-.29.1-.27.07-.15.17-.41.08-.44-.11-.83,0-.14,0,0-.12-.16-.17-.34.09-.65-.17-.9,0-.08,0,.14,0,.12-.06-.22,0-.38,0-.45.09l.19,0c-.17,0-.17.09-.51,0s-.29.18-.09.18c-.08,0-.26-.05-.2-.13-.5,0-.24.26-.72.15,0,0,.07,0,.05,0h-.31c.43,0-.13-.19.38-.15-.06-.13-.39,0-.55-.07s0,.18-.15.25-.1-.06-.22-.06l.12.09a1.87,1.87,0,0,0-.34,0l.2,0a2.3,2.3,0,0,0-.94-.08c.1,0,.3-.12,0-.17-.42.06-.1,0-.34-.12-.42,0-.07.18-.7.12-.07,0,0,.06.07.08-.43-.05-.67,0-1.08-.05.18,0,.32.06.08.11.1-.08-.34-.08-.51-.13l0,0c-.13,0,0-.07.12-.09s0,0,.11,0,.14-.23-.2-.25-.28.18-.23.23c-.46-.05-.43.22-.87.15a5.07,5.07,0,0,0-.76-.22c-.17.12.4.09.21.18-.53-.28-1.1.16-1.8,0l.09-.14h-.51l.24.07c-.16,0-.55,0-.42-.1a1.33,1.33,0,0,1-.79,0c.37,0,0,0,.27,0a1.52,1.52,0,0,0-.67,0s-.1-.12-.2-.12a8.86,8.86,0,0,1-1,.12v0a15.27,15.27,0,0,0-1.79,0h0c.2.14-.45.09-.63.14a.22.22,0,0,0-.15-.09c0,.08,0,.15,0,.18l0-.15c-.05.48.14.76,0,1.12h-.2c-.07.27.12.47,0,.68.06-.07,0-.09.11.07,0-.08,0-.26,0-.42l.12.34,0-.51c.07.22,0,.2.13.11.07.31-.09.34,0,.63,0,.12-.1,0-.15.12s-.14.49,0,.68,0-.11-.06-.09,0,.29.07.34l0-.15c0,.13.07.15,0,.39s.14.22.14.07c0,.06,0,.2-.1.15,0,.38.22.18.12.55,0,0,0,0,0,0a.88.88,0,0,0,0,.23c0-.32-.16.1-.12-.28-.11,0,0,.29-.07.41s.16,0,.21.12,0,.07,0,.17l.08-.1a2,2,0,0,0,0,.25l0-.15a1.75,1.75,0,0,0-.07.72c0-.08-.09-.24-.14,0s0,.08-.09.26.14.06.09.53c0,0,0,0,.07-.05,0,.33,0,.5,0,.82,0-.14,0-.24.09-.06-.07-.08-.06.26-.11.38l0,0c0,.1-.07,0-.08-.08h0s0,0,0,0v0s0,0,0-.07-.24-.11-.2.15.15.22.19.18c0,.36.18.34.12.67a3,3,0,0,0-.18.58c.09.13.07-.3.15-.16-.23.4.14.82,0,1.36l-.11-.07a2.54,2.54,0,0,0,0,.39l.06-.19c0,.13,0,.42-.08.33a1,1,0,0,1,0,.59c0-.27,0,0,0-.2a1.1,1.1,0,0,0,0,.51s-.11.07-.11.15a4,4,0,0,1,.1.77h0a12.34,12.34,0,0,0,0,1.36h0c.11-.15.07.34.11.48s-.07,0-.07.12.05.17.1.23-.12,0-.12.24c0,.1.06.1.1.1a.78.78,0,0,0-.1.36s0-.13,0-.15,0,.07-.1.07.09.05.06.21l-.08-.15a.32.32,0,0,0,0,.17s0,0,0,0v.15c.07,0,.14-.1.19-.09a3.64,3.64,0,0,0,0,.87l-.09-.05a.37.37,0,0,0,.07.23v.2c0-.12-.06-.16-.14-.16,0,.21,0,.5.13.55h0a7.71,7.71,0,0,1-.11.84c0,.29,0,.68.09.68,0,.18-.16.46,0,.59-.08.21,0,0-.13-.06-.08.21.11.42,0,.49v0c0,.18,0-.07.11,0-.15,0-.05.38-.11.62v.07s0-.1.1.06c0,0,0,.08,0,.12l.1,0-.15.14v.25s.09-.06.12.22.08.34,0,.67c0-.11,0,0-.08-.08l0,.19s0,0,0,0c-.07.17,0,.15,0,.34a.15.15,0,0,0,0-.07v.31h0v0a13.36,13.36,0,0,0,1.72-.23c-.16.06-.08.17.18.17s-.22-.28.24-.2c-.11,0,0,.12.08.12l.45-.2a18.42,18.42,0,0,0,3.78.17c.22.07.06.15,0,.21,1,0,1.93-.21,2.81-.24l.09.23c.42,0,.26-.36.82-.15.12,0-.37,0-.52.12.85.18.5-.23,1.32-.2l-.21.26c.63.16.72-.14,1-.29.88-.32.62.51,1.82.27.19-.14-.06-.2.13-.33.85.07,1-.12,1.79-.06.46.4-.43,0,.07.38l-.65-.09c.56.21-.51.05-.42.28a6.12,6.12,0,0,0,1.6-.21c0,.18-.64,0-.39.27L49,61c-.07.06-.09.12-.25.12.1.16.33,0,.59,0a.54.54,0,0,0,0-.18.48.48,0,0,0-.08-.16.13.13,0,0,0,.07.06c.55-.26,1.47-.06,1.93-.26-.09,0,0,.07,0,.11a10.93,10.93,0,0,0,1.11-.29c.23.13-.14.39.57.32.12-.15-.19-.4.41-.4,0,0-.52.1-.22.24.58-.1.18.05.71.22.31-.21.58.07.65-.27C54.68,60.72,54.63,60.63,55,60.79Zm0-11.36h0v0a.38.38,0,0,1,0-.15S55,49.34,55,49.43Zm9.79,11.2h0Zm.17-.06-.15.06h.51A.74.74,0,0,0,65,60.57ZM41,62l.1,0h.07l-.11,0Zm-18.3-1.44.05,0h0Zm30.9-33.38h-.08C53.36,27.21,53.49,27.2,53.63,27.17Zm9.75.47-.31-.07C63.21,27.65,63.32,27.74,63.38,27.64Zm3,31.62,0-.1v.1h0Zm.06.36,0-.23s0-.11,0-.11l0,.1C66.37,59.47,66.36,59.58,66.41,59.62Zm0-3.28-.07,0,0,0Zm-.13-.06.06,0c-.11-.13.17-.63,0-.82A3,3,0,0,0,66.28,56.28Zm1-4.37-.05.72c.07-.13.17-.29.19,0C67.62,51.76,67.23,52.85,67.26,51.91Zm.11-2.22c0,.38.11,0,.15,0C67.45,49.46,67.43,49.4,67.37,49.69Zm0-16.08.18,0C67.52,33.35,67.48,33.65,67.37,33.61ZM65.94,30.8v.29l.19.06Zm.24-2.13a2.86,2.86,0,0,0-.4-.38,1.92,1.92,0,0,1,.29.28Zm-26.93-3,.09.22C39.55,25.87,39.59,25.63,39.25,25.69ZM27.53,26a.77.77,0,0,0-.34-.07.67.67,0,0,0-.36.14l.4,0A1,1,0,0,0,27.53,26ZM20.89,58.72l0-.21-.08-.23ZM33.4,44.58a.05.05,0,0,0,0-.06Zm-.15,7.16s0,.07,0,.17Zm.06,2.95v.05l0,0Zm-.05,2.15.06,0s-.09-.07-.13-.08l.05,0S33.25,56.82,33.26,56.84Zm.07-3.67,0,0h0S33.33,53.16,33.33,53.17Zm0-18.71v.06l0-.1ZM33.18,59.4h0v0ZM31.63,48.82h0v0Zm.13.78,0-.05,0,0v.08Zm1.46,8.58,0,.34c0-.06.08-.13.09,0C33.4,58.11,33.21,58.62,33.22,58.18Zm.06-1c0,.18,0,0,.07,0S33.31,57,33.28,57.14Zm0-7.5h.09C33.35,49.52,33.33,49.65,33.28,49.64Zm.16-2.29,0,.06,0-.23Zm0-12.6-.11,0C33.33,34.89,33.45,34.91,33.42,34.75Zm-.05-5.59a.41.41,0,0,0,0-.16,1.55,1.55,0,0,0,0,.31A.47.47,0,0,0,33.37,29.16ZM31.62,39.32l0-.12,0,.21Zm25.22,5.21a0,0,0,0,0,0,0v.07A.06.06,0,0,0,56.84,44.53Zm-.19,7.35,0-.17S56.65,51.81,56.65,51.88Zm.09,2.78v.05l0,0Zm-.12,2.05a.1.1,0,0,1,0,0s0,0,0,.06a.07.07,0,0,0,.06,0S56.66,56.73,56.62,56.71Zm.15-3.59h0l0,0Zm0-18.71,0,0v.06ZM55,48.84h0s0,0,0,0Zm1.59,10.52h0v0Zm.16-.86c.11-.41-.08.1-.07-.34l0,.34C56.66,58.44,56.71,58.36,56.72,58.5Zm0-1.38c0,.18,0,0,.07,0S56.74,57,56.71,57.12Zm0-7.5h.08C56.78,49.5,56.76,49.63,56.71,49.62Zm.18-2.23,0-.23,0,.17Zm0-12.66-.11,0C56.76,34.87,56.88,34.89,56.85,34.73ZM56.77,29a1.71,1.71,0,0,0,0,.31.25.25,0,0,0,0-.15A.3.3,0,0,0,56.77,29ZM47,45.76a.07.07,0,0,1,.09-.06s0-.06-.05-.09-.1.12,0,.2a.11.11,0,0,1-.08,0,.2.2,0,0,0,.12.08l.15,0C47.09,45.84,47.14,45.84,47,45.76Zm-1.74-3v.11C45.29,42.74,45.42,42.75,45.27,42.71Zm-3.14,3.9s0,0,0,0h0Zm5.22-1.36v.11S47.38,45.28,47.35,45.25Zm-4.19,2.56,0,0Zm0,0s0,0,0,0S43.16,47.82,43.16,47.81Zm4.19-2.56h0Zm0,8.08a.43.43,0,0,1,.14.16c-.27-.28-.19-.09-.25-.09a.44.44,0,0,1-.15-.12.25.25,0,0,1,0,.13.16.16,0,0,0,0,.1.14.14,0,0,0,.08.07l0,0c.09.08,0,0-.08,0s0,0,0,0a1.29,1.29,0,0,1-.44,0,2.27,2.27,0,0,0-.52,0s.17-.08.08-.1H46.1l-.13.05c-.09,0-.17.09-.28.13,0-.18.24,0,.24-.2a4.38,4.38,0,0,0-.71.19c-.09-.26-.24.11-.4-.1,0,.09-.06.13-.15.13s-.06-.08,0-.13-.28.12-.28,0c0,.15-.14,0-.21.09l0,0h0c-.1-.06-.2,0-.32,0,0,.09-.12.05-.16.09a0,0,0,0,0,0,0c0-.1-.16.06-.2,0s0-.1,0-.1-.18.16-.25.07,0,0,0-.07a.2.2,0,0,1-.11,0h-.58a5.49,5.49,0,0,0-.81,0,.43.43,0,0,0,0-.16h.14c.27-.45-.2-.05-.1-.39s.14-.44.21-.64.09-.2.09-.24l.07-.15a1.65,1.65,0,0,0,.18-.62s-.05,0-.1,0,.12,0,.07-.08h-.07c.22-.15,0-.57.32-.65-.06-.2.15-.28,0-.54.07,0,.1.11.13,0l0-.23c-.15-.24.34-.46.26-.74,0,0,.13,0,.1-.06s0,0-.09,0a1.19,1.19,0,0,1,0-.46c0,.09.07,0,.17,0s-.11,0-.14-.11a1.65,1.65,0,0,1,.2-.37c-.07-.07,0-.12-.13-.15s0-.09,0-.11v0h0l0,0,.09-.06h0s.16-.09.14-.12l-.05,0,0,0s-.14.1-.14.13l-.07,0-.15-.11a.82.82,0,0,1-.25-.24l.07,0c-.1-.06-.2-.2-.18-.29s-.08,0-.08,0c-.17-.07.1-.09-.08-.16,0,0,.08.05.12,0l-.23-.2a.27.27,0,0,0,0-.34l0,0s0,0,0,0l-.06-.06.11-.1-.15-.07.11,0c0-.06-.2-.06-.2-.13,0-.27.06-.22.16-.41-.23,0,0-.27-.17-.31.17-.23.11-.56.25-.84v0c.16-.08-.1-.19,0-.31v.05c.17-.12.22-.44.25-.64l0,0,0,0h0l0,0c0-.06-.16,0-.06-.11s.06.05.06,0l0-.15a4.63,4.63,0,0,0,.68-.48c.07,0,.07,0,.07.09a2.28,2.28,0,0,1,.48-.39l.06.11c.08,0,0-.2.15-.12s-.09,0-.09.09c.2.05.07-.16.25-.18v.15c.14.06.13-.1.17-.19s.16.26.41.13c0-.07,0-.11,0-.18.19,0,.22-.05.41,0,.06.23-.09,0,0,.2L45,42.75c.1.14-.11,0-.11.14s.22,0,.34,0-.13,0-.11.12l.07,0s0,0-.07,0,.06,0,.12,0a.63.63,0,0,0,0-.19v0c.15-.11.3.06.44,0,0,0,0,0,0,.05s.19,0,.3,0-.13.17,0,.22.08-.21.19-.13-.14,0-.11.09,0,0,.06.19c.12,0,.07.11.2,0,0,.12,0,.08,0,.2,0-.1.17,0,.25-.06-.07.12-.21,0-.23.2.1,0,.22,0,.34,0s0,.12,0,.19h-.06c.18.06.22.29.41.29-.1,0-.06.1,0,.17s.05.11-.06.11a.37.37,0,0,0,.2.12c-.16,0,0,.16-.06.25.1,0,.1.12.17.18l0,0,0,0c.08,0,0,0-.05.13s.12,0,.21,0-.1,0-.16.06l.18.11,0,0-.05,0,0,0-.07,0,.11.13a.24.24,0,0,1-.18.12v0l-.1,0h-.18a2.4,2.4,0,0,1-.27,1.08l0,0v-.08h0c.1,0,0-.07.07-.11s.09.07.14.07l-.09-.15.14.09c0-.12-.16-.34.06-.34v.06s.15,0,.1-.08a.48.48,0,0,1,0,.2s0-.11-.11-.11a2.44,2.44,0,0,1,.06.26s0,0,0-.05,0,0,0,0h0v0s0,0,0,0h0v0l-.06,0c-.07.06,0,.08,0,.14s-.08,0-.1,0a.24.24,0,0,1,0,.12.2.2,0,0,1-.09.09s0-.11-.1-.09.09.24.06.43-.31.25-.31.43.13,0,.09.07c-.06-.08-.09,0-.11,0,0,.17-.12.08-.12.2s-.08,0-.13,0-.1,0-.1-.18a.3.3,0,0,1,0,.1.23.23,0,0,1-.07.07s-.07.06,0,.15H46s0,0-.1,0a.24.24,0,0,1-.06-.11h0c-.06,0,0,.06,0,.1s.11.08.11.1-.05-.07-.15-.07.07.11.11.15h-.05c-.08.14.23,0,.1.13a.13.13,0,0,1,.08,0c0,.05-.1.16-.17.08a.16.16,0,0,0,0,.07l.08,0c.06-.06,0-.06.1-.09l.09.18s0,0,0,0c-.19.28.31.41.08.73.07,0,.07,0,.12,0s0,.21,0,.3h0c.11.18.22.3.22.44s-.07,0-.09,0-.15.24,0,.24v0c0,.19.2.37.27.56,0,0-.05,0-.06,0l0,0,0-.07h0s0,0-.09,0,.11.26.11.42l0,0c0,.16.13,0,.13.08s-.08,0-.1.07h0c.13,0,.09.21.21.23s-.16,0-.18,0,0,.11.09.14,0,.17-.05.15.07,0,.16.08l0-.11.07.16-.08-.05c0,.09.1.14.12.23L47,52l.07.09c-.14,0,0,.13-.17.12a.29.29,0,0,0,0,.13.41.41,0,0,0,.07.11,1.24,1.24,0,0,1,.18.34.05.05,0,0,0-.06,0c0,.14.1.24.2.38-.05-.05-.07-.09-.12-.1,0,.17.12.14.22.39C47.35,53.28,47.32,53.28,47.32,53.33Zm-1.67-5.65h0Zm.24,1v0a.66.66,0,0,0,.14,0A.14.14,0,0,0,45.89,48.71Zm-.1-1.13-.12.08Zm.4-.29-.13.09a.12.12,0,0,0,0,.08c.13,0,0-.21.18-.09C46.28,47.28,46.22,47.33,46.19,47.29Zm.26-.12c0-.08-.06,0-.08-.11l0,0h0v0l0,0a2.65,2.65,0,0,1-.21.26C46.31,47.35,46.32,47.17,46.45,47.17Zm.19-.1c0-.15-.11-.12-.13-.19a.94.94,0,0,1-.09.12ZM43.2,43.29l-.08.05c.05,0,.09,0,.1,0S43.23,43.31,43.2,43.29Zm-.64,9.9.1,0h-.08Zm.09,0h0Zm.9,0h-.08S43.53,53.16,43.55,53.14Zm1,0s0,0,0,0h0S44.56,53.15,44.57,53.17Zm2.57-7.08v0h0Zm-.09,0s.07,0,.09,0,0-.06,0-.07Zm-5,.29v0h0Zm4.72,5.13.06,0S46.77,51.47,46.72,51.49Zm.08.09,0,0v.05l0,0A.09.09,0,0,0,46.8,51.58ZM47.21,46h0l0,0Zm-.28.73s.12-.06.12-.12h0S46.89,46.72,46.93,46.77ZM42.37,38.5c.06,0,.11,0,.09,0S42.37,38.48,42.37,38.5Zm1.51.12h0Zm-9.5-.18s-.12,0-.22,0Zm-4,.12.12-.06h-.06Zm-2.69,0c.07,0,.09-.12.11-.16a.17.17,0,0,1-.14.07Zm38-2.59s.37-.18,0-.25C66,35.79,65.31,35.82,65.72,35.94ZM30.84,36l-.09,0Zm7.2-.24h0Zm-13.8,2.63h0Zm1.65,0-.45,0c.08,0,.18.1,0,.11C26,38.62,25.31,38.38,25.89,38.4Zm1.36.16c.15,0,.18-.06,0-.09S27.25,38.53,27.25,38.56Zm9.89-.09,0,.1C37.3,38.57,37.12,38.53,37.14,38.47Zm2.93.21.3,0-.22,0Zm24.05-.11a.44.44,0,0,0,.2,0,2.73,2.73,0,0,0-.4,0A.37.37,0,0,0,64.12,38.57Zm-13.34-3-.27,0h.13Z" fill="#161614"/>
  <path class="mapIcon__innerRing" d="M44,8.31A35.71,35.71,0,1,1,18.77,18.77,35.7,35.7,0,0,1,44,8.31ZM44,6A38,38,0,1,0,58.55,8.87,38.12,38.12,0,0,0,44,6Z" fill="#161614"/>
  <path class="mapIcon__outerRing" d="M24.65,8,23.17,5.23A43.44,43.44,0,0,1,41.91.05l.15,3.12A40.35,40.35,0,0,0,24.65,8ZM5.79,29.43,2.88,28.32A44,44,0,0,1,21.42,6.22L23,8.9a41.24,41.24,0,0,0-12.75,12A40.72,40.72,0,0,0,5.79,29.43ZM2.92,59.79A43.72,43.72,0,0,1,0,44H3.12A40.89,40.89,0,0,0,5.84,58.67Zm6.15,11A43.89,43.89,0,0,1,3.6,61.43l2.86-1.24a41,41,0,0,0,5.1,8.67ZM44,88A44,44,0,0,1,10.75,72.82l2.36-2A40.86,40.86,0,0,0,44,84.88Zm3.48-.14-.25-3.11a41.87,41.87,0,0,0,5-.69l.62,3.06A46,46,0,0,1,47.48,87.86Zm12-2.64-1.1-2.92A41.82,41.82,0,0,0,63.47,80c.58-.31,1.17-.65,1.75-1a40.6,40.6,0,0,0,8.92-7.34l2.31,2.11a44.2,44.2,0,0,1-9.61,7.9c-.62.38-1.26.74-1.89,1.08A44.44,44.44,0,0,1,59.43,85.22ZM78.5,71.31l-2.44-1.94c.59-.75,1.16-1.53,1.69-2.32a40.7,40.7,0,0,0,7.13-23c0-.84,0-1.7-.08-2.53a40.64,40.64,0,0,0-3.54-14.3l2.85-1.29a43.69,43.69,0,0,1,3.8,15.4c.06.9.09,1.82.09,2.72a43.77,43.77,0,0,1-7.67,24.81C79.76,69.66,79.14,70.5,78.5,71.31ZM77.23,20.19A41.8,41.8,0,0,0,74,16.25,41,41,0,0,0,44,3.12V0A44,44,0,0,1,79.77,18.37Z" fill="#161614"/>
</svg>
