<svg class="mapIcon" xmlns="http://www.w3.org/2000/svg" viewBox="0 0 88 88">
  <path d="M43.92,32.72s.1,0,.09.07Zm-1.64.52h0v.06Zm-1.4.44,0,.06s0-.1,0-.15a.08.08,0,0,1,0,0S40.9,33.67,40.88,33.68Zm-2.65.12,0,0,.07,0ZM48.49,29s.07,0,.13,0,.1,0,0-.13c.07.09,0,.07-.09.06S48.39,28.85,48.49,29Zm1.11,5s0,0,0,0l0,0c-.05,0,.13.07.08.07h0ZM40.67,31.7h-.09S40.65,31.72,40.67,31.7Zm-1.55.13ZM49.6,33c.12.2-.12.37-.06.51s0-.08,0-.08-.06.2,0,.25a.36.36,0,0,0,.07-.1c0,.09,0,.12-.1.28,0,0,0,0,0,0h0l.05,0,0,0h.05v0s-.05,0-.09,0a.46.46,0,0,0,.12.23s.08.09,0,.21a.07.07,0,0,0,0,0,.75.75,0,0,0,0,.16c.06-.24-.15,0-.06-.26-.1,0-.06.2-.14.26s.13.09.13.19-.05,0-.11.08h.11a1,1,0,0,0-.11.17l0-.12c-.09.11-.33.17-.47.3,0,0,.08-.14-.08-.12s-.08,0-.24,0,.07.16-.27.07c0,0,0,.06.08.09-.24-.08-.32,0-.54-.2.1.07.18.14.1.14s-.19-.15-.27-.27v.06c-.06-.09,0-.09,0-.09a.12.12,0,0,0,.06.06c.06,0-.09-.24-.21-.38s0,.16.06.24c-.07-.11-.07,0-.07,0s0,.13-.15,0-.37-.57-.54-.8c-.06,0,0,.08.06.19s.15.21.08.19-.09-.18-.14-.27a.8.8,0,0,0-.13-.13.42.42,0,0,0-.14-.06h-.1a.67.67,0,0,1-.46-.13l.08-.09a1.06,1.06,0,0,0-.25-.09l.1.1c-.09,0-.27-.09-.18-.16-.2,0-.22,0-.38-.12.17.06,0,0,.15,0a.48.48,0,0,0-.34-.11s0-.13-.07-.13a2.18,2.18,0,0,1-.51-.09v0c-.3-.06-.55-.32-.86-.32,0,0,0,.06-.08,0s-.12,0-.14,0,0-.06-.07-.06-.08.09-.11.15,0-.12-.19-.06l0,0s0,0,0,0,0,0,0,0a0,0,0,0,0,0,0,.39.39,0,0,0-.26,0s.1,0,.1,0-.06,0-.08-.07,0,.09-.11.09l0-.07-.08,0h0s.09.09.09.14c-.23,0-.36.17-.53.23v-.09c-.07,0-.12.07-.12.12l-.13,0a.13.13,0,0,0,.06-.07.14.14,0,0,0,0-.09c-.12.07-.31.11-.31.24v0a3.4,3.4,0,0,1-.57.08c-.17.11-.44.13-.4.25s-.34,0-.34.12c-.13,0-.05,0,0-.1a.75.75,0,0,0-.15.09l-.06.05s0,0,0,0a0,0,0,0,1,0,0h-.05a1.12,1.12,0,0,0-.17.21,1.25,1.25,0,0,1-.09.12s0,0,0,.07-.05,0-.08,0v0l0,.09-.11,0-.16.15s0,.06-.1.16-.17.2-.44.2c.09,0,0,0,0-.09l-.11.08v0h-.09a.2.2,0,0,1-.12,0l-.19,0h0a.43.43,0,0,1-.17-.13s0,0,0,0a.14.14,0,0,1-.11-.11.79.79,0,0,1-.14-.34.75.75,0,0,1,.07-.39l0-.12s0,0,0,0l-.08,0-.09-.08s0,.12,0,.16-.06,0-.13,0a.34.34,0,0,1-.12-.09.58.58,0,0,1-.1-.12c-.07-.2,0-.24,0-.26s.1,0,.1-.15a.71.71,0,0,1-.05-.38h.05s0-.09,0-.11.19-.25.34-.31l-.08,0a.39.39,0,0,1,.22-.18.48.48,0,0,1,.29,0,1.31,1.31,0,0,0,.42.11l.23,0v.11c.13,0,.18-.08.31,0a.41.41,0,0,0,.34.06l.42-.15.2-.09.13-.06a1.31,1.31,0,0,1,.28-.09l.14,0H41a1.07,1.07,0,0,0,.39-.07s0,0,0,0v0s0,0-.07,0l-.38,0c-.08,0-.1,0-.08-.07H41c-.18,0,.09,0,.06-.08a1.29,1.29,0,0,1-.34,0s.07-.09,0-.09l-.15.06h-.2a.76.76,0,0,0-.3,0c0-.09-.18-.14-.34-.23a1.3,1.3,0,0,1-.06.19l-.15,0-.12.09.26-.07,0,0c.07,0,.09,0,.07,0s0,.07.06.15-.33.13-.36.06a.54.54,0,0,1-.18,0,.25.25,0,0,1-.12,0l0,0a4.26,4.26,0,0,0-.71,0c.2-.06,0-.14,0-.23a1.23,1.23,0,0,0,.42.14l0,0a0,0,0,0,1,0,0c-.18-.14-.37,0-.64-.23,0,0,.07,0,.07,0a.42.42,0,0,0-.27-.09s0-.12,0-.21a1.17,1.17,0,0,0-.09-.24c-.08-.1-.12-.09-.1-.3a.41.41,0,0,0,0,.09.41.41,0,0,0,0-.22.34.34,0,0,1,0-.1.11.11,0,0,1,.05-.09c-.06.07,0,.1,0,0s.08-.19.1-.25,0-.13.09-.23l0,.09,0-.05v-.09c0-.06,0-.06,0-.06s-.08,0-.08-.06a.32.32,0,0,1,0-.19,1.13,1.13,0,0,1,.29-.43.09.09,0,0,0,0,.06.06.06,0,0,0,0,.06.8.8,0,0,1,.23-.29.71.71,0,0,1,.35-.13,1.13,1.13,0,0,1,.72.13.43.43,0,0,1,0,.16.63.63,0,0,0,.3.05.26.26,0,0,1,.15,0,.32.32,0,0,1,.13.1l-.11,0a1.83,1.83,0,0,1,.26.36l.11.19-.07.06a.9.9,0,0,0,.22.06.16.16,0,0,0,0,.09.16.16,0,0,0,.08,0,1.71,1.71,0,0,0,.3.09,1,1,0,0,1,.61.3l.09-.16c.13.05.32.08.34.24h0c-.06.11.14,0,.21.11s.17-.05.12-.1c.34.23.92.33,1.1.57h.06a.1.1,0,0,0,0,0,.66.66,0,0,1,.17-.12,1.92,1.92,0,0,1,.52-.25v0c.13,0,.42-.08.47.06.28-.13.4-.39.76-.45l-.05.08c.09,0,.22-.14.24-.15s0,0,0,.05.12-.07.18-.11v.06a1,1,0,0,0,.5-.19,1.37,1.37,0,0,0,.28-.26s0,.07.07.07a.33.33,0,0,1,0-.14v-.1l0-.07a1.88,1.88,0,0,1,.27-.42.57.57,0,0,0,0,.14.31.31,0,0,1,.12-.16.33.33,0,0,1,.19-.08,1.32,1.32,0,0,0,.39-.15.71.71,0,0,0-.29,0c.18-.07.36-.13.29-.19.14,0,.15,0,.18.06s.06,0,.23.07c0,0-.24,0-.14.07a1,1,0,0,1,.37.22s.05,0,.15.1c0-.1.13-.05.17,0s.09.09.09-.07a1,1,0,0,1,.24.49l0,.12v.1l.07,0a1.38,1.38,0,0,1,.25.17c0,.15.11.37.13.59s-.05.4-.17.33a3.77,3.77,0,0,1-.28.57s.09-.07.13-.12c0,.11-.27.26-.39.31a1.06,1.06,0,0,0,.34-.45,2.73,2.73,0,0,1-.47.43l-.1-.11c-.15.14-.15-.07-.3.08l0,0c-.34,0-.34.12-.68.06l0-.05c-.12-.07-.21,0-.26-.1l.14,0c0-.09-.09-.17-.14-.22s-.08.16-.15.16,0-.05.05-.13a.75.75,0,0,0-.29.09.38.38,0,0,0-.12.09.2.2,0,0,0,0,.09v0a.11.11,0,0,0-.07,0,.21.21,0,0,0,0,.06c0,.05,0,.05-.1.05s-.15,0-.16.05,0,0-.27,0,.14-.05-.16-.05.28.1,0,.13h0a.27.27,0,0,0-.1.06l.24.06c-.16,0,0,.07.11.11s.23.06.23.18c0-.08.13-.08.13-.08l0,0c.06,0,.13-.08.13-.05s0,0,0,0h.09c.07,0,.14,0,.14,0s.09,0,.16,0c-.18,0-.08.08-.18.12a.39.39,0,0,0,.3,0l.21,0a2.59,2.59,0,0,1,.4-.09l.09,0s0,0,.06.07a.78.78,0,0,1,.41-.12.63.63,0,0,0,.19,0,.51.51,0,0,1-.21.15c.15,0,.13,0,.3-.06v0h.34c.13,0,.23,0,.26.12l-.24.07c0,.09.36.16.3.31,0,0,0-.06.14,0,0-.06-.13-.17-.2-.24a1.06,1.06,0,0,1,.26.17,1,1,0,0,0-.28-.27c.21.06.16.08.21,0a.3.3,0,0,1,.08.08.27.27,0,0,1,0,.12.35.35,0,0,0,.08.22C49.72,33,49.62,32.93,49.6,33ZM39.49,31.76a.15.15,0,0,0,.12,0s0,0,0,0Zm.19-.17h0v0Zm.54,2.6s-.08,0,0-.12a1,1,0,0,0-.13.16c.05,0,.12,0,.07.06C40.29,34.18,40.24,34.2,40.22,34.19Zm.51-.35c.06,0,.07-.08,0-.08S40.71,33.81,40.73,33.84Zm4.56-.47c.09,0,0,0,0-.08Zm1.36.6a.59.59,0,0,1,.23.13.39.39,0,0,0-.17-.11Zm-.12-2-.21,0C46.4,32,46.62,32,46.53,32Zm2-.27a.17.17,0,0,0,.12,0c-.1,0-.19,0-.25,0A.2.2,0,0,0,48.5,31.69Zm-6.9-1.61.06,0h.08Zm24.55,6.44c0,.09-.1.06-.14.08.19.08.46.27.6.06a2,2,0,0,1-.27-.17A.56.56,0,0,0,66,36.4c-.13-.11-.17-.27-.09-.31-.08,0-.21-.22-.37-.14A1.28,1.28,0,0,0,66.15,36.52ZM54.52,39.45l-.22-.14C54.26,39.38,54.41,39.4,54.52,39.45Zm11.57-.58a.78.78,0,0,0,0-.14.41.41,0,0,0-.07.11Zm-7.43,1.48-.16,0,.07,0Zm2.76,1a.12.12,0,0,1,.1,0,.23.23,0,0,0,0-.14c-.07,0-.14.15-.19.22A.16.16,0,0,1,61.42,41.4Zm3.66-5.22,0,0,0,0v0h0Zm.09-.15,0,0h0Zm-33.49,3.6h0Zm-.15,0,0,0-.08,0Zm-2.31.7h-.14l.06,0Zm26.6-11.12a.53.53,0,0,1,0,.22C55.86,29.34,56.18,29.57,55.82,29.25ZM66,38.85a.14.14,0,0,1,0,.06l.06-.07s0-.05-.06,0A.08.08,0,0,1,66,38.85ZM30.09,41.52l0,.06h.3A.58.58,0,0,0,30.09,41.52ZM66.42,37c.1,0,.2.2.23.43a1.68,1.68,0,0,1-.1.71c0-.15,0-.46-.11-.4a1.84,1.84,0,0,1-.1.51,2.48,2.48,0,0,1-.2.44.6.6,0,0,0,0-.19l0-.17c-.29.18-.06.26-.2.44-.12,0-.2,0-.2-.06a1.24,1.24,0,0,1-.54.59s.12-.34-.08-.28c-.29.48-.2.71-.5,1.23-.24.71-1,.83-1.2,1.34,0,.07.35-.16.18.1-.09-.15-.2.06-.26,0a.62.62,0,0,1-.14.25.63.63,0,0,1-.24.16,1,1,0,0,0-.42.21c.05-.08-.23-.06-.4-.1,0-.11-.09-.12-.14-.15s0-.06.23-.25a.7.7,0,0,1-.36.14.68.68,0,0,1-.37-.05.75.75,0,0,0-.33,0,.67.67,0,0,0-.3.13l.11.09-.46-.23h0a.81.81,0,0,1-.47-.34c.14,0,.31,0,.45,0-.21-.24-.58,0-.87-.08.06-.14.31,0,.28-.16a1.74,1.74,0,0,0-.6,0l.05-.07c-.45-.33-.31.33-.6,0,0,0-.06.09-.06.14-.11-.12-.38-.37,0-.37a.75.75,0,0,0-.51,0c.11.16.18.11.18.28l-.73-.12c-.08,0,.08-.07.18,0-.71-.66-1.78-.12-2.56-.9,0,.13-.05.12-.15.14a1.31,1.31,0,0,1,.28.45h-.11c.35.42-.1,0,0,.38.12-.05.26.08.4.23s.24.36.36.49c-.07,0-.12-.13-.19-.19s-.14.17,0,.28c.49.15.74.89,1,1.38-.12.11-.15.61-.35.9l.35.16a.46.46,0,0,0,0,.26.38.38,0,0,0,.16.19l-.1-.42h0a.16.16,0,0,1,0-.07c0-.11-.06-.17-.06-.14.1-.25.13,0,.31-.07,0,.17.17.52,0,.59a1.4,1.4,0,0,1,0,.29.36.36,0,0,1,.06.2l0,0-.05.06c0,.34.34.76.51,1-.28-.24-.25.11-.43.14a6,6,0,0,0-.08-.74l0,.06a.08.08,0,0,1-.06,0c-.12.4.27.58.22,1.16,0,0-.08-.1-.14-.06a.43.43,0,0,0,.06.24.35.35,0,0,0,.18.16c-.16.06-.27.48-.19.68s.21.15.18.49l-.11-.15c-.1.34.1.34.06.56,0,0-.09,0-.11,0a1,1,0,0,0,.34.71l-.19-.06c.08.34.26,1,0,1,.4-.09.14.73.11,1a.16.16,0,0,0,0-.09.18.18,0,0,0-.09,0,4.6,4.6,0,0,1-.14,1.84l-.3.07c0,.33.55.47.51.81L57.24,54a7,7,0,0,1-.14,1.37l-.19,0c.07.18.05.41.13.6a.55.55,0,0,0-.15.19.6.6,0,0,0-.06.23,1.78,1.78,0,0,0,0,.34c0,.13,0,.27-.05.42a1.62,1.62,0,0,1-1,1.33l.22.3c-.27.27-.67.61-1,.45l.07,0c0-.12-.12-.07-.22,0s-.23.2-.34.2-.26.31-.1.31l-.81.08h-1a.83.83,0,0,1-.22,0l-.23-.1a.61.61,0,0,0,0,.12.57.57,0,0,0,0,.13l0,0V60l0,.26a3.62,3.62,0,0,1,0,1.09l0,0c-.08.25-.25.77-.55.71a1.93,1.93,0,0,0,.05.42,1.55,1.55,0,0,1,0,.21l0,.25a1.49,1.49,0,0,1-.38,1.1v-.23a2.79,2.79,0,0,0-.34.64c-.06.05-.06,0-.08-.07-.23.09-.22.28-.34.43v-.13c-.34.15-.69.42-1.12.65a3.52,3.52,0,0,1-.68.26,2.2,2.2,0,0,1-.37.06h-.18a.81.81,0,0,1-.22,0c.22,0,.11-.14,0-.19a1.26,1.26,0,0,1-.64.07,1.21,1.21,0,0,1-.58-.28,2.22,2.22,0,0,1-.68-1.11l.22.3a1,1,0,0,1-.16-.47.09.09,0,0,1,0-.07.26.26,0,0,1,.08-.13l.09-.07s0,0-.06,0l-.05.07,0,0,0,0,0,0v0l0,0c0-.05,0-.09,0-.12s.09,0,.09-.17a.42.42,0,0,0-.11-.15l-.09,0a.15.15,0,0,1,0,.13.36.36,0,0,0,0,.1.19.19,0,0,0,0,.1l-.07-.09a.43.43,0,0,1,0-.11,1.07,1.07,0,0,0,0-.18s-.08,0-.16.06c.22.34-.15.15.19.39l-.05,0a1.65,1.65,0,0,0-.07.16c0,.09-.08.23-.15.43a2.25,2.25,0,0,1-.28.47,2.32,2.32,0,0,1-1.12.7,2.16,2.16,0,0,0-.49-.16l-.53-.12a1,1,0,0,1-.54-.27c-.11-.12-.11-.24,0-.32a2.42,2.42,0,0,1-.4-.55l-.14-.28a.42.42,0,0,0-.16-.11s0,0,0,.08l0,0a.42.42,0,0,0,0,.1.24.24,0,0,1-.06-.09l0-.05-.07-.1a1.47,1.47,0,0,0-.1-.13.3.3,0,0,1,.13,0,.36.36,0,0,1,.12.08l.14.14a.65.65,0,0,0,.16.21.84.84,0,0,0-.26-.49.42.42,0,0,0-.27-.09,1.84,1.84,0,0,0,.09-.25c-.14,0-.16,0-.2-.07s-.1-.11-.21,0,0,0,0,.08c-.19,0-.26.11-.26.19a1.22,1.22,0,0,1,0,.27l-.09,0s0,.1,0,.17v.06a.37.37,0,0,1-.17.3,2.57,2.57,0,0,0,.07-.4l-.13,0a.23.23,0,0,0-.11.11.93.93,0,0,1-.21.23c-.05.22,0,.29,0,.34s.13.08.06.19-.08,0-.14-.27a1.26,1.26,0,0,1-.54.6c-.25.15-.55.24-.72.34s0-.06,0-.06a4.1,4.1,0,0,0-.7,0,.7.7,0,0,1-.29,0,.68.68,0,0,1-.26-.12h.11a1.37,1.37,0,0,0-.62-.32c-.21-.08-.37-.19-.26-.39-.05-.09,0,0,.11,0s.16,0,.1-.11a.46.46,0,0,0-.17-.17.41.41,0,0,0-.24,0,.31.31,0,0,1-.23,0,.38.38,0,0,1-.15-.18c0,.06,0,0,.09,0a4,4,0,0,1-.65-1h0a.33.33,0,0,1,0-.06,1.11,1.11,0,0,0,0-.48,4.1,4.1,0,0,0-.06-.49,1.27,1.27,0,0,1,.06-.94c-.13.17-.18-.1-.25-.1h.07c0-.16-.12-.18-.19-.23h0l0,0c.11-.16-.2-.47-.13-.57a.06.06,0,0,1-.06-.06.06.06,0,0,1,0-.06h0l.05,0c.09.07.17,0,.3,0a.36.36,0,0,0,0-.1.22.22,0,0,0-.1-.13.45.45,0,0,0-.16,0c-.11,0-.19,0-.25,0a.66.66,0,0,0-.06-.2c-.06.12-.09.16-.18.18s-.2,0-.2.06-.21-.13-.19-.27c-.21.07-.52-.08-.62.07l.21.08c-.63-.12-1.27.11-1.74-.34l.2-.34a.88.88,0,0,0-.43-.26c-.17,0-.32-.14-.34-.34,0,.18,0,.17-.23.09.07.12.34.24.52.38a3.38,3.38,0,0,1-.54-.17,3.4,3.4,0,0,0,.71.42c-.38-.05-.34-.08-.31.14a.75.75,0,0,1-.41-.37.94.94,0,0,0-.34-.4c-.06-.19.16-.13.11-.34a.89.89,0,0,1-.18-.24.79.79,0,0,1-.05-.3.64.64,0,0,0-.14-.48c0-.1.05.17.13.12-.1-.24-.1-.43-.23-.5v.24a.85.85,0,0,0-.09-.24.44.44,0,0,1,0-.32c-.11-.17-.3-.26-.3-.06,0-.08.06-.26.19-.21,0-.5-.45-.2-.3-.7,0,0,0,.07.06,0a.61.61,0,0,0,0-.3c.07.42.31-.16.28.34.21-.07,0-.38.08-.55-.16-.23-.31,0-.43-.11.08,0,.06-.11.08-.23l-.15.13a.87.87,0,0,0-.06-.32l.08.2c0-.22.24-.58.05-1,.08.1.22.29.28,0-.13-.4.06-.09.17-.34-.08-.42-.3,0-.25-.68,0-.07-.09,0-.13.07.05-.43-.08-.65,0-1.07,0,.18-.07.32-.17.09.14.09.1-.35.16-.52l-.08,0c.08-.14.13,0,.16.1s0,0,0,.11.38.1.38-.23-.31-.26-.39-.19c0-.47-.4-.4-.31-.85,0-.11.29-.45.29-.79-.2-.15-.11.41-.28.24.41-.57-.39-1.07-.16-1.82l.23.08a1.75,1.75,0,0,0,0-.51l-.11.25c-.06-.16,0-.56.15-.44-.2-.37-.09-.47,0-.81,0,.38,0,0,.09.28a1.13,1.13,0,0,0,0-.68c.08.05.21-.09.21-.19a1.37,1.37,0,0,1-.09-.49v-.56h.07a2.12,2.12,0,0,1,.07-.45c.06-.15.11-.3.17-.44a4,4,0,0,0,.17-.44,1.74,1.74,0,0,0,.11-.45v0l0,0c-.29.12.05-.5.07-.71.07,0,.17,0,.22-.07-.18-.11,0-.27,0-.39.19-.14.18.16.39-.14,0,0,0,0,0-.07a.17.17,0,0,0,0-.07s0,0,0-.06l-.06,0a.94.94,0,0,0,.49-.24c0,.08-.13.11-.15.15s.12,0,.22.06c.12-.11-.1-.18.09-.28v.25c.09,0,.11-.16.13-.2-.06.12.07.22.15.27.25-.41-.23-.37-.34-.5l.12-.09a.27.27,0,0,1-.13,0c.1.14-.17.28-.46.37.06-.16-.26-.07-.2-.18-.21.21-1,.49-1,.18,0,.31-.57.15-.73.42-.37,0-.7.26-1.14.3.2.15-.39.22-.53.34,0,0,.12-.08.09-.1s-.44.28-.7.25,0-.17-.2-.13c0,.13-.56.46-.84.37.11,0,.09-.1.15-.17a3.65,3.65,0,0,1-.41.18l-.1,0-.05,0-.14,0a1.86,1.86,0,0,1-.34.07,2.15,2.15,0,0,1-1.39-.37l-.29-.23L24.1,42,24,41.92a2.61,2.61,0,0,0-.32-.34A4.17,4.17,0,0,0,23,41h.31c-.3-.74-.6-.11-1-.56s-.5-.62-.75-1l-.37-.43-.1-.14-.15-.2a2.72,2.72,0,0,1-.21-.46,2.19,2.19,0,0,1-.12-1,2.13,2.13,0,0,1,.3-.92,2.18,2.18,0,0,1,.62-.7,1.63,1.63,0,0,1,.4-.24,1.45,1.45,0,0,1,.22-.09l.18-.07c.08-.08-.07-.06-.14-.14.16,0,.22.16.37,0l-.07-.1a2.36,2.36,0,0,0,1.25-.31A1.68,1.68,0,0,1,25,34.51c.51-.44,1.08-.34,1.63-1,.26,0-.15.33.16.18s.35-.36.53-.55l0,0a2.3,2.3,0,0,1,1.09-.73,2.6,2.6,0,0,0,1.19-.85v0c0,.08.25,0,.34-.1s-.1,0-.21,0a10.2,10.2,0,0,1,1.12-1.25c-.13.27.27-.11.4,0,.05-.2-.19-.05,0-.39A8.22,8.22,0,0,1,32.46,29c0-.23.24-.37.12-.52.45-.42.65-.71,1.22-1.21l.05,0c0-.31.59-.35.59-.54,0,.07,0,.15.06.19l.2-.29c-.07.16,0,.39.24.22.11-.32-.12,0-.12-.23l.21.11c.15-.17,0-.4-.22-.27.56-.49,1-1.09,1.58-1.51l0,.15a2.32,2.32,0,0,1,.87-.68s0-.15-.08-.15c.2-.44.19.15.41-.34-.05.12-.15.25-.1.32l.55-.74a.66.66,0,0,0,.39-.07l.27-.16.34-.28c0-.06-.21-.05-.34,0a1.87,1.87,0,0,1,.3-.26,2.29,2.29,0,0,1,.37.12,1.66,1.66,0,0,1,.49-.34l0,.2c.37-.05.59-.28.93-.15a1.94,1.94,0,0,1,.58.44.82.82,0,0,1,.12.2,1.88,1.88,0,0,0,.24.44c.12-.16.28-.06.46,0s.36.2.46.08a1.64,1.64,0,0,0,1.09.35A5.65,5.65,0,0,0,45.09,24l-.06.05c.43.05.28-.43.64-.53a.31.31,0,0,1-.05.1,1,1,0,0,0,.41-.15l.2-.15.11-.09.17-.14a2.46,2.46,0,0,1,.77-.4,2.93,2.93,0,0,1,.78-.1c-.2,0-.11.16.14.22s-.14-.36.32-.1c-.13,0-.07.11,0,.16a1.93,1.93,0,0,1,.53.11.86.86,0,0,1,.13.14l.1.13.2.25c.14.17.29.33.44.5a6.28,6.28,0,0,0,1,.87c.06.16-.07.13-.14.16.52.43,1.12.73,1.59,1.11l-.11.21c.22.2.37-.14.52.27,0,.08-.19-.15-.34-.15.32.52.41.06.81.46L53,27c.21.41.45.23.68.23.65.18,0,.66.74,1,.19,0,.1-.18.28-.18.39.45.56.35.95.79,0,.5-.22-.19-.22.3l-.26-.36c.14.39-.3-.21-.4,0,.16.24.6.39.94.58-.11.12-.33-.29-.36,0l.19.08c-.08,0-.13,0-.21,0,0,.16.16.15.3.27a.61.61,0,0,0,.19-.29.11.11,0,0,0,0,.08c.45.06.79.63,1.16.7-.07,0-.07,0-.07.08.16.16.49.15.76.3,0,.21-.33.22.08.5.16-.06.17-.38.47-.11,0,0-.34-.15-.23,0,.37.19.07.12.23.49.29,0,.24.31.49.09,0,.24,0,.16.06.44,0-.21.47.15.59,0-.08.26-.5,0-.42.38.28,0,.63.2.82,0,.09.14.09.27.29.43,0,0-.1,0-.13,0,.47.12,1,.62,1.33.47-.28.3.81.5.34.66a1.14,1.14,0,0,0,.58,0h0c-.15.26.39.27.51.51.16-.11.45.08.68.06-.1,0-.16,0-.16.11.26,0,.16.07.3.27.33,0,0-.24.25-.3.23.17,0,.2,0,.34.15-.05.33-.1.48-.16a.25.25,0,0,1,.08.1.42.42,0,0,1,0,.12c.16,0,.32-.13.47.06L64.46,35l.08.19.45-.07a.78.78,0,0,1,.26.25.31.31,0,0,1,0,.12v.08l.3,0-.21.16a.22.22,0,0,1-.12-.06L65.2,36l0-.18c0,.08-.07.15-.1.22h-.26c0,.11.14.21.25.25s-.49.23-.78.19c-.74-.24,0-.4-.52-.63l-.7,0,0-.1c-.07-.1-.17,0-.21,0s-.49-.25-.72-.39l0,.17c-.86,0-.94-.83-1.54-1h-.48l0-.22c-.28,0-.4.09-.71-.2a13.69,13.69,0,0,0-1.7-1.43,9.79,9.79,0,0,1-1.6-1.48s0,.08,0,.16c-.59-1.22-1.81-.92-2.37-2H54c-.47-.37.1,0-.13-.37-.23.14-.67-.34-1-.49.07,0,.15.07.24.11s.07-.21-.08-.29c-.51,0-1.07-.53-1.57-.84.06-.17-.23-.61-.23-1a1.75,1.75,0,0,0-.4,0s0,0,0,.06l-.06,0-.05-.05h.07a.53.53,0,0,0-.16-.2.5.5,0,0,0-.26-.08l.36.31h0l.07,0c.11.09.15.12.15.09.06.27-.1.08-.22.23-.13-.14-.47-.35-.4-.48a1.57,1.57,0,0,1-.2-.25.37.37,0,0,1-.19-.14h0A.09.09,0,0,0,50,26c-.22-.31-.8-.45-1.11-.56.38,0,.12-.26.24-.38a6.25,6.25,0,0,0,.58.57s0-.05,0-.07a.07.07,0,0,1,0-.06c-.18-.42-.64-.35-1-.85,0,0,.12,0,.14,0a.45.45,0,0,0-.2-.16.46.46,0,0,0-.26,0c.09-.15-.18-.59-.34-.59s-.19.12-.39.06l.12-.09a.16.16,0,0,0-.12-.06.16.16,0,0,0-.13.06.15.15,0,0,1-.09.06.21.21,0,0,1-.11,0c.08,0,.08-.11,0-.11a.57.57,0,0,0-.13.08.42.42,0,0,0-.09.14.28.28,0,0,0,0,.13v.08a.5.5,0,0,0,0,.13l-.07-.18a3.33,3.33,0,0,1-.38.66c-.2.18-.4.25-.46.14.14.15-.05.31-.34.42a4.29,4.29,0,0,1-.86.2.17.17,0,0,0,.1-.06.15.15,0,0,0,0-.11,2.06,2.06,0,0,1-1.19.25,10.14,10.14,0,0,1-1.2-.23,1.81,1.81,0,0,1,0-.31c-.38-.1-.69.4-1.13.18l.21-.05a3.22,3.22,0,0,1-.5-.23,2.73,2.73,0,0,1-.38-.23l-.32-.26-.07-.07,0-.05,0-.05.1-.16c-.14,0-.25,0-.34.08s0,0,0-.06,0,0-.06,0,0,0-.07,0H40a.53.53,0,0,0-.15.08l0,.07-.12.12a3.2,3.2,0,0,1-.77.7l-.15.2.07-.14a1.12,1.12,0,0,1-.35.12l.2.3c-.24.22-.5.55-.8.45l.06-.05c-.16-.22-.24.22-.43.31s-.09.35,0,.31c-.77.44-1.58,1.44-2.2,1.55a11.15,11.15,0,0,1-1.56,1.91l0,0c-.27.18-.79.53-1,.3-.45.51-.5,1.09-1.18,1.53l.05-.2a1.24,1.24,0,0,0-.37.5c-.05,0-.05,0-.07-.08-.21,0-.19.25-.28.38l0-.12c-.58.27-1.13,1.28-1.86,1.74.11-.12,0-.17-.1-.17-.09.49-1,1-1.23,1.2l.12-.23a.62.62,0,0,1-.6.27.76.76,0,0,0-.33,0,.83.83,0,0,0-.27.19h.44c-.27.08-.46.24-.34.34-.34.05-.14-.2-.61,0-.05-.08.3-.21.1-.25l-.65,0c0,.1-.3.3-.06.32-.29,0-.19-.15-.14-.28l-.17.08c.21.36-.51.23-.05.48a6.54,6.54,0,0,1-1.31.37l-.62.14-.29.1a.31.31,0,0,0-.13.06l-.06,0a.24.24,0,0,0-.12-.07.33.33,0,0,0-.14,0,.66.66,0,0,0-.23.21c-.13.17-.17.36-.42.32a.53.53,0,0,0,0,.25.78.78,0,0,0,.12.22.43.43,0,0,0,.17.13.45.45,0,0,0,.2,0c0-.06-.09-.08-.14-.12a.15.15,0,0,1,.11,0l.07,0,0,0,.05,0a3.64,3.64,0,0,1,.34.34c-.15-.07-.32-.17-.49-.27l-.4-.17a1.3,1.3,0,0,0,.46.38l.48.28-.12.26c.38.12,0,.36.46.43v-.1c.42.48.62.3,1,.71l-.1,0c.12.18.5.23.46.53l-.28-.27c-.1.16,0,.43.06.59.31.27.32-.1.47,0-.06.18,0,.09-.27.09a6.41,6.41,0,0,0,.58.45.42.42,0,0,0,.24.07.45.45,0,0,0,.25-.07.19.19,0,0,1,0,.07.34.34,0,0,0,.2,0,.39.39,0,0,0,.19-.1.56.56,0,0,1,.2-.11.41.41,0,0,1,.24,0l-.08.06c.44.14.87-.51,1.07-.11.2,0-.4.1-.06.23.58,0,.26-.48.77-.48-.07,0-.05,0-.05.07a11,11,0,0,0,1.15-.43c.55.21,1.39-.5,2-.25-.21-.09.07-.21.07-.27s0,0,0,.06c.2,0,.18-.18.24-.26.19.08.5-.29.63-.23,0-.1.14-.12.31-.16-.32.2-.06.22-.17.4.53-.1.48-.56,1-.65l.34.09c0-.28.52-.32.48-.41.12.05.29.06.29.2.19-.13.56-.09.61-.27h-.24c.71-.08,1-.57,1.61-.52v.06h0s.26,0,0,.14h0l0,.12c.18,0,.34,0,.38-.19l.09,0,.4-.31c-.24.08-.49.17-.72.27.28-.23.27-.18.1-.31.43-.24.54.09.94-.16.17,0,0,.2.23.25a.37.37,0,0,1,.19-.07c0-.1-.22-.2.22-.13-.14,0-.13.09-.09.13s.32.06.46.06l0-.15.11.13L39,38c.06,0-.05,0-.11.07l0,0c.21-.06.37-.09.43-.2h-.23c.19,0,.2-.19.58-.14.2-.12.29-.33.06-.31.09,0,.31.05.25.18.57-.08.22-.48.8-.34,0,0-.08,0-.06.06a.65.65,0,0,0,.34,0c-.48.08.18.31-.4.29.08.2.44,0,.63.07.27-.17,0-.31.14-.43,0,.08.12.06.26.08l-.15-.15a1.26,1.26,0,0,0,.38-.06l-.24.08c.26,0,.66.25,1.1.07-.12.07-.34.21-.05.29.49-.12.12.06.39.18.48,0,.08-.29.8-.2.07,0,0-.1-.08-.14l.26,0a1.42,1.42,0,0,1,.51-.21c.22,0,.3.07.34.12h0c-.11.12.39.14.57.23l.05-.08c.07.05.06.08,0,.1l.15,0v.11l.06,0s0,0,0-.05a.41.41,0,0,0,.11,0l0,0s0,0,0,0c.34,0,.42-.31.85-.17l.13.07h.08a.88.88,0,0,1,.41.17l.23.13c0-.1-.42-.15-.24-.25a1,1,0,0,0,.45.21,1,1,0,0,0,.49,0,1.8,1.8,0,0,1,1.1.1l0,0,.28.1a.63.63,0,0,1,.39.14l.08,0,.17,0a.65.65,0,0,1,.31.08l.49.11.11,0c0-.09-.13-.17.06-.15l-.06.15a6.25,6.25,0,0,1,.87.26,2.86,2.86,0,0,1,.47.22h.11l0,0,0,0,.2,0h0l0,0a6.18,6.18,0,0,0,1.65.51h0l-.05,0c-.16-.27.53,0,.74,0,0,.07,0,.16.13.2.07-.2.27,0,.39-.1.2.13-.09.22.28.32h.07l.07,0a.21.21,0,0,0,0-.06.19.19,0,0,0,0-.07.89.89,0,0,0,.45.34c-.08,0-.17-.07-.22-.07s.09.1.05.23c.17.06.12-.16.32,0l-.24.09c.07.07.2,0,.25,0-.15,0-.18.15-.18.25.53,0,.21-.38.29-.54a3.78,3.78,0,0,0,1.24.26l-.11.16a.53.53,0,0,0,.37,0l.28.08c-.18,0-.25.06-.3.2.3,0,.7.19.84,0l0,0c.37.2,1.18.49,1.12.56.45,0,.94.33,1,.1.14,0,.22.12.34.17s.27,0,.29-.12c.27.09,0,.07,0,.26a.31.31,0,0,0,.21,0,.4.4,0,0,0,.15-.14c.08-.09.13-.15.29-.06.08-.16.05-.15,0-.13s-.13,0-.14-.06c.28.2.49-.45.86-.56,0-.21-.17,0-.1-.23,0,.07.15,0,.21-.07l-.11-.19.61.1c.17-.55-.33-.17.06-.73v0c.3,0,.23-.47.68-.72-.14.1,0,.12,0,.2l.12-.26s0,0,0,0c.28-.09.08-.23.38-.34-.1.17,0,.22.16.22l.11-.45.09.31a.8.8,0,0,0,.18-.27,1.74,1.74,0,0,0,.13-.36c0-.24.07-.41.27-.51a.88.88,0,0,1,0,.23.17.17,0,0,0,.1,0s0,0,.07-.06a.33.33,0,0,0,.06-.19.3.3,0,0,0-.06-.18c0-.11-.22-.14-.19,0A2.08,2.08,0,0,0,66.42,37Zm-16-10.56c0,.05,0,.1.11.16a.19.19,0,0,0,.1,0h0Zm-.26-1.95c.05.12.17.27.11.28l0,0h.05l0,0s0,0,0,0Zm6.94,20-.06,0,.06.18S57.13,44.65,57.09,44.55ZM45.5,38.49Zm-.25-.81.24-.06s0,0-.05,0a.14.14,0,0,1-.09,0s0,0,.06,0h0A.13.13,0,0,0,45.25,37.68Zm-.24-.2h.09l-.09,0Zm-8,1a.68.68,0,0,1,.49-.13h0l.05,0c-.13-.11-.15-.07,0-.24q-.27.07-.54.18C37.11,38.38,37,38.42,37,38.52ZM56,46c0,.1,0,.2,0,.3v0c0-.12,0-.27.1-.27S56.09,45.93,56,46Zm-1.2-3.19c-.24-.15-.17-.27-.1-.43a.47.47,0,0,0,.06-.15.32.32,0,0,0,0-.17.51.51,0,0,0-.07-.15l-.13-.1c-.17,0-.14.12-.3.12a1.14,1.14,0,0,0-.15-.23L54,41.55a1.19,1.19,0,0,1-.33-.34c.08-.44.17.15.23-.28a3.07,3.07,0,0,1,.17.31c-.06-.36.22.18.36,0a.67.67,0,0,0-.31-.29c-.15-.09-.33-.13-.46-.21.12-.13.28.22.34-.05l-.17,0c.07,0,.11-.07.18,0,.09-.16-.13-.14-.25-.24a.8.8,0,0,0-.19.3.09.09,0,0,0,0-.07,1.28,1.28,0,0,1-.53-.21.76.76,0,0,0-.49-.18s0-.05,0-.09c-.17-.1-.45,0-.68,0-.07-.17.23-.33-.17-.41-.11.11,0,.4-.34.28,0,0,.31,0,.25-.17-.34,0-.08-.08-.31-.34-.22.14-.3-.17-.43.14,0-.24,0-.16-.2-.37,0,.2-.43.06-.47.28,0-.21.27-.2.26-.37l-.45,0a.37.37,0,0,0-.28.23c-.12-.09-.17-.2-.39-.27,0,0,.09,0,.11,0-.42.08-1-.15-1.29.14C48.25,39,48,39,47.84,39s-.37-.07-.18-.22a.85.85,0,0,0-.53.18c0-.31-.41-.12-.58-.31-.11.17-.41.08-.61.17.08,0,.13-.08.11-.16-.23.1-.17,0-.34-.16-.3.08,0,.23-.14.36-.23-.07-.07-.17-.08-.29h0l-.35.26-.1-.07A.24.24,0,0,1,45,38.6c-.14.08-.26.21-.44,0h.34l-.12-.16-.32.14h0l-.09,0h0l-.28.05c0-.25-.49-.05-.28-.34a2,2,0,0,0-.85.06l-.05.06a.09.09,0,0,1,0-.05l-.36.1h0a2,2,0,0,1-.5.1c.11,0,.06-.06.08-.1a1.27,1.27,0,0,0-.43.05,1.07,1.07,0,0,0-.37.22c0-.09.12-.12.12-.19-.45,0-.26.17-.74.29.13-.12.08-.18-.06-.18,0,.09-.07.16-.16.2.31-.56-.57-.13-.38-.56,0,.11-.75.42-.5.6l.12-.06c0,.14-.15.1-.28.14.07,0,.13-.08.13-.11a4.08,4.08,0,0,1-1,.25,6.8,6.8,0,0,0-1.1.27c.05-.07.34-.22.14-.22a5.53,5.53,0,0,0-1.87.77c-.11-.29.8-.26.75-.56-.39.14-.77.28-1.17.46s-.59.27-.89.41h0l-.33.15a.61.61,0,0,0-.14-.07.36.36,0,0,0,0,.09c.18,0,.17,0,.3.05a6.14,6.14,0,0,0-.43.45c-.05,0,0-.09.06-.15a1,1,0,0,0-.29.09,1.24,1.24,0,0,0-.22.18,2.25,2.25,0,0,0-.34.47,4.94,4.94,0,0,1-.3.49,1.53,1.53,0,0,1-.48.4c.17,0,.07.11.12.22a3.11,3.11,0,0,0-.22.4,1.87,1.87,0,0,1-.22.39l-.06-.1c-.1.64,0,1.09-.14,1.49,0,0-.15,0-.15-.1.07.17-.05.33-.13.47s-.13.25.05.31l0-.12a7.53,7.53,0,0,0,.24,2c-.21.17,0-.37-.29-.23-.06.46.15.91.12,1.42,0-.08-.07-.06-.07-.1-.1.5.21-.08.21.34-.1,0-.13,0-.17.15l.18.11-.11,0a.19.19,0,0,1-.1-.05c.22.17.11.74.34.87-.06,0-.27,0-.34,0a.66.66,0,0,0,0,.28.7.7,0,0,0,.13.24c-.13.17-.08.56-.11.48,0,.4.12,0,.28.34l.07-.34.09.56-.12-.22c-.06.27.14.52.17.83L32,52l.11.34c-.26.05,0,.44-.34.28-.07.65.29,1,.36,1.62,0-.11-.06-.06-.1-.08a.91.91,0,0,0,.06.4,1,1,0,0,0,.21.34c-.08,0-.12-.11-.18-.11,0,.41.16.24.28.68-.12-.12-.19-.08-.19,0,.09,0,.16.07.2.15-.53-.29-.16.52-.58.34.1,0,.35.59.53.49.1.23.17.42.28.64a1.16,1.16,0,0,0,.5.53c-.06,0-.29-.07-.21.05a.79.79,0,0,0,.28.23,1,1,0,0,0,.34.09,3.12,3.12,0,0,0,.68-.05c0,.16-.18.16-.3.13s-.27-.07-.34.07a2.47,2.47,0,0,0,.94,0l.57-.08.38-.05a2.12,2.12,0,0,1,.56,0c.13.25.35.35.61.53A1.19,1.19,0,0,1,37,59a1.09,1.09,0,0,1,.16.5v.21a.24.24,0,0,1,0,.14c.15-.07.24.19.28.47-.14-.08-.1.22-.2.14.15.23.3.95,0,.95.3,0,0,.53.28.71-.07.27.14.45.17.73.14-.17.22.18.34.21s-.09,0-.09,0,0,.12.12.15.2,0,.21.14-.12.12,0,.21a.65.65,0,0,1,.45.06.28.28,0,0,1,.11.13c-.06,0-.09,0-.15.06l.57.07a3.71,3.71,0,0,0,.47,0,.11.11,0,0,0,.08,0,.2.2,0,0,0,.06-.07s0,0,0,0,0,0,0,0v0a.08.08,0,0,1,0-.07c0-.12,0-.23,0-.34a1.5,1.5,0,0,0,.16.34,1.5,1.5,0,0,0,.24-.85,1,1,0,0,1,0-.34.88.88,0,0,1,.44-.43,1.9,1.9,0,0,1,.85-.2,2.24,2.24,0,0,1,.81.15,2,2,0,0,1,.69.49,1.72,1.72,0,0,1,.4.74,1.44,1.44,0,0,1,.07.36v.15h0v.09a.17.17,0,0,0,.06.1.14.14,0,0,0,.1.05h.41a.17.17,0,0,0,.1,0l.06,0c0-.07,0-.07-.07-.17s.12.19.08.07l-.07-.1a.14.14,0,0,0,.11,0h0s0,0,0,0v-.08l0-.26a1.84,1.84,0,0,1,.15-.47,1.53,1.53,0,0,1,.65-.68.93.93,0,0,1,.33-.12,1.06,1.06,0,0,1,.35,0,1.2,1.2,0,0,1,.75-.07,1.57,1.57,0,0,1,.65.31,1.94,1.94,0,0,1,.52.62,3.08,3.08,0,0,1,.16.38l.07.18a.72.72,0,0,0,.06.1l-.07,0h-.07l-.06,0s0,0,0,.06a.25.25,0,0,0,.12.08.2.2,0,0,0,.13,0c.09,0,.12,0,.15,0a.26.26,0,0,0,.09,0,.92.92,0,0,0,.25.06,1.52,1.52,0,0,0,.56,0,.72.72,0,0,0,.45-.26v0c0,.08.2.09.28,0s-.09-.05-.18-.07a2.45,2.45,0,0,0,.34-.5,2,2,0,0,0,.2-.42c.06.21.17-.11.34-.09-.08-.14-.18,0-.22-.25v-.15a1.16,1.16,0,0,0,0-.18,3.37,3.37,0,0,1,.1-.34c.07-.23.15-.43.21-.63-.13-.2-.06-.41-.24-.47a7.07,7.07,0,0,0,0-.76,2.38,2.38,0,0,0,0-.39v-.1a1.05,1.05,0,0,1,0-.19,1.48,1.48,0,0,1,.17-.41h.07c0-.21.2-.41.43-.54s.47-.14.56-.24c0,.08-.11.16-.05.21a1.72,1.72,0,0,1,.49-.19c-.13,0-.2.14-.19.21s.1.11.27.11c.26-.16-.1-.11,0-.24l.12.21c.21,0,.25-.27,0-.34L53,58h.29l.18,0a6.52,6.52,0,0,0,.63-.18V58a1.55,1.55,0,0,1,.65-.3s0-.15-.1-.15c0-.32.2.15.23-.21,0,.08-.05.18,0,.24a1.61,1.61,0,0,0,.18-.52.37.37,0,0,0,.15,0,.27.27,0,0,0,.12-.09.44.44,0,0,0,.12-.18.49.49,0,0,0,0-.21c-.06,0-.15,0-.17.1a.76.76,0,0,1,0-.16,1.23,1.23,0,0,0,.26-.12L55.34,56h.21c0-.24-.28-.35-.25-.54a3.26,3.26,0,0,1,.49-1c-.39-.08.08-.8-.19-1A9.68,9.68,0,0,0,56,51l0,.08c.22-.37-.27-.46-.15-.86l0,.11a2.94,2.94,0,0,0,0-1.9c0,.09.17.05.17-.11s-.28.12-.2-.14c0,.07.13,0,.13,0l-.2-.25a4.65,4.65,0,0,0,.08-1,4,4,0,0,0-.2-1.14c0-.15.13-.06.21,0-.17-.53-.37-1.05-.59-1.57l.21-.11c-.07-.24-.39,0-.29-.4,0-.1.08.19.21.24,0-.52-.29-.21-.44-.65l.3,0C55.31,42.78,55,42.84,54.83,42.78Zm-.2-3.23a.23.23,0,0,1,0,0h0S54.62,39.53,54.63,39.55Zm-15.26-.49-.06,0C39.19,39.13,39.27,39.1,39.37,39.06Zm27.39-1.83a.3.3,0,0,1,0,.1v-.1Zm-.11-.34a1.43,1.43,0,0,1,.08.22.17.17,0,0,0,0-.12A.21.21,0,0,0,66.65,36.89Zm-1.44,2.84c.1-.1.34-.16.44-.34l0,0C65.64,39.48,65.21,39.55,65.21,39.73Zm-1.92.87c-.12,0-.27,0-.13-.14-.58.32.21,0-.25.48Zm-1.41.66c-.09.06-.13.07,0,.15S61.88,41.31,61.88,41.26ZM48,37.49h.09l-.35,0ZM29.62,40.27c.12-.07.08-.31-.12-.18Zm1.22,11c0,.05,0,.1.06.08S30.86,51.23,30.84,51.23Zm.26-8.1c.07,0,.1-.09.15-.19ZM53.5,40.9a.69.69,0,0,1,0-.2C53.47,40.83,53.21,40.66,53.5,40.9Zm1.79,15.69a0,0,0,0,0,0,.06ZM37.61,62.21l0-.27a.61.61,0,0,0-.11.23Zm-5.24-5.72Zm.1.09a.06.06,0,0,1,0-.06v-.09a.09.09,0,0,0-.11-.08l0,.12,0,0S32.44,56.55,32.47,56.58Zm24.8-7.69s0,0,0,.08A.25.25,0,0,0,57.27,48.89Zm-.46-4.49s0,0,0,0l0,.07.07,0ZM55.28,55.9V56h0Zm-22.76.73c.06.07,0,0,0,0Zm-1-6.12a.69.69,0,0,1,.1.19C31.67,50.59,31.67,50.5,31.56,50.51ZM30.4,45.93c0,.19.06,0,.17,0Zm1.11,1.9.1-.18-.17-.08ZM30.34,49l.09.3L30.37,49ZM36.09,62.3c-.06,0-.1,0-.05.18l.21-.09a.16.16,0,0,0-.07-.07A.1.1,0,0,0,36.09,62.3Zm5.76,1.18c-.05,0-.14-.12-.19-.09S41.78,63.56,41.85,63.48Zm14.36-5a2.11,2.11,0,0,0,.16-.34l-.1.14ZM39.34,51.9l0,0s0-.12,0-.1Zm-.16-.2a.28.28,0,0,1,0-.09.52.52,0,0,0-.08.3,1.74,1.74,0,0,0,.1-.23s0,0,0,.1,0,0,.06-.05S39.24,51.62,39.18,51.7Zm-.48.17h0Zm3.1-.67-.09-.06C41.78,51.2,41.72,51.28,41.8,51.2Zm-3.06.62s0,0,0,0h0v0h0v0h0ZM43,47.33h0S43,47.33,43,47.33ZM39.61,52h-.08C39.56,52.1,39.59,52.08,39.61,52Zm0,0ZM39,51.66s0,.05,0,.08,0,0,0,0Zm0,.12v0s0,0,0,.06Zm2.29-.29c0,.08.15.19.06.23a.13.13,0,0,0,0-.15c0,.1,0,0-.15-.06,0,.14-.08,0,0,.19-.09-.11-.06-.07-.15-.13.06.09-.06.14,0,.26-.08-.13,0-.2-.12-.31,0,.11-.06.19,0,.34,0,0-.09-.07-.15-.07v0c-.06.13-.24.09-.24.29,0-.23-.23,0-.21-.2a.28.28,0,0,0-.09.18c0-.18-.11,0-.18-.13,0,.11-.09.09-.13.15a.13.13,0,0,0,0-.1c0,.08,0,0-.09-.07s0,.13,0,.22,0-.11,0-.18l-.08.18a.26.26,0,0,1,0-.09l0,0,0-.09-.1.12c-.13-.12-.09-.29-.08-.47h0a4.07,4.07,0,0,1-.61-.06l-.05.13c.08,0,.24-.24.24,0l0,0s0,.1,0,.11l-.13.05s.07-.07.07-.14l-.18.12a1,1,0,0,0,.07-.15c0-.07-.06.07-.1.07a.11.11,0,0,1,0-.11l0,0h0l0,0s0,0,0,0a.18.18,0,0,0,.06-.12h0c-.11,0-.17.15-.3.19s-.22-.2-.36-.12,0,.12,0,.12,0-.08,0-.12c-.12.11-.08-.06-.17,0s0-.07,0-.11,0-.08.13-.19c-.19.12-.13-.13-.34.08v0l-.06-.1c0-.05,0,0,0-.16h.11c0-.12-.14,0-.2,0s.07,0,.12-.09-.09,0-.14,0l0,0c0-.14-.18.17-.13,0l-.07.06c0-.05,0-.17.11-.17s-.11-.08-.13,0,0,0,0,.13l-.15-.06H37c0-.16-.07-.18-.17-.21s-.21-.09-.14-.27c0,.07-.06.06-.12.06s-.09-.14-.09-.22h.06c-.14-.09-.28-.14-.3-.25l.1,0c-.13,0,.13-.25-.08-.17v0c0-.15-.24-.24-.32-.39.11-.07.05.08.18,0S36,49.3,36,49.17H36c0-.13-.13,0-.13-.06s.08,0,.1,0h-.11A.3.3,0,0,1,36,49c-.14,0-.07-.17-.2-.17,0,0,.17,0,.2,0s0-.08-.08-.11h0v0h0a.17.17,0,0,0,.06-.09c0-.09-.07,0-.16-.07l0,.07,0-.12.06,0c0-.06-.07-.12-.07-.19l-.07,0a.56.56,0,0,1-.05-.08c.16,0,.05-.11.22-.06.08-.14-.1-.25-.1-.39,0,0,0,0,0,0s0-.13-.09-.19.05,0,.09,0-.08-.07-.09-.19c.05,0,.09,0,.11,0l-.06,0s0,0,0,0c.27.14.15-.09.37,0-.06,0-.15-.2-.28-.2v0c-.08,0,0-.05,0-.08a.07.07,0,0,0,0,.05c-.05-.18.09-.31.09-.49,0,0,0,.11.09.08s0-.29,0-.49c.17.1-.08.18.09.28,0-.18.08-.38.13-.6.26.12,0-.24.29-.19a.08.08,0,0,1,0,0s0,0,0,0a.13.13,0,0,1,0-.06l0,0c0,.07.09,0,.12.07,0-.11.09-.25.21-.11-.11-.14.09-.08,0-.21H37s.08-.12.16-.12c-.1-.07.05-.1.05-.17v.05c.07.07.08-.13.12-.11s0,.08.09.08,0-.23.14-.17,0,.05,0,.08a.69.69,0,0,1,.33-.22.77.77,0,0,0,.36-.21v.14c.21.13,0-.24.19-.25.39,0,.77.13,1.1.07,0,0,0,0,0-.11s0,.14.08.07V44.5c.07.1.19.08.31.08s.22,0,.24.18c.17-.07.22.13.45,0,0,.09-.11.1,0,.14l.2,0c.12-.08.19,0,.27.14s.12.22.25.22c0,0,0,.14,0,.12s0,0,0-.1a.69.69,0,0,1,.36.13c-.1,0,0,.08-.06.17s.05-.09.16-.09.11.21.16.31.11,0,.2-.06c.09.1.19.12.29.26l0,0c.14-.05,0,.16.12.14s-.08,0-.11.05l.09,0c-.06,0-.18,0-.16.11s0,0,.13-.07l-.1.09s.17,0,.17-.11c.09.14.24.26.28.41l-.09,0c.06.06.12.17.06.24s.08,0,.1,0-.13.06,0,.12a.17.17,0,0,0-.12,0l.17.16s-.16.18-.08.25l0,0a.05.05,0,0,0,0,0l0,0-.14.07.15,0-.12,0c0,.06.2,0,.2.1s-.1.16-.2.29c.24,0,0,.19.18.21-.17.17-.07.4-.14.61l0,0c-.12.08.17.13.11.22l0,0c-.12.11-.06.34,0,.49,0,0-.14,0-.11,0s.18,0,.11.07h-.08l.09.1a2.2,2.2,0,0,0-.2.23.54.54,0,0,0-.11.27c-.06,0-.09,0-.12-.06a3.12,3.12,0,0,1-.09.44l-.12-.07s.15.15,0,.15,0-.05,0-.11.06.14,0,.23l-.11-.12c-.13,0,0,.14.05.23s-.3-.13-.3.09.08.07.12.15c-.12.06-.06.15-.18.21-.21-.13,0-.05-.15-.16l.1,0c-.14,0,0-.07-.07-.16s-.06.16-.09.25c-.06-.09.06-.08-.06-.16V51s0-.07,0-.07,0,0-.07.05l.14.15,0,0c0,.17-.14.16-.14.3,0,0,0-.08,0-.06s0,.17,0,.24S41.35,51.39,41.29,51.49Zm1.33-1.65h-.1s0,0,.07,0Zm-5.55.77,0,0a.27.27,0,0,0-.1.08S37,50.65,37.07,50.61Zm.94.67h0Zm.18.08Zm.16,0-.06,0,0,.12A.18.18,0,0,0,38.35,51.41Zm.42.12h-.06a.23.23,0,0,0,0,.11Zm4.31-4h0Zm-7.14,1.12v0h0s0,0,0,0v0S36,48.65,35.94,48.63Zm3.14,3.25,0,0S39.07,51.92,39.08,51.88Zm-.59-.09s0,.11.09.09v0C38.56,51.91,38.53,51.73,38.49,51.79ZM36,49.36l-.05.06h.1Zm16-.74c-.13,0-.07,0-.23-.1,0,0,.05-.05.1,0s0,0,0-.07-.12.09,0,.14a.14.14,0,0,1-.09,0A.51.51,0,0,0,52,48.62ZM52,49v0h0s0,0,0,0,0,0,0,0h0Zm0,.08v0h0A0,0,0,0,1,52,49.05Zm-.66-3.11-.06.08C51.3,46,51.38,46,51.31,45.94Zm-4.88-.61,0,0S46.44,45.33,46.43,45.33Zm5.62,2.81.05,0-.09,0,.12.09a.2.2,0,0,1-.14.08l0,0-.08,0H51.7a2.71,2.71,0,0,1,0,.4.13.13,0,0,1,.1,0l0,0s.1,0,.11,0a.49.49,0,0,1,.06.13s-.07-.07-.14-.07.09.12.12.18l-.15-.07c-.07,0,.07.06.07.11h-.11a.05.05,0,0,1,0,0v0a.05.05,0,0,1,0,0,.05.05,0,0,1,0,0,.28.28,0,0,0-.1,0v0c0,.09.15.15.18.27s-.2.22-.11.36.11,0,.11,0-.07,0-.11,0-.07.08,0,.17-.08,0-.12,0-.08,0-.19-.12c.12.18-.13.12.08.34h0l-.1.06s0,.05-.16,0v-.11c-.11,0,0,.14,0,.2s0-.07-.09-.12,0,.09,0,.14l0,0c-.14,0,.18.19,0,.15,0,0,0,.05.07.05s-.18,0-.18-.1-.07.1,0,.13.06,0,.14.05l-.07.15v-.06c-.15,0-.17.07-.21.17s-.07.21-.25.14c.06,0,0,.07,0,.12s-.14.09-.21.09v-.06c-.09.14-.14.28-.25.3a.85.85,0,0,1,0-.09c0,.12-.25-.13-.17.07h0c-.15,0-.25.24-.39.32-.08-.11.08,0,0-.17s-.18.1-.31.1v0c-.13-.05,0,.13-.06.13a.13.13,0,0,0-.05-.11v0c0,.15-.18.08-.18.21,0,0,0-.17,0-.2s-.08,0-.11.08l0,0s0,0,0,0l0,0c-.05,0-.1-.05-.08-.05s0,.07-.08.15l.08.06-.13,0,0-.06c-.06,0-.12.07-.2.07l0,.07-.08,0c0-.15-.11,0-.06-.21-.14-.08-.25.1-.39.1,0,0,0,0,0,0s-.13,0-.19.1,0-.06,0-.1-.07.08-.19.1,0-.09,0-.12a.07.07,0,0,1,0,.06.08.08,0,0,1,0,0c.15-.27-.09-.15,0-.37,0,.06-.2.15-.2.28h0c0,.08,0,0-.08,0s0,0,0,0c-.17.05-.3-.09-.49-.09,0,0,.12,0,.09-.09s-.3,0-.49,0c.09-.17.18.07.27-.09-.18,0-.38-.08-.6-.13.12-.27-.24,0-.19-.29a.08.08,0,0,1,0,0h-.1a.08.08,0,0,1,0,0c.07,0,0-.09.07-.11-.11,0-.25-.09-.11-.21-.15.11-.08-.1-.21-.06s0,0,0,0,0,0,0,.06v-.09h0s-.13-.08-.13-.16c-.07.09-.1-.05-.16-.05h.05c.06-.08-.13-.08-.11-.13s.07-.05.07-.08-.23-.05-.16-.14,0,0,.08,0a.71.71,0,0,1-.23-.34.66.66,0,0,0-.2-.34h.14c.13-.21-.24,0-.26-.18a8.82,8.82,0,0,0,.07-1.11s-.05,0-.11,0,.14,0,.07-.07h-.08c.1-.08.08-.2.08-.31s0-.22.17-.24c-.07-.18.13-.23,0-.45.08,0,.09.1.14,0l0-.2c-.08-.12,0-.19.14-.26s.22-.14.22-.26c0,0,.14,0,.12,0s0,0-.1,0a.67.67,0,0,1,.12-.36c0,.1.09,0,.17.06s-.09-.06-.09-.16a.84.84,0,0,1,.31-.16c0-.1,0-.11-.06-.2.1-.09.12-.19.26-.29l0,0c0-.14.16,0,.14-.12s0,.07.05.1l0-.08c0,.06,0,.18.11.16s0-.05,0-.06l0,0s0-.18-.11-.18c.14-.08.25-.24.41-.28l0,.09A.19.19,0,0,1,47,45s0-.07,0-.09.06.13.12,0a.17.17,0,0,0,0,.12l.16-.17c0,.06.18.16.24.08a.08.08,0,0,0,0,0s0,0,0,0l0,0,.08.14,0-.15,0,.12s0-.2.09-.2.16.1.3.2c0-.25.19,0,.21-.18.17.17.4.07.61.13l0,0c.08.12.13-.17.22-.11l0,0c.1.13.33.06.49,0,0,0,0,.15,0,.11s0-.17.07-.11v.08l.1-.09a1.06,1.06,0,0,0,.5.32s0,.08-.06.11l.44.08-.07.13c.05,0,.15-.15.15,0a.08.08,0,0,0-.1,0c0,.16.14-.07.23,0l-.12.1c0,.13.13,0,.22,0s-.13.3.09.31.07-.09.15-.12.15,0,.21.18c-.13.2,0,0-.15.15l0-.11c0,.15-.07,0-.16.08s.15.05.24.08c-.08.06-.07-.06-.15.06h.06s-.08,0-.08,0,0,0,.06.07l.15-.15,0,0c.17,0,.16.15.3.13,0,0-.07,0-.05,0s.17,0,.24,0-.21.11-.12.18.19-.15.24-.07a.24.24,0,0,0-.2.07c.09,0,0,0-.06.16.13,0,0,.09.18,0-.1.09-.06.06-.12.15s.14.06.26,0c-.13.09-.21,0-.32.13.12,0,.19,0,.34,0,0,0-.06.09-.06.15h0c.13.06.09.24.29.24-.23,0,0,.23-.2.21a.28.28,0,0,0,.17.09c-.17,0,0,.11-.12.18.11,0,.09.09.15.13H52c.08,0,0,0-.07.09s.13,0,.22,0S52,48,52,48l.19.07A.16.16,0,0,1,52.05,48.14Zm-2.11-3s0,.1,0,.1,0,0,0-.06l-.06,0Zm-4.53,4.3h0Zm5.36,1.38a.14.14,0,0,0-.05-.13l0,0Zm.76-1.42a.14.14,0,0,0,0,.06h.11Zm.2-.35L51.65,49s0,0,0,.06Zm-.07-.25a.81.81,0,0,1,0,.16l.11.05C51.76,48.93,51.64,48.83,51.66,48.78Zm.21-.06h0a.1.1,0,0,1,0,0S51.89,48.74,51.87,48.72Zm-.11,0h.08s0,0,0,0Zm-5.33-3.39,0,0S46.41,45.33,46.43,45.33Zm5.67,2.84Zm0,0v.07C52.16,48.21,52.14,48.19,52.1,48.17Zm-4.47-3.5h0v0Zm1.16,7.15h.05s-.07,0-.07,0ZM52,48.65l0,0S52,48.67,52,48.65Zm-.08.6s.1,0,.09-.1h0C52,49.17,51.85,49.2,51.91,49.25Zm-2.36,2.53v-.1l-.06,0Zm-4,5.41Zm0,.11s0,0,0,.07S45.5,57.32,45.5,57.3Zm0-.11a.09.09,0,0,1,0,.07s0,0,0,0S45.55,57.14,45.53,57.19Zm0-.07a.55.55,0,0,0,0,.18.3.3,0,0,0,0-.11s0,0,0,0Zm-.68-.59,0,0Zm.23.28,0-.06a.75.75,0,0,0-.07.12A.21.21,0,0,1,45.07,56.81Zm.53.27v0Zm1.07.11-.07,0S46.63,57.22,46.67,57.19Zm-1.21.26s0,0,0-.06a.19.19,0,0,1,0,.07S45.45,57.48,45.46,57.45Zm-.09-2.55,0-.08Zm1,1.71h0Zm-.58.91v-.13S45.75,57.47,45.75,57.52ZM45,56.2h0Zm2,0,.1,0c-.06.08-.14.17-.09.25h-.1c0,.07.08.14.08.22l-.11,0s.16.08,0,.08,0,0,0-.05.1.07.07.12l-.12-.06c-.09,0,0,.07.1.13s-.24-.08-.19.05.08,0,.12.1,0,.11-.08.14,0,0-.13-.12h.07c-.11,0,0,0-.09-.12s0,.09,0,.15,0,0-.07-.11v0a.06.06,0,0,1,0,0c-.06-.06-.06,0,0,0a.77.77,0,0,1,.12.13l0,0c0,.12-.07.08,0,.19l0-.05s0,.12,0,.17-.07-.17-.1-.12l0,0a.13.13,0,0,0,0-.06c0,.1,0,0,0,.13a.36.36,0,0,0-.08-.12c0,.08,0,.1,0,.2-.05-.12,0-.16-.08-.27a1,1,0,0,0,0,.25l-.07-.08v0c0,.1-.1,0-.1.18,0-.19-.09,0-.09-.19a.65.65,0,0,0,0,.13c0-.15,0,0-.07-.12,0,.09,0,.06,0,.11a.14.14,0,0,0,0-.09c0,.07,0,0,0-.06a.07.07,0,0,0,0,0l0,.13a.14.14,0,0,1,0-.09s0,.11,0,0v0a1,1,0,0,1,0-.43v0a.15.15,0,0,0,0-.08.41.41,0,0,1,.05-.19s0,.18,0,.22l0-.1V57c0,.08,0,0,.06,0V57c0-.17.09.17.12.08V57l0,.1c0-.06,0-.19,0-.11s.1.06.13,0,.06-.07.12,0l0,0c.09.09.09,0,0-.06s-.08-.12,0-.07l0,0s0,.05.09.05c-.1-.08-.06-.08-.1-.12s0,0,0,0l.08,0a.61.61,0,0,1-.17-.15l.28,0-.14-.05s0,0,0,0,0,0,0,0l-.14,0h.11s-.1-.07-.17-.07a.89.89,0,0,0,.23,0s0,0,0,0h.06c.1,0-.07,0,0-.07h.06s-.05,0-.1,0,.18,0,.11-.05-.1,0-.1,0h.06c0-.05-.09,0,0-.05s.09,0,0,0-.07,0-.19,0h.09s-.17,0,0-.06c-.19,0-.11,0-.11,0h.07c-.14,0,0-.08,0-.13l.14,0s-.3,0-.3,0h.07a.07.07,0,0,1,0-.05.13.13,0,0,1,0-.06l.1,0-.1,0c.22-.09-.15-.1.1-.22l-.18,0s0,0,.08-.08,0,0,0,0a.27.27,0,0,0-.13,0h0c0-.07,0-.13.1-.2-.07,0-.21-.07-.21-.09h0a.39.39,0,0,1,.19-.12s-.24.05-.19,0l0,0s0,0-.07,0l0,0s0,0,0,0l0,0c.06-.07-.11,0-.11,0l.06-.07-.14.1,0,0c-.07.09.08-.16,0-.07l0,.09s0,0,0,.06a1.21,1.21,0,0,0,0-.14s0,0,.05-.08,0-.08,0-.12c-.08.19,0,0-.08.19,0,0,0-.13-.08,0,0-.2-.07,0-.07-.27,0,0,0,.06,0,.16v0c0,.08,0,.08,0,.08v-.22a.53.53,0,0,0,0,.17l0-.13s0,0,0,0,0,0,0,0v.08s0,.13,0,.15l0,0s0,.11,0,0a.72.72,0,0,0-.11-.15.16.16,0,0,0,0,.08.08.08,0,0,1,0,0,.17.17,0,0,0,0,.1.18.18,0,0,0,0,.09l0,0s.06.14,0,.09.06.11-.11,0c0,0,0,0,0,0l0,0h0a.07.07,0,0,0-.05,0c-.08,0,.13.13.07.11l0,0v.09c-.17-.07,0,.08-.2,0l.11,0h0s.06.05.09.05,0,0,0,0,0,0,0,0L45,55.24s.19.09.15.12h-.09c.11,0,.07.07.11.07h-.13s0,0,0,.06h0c-.06,0,.12.13,0,.13l-.2,0c-.08,0,.1.07,0,.07a.12.12,0,0,1,.11,0s0,0,0-.05l.11.06-.05-.07a.23.23,0,0,0,.14,0c.05.06-.1,0,0,.06s-.09,0-.13,0-.16,0-.06.06,0,0-.05,0,0,.05.06.05h0s.07,0,0,0a.23.23,0,0,0,.14,0h-.1s.2.06.1.08h0s0,.08,0,0-.16,0-.12,0,0,0-.07,0l.2,0h0v0l0,0s-.15,0-.08.06A.17.17,0,0,0,45,56s0,0-.09,0,.13,0,.08.07H45s0,0,0,.07H45l0,0,0,0h0s-.06,0-.1,0h0l0,0s.06,0,0,0-.2,0-.2,0a.27.27,0,0,0,.17.06s.18.08.11.08-.16,0-.18,0,.07,0,.15,0c-.23,0,.14.09,0,.12l-.11,0v0h.06s0,0-.08,0c.08,0,0,0,0,.05s0-.05-.05,0,0,.05,0,.05a.18.18,0,0,0-.1,0c.08,0,.06,0,.1.06h0s-.11.11,0,.12.08,0,.12,0l-.07,0,.1,0a.37.37,0,0,1-.1.07l.1,0a.14.14,0,0,0-.08.07l-.09.05s.08,0,.06,0l-.07,0h0l-.13.07c.08,0,.19-.1.26-.15s.07,0,.07,0l-.07.06s0,0,.07,0l-.11.09s0,0,.12-.06S45,57,45,57s0,.06.09,0,0,.16,0,0c0,.09,0,0-.05.12s.08-.11,0,.06c0,0,0,0,0-.1,0,.15,0,0,0,.13,0-.06,0,0,0-.11v.06l0-.1,0,.25c.07-.11,0-.17.09-.21s0-.09.06,0,0,0,0,.08l0,0v0c0,.08,0,0,0,0a.23.23,0,0,0,0,.14l0-.12,0,.14s.1-.19.1,0l0,0v.08h0a.17.17,0,0,1-.06.06.5.5,0,0,0,0-.13s-.05.09-.08.12l0-.13s0,.07,0,.07v-.09s0,0,0,0h0s0-.06,0-.06a.25.25,0,0,1-.08.12c-.09.14-.08-.12-.15,0s0,.08,0,.1,0-.06,0-.09,0,0-.08,0a.17.17,0,0,0,0-.1c0-.09,0,0,.08-.17-.1.14,0-.06-.18.14v0s0,0,0-.1,0,0,.06,0-.08,0-.11,0,0,0,.09-.08-.05,0-.08,0l0,0c0-.11-.15.12-.08,0s-.05,0-.05.05a.25.25,0,0,1,0-.07l.07-.06s-.05,0-.08,0a.55.55,0,0,1-.07.09l-.08,0h0c.06-.1,0-.1,0-.12s-.12,0,0-.14c-.07,0-.06,0-.11,0s0-.08,0-.11h0c-.07,0-.15-.1-.12-.14h.07c-.08,0,.18-.07,0-.07,0-.06-.09-.13-.12-.2s0,0,.14,0,0-.09,0-.13h0c.08,0-.09,0-.09,0h.1l-.08,0h.1c-.11,0,0-.07-.13-.1s.13.05.17,0,0,0,0,0,0,0,.08,0-.06,0-.12,0h-.05V56l0,0s0,0,0-.07h-.06l0,0c.12,0,0,0,.17,0s-.08-.1-.08-.15,0,0,0,0,0-.05-.08-.08.07.06.08,0-.07,0-.09-.08h.09a.18.18,0,0,1-.09,0c.24.09.11,0,.3,0a.77.77,0,0,0-.25-.1h0c-.07,0,0,0,0,0l0,0c-.07-.07,0-.11,0-.18s0,.08.09,0-.08-.1-.12-.18c.15,0,0,.07.15.11a.76.76,0,0,0-.13-.23c.24,0-.08-.08.12-.1-.09,0-.09-.05-.09-.09s.07,0,.11,0-.05-.15.09-.08c-.13-.07,0,0-.06-.12.08,0,0-.1.08-.1-.09,0,0-.06,0-.1l0,0c.07,0,0-.09,0-.08l.09,0c-.06,0-.06-.15,0-.11s0,0,0,0c0-.19.21-.16.27-.34l0,.11c.13.1,0-.2,0-.2.24,0,.41.12.58.07V54s0,.11,0,.05V54c0,.09.1.07.15.07s.12,0,.1.15c.11-.06.08.1.23,0s-.08.07-.06.1l.12,0c.11,0,.11,0,.11.12s0,.15.06.15-.07.09,0,.07l0-.05a.17.17,0,0,1,.1,0l.07.06c-.07,0,0,.06-.11.1s.1-.09.13,0,0,.13,0,.18.06,0,.16,0,.07.08.07.13h0c.12,0,0,.06,0,.06h-.09l0,0s-.16,0-.16,0,.06,0,.13,0l-.11,0a.21.21,0,0,0,.17,0c0,.06.07.1.07.15h-.08s0,.06,0,.09h.09c.1,0-.12,0,0,0H46.8l.1,0s-.16.1-.11.1l.08,0h0l-.12,0h.11l-.1,0s.15,0,.15,0-.09.07-.18.13c.2,0,0,.06.15,0-.14.09,0,.15-.06.24h0c-.08.06.16,0,.13.06h0c-.1.06,0,.13.1.17l-.09,0s.14,0,.1,0Zm-1.69,1.15s0,0,0,0A0,0,0,0,0,45.28,57.38Zm0,0s0,0,0,0a.27.27,0,0,0,0-.12Zm.47,0,0,.08h0Zm1.14-1-.07,0h.07Zm-.38,1a.19.19,0,0,0,0-.07s0,0,0,0,.07.13,0,.14Zm.44-1.9Zm-1.75,1.34,0,0s0-.09,0-.09S45.2,56.91,45.16,56.88Zm0-.14a.09.09,0,0,0,0,.07S45.12,56.76,45.13,56.74Zm-.73-.55h0l.08,0Zm-1.76,1h0V57.1S42.65,57.15,42.64,57.17Zm0,0a.58.58,0,0,0,0,.19c0-.11,0-.06,0-.19a.1.1,0,0,1,0,.08s0,0,0-.05S42.68,57.13,42.66,57.16Zm-.72-.59,0,0S42,56.56,41.94,56.57Zm.26.23,0-.06a.34.34,0,0,0-.06.12A.1.1,0,0,1,42.2,56.8Zm.53.25v0Zm1.05.12-.07-.06S43.74,57.22,43.78,57.17ZM41.69,54.7v0l-.07,0Zm-.13,1.07v0S41.55,55.77,41.56,55.77Zm1.31,1.76V57.4S42.87,57.48,42.87,57.53Zm1.21-1.32.1,0c-.06.08-.14.16-.08.24a.2.2,0,0,1-.11,0c0,.07.08.15.08.22l-.11,0s.16.08,0,.08,0,0,0-.06.09.08.06.13l-.12-.06c-.09,0,.05.07.1.12s-.23-.07-.19.06.08.05.13.1,0,.1-.09.14c-.16-.13,0,0-.13-.13h.07c-.11,0,0,0-.09-.11s0,.09,0,.15,0,0-.07-.11v0a.08.08,0,0,1,0,0c-.06-.05-.06,0,0,0a1.35,1.35,0,0,0,.12.12l0,0c0,.12-.06.09,0,.19a.05.05,0,0,0,0,0s0,.12,0,.16-.13-.18-.11-.11l0,.08c0,.07,0,0-.08-.07,0,.1-.06,0,0,.13l-.08-.12c0,.08,0,.1,0,.2,0-.12,0-.16-.07-.27a.53.53,0,0,0,0,.25.38.38,0,0,1-.07-.08v0c0,.1-.1,0-.1.19,0-.2-.09,0-.09-.2a.31.31,0,0,0,0,.13c0-.14-.05,0-.08-.12,0,.09,0,.06-.05.11a.11.11,0,0,0,0-.08c0,.06,0,0,0-.07a.13.13,0,0,0,0,.06l0,.12a.22.22,0,0,1,0-.08s0,.09,0,0v0a1,1,0,0,1,0-.43l0,0a.15.15,0,0,0,0-.08.58.58,0,0,1,0-.19c.05,0,0,.18.05.22l0-.1V57c0,.08,0,0,0,0V57c0-.17.1.16.13.07v-.12l0,.1c0-.06,0-.19,0-.11s.1.06.13,0,.05-.07.11,0l0,0c.1.09.09,0,0-.05s-.08-.13,0-.08l0,0s0,0,.08,0c-.1-.07-.06-.07-.1-.11l0,0s.09,0,.08,0a.84.84,0,0,1-.18-.15,1,1,0,0,0,.29,0l-.15-.05c.06,0,0,0,0,0v0l-.15,0h.11s-.1-.06-.16-.06a.81.81,0,0,0,.22,0v0h.05c.11,0-.06,0,0-.07h.07s-.05,0-.1,0,.18,0,.11,0-.1,0-.1,0h.06s-.09,0,0,0h0s-.07,0-.19,0h.09s-.18,0,0,0c-.19,0-.11,0-.11-.05a.06.06,0,0,0,.06,0c-.13,0,0-.09,0-.13l.14,0s-.29,0-.29,0h.07c0-.05,0-.07,0-.11l.09,0-.09,0c.22-.09-.15-.1.09-.22l-.17,0s0,0,.08-.08,0,0,0,0l-.14,0c.08-.07,0-.14.12-.21a1.26,1.26,0,0,0-.21-.08h0a.82.82,0,0,1,.2-.12s-.24,0-.19,0l0,0s0,0-.06,0l0,0s0,0,0,0l0,0c.06-.08-.12,0-.12,0A.46.46,0,0,0,43,55a1.08,1.08,0,0,1-.14.11l0-.06c-.06.09.08-.16,0-.07l0,.09s0,0,0,.06a.5.5,0,0,1,0-.13l0-.08a.28.28,0,0,0,0-.13c-.07.2,0,0-.07.2,0,0,0-.14-.08,0,0-.2-.07,0-.07-.27,0,0,0,.06,0,.16v0c0,.09,0,.09,0,.09v-.22a.47.47,0,0,0,0,.17l0-.13c0,.1-.05-.1,0,0v0s0,.13,0,.15l0-.05s0,.11,0,0l-.11-.15s.07.14.07.16a.75.75,0,0,1-.07-.12.33.33,0,0,0,0,.1l0,.09,0,0s.06.13,0,.08.07.11-.1,0,0,0-.07-.07,0,0,.07.09l.06,0s0,0-.06,0,0,0,0,0,0,0,0,0a.11.11,0,0,0,0,.08c-.17-.07,0,.08-.2,0l.11,0h0s0,0,.08,0,0,0,0,0l0,0s-.1,0-.16-.06.19.09.14.12h-.09c.12,0,.07.07.12.07l-.13,0s-.05,0,0,.06h0s.13.12,0,.12l-.19-.05c-.09,0,.09.06,0,.06l.11,0s0,0,0,0l.11.06,0-.07a.19.19,0,0,0,.13.05c.06.06-.1,0,0,.06l-.14,0c.06,0-.15,0,0,.06s0,0-.05,0,0,0,.06,0h0s.07,0,0,0,.14,0,.15,0,0,0-.11,0,.21.06.11.08h0s0,0,0,0-.16,0-.12,0,0,0-.06,0a.82.82,0,0,0,.19.06h0s0,0,0,0l0,0s-.14,0-.08.06a.2.2,0,0,0-.13,0s0,0-.1,0,.14,0,.08.07h.07s0,0,0,.07h0a.07.07,0,0,1-.06,0h0a.34.34,0,0,0-.2,0,.37.37,0,0,0,.18,0s.17.06.11.08-.17,0-.18,0,.07,0,.14,0c-.22,0,.14.08,0,.11H42v0H42s0,0-.08,0c.08,0,0,.06,0,0s0-.06-.05,0,0,0,0,0l-.1,0c.07,0,.06,0,.1.06h0s-.11.12,0,.12.08,0,.12,0l-.06,0c.09,0,0,0,.09,0l-.09.07a.2.2,0,0,0,.08,0,.16.16,0,0,0-.07.07l-.08.06s.08,0,.06,0l-.08,0h0a.57.57,0,0,0-.13.08c.07,0,.18-.12.25-.16s.07,0,.07,0l-.07.06a.09.09,0,0,0,.06,0l-.1.09s0,0,.11-.07h0s0,.1,0,.13,0,.06.1,0,0,.16,0,0c0,.08,0,0-.05.11s.08-.1,0,.07c0,0,0,0,0-.11,0,.16,0,0,0,.13,0-.06,0,0,0-.11v.06l0-.1,0,.25c.06-.11,0-.18.08-.22s.06-.08.06,0v.08l0,0v0c0,.08,0-.05,0,0a.15.15,0,0,0,0,.13l0-.11,0,.14s.09-.19.09,0v0a.07.07,0,0,0,0,.05s0,0,0,0a.18.18,0,0,1,0,.07.59.59,0,0,0,0-.13.75.75,0,0,1-.07.12.31.31,0,0,0,0-.13c0-.05,0,.06,0,.06v-.09s-.06,0-.06,0a.24.24,0,0,0,0-.12c0,.05-.07.16-.12.22s-.09-.1-.15,0,0,.08,0,.09,0,0,0-.09c-.06.12,0,0-.08,0v-.09c0-.1,0,0,.08-.18-.1.15,0,0-.18.15v0l0-.07s0,0,0-.1,0,0,.06,0-.08,0-.11,0,0,0,.09-.08,0,0-.08,0l0,0c0-.1-.14.15-.08,0l-.05.06s.05-.12.11-.14a.06.06,0,0,0-.09,0,.27.27,0,0,1-.06.1l-.08,0h0c.05-.12,0-.11-.06-.12s-.1,0,0-.14a.13.13,0,0,1-.1,0s0-.07,0-.11h0c-.08,0-.15-.08-.13-.13h.08c-.09,0,.18-.07,0-.07,0-.06-.1-.12-.12-.19s0,0,.13,0,0-.13,0-.13h0c.08,0-.11,0-.09,0h.1l-.08,0,0,0-.08,0h.16c-.11,0,0-.06-.13-.1s.13,0,.17,0,0,0-.05,0,0,0,.08,0-.05,0-.11-.06h-.06V56l0,0c.05,0,0,0,0-.07h-.06l0,0c.13,0,0,0,.18,0s0-.08-.07-.13h0s0-.05-.09-.08.08.05.09,0-.07,0-.1-.07l.1,0a.19.19,0,0,1-.09,0c.24.08.11,0,.3.05a.77.77,0,0,0-.25-.1c-.07,0,0,0,0,0l0,0c-.08-.06,0-.1,0-.17s0,.08.09,0-.08-.1-.12-.18c.15,0,0,.07.15.11a.59.59,0,0,0-.13-.23c.24,0-.08-.09.12-.09-.09,0-.09-.05-.09-.08s.07,0,.11,0-.06-.14.08-.07c-.13-.07,0,0,0-.12s0-.09.07-.1c-.09,0,0-.11,0-.1l0,0c.07,0,0-.1,0-.08l.09,0c-.06,0-.06-.15,0-.11s0,0,0,0c0-.19.22-.16.27-.34l0,.11c.13.1,0-.2,0-.2.23,0,.4.12.56.06s0,0,0-.09,0,.12,0,.06V54c0,.08.1.06.15.06s.12,0,.1.14c.11-.06.08.11.23,0,0,.06-.08.08-.06.11l.12,0c.09,0,.1,0,.11.1s0,.16.06.16-.06.08,0,.07a.17.17,0,0,0,.06-.06l.09,0a.27.27,0,0,1,.08.07c-.07,0,0,.05-.11.1s.1-.09.14,0,0,.12,0,.17.07,0,.16,0,.08.09.08.14h0c.11,0,0,0,0,0l-.1,0h0s-.16,0-.16,0,.06,0,.12,0l-.1,0a.29.29,0,0,0,.16,0s.07.09.07.14h-.07s0,.06,0,.09l.08,0c.11,0-.11,0,0,0H43.9l.1,0s-.16.08-.11.09a.11.11,0,0,0,.08,0h0l-.12,0H44l-.1,0s.15,0,.15,0-.09.07-.18.13c.2,0,0,.06.15,0-.14.09,0,.14,0,.23h0c-.09.05.15,0,.12.05h0c-.1.06,0,.13.1.18s-.13,0-.09,0Zm-1.26,1.18,0,.08h0ZM44,56.45v0l-.06,0Zm-.39,1s0,0,0-.07ZM42.1,56.13Zm0,0h0Zm1.48,1.23Zm-.94-.07a.43.43,0,0,1,0,.05s0,0,0,0Zm1,.11a0,0,0,0,1,0,0A0,0,0,0,0,43.56,57.41Zm-1.18-.09s0,.08,0,.06v0S42.4,57.27,42.38,57.32Zm-.06-.4s0-.09,0-.09,0,.05,0,.05Zm-.09-.13s0,0,0-.06A.07.07,0,0,0,42.23,56.79ZM42,56.38h0Zm.18-.17,0,0,0,0Zm.4-1.44s0,.07,0,0S42.56,54.75,42.56,54.77Zm.58.82h0Z" fill="#fff"/>
  <path class="mapIcon__innerRing" d="M44,8.31A35.71,35.71,0,1,1,18.77,18.77,35.7,35.7,0,0,1,44,8.31ZM44,6A38,38,0,1,0,58.55,8.87,38.12,38.12,0,0,0,44,6Z" fill="#161614"/>
  <path class="mapIcon__outerRing" d="M39.91,22.52v0l.11,0ZM23.22,39a.39.39,0,0,0-.06-.24.35.35,0,0,0-.2-.14C23.07,38.79,23.14,39,23.22,39ZM24.65,8,23.17,5.24A43.31,43.31,0,0,1,41.91.05l.15,3.12A40.35,40.35,0,0,0,24.65,8ZM5.79,29.43,2.88,28.32A44,44,0,0,1,21.42,6.22L23,8.9a41.24,41.24,0,0,0-12.75,12A40.72,40.72,0,0,0,5.79,29.43ZM2.92,59.79A43.72,43.72,0,0,1,0,44H3.12A40.89,40.89,0,0,0,5.84,58.67Zm6.15,11A43.89,43.89,0,0,1,3.6,61.43l2.86-1.24a41,41,0,0,0,5.1,8.67ZM44,88A43.95,43.95,0,0,1,10.75,72.82l2.36-2A40.86,40.86,0,0,0,44,84.88Zm3.48-.14-.25-3.11a41.87,41.87,0,0,0,5-.69l.62,3.06A46,46,0,0,1,47.48,87.86Zm12-2.64-1.1-2.92A41.82,41.82,0,0,0,63.47,80c.58-.31,1.17-.65,1.75-1a40.6,40.6,0,0,0,8.92-7.34l2.31,2.11a43.92,43.92,0,0,1-9.61,7.9c-.62.38-1.26.74-1.89,1.08A43,43,0,0,1,59.43,85.22ZM78.5,71.31l-2.44-1.94c.59-.75,1.16-1.53,1.69-2.32a40.7,40.7,0,0,0,7.13-23c0-.84,0-1.7-.08-2.53a40.64,40.64,0,0,0-3.54-14.3l2.85-1.29a43.69,43.69,0,0,1,3.8,15.4c.06.9.09,1.82.09,2.72a43.75,43.75,0,0,1-7.67,24.81C79.76,69.66,79.14,70.5,78.5,71.31ZM77.23,20.19A41.8,41.8,0,0,0,74,16.25,41,41,0,0,0,44,3.12V0A44,44,0,0,1,79.77,18.37Z" fill="#161614"/>
</svg>
