<svg class="mapIcon" xmlns="http://www.w3.org/2000/svg" viewBox="0 0 88 88">
  <path d="M80.39,49.91A36.86,36.86,0,1,0,38.1,80.39,36.85,36.85,0,0,0,80.39,49.91Z" style="fill: #dca86c"/>
  <path d="M34.76,50s.07,0,.05,0A.05.05,0,0,1,34.76,50Zm-.13,4.56.08-.13C34.63,54.38,34.65,54.46,34.63,54.51ZM34.58,58a.15.15,0,0,1,.14.08l.14,0S34.67,58,34.58,58ZM22.46,49.65c-.07,0-.3-.21-.41,0C22.22,49.48,22.27,49.87,22.46,49.65Zm7.08-3.13v0s.05,0,.09,0S29.59,46.49,29.54,46.52Zm-1.21.06h0l-.06,0S28.32,46.56,28.33,46.58Zm.23,15.17c0-.14.17-.19-.06-.18A.64.64,0,0,1,28.56,61.75Zm5.2-.88h0a.09.09,0,0,0,.07,0,.09.09,0,0,1-.08,0v0h0a.13.13,0,0,0,.07.06ZM23.67,58.59v0l0,0ZM35.25,48l-.13-.14c.07.2-.12.51.07.79-.08-.08-.23-.2-.29,0,.13.29-.06.08-.18.24,0,.25.3.05.2.39,0,0,.09,0,.14,0-.09.23,0,.36-.09.59.05-.1.1-.18.18,0-.13-.06-.13.19-.21.28l.08,0c-.08.07-.12,0-.15-.07s.05,0,.05-.06a.26.26,0,0,0-.41.11.25.25,0,0,0,.16.14.33.33,0,0,0,.22,0c-.1.25.37.24.24.48,0,0-.33.24-.36.42.19.09.14-.22.3-.12-.48.31.28.6,0,1l-.23-.05a.66.66,0,0,0,0,.28l.13-.13c.05.09,0,.3-.17.23.19.2.08.24,0,.43,0-.2,0,0-.09-.15-.13.21,0,.23,0,.37-.08,0-.21.06-.21.11s.12.37.2.56h-.07c.09.31-.23.67,0,1v0c.22-.11.15.25.24.34s-.15,0-.15.09c.2,0,.11.12.2.17-.07.11-.23,0-.23.17s.12.08.2.08a.45.45,0,0,0-.14.1.46.46,0,0,0-.07.16c-.06,0,0-.09,0-.11s-.07,0-.21,0,.19,0,.12.15l-.16-.11c0,.05,0,.11,0,.13s-.2,0-.3,0c.12.26.44.06.61.06-.12.25.1.44.1.63l-.19,0a.17.17,0,0,0,.06.1.24.24,0,0,0,.08.06h0l.09.07-.08,0v.11a.27.27,0,0,0-.12-.09.29.29,0,0,0-.16,0c.06.15,0,.36.26.39h-.08c-.09.2-.14.61-.22.61.08.22-.07.5.18.5.07.13-.31.33,0,.43-.16.15-.07,0-.25-.05-.17.16.26.31-.11.36.11.18.08,0,.24,0-.34,0,0,.32-.25.49.14.08.09-.07.23.06a.08.08,0,0,0-.11.09l.21,0-.52.17c.25.25.36,0,.45.27-.18.09.17.24,0,.48,0-.09-.1,0-.16-.06l.09.13h-.06c-.15.12.09.11-.05.25,0-.1-.2-.07-.28,0l.24.2-.29-.08c0,.19.44.48,0,.58l0-.1c-.07,0-.28.06-.13.19s.19.06.19,0l-.07.1c-.18-.05-.24-.29-.29-.44.08.05.14.17.26.13-.06-.13-.19-.26-.25-.39a1.09,1.09,0,0,0,.27.11c.1-.15-.13-.11-.15-.22s.13-.07.19,0a.32.32,0,0,1,0-.4s.13.17.24.08c-.11-.27-.34-.32-.47-.61-.32-.34.2-.66,0-.89-.09,0-.15.18-.21,0,.18,0,.11-.1.18-.1-.25-.17,0-.25-.12-.36.06,0,.13-.07.19-.13s.08-.18.38.06c-.31-.25.08-.44-.4-.62l-.06.06.16-.18c0-.11,0-.12.2-.27.05.06.05.15.1.22.17-.14-.17-.28-.17-.42s.06.15.24.1-.09-.19-.13-.28h.08c.2-.26-.41-.11-.12-.29H34c.08-.07.24-.24.34-.07a.27.27,0,0,0-.05-.15.27.27,0,0,0-.12-.09c-.12.07-.06.09-.22.12l-.09-.36s.09,0,.09.08c.45-.42-.38-.86.16-1.33-.14.05-.12,0-.22-.08a2.44,2.44,0,0,1,.09-.54l.1,0c-.12-.37-.27-.62-.21-.87,0,0,.14,0,.16.05-.18-.18.37-.39,0-.45l0,.07c.06-.35-.2-.75-.25-1.11.22-.09,0,.21.29.13.08-.25-.1-.51,0-.79,0,.06.07,0,.07.06.15-.28-.22,0-.19-.2.11,0,.14,0,.19-.08l-.17-.07a.37.37,0,0,1,.21,0c-.23-.11-.07-.42-.28-.5,0,0,.25,0,.34,0s0-.2-.11-.29c.16-.08.13-.29.16-.25.08-.22-.13,0-.26-.2l-.1.17,0-.31.1.13c.09-.15-.1-.3-.1-.46l-.12.07-.08-.19c.24,0,0-.24.34-.14.13-.38-.21-.49-.3-.68,0,0,.06,0,.1,0s-.15-.17-.3-.15c.07,0,.11,0,.17-.05-.09-.14-.19,0-.34-.07.11,0,.14-.09.14-.14a.26.26,0,0,1-.18.09c.47-.27,0-.28.34-.53a1.71,1.71,0,0,1-.27.09.29.29,0,0,0-.14.08.47.47,0,0,0-.08.14h.06c-.08.12-.09,0-.13,0a.14.14,0,0,0,.08-.05.8.8,0,0,1-.34,0,.41.41,0,0,0-.16,0h-.08l-.15,0s.19-.14.1-.19c-.41-.07-.63.2-1,.33,0-.33.43,0,.43-.36a6.46,6.46,0,0,0-1.29.34c-.16-.49-.45.19-.73-.18,0,.16-.12.22-.27.22.05-.13-.11-.13-.07-.23-.13.15-.51.21-.51-.1,0,.29-.27,0-.38.18a.33.33,0,0,1,.09.11L28.6,48h0c-.16-.08-.35.06-.55,0,.08.19-.21.09-.29.17s.06,0,.06-.07-.25.15-.37.05,0-.18-.07-.19-.33.29-.45.13C27,48,27,48,27,47.9c-.57.23-1.18,0-1.76.23l.1-.23c-.36-.3-.24.37-.53.34l-.14,0-.08,0-.13,0a.54.54,0,0,0-.73.45c.05,0,.08,0,.18,0s-.23,0-.13,0l.13,0a.13.13,0,0,0-.09,0,.1.1,0,0,0-.05.08.14.14,0,0,0,0,.09l0,.17c0,.25,0,.48-.22.61.2.33-.14.57.16,1-.12.13-.22-.15-.25,0l.2.38,0,0c.37.36-.38.95-.15,1.4-.08,0-.18.09-.15.16s.09,0,.16-.07a2.32,2.32,0,0,1,.18.82c-.13-.14-.11.14-.29.14.12.09.19,0,.29.15a2.8,2.8,0,0,1-.2.74c.15.09.11.21.3.21,0,.31.09.48.09.85h-.07c.23.1-.13.32,0,.39a1.62,1.62,0,0,0-.19,0l.08.17c-.08-.09-.31-.14-.34,0,.18.15.12,0,.26,0l-.23,0c0,.11.28.14.34,0a10.46,10.46,0,0,1,.07,1.08l-.15,0a.55.55,0,0,1,0,.28.64.64,0,0,1-.11.27s.12,0,.17,0c.2.21-.24,0,0,.26,0-.06-.08-.14-.17-.14l.18.44c-.11,0-.35.28-.26.47a.17.17,0,0,0,.1,0,.14.14,0,0,0,.06-.07l.06.13-.26.09.22.17h-.21c.05.13.3.18.3.29-.14.39-.21.31-.41.59.41,0,0,.44.27.51-.3.35-.11,1-.2,1.14h0c-.1.1,0,.09.07.07s.2-.08.16,0l-.06,0a.44.44,0,0,0-.1.19.57.57,0,0,0,.25-.08.61.61,0,0,0,.19-.17c0,.06-.07.18,0,.18s.06-.25.06-.21v.13c0-.07,0-.13.06-.2a2.24,2.24,0,0,0,1.28.17c.07.07,0,.14,0,.21.32,0,.65-.21.94-.25l0,.24c.15,0,.09-.36.28-.15,0,0-.12,0-.17.11.29.18.17-.22.44-.2l-.07.27c.23.16.26-.14.34-.3.3-.31.21.51.62.28.06-.13,0-.19,0-.32.27.06.32-.12.61-.05.15.39-.15,0,0,.37l-.22-.1c.2.21-.17.06-.14.29.14.07.35-.13.54-.2,0,.17-.22,0-.13.26l.09-.08c0,.06,0,.12-.09.12,0,.16.12,0,.2,0a1.27,1.27,0,0,0,0-.34.14.14,0,0,0,0,.06c.18-.26.5-.06.65-.26,0,0,0,.07,0,.11s.23-.23.38-.3c.08.14-.05.39.19.32,0-.14-.06-.39.14-.39a.19.19,0,0,0-.08.27c.2-.1.07,0,.25.22.1-.21.2.07.22-.27.06.23,0,.15.17.31-.06-.19.22-.18.22-.4.05.25-.21.3,0,.57.11-.17.34-.24.34-.51.08.06.12.17.25.19,0,0-.06,0-.06.06.24-.19.58,0,.72-.34-.05.4.49.05.31.42a.55.55,0,0,0,.29-.25c0,.3.23.08.34.26.06-.18.23-.12.34-.22a.16.16,0,0,0-.06.08.17.17,0,0,0,0,.1c.12-.13.09,0,.19.13.17-.09,0-.23.07-.37.14.07,0,.19,0,.32l.21-.31a.32.32,0,0,1,.09.17l.06-.07,0,.09H34l.15-.14c.29.21.22.52.19.82h0l0,.11v0l-.12,0a.25.25,0,0,0,0,.12.24.24,0,0,0,.11.06c0,.07-.21.35-.34.39-.38,0-.09-.37-.34-.45l-.32.18v-.1c0-.08-.1,0-.1.07,0-.16-.26,0-.39-.08l.05.14c-.37.33-.59-.35-.88-.18l-.2.24,0-.21c-.13.13-.15.29-.34.22-.69-.37-1.44.08-2.14-.15,0,0,0,.05.07.09-.61-.53-1,.53-1.51.12l0-.07c-.28,0,0-.08-.16-.2,0,.26-.36.2-.53.29,0-.05.08,0,.13-.08s0-.21-.12-.16c-.18.37-.57.33-.86.44,0-.17-.27-.32-.4-.59l-.13.3,0,0h0l0,0,0,0c-.1-.09-.18,0-.25.08h.23v0s0,0,0,0,.08,0,.08,0c.12.16,0,.13,0,.32-.09,0-.28.06-.31-.09a.3.3,0,0,1-.15,0,.05.05,0,0,1-.05,0h-.06l0,0,0-.06c-.18-.09-.44.2-.59.34.15-.25,0-.28,0-.46a1.38,1.38,0,0,0,.4,0,.2.2,0,0,1,0-.11c-.2-.19-.34.16-.63,0l0-.06a.15.15,0,0,0,0-.07c-.11,0-.2.1-.22.2a.34.34,0,0,0-.06-.12l-.09-.09a.27.27,0,0,0-.12,0,.2.2,0,0,0-.13,0c-.14.14-.14.19-.4.19l.15-.12c-.22-.09-.3.11-.45.09.05,0,.07-.1,0-.12a2.63,2.63,0,0,0-.85.39l.21-.2-.39.12c-.1-.18-.17-.46,0-.59-.4.39-.2-.59-.2-.86,0,.09.1.09.14.09a1,1,0,0,1-.12-.42v-.27a3.06,3.06,0,0,0,.1-.51l.29-.06c0-.18-.58-.23-.58-.42l.14.07a2,2,0,0,1,0-.76h.19c-.09-.1-.08-.23-.18-.32.48-.23-.25-.91.28-1.32l-.36,0c0-.16-.07-.36.21-.44v0c.27,0,0-.16.06-.26S22,57,21.91,57c.18-.43,0-1.05.32-1.32-.12-.42-.41-.74-.37-1.19h0c.05-.16.15-.47.45-.47-.05-.32-.47-.54-.34-.93l.12.09c.06-.1-.13-.27-.12-.3s.07,0,.11,0-.06-.15-.09-.22l.1,0c.21-.32-.2-.81-.15-1.21,0,.07.15,0,.2,0-.34-.17-.26-.62-.34-.79l.13.1c-.21-.32.36-.27.13-.61l-.19.19c.06-.13,0-.24-.16-.21.11-.16.26,0,.29-.25.1,0,.07.16.19.09l.25-.32s0-.06,0-.16c-.43,0,0-.27-.43-.11a1.32,1.32,0,0,1,0-.34c0-.12.05-.24.08-.37a5.55,5.55,0,0,0,.17-.81c.23,0,.35-.24.5-.4s.31-.27.47-.06a1.09,1.09,0,0,0,.36-.62c-.07,0-.11.08-.14.14,0-.17.31-.34.46-.37-.16.17-.38.39-.38.63a4.07,4.07,0,0,1,.54-.56l.12.25c.15-.23.17.19.33-.09l0-.07c.35,0,.33-.26.63-.3v.11c.09,0,.24-.21.33,0h-.19c0,.2.17.28.24.38.2-.06.06-.32.17-.34,0,.18,0,.09-.06.27a1.15,1.15,0,0,0,.68-.37v.07c.24,0,.43-.29.58-.14l-.05,0c.18.26.48-.25.52.2.09.08-.2,0-.06.2s.18-.38.43-.25c0,0,0,0,0,.05a4.14,4.14,0,0,0,.6-.09c.25.37.74-.09,1,.34-.09-.16.07-.18.07-.25a.09.09,0,0,0,0,.07c.1,0,.11-.13.15-.19.09.12.28-.14.33-.06,0-.09.09-.07.18-.07-.18.09-.06.19-.14.34.27.05.3-.41.58-.34l.16.18c0-.26.28-.16.28-.26,0,.08.11.13.11.27.12-.06.29.07.34-.09l-.12-.07c.35.1.55-.29.82-.11v.41c.18.17.32-.23.48,0-.06-.14-.08-.1.07-.23-.12,0-.23.07-.34.07l.24-.24-.37.11c.16-.16.15-.11.08-.28.23-.13.2.19.54,0,.1.07,0,.2.08.3.16-.06.26,0,.34.14s.15.18.27.12-.09,0-.12.06c.15,0,.24.08.34,0l-.1-.1c.09.06.2-.08.34.14.16,0,.37-.09.24-.2a.15.15,0,0,1,0,.26.3.3,0,0,0,.16.08.23.23,0,0,0,.18,0c.09,0,.18,0,.22.2,0,0-.07,0-.07,0a.48.48,0,0,0,.14.2c-.22-.26-.21.25-.37-.09-.15.17.13.25.11.4.21.09.28-.13.43-.09,0,0,0,.1,0,.2l.11-.15A.84.84,0,0,0,35.25,48ZM25.61,63.19c0,.05,0,.08.1.05v0a.11.11,0,0,1,0,0Zm-.73-1.31c.06,0,.14.1.12.14s0-.07,0-.14Zm9-.22H34C33.94,61.56,33.88,61.6,33.83,61.66ZM34.59,60h0v0ZM23.53,52.46h0v0Zm10.3,9.2ZM23.73,59v0h0Zm10.2-8.92a.24.24,0,0,0,0,.08.19.19,0,0,0,0,.08h0c0,.06,0,.1.09.11l-.09-.11a.19.19,0,0,0,0-.08A.24.24,0,0,0,33.93,50.09ZM33.7,61.51v0h0Zm.1.16-.06-.08S33.74,61.64,33.8,61.67Zm0-1.39c0,.07-.15.17-.11.27h.06C33.62,60.5,33.9,60.33,33.78,60.28Zm.87-1.22-.06.24c.08,0,.18-.1.2,0C35,59,34.62,59.38,34.65,59.06Zm.11-.75c0,.13.11,0,.15,0S34.81,58.21,34.76,58.31Zm.17-5.44c0-.09-.06,0-.17,0Zm-1.09-1-.11.1.17,0Zm1.26-.61,0,0-.07-.16Zm-6.56-4.86,0,.22C28.64,46.54,28.65,46.3,28.54,46.36Zm-4.25.18c.12,0,.24.08.3.05S24.37,46.42,24.29,46.54ZM22,57.94l-.07-.09L22,58ZM50.82,45s0-.08,0-.07S50.8,45,50.82,45Zm-.16,6.35.07-.17C50.66,51.14,50.68,51.24,50.66,51.33ZM50.3,62.55l0-.11h0ZM38.49,39.85c-.08,0-.3-.28-.42,0C38.25,39.62,38.3,40.17,38.49,39.85ZM48.33,36s0,0-.06,0l0,0S48.31,36,48.33,36ZM42.26,61.75c0-.14.24-.19-.09-.18A.51.51,0,0,1,42.26,61.75Zm7.51-1.55v0h0a.21.21,0,0,0,.06.1s0-.06,0-.09,0,0,0,0h0A.1.1,0,0,1,49.77,60.2ZM39.69,52.41a0,0,0,0,0,0,0s0,0,0,0Zm9.92,9.23h.24C49.75,61.54,49.68,61.58,49.61,61.64Zm1.8-19.27a.73.73,0,0,0,0,.25l-.06-.16c0,.17-.3.44-.14.73-.06-.07-.2-.23-.28,0,.1.33-.07.07-.19.26s.29.06.19.54c0,0,.09,0,.14-.05-.09.33,0,.51-.09.83,0-.14.1-.25.18-.06-.13-.08-.13.27-.21.39l.08,0c-.08.1-.12,0-.15-.09s0,0,0-.08-.39-.1-.42.15a.37.37,0,0,0,.05.11.39.39,0,0,0,.1.08.23.23,0,0,0,.12,0,.15.15,0,0,0,.11,0c-.09.36.38.34.25.68,0,.08-.33.34-.36.59.19.13.14-.31.3-.17-.47.42.28.85,0,1.39l-.23-.06a1.27,1.27,0,0,0,0,.39l.13-.19c0,.14,0,.44-.17.34.17.27.06.34,0,.61,0-.28,0,0-.09-.21-.12.29,0,.32,0,.52-.08,0-.2.08-.2.15s.11.52.19.79h-.07c.09.45-.23.93,0,1.38v0c.22-.16.16.35.24.49s-.15,0-.15.12c.21,0,.11.17.21.24-.08.15-.24,0-.24.24s.12.11.2.11a.58.58,0,0,0-.21.36s0-.12,0-.15-.07.07-.2.07.19,0,.12.2L50.47,53c0,.06,0,.14,0,.17s-.2-.06-.3-.06c.12.36.44.07.62.09-.13.34.09.61.09.87L50.73,54a.58.58,0,0,0,.05.14l.07.06v0l.09.09-.08,0,0,0v.2a.28.28,0,0,0-.12-.12.23.23,0,0,0-.16,0c0,.22,0,.5.26.56h0c-.09.28-.14.85-.22.85,0,.19,0,.41,0,.54s.24,0,.24.09l-.14,0a.13.13,0,0,0-.09-.09c0,.07.05.12.13.12.07.18-.31.47,0,.6-.16.22-.07,0-.25-.06-.17.22.26.44-.11.51.11.25.08-.06.24,0-.34,0,0,.46-.25.7.14.1.09-.11.23.07-.09,0-.11.08-.11.13l.21,0-.52.24c.25.36.36-.07.46.41l0,0c-.21.13.17.34,0,.68,0-.11-.1,0-.16-.08l.08.19s0,0,0,0c-.15.17.09.15-.05.34,0-.14-.2-.1-.28,0l.24.28-.29-.11c0,.27.44.67,0,.81l0-.13c-.07,0-.28.09-.14.27s.2.09.2,0l-.07.13c-.18-.06-.24-.4-.29-.61.08.06.14.23.26.18-.07-.19-.19-.37-.25-.55a1.17,1.17,0,0,0,.27.15c.1-.2-.13-.15-.15-.31s.13-.1.19-.06a.52.52,0,0,1-.07-.27.53.53,0,0,1,.07-.28s.14.23.24.1c-.11-.37-.34-.45-.47-.85-.32-.48.2-.9,0-1.24-.09,0-.15.24-.21,0,.18,0,.11-.14.18-.14-.25-.23,0-.34-.12-.5.06,0,.13-.1.19-.19s.08-.26.38.08c-.32-.34.08-.61-.4-.86l-.06.09L50,55.8a.54.54,0,0,1,0-.22.57.57,0,0,1,.15-.16c.05.09.05.21.1.3.18-.19-.16-.39-.16-.59.15,0,0,.21.24.15,0-.14-.09-.27-.14-.4l.09,0c.21-.37-.41-.15-.13-.41a.38.38,0,0,0-.15,0c.08-.1.23-.33.34-.1a.41.41,0,0,0-.05-.19.44.44,0,0,0-.12-.15c-.12.1-.06.13-.22.17l-.09-.5c0-.06.08,0,.08.11.45-.6-.37-1.2.16-1.88-.14.08-.12-.05-.21-.11a4.8,4.8,0,0,1,.09-.75l.09.07a3.64,3.64,0,0,1-.2-1.22c-.05,0,.13,0,.16.06-.19-.25.36-.55,0-.62l0,.09a8.58,8.58,0,0,0-.25-1.56c.22-.13,0,.29.28.19.09-.36-.1-.72,0-1.11,0,.06.07,0,.07.08.16-.39-.21,0-.18-.29.1,0,.13,0,.19-.1l-.18-.1a.29.29,0,0,1,.22,0c-.23-.13-.07-.57-.29-.68.06,0,.26,0,.34,0a.41.41,0,0,0,0-.22.35.35,0,0,0-.1-.19c.15-.12.12-.42.15-.36.09-.31-.12,0-.25-.28l-.1.25-.05-.44.11.17c.08-.2-.1-.41-.1-.64l-.13.1-.08-.26c.26,0,.06-.34.36-.2.11-.5-.21-.82-.23-1.27,0,.07.06,0,.1.07a.58.58,0,0,0,0-.32.71.71,0,0,0-.18-.27c.08,0,.11.1.17.1,0-.31-.14-.19-.22-.53.11.09.16.06.19,0l-.12,0a.23.23,0,0,1-.07-.1c.52.26.21-.39.62-.22-.11,0-.33-.55-.54-.4l0,.09c-.14,0-.1-.12-.1-.21s.06.1.09.1c-.17-.49,0-1-.15-1.55.06.05.15.27.19.13a1.5,1.5,0,0,0-.08-.7,2.2,2.2,0,0,0-.12-.32l-.14-.18c.16,0,.2,0,.2.13v.06s0,.07,0,.11a.13.13,0,0,0,.06.07.12.12,0,0,0,.09,0l0-.21c0-.05,0-.1,0-.15a.72.72,0,0,0-.14-.24.81.81,0,0,0-.46-.29c.1-.22,0-.24-.13-.22s-.22.06-.3-.14a.15.15,0,0,1,0,.09.22.22,0,0,1,0,.08l0,0,0,0h-.16c.08-.14-.15-.14-.09-.24-.19.15-.74.21-.72-.1-.05.3-.39,0-.55.19l.14.11-.2-.08,0,0c-.24-.08-.5.07-.79,0,.11.19-.29.09-.4.17s.08,0,.08-.06c-.1-.17-.35.14-.52,0s0-.2-.11-.2-.46.3-.62.13c.07,0,.07-.07.12-.12-.8.22-1.65,0-2.47.22l.15-.23c-.52-.29-.34.38-.75.34l-.83-.11-.17,0-.1,0a.81.81,0,0,0-.22,0,.63.63,0,0,0-.4.19.67.67,0,0,0-.18.42c.05,0,.08,0,.17,0s-.23,0-.11.09h.12a.16.16,0,0,0-.1.08.14.14,0,0,0,0,.06v.12a2.92,2.92,0,0,0,0,.51c0,.34,0,.66-.22.85.19.47-.15.8.15,1.38-.11.18-.21-.21-.24,0l.19.53,0,0c.37.51-.41,1.35-.15,2v0c-.09,0-.19.12-.16.23s.09,0,.16-.1a4.59,4.59,0,0,1,.18,1.15c-.13-.19-.11.2-.29.2.12.13.19-.06.28.2a4,4,0,0,1-.2,1c.16.13.12.31.31.31,0,.42.09.66.09,1.18h-.07c.25.14-.12.46,0,.55-.08,0-.12,0-.19,0l.08.24c-.08-.11-.31-.18-.34,0,.17.2.12-.06.26,0l-.23.06a.18.18,0,0,0,.07.08.18.18,0,0,0,.2,0,.27.27,0,0,0,.07-.08c0,.52.1,1,.07,1.51l-.15,0a1.05,1.05,0,0,1-.08.76s.12.07.17,0c.2.31-.24,0,0,.37-.06-.08-.09-.2-.17-.2l.18.63a.57.57,0,0,0-.23.28.59.59,0,0,0,0,.37.16.16,0,0,0,.16-.13l0,.17-.25.13.22.24h0v0l0,0h-.21c0,.18.3.26.3.41-.14.55-.21.43-.42.82.41,0,0,.63.28.72-.31.53-.12,1.29-.21,2l0-.06c-.19.29.31.33.22.65l0-.08a1.92,1.92,0,0,0,.15,1.5l-.06,0h-.07a.1.1,0,0,0,0,0,.07.07,0,0,0,0,.06c.08.12.29-.1.21.12a.08.08,0,0,0-.13,0l.2.21a4.38,4.38,0,0,0-.17,1.8c-.07.1-.14,0-.21,0a.36.36,0,0,0,0,.14.19.19,0,0,0,0,.07l.07.11.13.1h0l-.2.24c.11,0,.32-.36.26-.15,0,0-.06,0-.17.11.08.18.24-.22.31-.2a1.48,1.48,0,0,1-.1.27c.13.16.17-.14.29-.3.42-.31.3.51.87.28.09-.13,0-.19,0-.32.41.06.46-.12.86-.05.21.39-.21,0,0,.37l-.31-.1c.26.21-.24.06-.2.29.2.07.5-.13.76-.2,0,.17-.3,0-.18.26l.13-.08c0,.06,0,.12-.12.12,0,.16.16,0,.28,0a.78.78,0,0,0,0-.34l0,.06c.27-.26.7-.06.92-.26,0,0,0,.07,0,.11.16,0,.32-.23.53-.3.12.14-.07.39.27.32.06-.14-.09-.39.2-.39,0,0-.25.1-.16.26.27-.1.08,0,.34.21.14-.21.27.08.3-.26.09.22.07.14.24.3-.08-.18.32-.18.32-.4.07.25-.29.31-.07.57.16-.16.45-.23.47-.5.12.06.18.16.36.19,0,0-.08,0-.08.06.32-.2.81,0,1-.34-.07.39.7,0,.45.41a.85.85,0,0,0,.4-.25c0,.31.34.08.49.26.08-.17.33-.12.47-.21a.1.1,0,0,0-.07.07.11.11,0,0,0,0,.1c.17-.13.13,0,.27.14.23-.1,0-.24.1-.38.2.07,0,.19.07.32l.29-.31.08.08a.26.26,0,0,1,.05.09l.08-.07.1.16.26-.17a.61.61,0,0,0-.18-.14.48.48,0,0,1,.29,0,.4.4,0,0,1,.23.17s-.1,0-.15,0a.32.32,0,0,1,.08.12s0,0,0,0a1.13,1.13,0,0,1,0,.66l-.17.06a.17.17,0,0,0,.07.12.26.26,0,0,0,.13.06c.07.07-.28.35-.47.39-.52,0-.12-.38-.46-.46l-.46.19v-.11c-.07-.08-.11.05-.13.07,0-.16-.37,0-.56-.08l.07.14c-.52.34-.82-.35-1.22-.18l-.29.25-.06-.21c-.17.12-.2.28-.47.21-1-.37-2,.08-3-.15,0,0,0,.06.1.09-.86-.52-1.35.54-2.13.13l.06-.08c-.4,0,0-.08-.24-.19-.05.25-.5.2-.73.29,0-.05.12-.05.18-.08s-.06-.21-.17-.17a.61.61,0,0,1-.24.21.49.49,0,0,1-.17.06,1,1,0,0,1-.25.05c-.36,0-.76.07-1.14.12,0-.09-.1-.18-.18-.28a3.76,3.76,0,0,1,.31-.68,1,1,0,0,1-.3,0l0,.08v0l0-.06h0a.34.34,0,0,0,0-.24.37.37,0,0,0-.12-.24v.49a.19.19,0,0,1,0,.07c0,.13,0,.19,0,.15-.17.36-.14.08-.34.22,0-.23-.06-.7.09-.79a1.5,1.5,0,0,1,.05-.37.5.5,0,0,1,0-.24l0,0,.07,0c.08-.26-.21-.62-.34-.83.24.2.27-.06.45-.06a2.73,2.73,0,0,0,0,.57l0,0h.07c.19-.28-.17-.48,0-.89a.12.12,0,0,0,0,.05h.08c0-.14-.09-.27-.2-.31a.43.43,0,0,0,.21-.21.41.41,0,0,0,0-.29c-.14-.14-.21-.12-.19-.36l.12.11c.09-.26-.11-.26-.08-.42,0,0,.09,0,.11,0-.07-.3-.14-.31-.39-.52l.2,0c-.12-.26-.36-.75-.09-.75-.41.08-.21-.56-.21-.78a.14.14,0,0,0,.14.09c-.25-.46,0-1,0-1.42l.29-.08c0-.25-.57-.32-.57-.59l.13.1a4.25,4.25,0,0,1,0-1.07h.2c-.09-.14-.09-.32-.18-.46.47-.32-.25-1.26.28-1.85l-.37,0c0-.23-.06-.51.21-.62v.05c.28,0,0-.22.07-.36s-.21-.21-.27-.12c.2-.59,0-1.48.34-1.84a6.23,6.23,0,0,1-.37-1.7h0c.05-.21.15-.65.46-.65-.06-.46-.48-.76-.34-1.31l.12.12c.05-.14-.13-.38-.13-.42s.07,0,.11,0-.06-.21-.09-.31l.11,0c.21-.44-.21-1.13-.16-1.7,0,.1.15,0,.2,0-.34-.23-.26-.87-.34-1.1l.13.14c-.2-.46.36-.4.13-.85l-.19.26c.06-.19,0-.35-.16-.3.11-.2.26,0,.29-.34.1,0,.07.24.19.13l.26-.45s0-.07,0-.22c-.44,0,0-.38-.44-.15a4.43,4.43,0,0,1,.09-.9c0-.37.08-.72.12-1.08.24-.09.4-.39.61-.62s.45-.35.58-.12a3.13,3.13,0,0,0,.68-.68c-.09,0-.17.07-.24.12a.56.56,0,0,1,.32-.22,1.61,1.61,0,0,1,.44-.06c-.27.11-.67.3-.75.57a5,5,0,0,1,.57-.27l.26-.11.16-.08.07.28c.24-.2.2.22.44,0l0-.08c.44,0,.45-.26.85-.29l0,.11c.15,0,.35-.22.49,0h-.27c0,.19.23.28.32.37.28-.05.1-.31.24-.34.06.18,0,.1-.08.28a2,2,0,0,0,1-.37s0,0,0,0,0,0,0,0c.32,0,.61-.29.81-.14l-.06,0c.26.26.68-.26.73.2.12.08-.28,0-.08.2.39.14.26-.38.6-.25-.05,0-.05,0-.05,0a6.82,6.82,0,0,0,.79-.09h0l0,0,.08,0h0c.34.37,1-.08,1.41.34-.12-.15.1-.17.1-.24a.09.09,0,0,0,0,.07c.14,0,.16-.14.21-.2s.13,0,.25,0,.24-.07.28,0,.17,0,.34,0c-.36,0-.15.17-.31.3a.93.93,0,0,0,.52-.06.61.61,0,0,1,.3,0,.51.51,0,0,1,.26.14,1.75,1.75,0,0,1,.12.32.19.19,0,0,1,.18,0,.26.26,0,0,1,.16.09l.13.12a.29.29,0,0,1,0-.09.17.17,0,0,1,0,.09s.06,0,.07,0,0,.26-.11.32c.17.13.14.46.32.49v-.22c.07.32.18.56.25.81a1.38,1.38,0,0,1,.08.29.52.52,0,0,1-.05.27h-.41c-.17.25.23.46,0,.68.14-.08.1-.09.23.07,0-.09-.08-.27-.08-.43l.24.34L51,39c.16.22.12.21.28.12.14.3-.19.34,0,.64-.06.12-.21,0-.29.12.14.26-.29.51-.08.7,0,.06,0-.11-.1-.1,0,.17,0,.29.14.34l0-.15c0,.13.15.16.05.41.1.14.31.22.31.06,0,.06-.09.2-.21.16,0,.38.43.18.24.55,0,0,0,0-.06,0a.3.3,0,0,0,0,.23c0-.33-.33.1-.25-.29-.22,0-.05.3-.13.42.14.19.31,0,.42.12-.07,0-.07.08-.1.17ZM38.11,62.14a1.19,1.19,0,0,1,0-.25A.24.24,0,0,0,38,62a.19.19,0,0,0,0,.13h0Zm1.15-1.36c0,.06.07.08.14.06a1,1,0,0,1,0-.24h0C39.34,60.67,39.3,60.8,39.26,60.78Zm10.34.86Zm0-20.93v-.05C49.54,40.59,49.56,40.64,49.59,40.71ZM50,45.49,50,45.33C49.94,45.42,49.93,45.48,50,45.49ZM50,45.33a.41.41,0,0,0,0-.22.22.22,0,0,0,0,.22Zm-.23,15.82v.05h0Zm.1.22,0-.11S49.77,61.35,49.83,61.37Zm0-2c0,.09-.15.24-.1.38h0C49.64,59.73,49.92,59.5,49.8,59.41Zm.87-1.7-.05.34c.07-.06.17-.14.19,0C51,57.64,50.64,58.16,50.67,57.71Zm.1-1.05c0,.18.11,0,.15,0S50.85,56.52,50.77,56.66Zm0-7.64L51,49C50.93,48.9,50.89,49,50.77,49Zm-.91-1.46-.1.14.16.06Zm1.27-.86,0,.06-.06-.24ZM46.91,36.05c.1,0,.13-.27,0-.22ZM41,36c.13,0,.24.1.31.07A.19.19,0,0,0,41,36ZM38,51.49l-.08-.11.06.21Zm28.66,4.57.07-.1C66.68,56,66.7,56,66.68,56.06Zm.19,1.65.09,0-.09,0ZM54.52,54.38c-.08,0-.31-.15-.42,0C54.27,54.26,54.32,54.58,54.52,54.38ZM65.8,61.09s0,0,0,0a0,0,0,0,0,0,0Zm-5.52-9.43,0,0h0Zm-.94,0-.05,0a.05.05,0,0,0,0,0Zm2.35,9.9a1.21,1.21,0,0,1,.05.18C61.72,61.61,61.88,61.56,61.69,61.57Zm4.11-.4h0a.18.18,0,0,0,.07,0l0,0h.07a.12.12,0,0,1-.08,0ZM66.93,54a.49.49,0,0,0,0,.24l.12-.11a.13.13,0,0,1-.17.19c.17.15.06.19,0,.34,0-.16,0,0-.08-.12-.13.17,0,.18,0,.3s-.21,0-.21.08.11.3.19.45h-.07c.09.26-.23.54,0,.79v0c.21-.09.15.2.24.28-.06,0-.15,0-.15.07.2,0,.1.1.2.14-.07.09-.23,0-.23.14s.12.06.2.06a.22.22,0,0,0-.13.08.3.3,0,0,0-.09.13s0-.09,0-.09-.06,0-.2,0,.19,0,.12.12l-.16-.08s0,.09,0,.09-.21,0-.3,0c.12.21.43.06.61.06-.13.19.1.35.1.5l-.19,0a.24.24,0,0,0,.06.09l.09.05v.11a.57.57,0,0,0-.13-.08.38.38,0,0,0-.15,0c0,.12,0,.28.26.32h0c-.09.15-.15.49-.23.49a.64.64,0,0,1,0,.27c.09,0,.26,0,.26.05h-.13a.19.19,0,0,0-.13-.06c0,.08,0,.13.16.13s-.32.26,0,.34c-.17.12-.07,0-.26,0s.26.24-.1.29c.11.12.07-.05.23,0-.34,0,0,.26-.24.4.13.06.08-.07.22,0h-.07l0,0,0,0,.22,0-.52.13c.24.2.35,0,.45.22-.19.08.17.2,0,.39,0-.05-.1,0-.16-.05l.09.11h-.05c-.16.09.08.08-.06.19,0-.08-.2-.05-.28,0l.24.16-.29-.07c0,.14.34.34.14.44a1.4,1.4,0,0,1,.08.77l-.1.06a.23.23,0,0,0,0,.11.22.22,0,0,0,.09.07c0,.07-.16.35-.28.39-.29,0-.06-.38-.26-.46l-.26.19v-.11c0-.07-.07.05-.07.07,0-.16-.22,0-.32-.08l0,.15c-.29.33-.46-.36-.69-.18l-.17.24,0-.21c-.1.12-.12.29-.27.21-.56-.37-1.16.08-1.72-.15,0,0,0,.06.06.09-.49-.52-.77.54-1.22.13l0-.08c-.22,0,0-.08-.13-.19,0,.26-.29.2-.42.29s.07,0,.1-.08,0-.21-.09-.16c-.14.36-.45.32-.68.43,0-.17-.24-.31-.34-.58,0,.06-.07.19-.11.31-.08-.11-.14,0-.2.08h.14v0l0,0h.06c.06,0,.06,0,.06,0,.09.16,0,.13,0,.32-.06,0-.16,0-.21,0a.06.06,0,0,1,0,0h0a0,0,0,0,1,0,0l-.13,0s-.06,0-.09,0v0s0,0,0-.06-.36.21-.48.34c.12-.24,0-.28,0-.45A2,2,0,0,0,59,63a.27.27,0,0,1,0-.12c-.17-.19-.27.17-.51,0a.09.09,0,0,0,0-.06.2.2,0,0,0,0-.07c-.09,0-.16.09-.18.2,0-.18-.2-.3-.29-.23s-.06.2-.21.2l.07-.13c-.15-.09-.15.12-.24.09a.09.09,0,0,0,0-.11c-.17.07-.17.14-.3.38l0-.19c-.14.12-.42.35-.42.09,0,.4-.32.2-.45.2.06,0,.06-.09.06-.14a.42.42,0,0,1-.41.11H56l-.18,0a1.86,1.86,0,0,0-.34,0c0-.09,0-.19,0-.29-.19,0-.56.58-.87.58l.2-.14a5.34,5.34,0,0,1-.8,0,2.45,2.45,0,0,0,0-.34l.19-.16c-.09-.06-.09-.23-.18-.31a.91.91,0,0,0,.17-.42.94.94,0,0,0-.05-.44,2.17,2.17,0,0,1,0-.25v-.2a.46.46,0,0,1,.07-.16.49.49,0,0,1,.13-.12l-.36,0c0-.12-.07-.28.21-.34v0c.28,0,0-.13.07-.21s-.22-.12-.27-.07c.2-.34,0-.84.34-1-.12-.34-.41-.6-.37-1h0A.48.48,0,0,1,54.2,58a.52.52,0,0,1,.29-.11c-.07-.26-.49-.43-.35-.75l.11.07c.06-.08-.12-.22-.12-.24s.07,0,.11,0-.06-.12-.09-.18l.1,0c.22-.26-.2-.65-.15-1,0,.06.15,0,.2,0-.34-.13-.26-.49-.34-.63l.13.09c-.21-.27.36-.23.13-.49L54,55c.06-.11,0-.2-.16-.18.11-.12.26,0,.29-.2.1,0,.07.14.19.08l.25-.26s0,0,0-.13c-.43,0,0-.22-.43-.08a1.56,1.56,0,0,1,.13-.64,2.14,2.14,0,0,0,.17-.66c.23,0,.33-.17.45-.3s.25-.2.42,0a.78.78,0,0,0,.17-.26.8.8,0,0,0,0-.31c-.06,0-.08.08-.1.13,0-.15.21-.32.32-.36a.9.9,0,0,0-.2.61c.1-.15.25-.45.34-.56l.15.24c.09-.24.18.17.26-.13l0-.07a.46.46,0,0,0,.29-.17.6.6,0,0,1,.12-.11.36.36,0,0,1,.17-.07v.11c.08,0,.2-.21.27,0H57a.8.8,0,0,0,.18.37c.17,0,.06-.31.14-.33,0,.17,0,.09,0,.27a.91.91,0,0,0,.55-.37v.06c.18,0,.35-.29.46-.13l0,0c.15.27.39-.24.42.2.07.09-.16,0,0,.21s.15-.38.34-.25c0,0,0,0,0,.05a2.56,2.56,0,0,0,.48-.1c.2.37.59-.09.81.34-.07-.15.06-.18.06-.24a.06.06,0,0,0,0,.06c.08,0,.09-.13.12-.19.06.13.22-.14.26,0,0-.1.07-.07.14-.07-.15.09-.05.19-.11.34.21.05.24-.42.47-.34l.12.18c0-.27.23-.16.23-.27a.54.54,0,0,1,.08.28c.09-.07.23.07.26-.09l-.09-.07c.28.1.45-.29.66-.11V52c.14.16.26-.23.38,0,0-.14-.05-.09,0-.23s-.15.07-.24.07l.19-.23-.3.11c.13-.16.12-.12.07-.28.18-.14.19.19.36,0,.07.06,0,.21.07.29.16-.15.29.29.4.08,0,0,0,0,0,.11s.17,0,.2-.15l-.09,0c.08,0,.09-.16.23-.07.08-.09.13-.29,0-.29s.12.08.09.2c.22,0,.1-.43.32-.24l0,0a0,0,0,0,0,0,0l.07,0,.07,0c-.19,0,.06.33-.17.25,0,.22.17.05.24.13.11-.15,0-.31.07-.42,0,.07,0,.07.1.1l0-.17a.17.17,0,0,0,.14,0l-.09.06.18.14a.34.34,0,0,0,.17,0,.25.25,0,0,0,.17,0c-.06.05-.2.18-.06.28.26-.07,0,.07.15.22s.12-.29.43-.08c0,0,0-.09,0-.14.19.16.39.13.53.37-.06-.1-.11-.19.06-.17-.13.06.11.21.11.34l.08,0c0,.12-.09.07-.16.07s0,0,0-.08-.27.27-.18.39a.34.34,0,0,0,.2,0,.36.36,0,0,0,.14-.16c.11.25.46-.06.52.25,0,.06-.15.4-.12.56.23,0,0-.27.23-.23-.14.24,0,.35.11.49s.28.35.14.58Zm-8,7.86h-.13c0,.06.07.13.1.14S58.91,62,58.91,61.88ZM66,61.57h0Zm.16,0v0l-.14,0,0,.1Zm0,0s0,0,0,0h-.07S66.1,61.6,66.14,61.59Zm.07-4c-.12.06-.06.08-.22.1l-.09-.29s.08,0,.08.06c.45-.34-.37-.68.16-1.07-.13,0-.12,0-.21-.06s0-.32.09-.43l.09,0c-.11-.28-.26-.49-.2-.68,0,0,.13,0,.16,0-.18-.12.37-.3,0-.34l0,.06c.06-.29-.2-.6-.25-.9.22-.07,0,.17.28.11.09-.23-.1-.36-.06-.54a.11.11,0,0,0,.07,0c.09-.22-.21.06-.21-.08s.12,0,.16-.11l-.18,0,.21-.06c-.23,0-.19-.22-.4-.15,0,0,.23-.12.29-.18s-.11-.1-.21-.1c.1-.15,0-.24,0-.24-.07-.16-.1.07-.27.11a.59.59,0,0,1,0,.14L65.32,53l.12-.05c0-.12-.2,0-.28,0l0,.13-.12,0c.1-.24-.09-.1.06-.36a.2.2,0,0,0-.15-.06.2.2,0,0,0-.14.06c-.11.05-.16.15-.3.15,0,0,0,0,0-.09s-.24.08-.33.21a.7.7,0,0,0,0-.18c-.18,0-.11.15-.31.23.08-.11.06-.16,0-.19a.12.12,0,0,1,0,.1.24.24,0,0,1-.06.09c.15-.52-.22-.21-.13-.62,0,.11-.31.33-.22.54l.05,0c0,.14-.07.1-.12.1s.06-.06.06-.09c-.28.17-.57,0-.89.14,0,0,.15-.14.07-.18-.31-.08-.49.19-.8.32,0-.33.34-.05.34-.36a5.3,5.3,0,0,0-1,.35c-.13-.48-.36.2-.59-.17,0,.16-.09.22-.22.22.05-.13-.09-.14,0-.23-.11.15-.41.21-.41-.11,0,.3-.23,0-.32.2,0,0,0,0,0,.06l-.12-.08c-.12,0-.26.07-.4,0,.06.2-.17.1-.23.18a.1.1,0,0,0,0-.07c0-.16-.19.14-.29.05s0-.19-.06-.19-.26.29-.36.12c0,0,0-.07.07-.12-.46.22-.95,0-1.41.22l.08-.22c-.29-.31-.2.36-.29.34a.8.8,0,0,0-.48-.06.39.39,0,0,0-.24.12.4.4,0,0,0-.1.24c0,.06.08,0,.17.06s-.21-.06-.12,0l.12,0c-.18,0-.15.14-.12.23v.1a.33.33,0,0,1,0,.14.26.26,0,0,1-.08.13l-.14.08c.2.27-.14.44.16.78-.11.11-.21-.12-.24,0l.19.31,0,0c.36.29-.39.76-.15,1.13-.09,0-.21.11-.16.13s.09,0,.17-.06a1.91,1.91,0,0,1,.18.66c-.13-.11-.12.12-.29.12.11.07.18,0,.28.11a1.38,1.38,0,0,1-.2.59c.16.08.11.18.31.18,0,.24.09.38.09.68h-.07c.23.07-.14.25,0,.31a1.81,1.81,0,0,0-.19,0l.08.13c-.08-.07-.31-.11-.34,0,.17.12.12,0,.26,0l-.23,0c0,.08.27.11.34,0a8.54,8.54,0,0,1,.07.86l-.15,0a.36.36,0,0,1,0,.23.33.33,0,0,1-.11.2c.05,0,.13,0,.17,0,.2.18-.24,0,0,.21-.05-.05-.08-.11-.17-.11s.12.24.18.34a.41.41,0,0,0-.21.05s-.1.1,0,.1l.16-.07h0l-.25.12a.79.79,0,0,0,.22-.06l-.21.12s.31-.15.3-.12l-.18.21a1.08,1.08,0,0,0-.12.24c.17-.2.2-.2.22-.18s.06,0,.13-.09c0,.15.05.18.17.18a3,3,0,0,1,.6,0l0,0c.17.19.19-.31.37-.23l0,.06c.23.22.63,0,.85-.15,0,.06,0,.18.05.18s-.06-.29.07-.21c0,0,0,.13,0,.13l.12-.2a1.4,1.4,0,0,0,1,.16c.06.08,0,.15,0,.22.26,0,.53-.21.76-.25l0,.24c.11,0,.07-.36.22-.15,0,0-.1,0-.14.11.23.18.14-.22.36-.2l-.06.27c.17.16.2-.14.26-.3.24-.31.16.51.49.28.06-.13,0-.19,0-.32.23.06.26-.12.49-.05.1.39-.14,0,0,.37l-.18-.1c.15.21-.13.06-.11.29.11.07.28-.13.43-.2,0,.17-.17,0-.1.26l.07-.08c0,.06,0,.12-.07.12,0,.16.09,0,.16,0a1.27,1.27,0,0,0,0-.34l0,.06c.15-.26.4-.06.53-.26,0,0,0,.07,0,.11s.18-.23.3-.3c.06.14,0,.39.15.32,0-.14-.05-.39.11-.39,0,0-.14.1,0,.19.16-.1.06,0,.2.21.08-.2.16.08.17-.26a.6.6,0,0,0,.14.3c0-.18.18-.18.18-.4,0,.25-.16.31,0,.57.08-.16.26-.23.26-.5.07.06.1.16.21.19s0,0,0,.06c.19-.19.47,0,.57-.34,0,.39.4,0,.26.41.08,0,.21-.18.23-.25,0,.31.2.08.28.26,0-.17.19-.11.27-.21a.2.2,0,0,0,0,.08.14.14,0,0,0,0,.09c.09-.13.07,0,.15.14.13-.1,0-.23.06-.38.11.07,0,.2,0,.32l0-.07h0v0l0,0,.11-.2h0l0,0a.39.39,0,0,0,.11.06l0,0c-.06-.08-.14-.16-.19-.24a1.38,1.38,0,0,0,.27.08c.1-.11-.13-.08-.15-.17s.13-.06.19,0a.18.18,0,0,1,0-.07.24.24,0,0,1,0-.08.29.29,0,0,1,0-.09.18.18,0,0,1,0-.07s.14.13.24.06c-.11-.22-.34-.26-.47-.49-.31-.27.2-.53,0-.71-.09,0-.15.14-.21,0,.18,0,.11-.07.18-.07-.25-.14,0-.2-.12-.29.07,0,.13-.06.19-.11s.08-.14.38,0c-.31-.2.08-.35-.4-.5l-.06.05.09-.2c0-.08,0-.09.2-.21,0,0,0,.12.1.17.18-.11-.16-.22-.16-.34.15,0,.05.12.24.09,0-.09-.09-.16-.13-.23h.08c.21-.21-.41-.09-.13-.24H66c.08-.06.23-.19.34-.06a.34.34,0,0,0-.06-.12A.41.41,0,0,0,66.21,57.63Zm-6.83,5.56c0,.05,0,.08.07.05v0h0s0,0,0,0ZM55.62,56.7h0v0Zm11.07,3.79h0v0Zm-10.91.92h0l0,0ZM65.59,53c0,.05,0,.07.12,0Zm-5.26.16ZM65.52,53a.06.06,0,0,0,.07.07S65.57,53,65.52,53Zm.2,7.95h0c-.1,0,.17-.16,0-.21S65.67,60.82,65.72,60.9Zm1-1.19-.06.2c.08,0,.18-.08.2,0C67.07,59.67,66.67,60,66.7,59.71Zm.11-.6c0,.11.1,0,.15,0S66.87,59,66.81,59.11Zm0-4.37H67C67,54.67,66.91,54.75,66.81,54.74Zm-.92-.81-.11.06a.76.76,0,0,1,.16,0A.41.41,0,0,0,65.89,53.93Zm1.17-.72-.13-.16.09.12ZM59.5,51.67s.06-.27,0-.22ZM56,51.74c.09,0,.2,0,.24,0S56,51.61,56,51.74ZM54,61.11v0L54,61ZM41.49,26.83a.28.28,0,0,0,.18.06Zm2.09-.26-.09-.08-.1,0Zm1.16-2.48h-.09ZM41.6,31.9l0,0s0,0,0-.05S41.58,31.89,41.6,31.9Zm-2.76-5.34.6.21,0-.05a.29.29,0,0,0,.13,0l-.42-.1s.27,0,.61.14c-.23-.12,0-.06.27,0-.14-.06-.25-.09-.22-.1l.24.1h0l.09,0-.1,0c-.12,0,0,0,.1.08.4.1.25,0,.28,0a2.51,2.51,0,0,0,.46.16c-.16-.11.08-.09.11-.15l.1.05a1.38,1.38,0,0,1,.46.05c.18,0,.32.06.34,0h0c-.3-.17.07-.12.1-.19s.13.12.18.12c-.14-.16,0-.09,0-.16s.12.18.28.18,0-.09,0-.16a.69.69,0,0,0,.3.17s-.09,0-.09,0,.06.05.1.16,0-.15.08-.09-.08.1,0,.13.11-.06.07,0,0,.05,0,.1h.08a.29.29,0,0,0,0-.09,1.24,1.24,0,0,1-.1-.26.35.35,0,0,0,.14,0,.37.37,0,0,0,.15,0s.07-.08.1-.08v.15s0-.06,0-.12h.05a.42.42,0,0,0,0,.22c.06,0,.18,0,.08-.2v0l.12.06c.06,0,.11-.11.15-.06,0-.15.12-.21-.06-.3s.3-.08.08-.22c.15,0,.05,0,.19.09s-.07-.2.09-.19l0-.05s-.06,0-.15,0c.13,0,.16,0,.17-.07L44,26a0,0,0,0,1,0,0l0-.1s0,0-.12-.05H44s0,0,0,0l-.15-.07.21,0,0-.12c-.07,0-.12,0-.12-.15.18,0-.08-.18.1-.28-.05,0,.06,0,.11.07l0-.1h0c.12,0,0-.07.06-.11s0,0-.05-.05h.1v0s0,0,0-.07l0-.08c-.07,0-.14.09-.24.07s.14-.06.23-.1l-.27-.05a.18.18,0,0,1,.11-.1c-.08,0-.19,0-.1-.12l0,.1.11-.08-.19-.07c.1-.22.32-.26.53-.32v0l.07,0,.07.06a.14.14,0,0,0,.08-.05.11.11,0,0,0,0-.08c0-.05.29,0,.34.1.06.22-.28.14-.28.31l.2.14-.08,0s.05,0,.07,0,0,.16,0,.24l.1-.06c.33.14-.16.43,0,.56l.22.06-.14.07c.11,0,.24,0,.22.15a.74.74,0,0,0,0,.33.88.88,0,0,0,.12.32,2.17,2.17,0,0,0,.11.22.65.65,0,0,1,0,.24.25.25,0,0,0,0-.09.67.67,0,0,0,0,.19c.09.06.23-.07.34-.17s0-.17.34,0l0,.06c.26,0,0,.06.11.15.08-.2.36-.16.56-.23a.44.44,0,0,1-.16.06c0,.05-.05.17,0,.13a2.37,2.37,0,0,1,1.14-.34c-.13.13,0,.25-.29.47l.51-.25c-.06.09.12,0,.34-.06h-.27l-.06,0v0h-.07c.09-.12.17-.1.41-.25s.41-.05.22.07c.05,0,.08,0,.08,0l.11,0L49,26.6a1.25,1.25,0,0,0,.47-.07l.8-.2a4.86,4.86,0,0,0-.68.35s-.12,0-.34,0a.56.56,0,0,1-.17.09c-.09.07.07,0,.25,0s.4-.08.4,0l-.31.1a2.4,2.4,0,0,0,.64-.16c-.33.13-.46.22-.29.2s.44-.11.28,0l-.23,0c-.38.18.27,0-.07.13.16-.07-.12,0-.21,0s.14,0,.51,0l-.36.08c.1,0,.21.19-.26.27.76-.16,0,.21-.16.31,0,0-.08,0-.14,0s-.11.2-.3.31-.42.22-.56.32l-.34,0c-.11.11.39.3.17.45a.31.31,0,0,0,0-.1,3.52,3.52,0,0,1-.72.49L47.26,29l0,.07v0l0,.08c-.2-.16-.2,0-.17,0s0,.05,0,.06l0,0H47v0l-.08,0h.3s.07,0-.14.08-.12,0-.09.05a.23.23,0,0,1,.09.14s.22.13.24,0a3.29,3.29,0,0,0,.16.77c.07.25.11.48,0,.5.12.23.3.49.46.78a3.56,3.56,0,0,1,.37.82l0-.06c0,.11,0,.3-.44-.19.09.2.3.52.48.84a1.69,1.69,0,0,1,.31.7l-.2-.34s0,0,0,.06,0,.11,0,.14a1.07,1.07,0,0,1-.15-.22c-.23-.27-.05,0-.08,0l-.11-.18c-.27-.3-.35-.32-.47-.32a.68.68,0,0,1-.44-.19s-.08-.2-.14-.29c.11.41-.4,0-.53-.06a.41.41,0,0,0,0-.09c-.11,0-.21-.14-.3-.29s-.16-.29-.28-.26l.2.34c-.13-.16-.23-.17-.18,0-.17-.23-.05-.29-.26-.48,0-.1.16,0,.07-.13s-.16-.28-.22-.41,0-.06-.11-.09,0,.1,0,.12.06.18,0,.2-.1,0,0,.16c-.14-.21.07-.27,0-.36-.07.11-.16-.17-.14.18-.53-.35-.37-.51-.51-.42a.34.34,0,0,0,0-.24c-.06,0-.12.09-.19-.2a.42.42,0,0,0-.1.17.34.34,0,0,0,0,.2s0,0,0,.06a.8.8,0,0,1-.17.15,2.72,2.72,0,0,0,.11-.25c0-.08,0-.16,0-.24a.3.3,0,0,0,0,.1.49.49,0,0,1,0,.11,2,2,0,0,1-.12.25.71.71,0,0,1-.12-.18c-.06.24-.13-.12-.19.18l0,.06c-.2.13-.2.39-.44.61l0-.12c-.06,0-.26.38-.26.15l.15-.12c0-.22,0-.25,0-.34-.14.16-.16.42-.23.5a1.08,1.08,0,0,1,.14-.37,6.75,6.75,0,0,0-.68.84.93.93,0,0,1,0-.1,2.19,2.19,0,0,0-.34.34c-.13.15-.22.28-.22.19l.06-.07c.05-.16-.1,0-.22.13s-.21.2,0-.2c0-.11.12-.06.28-.4,0-.16-.6.79-.6.68s0,0,.1-.13l-.29.25v-.12a1.74,1.74,0,0,0,.34-.68,1.46,1.46,0,0,1,.37-.68c-.21.27-.2.19-.29.27l.09-.09c0-.09-.14.08-.2.12.18-.23-.09-.09,0-.23-.11.1-.06,0,0-.09s.22-.15.37-.23c.12-.24-.39.13-.22-.21l.23-.26c-.27.15-.07-.17-.18-.11a.89.89,0,0,1,.3-.22c0-.08.14-.26,0-.26l-.1.12a.54.54,0,0,0,.07-.41.45.45,0,0,1,0-.2.59.59,0,0,1,.1-.17l.32.07c.18-.13-.13-.19.09-.24-.11,0-.08,0-.18,0s0,.07,0,.11a.59.59,0,0,0-.17-.1l0,.05v.07s0,0,0,0l0,0,0,0-.11,0c-.09-.06.17,0,.05-.06a1,1,0,0,0,.25,0c-.05,0,0,0,.07-.08s.13-.09.08-.09h.07a.16.16,0,0,0-.1,0,.15.15,0,0,0-.09,0v0s-.15,0-.12,0a.57.57,0,0,0-.23.12l.13-.11c-.05,0-.28.22-.19.1l0,0v0h0c.1,0,.16-.21.18-.11.06-.07,0-.1,0-.1l0,0,0,0a.05.05,0,0,1,0,0c-.18,0-.18.18-.3.2,0,0,0-.08,0-.13a.28.28,0,0,0,0,.13.56.56,0,0,0-.2-.11l.15,0a.84.84,0,0,1-.11-.21.47.47,0,0,0-.11-.13.52.52,0,0,0-.16-.06c.11,0,.31,0,.27-.09-.27-.09,0-.05,0-.16-.19-.1-.32.06-.47-.15,0,0-.11,0-.13,0-.1-.13-.35-.21-.37-.34,0,.06,0,.11-.21,0,.22,0,0-.1.07-.14a.59.59,0,0,1,.14,0s-.06,0,0,0,.56.06.54,0h0a2.19,2.19,0,0,0-.67-.11c0-.11-.8-.22-.8-.34s.41,0,.36-.09c-.45-.14-.11.05-.5-.07.33,0,.09-.1-.24-.24S38.67,26.56,38.84,26.56Zm9.84,0h0l.15,0c.05,0,.08-.06,0,0Zm-8,1.18h0a.32.32,0,0,0-.14,0Zm8.44-1.17ZM43.72,26l.09-.13c-.07,0-.16,0-.15-.06C43.44,25.92,43.8,25.8,43.72,26Zm-.22.4c0-.09-.09,0-.12,0S43.43,26.43,43.5,26.39Zm-4.14.71L39.17,27l-.09,0Zm1.72,6,.32-.42S41,33.08,41.08,33.08ZM44,31.2c-.07,0-.15,0-.18.06S44,31.32,44,31.2ZM57.56,42.28a.26.26,0,0,0,.18.07Zm1.91-.37.19.12a.24.24,0,0,1-.09-.08Zm1.35-2.36h-.09Zm-3.14,7.81,0,0s0,0,0-.06S57.66,47.35,57.68,47.36ZM64.76,42l0,0h0Zm0,0h0Zm-9.26.44c.33.15.58.25.24.23.39.13.06-.06.51.08,0,.06-.43,0-.37.08s.77.23.8.34a2,2,0,0,1,.68.12c.05.06-.34.07-.54,0,0,0,0,0,0,0a.48.48,0,0,0-.28-.05l.14,0c-.06,0,.15.18-.08.15.22.08.23,0,.21,0,0,.13.28.2.37.34,0,0,.11-.07.14,0,.15.21.28.06.47.16,0,.1-.32.06,0,.16,0,.11-.15.1-.26.08a.3.3,0,0,1,.15.07.25.25,0,0,1,.11.12.94.94,0,0,0,.12.22l-.15,0a.5.5,0,0,1,.19.1l0-.13c0,.06.1.1.06.13.12,0,.11-.18.3-.19v0l0,0,0,0s0,0,0,.09c0-.09-.09.15-.18.12h0v0l0,0c-.09.12.15-.14.2-.09s-.15.11-.13.1a.57.57,0,0,1,.23-.12c0,.06.1,0,.12,0v0l.09,0,.09,0h-.06c.05,0,0,.05-.08.09s-.13.06-.08.08l-.24,0c.11,0-.15,0,0,.06l.11,0,0,0s0,0,0,.08v-.09l0,0a.7.7,0,0,1,.17.09s-.06-.08,0-.1.06,0,.18,0c-.22,0,.08.11-.1.24L58.41,45a.56.56,0,0,0-.09.17.46.46,0,0,0,0,.2.58.58,0,0,1-.06.41l.1-.12c.13,0,0,.18,0,.26a.81.81,0,0,0-.3.21c.1-.05-.09.26.18.12l-.23.26c-.17.34.34,0,.22.2s-.3.3-.37.23c0,.09-.08.19,0,.09-.12.15.15,0,0,.24.06,0,.23-.21.19-.12l-.08.09c.08-.08.08,0,.29-.27a1.6,1.6,0,0,0-.38.67,1.46,1.46,0,0,1-.34.68.28.28,0,0,1,0,.13l.29-.26c-.06.09-.09.14-.1.13s.62-.83.61-.68c-.17.34-.24.29-.28.4-.26.41-.17.34,0,.2s.27-.29.22-.12l-.06.06c0,.09.1,0,.22-.18a2.19,2.19,0,0,1,.34-.34l0,.1a7.91,7.91,0,0,1,.68-.85c-.11.26-.1.17-.14.37.08-.08.1-.34.23-.49,0,.09.07.12.05.33l-.14.12c0,.23.19-.15.25-.15l0,.12a1.69,1.69,0,0,0,.31-.46c0,.07.15.06.17-.06-.06,0-.14,0-.17.05a.44.44,0,0,1,.14-.13l0-.06c.06-.31.13.06.19-.19l.12.19.12-.25a.28.28,0,0,0,0-.12.36.36,0,0,1,0-.09.89.89,0,0,1,0,.23,1.12,1.12,0,0,1-.11.25.65.65,0,0,0,.18-.15v-.06a.32.32,0,0,1,0-.19.27.27,0,0,1,.1-.17c.07.29.12.2.18.19a.35.35,0,0,1,0,.24c.14-.09,0,.07.51.43,0-.33,0-.12.12-.16s-.16.14,0,.32c-.05-.12,0-.13,0-.16s.07-.06,0-.18a.31.31,0,0,0,0-.12c.07,0,.1,0,.1.08a4.57,4.57,0,0,0,.23.42c.09.15-.08,0-.07.13.21.18.09.24.25.47,0-.18,0-.18.19,0l-.2-.34c.12,0,.18.11.28.27s.19.31.29.28a.42.42,0,0,1,0,.1c.12,0,.63.46.53,0,.05.09.18.3.14.29a.6.6,0,0,0,.44.19c.11,0,.2,0,.47.33l.11.18s-.15-.3.07,0a1.77,1.77,0,0,0,.16.22s-.05-.14,0-.13,0-.07,0-.06l.2.33a1.73,1.73,0,0,0-.31-.69c-.19-.32-.39-.65-.49-.85.42.49.44.31.44.19l.06.06a4.3,4.3,0,0,0-.37-.82c-.17-.28-.34-.55-.46-.78.13,0,.09-.24,0-.49a2.93,2.93,0,0,1-.16-.77c0,.08-.2,0-.24-.06s-.06-.11-.09-.14,0,0,.08,0,.15-.07.15-.09H63l.07,0h.06l0,0s.06,0,0-.05,0-.19.16,0a.19.19,0,0,1,0-.07v0l0-.08.09.13a3.57,3.57,0,0,0,.72-.5.31.31,0,0,1,0,.1c.22-.14-.27-.34-.17-.44l.34,0c.15-.1.37-.2.56-.31s.34-.23.3-.32.18,0,.15,0c.14-.1.92-.48.15-.31.47-.09.36-.24.26-.28l.36-.07c-.37,0-.51.06-.5,0s.37-.12.21-.06c.34-.15-.32,0,.06-.12l.23-.05c.17-.1,0,0-.28,0s0-.06.29-.19a2.08,2.08,0,0,1-.64.16l.31-.1c0-.05-.22,0-.4,0s-.34.07-.24,0a.7.7,0,0,0,.17-.09c.21,0,.37,0,.34,0a3.85,3.85,0,0,1,.86-.37l-.81.21c-.25.06-.44.1-.47.06l.08,0,0,0-.17,0s0,0-.08,0c.19-.12-.13-.06-.22-.07l-.1.06.08,0h0c.11,0,.08,0,0,0h-.13c-.15.08-.22.09-.29.19a.31.31,0,0,0,.11,0h.28c-.22.08-.39.15-.34.06l-.51.25c.25-.21.16-.34.29-.46a2.3,2.3,0,0,0-1.14.34c-.09,0,0-.08,0-.13s.11,0,.16-.07c-.2.08-.48,0-.57.24-.15-.1.15-.19-.11-.16l0-.06c-.3-.14-.24-.06-.34,0s-.26.22-.34.17a.58.58,0,0,1,0-.19.36.36,0,0,1,0,.09A.48.48,0,0,0,62,42c0-.07-.06-.11-.11-.23a.87.87,0,0,1-.11-.65c0-.13-.11-.11-.22-.14l.15-.08-.22-.06c-.19-.13.29-.42,0-.55l-.1.06c0-.08-.14-.22,0-.25,0,0-.12,0-.08,0l.08,0-.2-.14c0-.17.34-.08.28-.3-.05-.07-.31-.15-.36-.1a.13.13,0,0,1,0,.08.1.1,0,0,1-.07,0l-.07-.06-.23.06,0-.07,0,.09a.49.49,0,0,0-.34.26l.18.08-.1.08,0-.1c-.1.09,0,.1.1.12a.27.27,0,0,0-.12.09l.14,0,0,.06s-.07,0-.08.07h.06l-.06.19a0,0,0,0,0,0,0v0l0,0h0l0,.09h0s-.15,0-.1-.08c-.17.1.09.29-.1.28,0,.11,0,.13.09.14l0,.13-.18,0,.16.07,0,0H60c0,.05.06.06.08.05l-.09.27h-.11a.11.11,0,0,0,.11,0l0,.05s0,0,0,.09l0,.09h0c-.14-.07,0-.13-.19-.09.22.14-.11.17-.08.22.19.09,0,.15.06.29,0,0-.09,0-.14.07l-.12-.06,0,0c.1.2,0,.16-.07.2a.54.54,0,0,1,0-.22h0c0,.06,0,.1,0,.12v-.15s0,0-.1.08a.32.32,0,0,1-.14,0,.4.4,0,0,1-.15,0c0,.07.08.17.11.26a.07.07,0,0,0,0,.05h-.07s0-.05,0-.06,0,.06-.07,0,0-.09,0-.13,0,.11-.07.1-.08-.08-.11-.16.08,0,.09,0a.75.75,0,0,1-.3-.17c0,.06.08.15,0,.16s-.14-.13-.28-.18-.16,0,0,.16c0,0-.12-.08-.18-.13s-.39,0-.09.2h0c0,.07-.17,0-.34,0a1.21,1.21,0,0,0-.46,0l-.1,0c0,.06-.28,0-.11.15a2.6,2.6,0,0,1-.47-.16s.13.1-.28,0c-.12-.1-.26-.09-.05-.07-.28,0-.58-.14-.34,0-.34-.14-.64-.18-.61-.14l.42.1H55.5s0,0,0,0l-.59-.2C54.77,42.06,55.22,42.28,55.55,42.43Zm8.91-.28h0l0,0,.1,0Zm-4.66-.71.09-.13c-.07,0-.15,0-.15-.06C59.52,41.37,59.88,41.27,59.8,41.44Zm-.22.41c0-.09-.09,0-.12,0S59.51,41.89,59.58,41.85Zm-3.38.4-.34-.14S56,42.17,56.2,42.25Zm-.76.32-.19-.1-.09,0Zm2,5.55s-.37.42-.32.42ZM25.23,37.33c.08.06.11,0,.17.05Zm2.09-.26L27.23,37l-.1,0Zm1.85,4.6c0,.08-.19.15-.06.36-.05-.13,0-.14.06-.16S29.25,41.81,29.17,41.67Zm-3.83.71,0,0s0,0,0-.06S25.32,42.37,25.34,42.38Zm-2.76-5.31.59.21,0-.05a.29.29,0,0,0,.13,0l-.42-.1s.27,0,.61.14c-.24-.14.06-.05.34,0-.22,0-.08,0,.05.06.41.1.25,0,.28,0a2.38,2.38,0,0,0,.47.17c-.17-.12.07-.09.1-.16l.11.06a1.13,1.13,0,0,1,.45,0c.18,0,.32.06.34,0h0c-.3-.17.07-.12.1-.19s.13.11.18.11c-.13-.16,0-.08,0-.16s.12.19.28.19,0-.1,0-.16a.75.75,0,0,0,.3.17s-.09,0-.09,0,.07,0,.11.16,0-.15.07-.09-.07.09,0,.13.11-.07.07,0,0,.06,0,.1h.07a.22.22,0,0,0,0-.08c0-.09-.11-.19-.11-.26a.4.4,0,0,0,.15,0,.32.32,0,0,0,.14,0s.07-.08.1-.08v.15s0-.06,0-.12h0a.42.42,0,0,0,0,.22c.07,0,.18,0,.07-.21l0,0a.34.34,0,0,0,.12.06c.06,0,.12-.1.15-.06,0-.14.13-.21-.06-.3,0,0,.3-.08.08-.21.16-.05.05,0,.18.09s-.06-.2.11-.19v0s-.06,0-.14,0c.2,0,.15-.09.21-.17l0-.09s-.05,0-.12-.06l0,0h.06v0l-.15-.07h.22l0-.11c-.07,0-.13,0-.13-.15.19,0-.08-.18.1-.29,0,0,.07.05.11.08l0-.1h0c.14,0-.05-.08.08-.13l0,0v0a.22.22,0,0,0-.07-.06l.07,0h0l0,0s0,0,0,0l0-.11c-.07,0-.13.09-.22.07s.14-.06.23-.11l-.27,0a.18.18,0,0,1,.11-.1c-.08,0-.19,0-.1-.12l0,.1L28,35l-.19-.07c.09-.22.3-.27.51-.31v0h.11l.07.06a.18.18,0,0,0,.11-.13c0-.05.3,0,.36.1.05.22-.29.13-.29.3l.21.14-.08,0s.05,0,.07,0c-.14,0,0,.17,0,.25l.1-.06c.32.13-.16.42,0,.55l.22.06L29.1,36c.12,0,.23,0,.23.14a.82.82,0,0,0,.1.65c.05.12.09.16.11.23a.39.39,0,0,1,0,.24.41.41,0,0,0,.05-.09.41.41,0,0,0-.05.19c.08.05.23-.07.34-.17s.05-.18.34,0l0,.06c.26,0,0,.06.12.15.08-.2.36-.15.56-.23a.77.77,0,0,1-.16.07s-.06.17,0,.13A2.41,2.41,0,0,1,31.89,37c-.13.13-.05.25-.3.47l.52-.25c-.06.08.11,0,.34-.06h-.28l-.12,0c.09-.13.17-.11.41-.26.1,0,.42,0,.23.07.05,0,.07,0,.07,0l.12,0a.18.18,0,0,0-.07,0s.21,0,.47-.08l.8-.2a4.34,4.34,0,0,0-.86.36s-.12,0-.34,0a.56.56,0,0,1-.17.09c-.1.08.06,0,.24,0s.4-.08.4,0l-.3.1a2.32,2.32,0,0,0,.63-.15c-.32.12-.45.21-.28.19s.44-.11.27,0l-.23,0c-.37.17.28,0-.06.13.16-.07-.12,0-.21,0s.14,0,.5,0l-.36.07c.11,0,.21.2-.26.28.77-.17,0,.21-.15.31,0,0-.09,0-.15,0s-.1.21-.3.32-.41.21-.55.31l-.34,0c-.11.1.38.3.17.44l-.06-.1a3.08,3.08,0,0,1-.72.5l-.09-.13a.22.22,0,0,1,0,.08v0a.09.09,0,0,0,0,.07c-.2-.15-.2,0-.17,0s0,0-.14.09h.31s.06,0-.15.08-.11,0-.08,0a.26.26,0,0,1,.09.14c0,.06.21.13.24.06a2.93,2.93,0,0,0,.16.77c.07.24.11.47,0,.49.12.23.29.5.46.78a4,4,0,0,1,.37.82l-.06-.06c0,.11,0,.3-.44-.19.1.2.31.52.49.84a1.84,1.84,0,0,1,.31.7l-.2-.34s0,0,0,.07,0,.1,0,.13a1.25,1.25,0,0,1-.16-.22c-.22-.26,0,0-.07,0l-.11-.18c-.27-.32-.36-.34-.47-.34a.69.69,0,0,1-.45-.2c.05,0-.08-.2-.13-.29.1.42-.41,0-.53,0a.3.3,0,0,0,0-.1c-.11,0-.21-.13-.3-.28s-.15-.29-.27-.27l.2.34c-.14-.15-.23-.16-.19,0-.16-.23,0-.29-.25-.47,0-.1.16,0,.07-.13a4.57,4.57,0,0,1-.23-.42s0,0-.1-.08c-.06.37-.21-.13-.18.3-.53-.35-.37-.51-.51-.42a.34.34,0,0,0-.05-.24c-.06,0-.11.09-.18-.2a.33.33,0,0,0-.1.17.34.34,0,0,0,0,.2s0,0,0-.07a.15.15,0,0,1,0,.13,1.22,1.22,0,0,1-.17.15,2,2,0,0,0,.11-.26V41a.36.36,0,0,0,0,.09.56.56,0,0,1,0,.12,1.84,1.84,0,0,1-.13.25,1.74,1.74,0,0,1-.11-.18c-.07.24-.13-.12-.19.18l0,.06c-.2.13-.2.39-.45.61l0-.13c-.06,0-.26.39-.26.15l.15-.11c0-.22-.05-.25-.05-.34-.14.16-.16.41-.24.5a1.3,1.3,0,0,1,.15-.37,6.09,6.09,0,0,0-.68.84.89.89,0,0,1,.05-.1,1.67,1.67,0,0,0-.34.36c-.13.15-.23.27-.23.19l.07-.07c0-.17-.1,0-.22.12s-.21.21,0-.2c0-.11.12-.06.28-.4,0-.15-.6.8-.6.68s0,0,.1-.12l-.29.25v-.12a1.62,1.62,0,0,0,.34-.68,1.64,1.64,0,0,1,.38-.68c-.22.27-.21.19-.29.27a.36.36,0,0,0,.08-.09c0-.09-.14.09-.2.13.18-.24-.08-.09,0-.24-.11.1-.05,0,0-.09s.21-.15.36-.23c.12-.24-.39.13-.22-.21l.24-.26c-.27.15-.08-.17-.18-.11a.77.77,0,0,1,.29-.22c0-.08.14-.26,0-.26l-.1.12a.57.57,0,0,0,.07-.4.45.45,0,0,1,0-.2A.52.52,0,0,1,26,40l.32.08c.18-.14-.13-.2.09-.25h-.09l-.09,0s0,.07,0,.11a1,1,0,0,0-.17-.1l0,0v.09l0,0,0,0h0l-.11,0c-.1-.06.17,0,.05-.06.05,0,.17,0,.24,0s0,0,.08-.08.12-.09.08-.09h.15l-.09,0-.09,0v0s-.16,0-.12,0a.58.58,0,0,0-.23.13s0,0,.13-.11-.29.22-.2.09l0,0v0h0c.09,0,.15-.21.18-.12.06-.06.05-.09,0-.09l0,0s-.05,0-.05-.06c-.18,0-.18.18-.29.2s0-.08-.06-.14a.74.74,0,0,0,0,.14.49.49,0,0,0-.2-.11l.16,0a1.19,1.19,0,0,1-.12-.22.35.35,0,0,0-.11-.13.31.31,0,0,0-.16-.06c.12,0,.31,0,.27-.09-.27-.09,0,0,.05-.16-.19-.1-.33.06-.48-.15,0,0-.11,0-.13,0-.09-.14-.35-.21-.37-.34,0,0,0,.1-.21,0,.22,0,0-.1.08-.14a.3.3,0,0,1,.13,0s-.06,0,0,0c.2.08.59.06.54,0a2,2,0,0,0-.68-.11c0-.12-.8-.22-.8-.34s.41,0,.36-.1c-.44-.13-.11.06-.5-.07.33,0,.09-.09-.24-.23S22.4,37.07,22.58,37.07Zm9.87,0,.14,0s.08-.06,0,0L32.4,37Zm-8.06,1.19h0c-.05,0-.09,0-.14,0ZM32.88,37Zm-.76.17h0l0,0,.1,0Zm-4.66-.72.09-.13c-.07,0-.16,0-.15-.05C27.18,36.41,27.54,36.29,27.46,36.47Zm-.23.41c0-.08-.08,0-.11,0S27.17,36.92,27.23,36.88Zm-3.72.27s.06,0,.18.07Zm-.41.45-.19-.1-.09,0Zm1.72,6,.32-.41S24.77,43.58,24.82,43.57Zm2.9-1.88c-.07,0-.15,0-.18.06S27.7,41.82,27.72,41.69Z" fill="#161614"/>
  <path class="mapIcon__innerRing" d="M44,8.31A35.71,35.71,0,1,1,18.77,18.77,35.7,35.7,0,0,1,44,8.31ZM44,6A38,38,0,1,0,58.55,8.87,38.12,38.12,0,0,0,44,6Z" fill="#161614"/>
  <path class="mapIcon__outerRing" d="M24.65,8,23.17,5.24A43.31,43.31,0,0,1,41.91.05l.15,3.12A40.35,40.35,0,0,0,24.65,8ZM5.79,29.43,2.88,28.32A44,44,0,0,1,21.42,6.22L23,8.9a41.24,41.24,0,0,0-12.75,12A40.72,40.72,0,0,0,5.79,29.43ZM2.92,59.79A43.72,43.72,0,0,1,0,44H3.12A40.89,40.89,0,0,0,5.84,58.67Zm6.15,11A43.89,43.89,0,0,1,3.6,61.43l2.86-1.24a41,41,0,0,0,5.1,8.67ZM44,88A43.95,43.95,0,0,1,10.75,72.82l2.36-2A40.86,40.86,0,0,0,44,84.88Zm3.48-.14-.25-3.11a41.87,41.87,0,0,0,5-.69l.62,3.06A46,46,0,0,1,47.48,87.86Zm12-2.64-1.1-2.92A41.82,41.82,0,0,0,63.47,80c.58-.31,1.17-.65,1.75-1a40.6,40.6,0,0,0,8.92-7.34l2.31,2.11a43.92,43.92,0,0,1-9.61,7.9c-.62.38-1.26.74-1.89,1.08A44.44,44.44,0,0,1,59.43,85.22ZM78.5,71.31l-2.44-1.94c.59-.75,1.16-1.53,1.69-2.32a40.7,40.7,0,0,0,7.13-23c0-.84,0-1.7-.08-2.53a40.64,40.64,0,0,0-3.54-14.3l2.85-1.29a43.69,43.69,0,0,1,3.8,15.4c.06.9.09,1.82.09,2.72a43.77,43.77,0,0,1-7.67,24.81C79.76,69.66,79.14,70.5,78.5,71.31ZM77.23,20.19A41.8,41.8,0,0,0,74,16.25,41,41,0,0,0,44,3.12V0A44,44,0,0,1,79.77,18.37Z" fill="#161614"/>
</svg>
