<svg class="mapIcon" xmlns="http://www.w3.org/2000/svg" viewBox="0 0 88 88">
  <path d="M80.39,49.91A36.86,36.86,0,1,0,38.1,80.39,36.85,36.85,0,0,0,80.39,49.91Z" style="fill: #7fb48d"/>
  <path d="M63.33,61.78s-.07-.08,0-.08S63.33,61.73,63.33,61.78Zm.05-6.85c.08,0,.06-.1.07-.18Zm1-10h0a.24.24,0,0,0-.06-.11A.29.29,0,0,0,64.34,45ZM55,63a.05.05,0,0,1,.05,0A.09.09,0,0,0,55,63Zm.05,0h0Zm0,0Zm-1.93,0h.06l-.1,0ZM24.79,51.57a.59.59,0,0,1,.17-.1C24.82,51.51,24.77,51.2,24.79,51.57ZM64.3,45l0,0V45s0,0,0,0h0ZM63.17,64.21h0ZM26.11,59.43s0,0,0,.06A.06.06,0,0,0,26.11,59.43Zm37.33-13h0v0Zm-38.62-3h0ZM64.07,61.15l.09.17C64.17,61.23,64.18,61.15,64.07,61.15ZM64.37,44v-.05h0Zm0-.11s0-.1,0-.12Zm.08,1.62h-.06c.1.05-.17.31,0,.41C64.31,45.78,64.46,45.61,64.42,45.47Zm-1,2.27.05-.37c-.07.06-.17.15-.19,0C63.08,47.82,63.47,47.25,63.44,47.74Zm-.26,1.16c.07.12.08.16.15,0S63.22,48.9,63.18,48.9Zm.15,8.37-.18,0C63.18,57.41,63.22,57.26,63.33,57.27Zm.91,1.6.11-.15-.16-.07Zm-1.26,1,0-.07L63,60ZM53.5,63.05c.1,0,.12-.28,0-.22ZM29.18,62.7l.12-.08-.23.07ZM39.32,61s0,.05,0,.05,0,0,0,0Zm10.57.86c.07,0,.3.18.41,0C50.13,62.05,50.08,61.7,49.89,61.9ZM40.38,51.33h0a.12.12,0,0,0-.06-.06l0,0h-.08c.05,0,.08,0,.09,0ZM48.7,54l0,0v0Zm-4.33,8.63-.13-.08a.28.28,0,0,0,.11.13S44.36,62.61,44.37,62.59ZM40.2,50.71h0Zm8.35.14s0,0,0,0Zm-1.13-1.47,0,0h0l0,0Zm1.19,4.15v0h0ZM40.1,60.72l.1.1C40.21,60.76,40.21,60.72,40.1,60.72Zm.08.17a.17.17,0,0,0,0,.07.11.11,0,0,0,0-.07.09.09,0,0,0,0-.07A.15.15,0,0,0,40.18,60.89Zm.27-9.26H40.4c.11,0-.17.18,0,.24S40.5,51.72,40.45,51.63Zm-1,1.32.05-.22c-.07,0-.17.09-.19,0C39.11,53,39.51,52.67,39.48,53Zm-.11.67c0-.11-.11,0-.16,0S39.3,53.71,39.37,53.62Zm-.18,4.85c0,.09.06,0,.18,0Zm1,.8.05.13.11-.09ZM39,59.91l.07.15L39,60Zm11.44-5.34-.06-.13,0,.06ZM25.74,28.91a.33.33,0,0,0,0-.14.53.53,0,0,1,0,.13ZM67.24,36c0,.25-.1.11-.24,0l-.23-.29v0s0,.08.08.34h0c.33.22.12.22,0,.22s0,.08,0,.12l.2.09h-.17a.52.52,0,0,1,0,.11c0,.85-.37.18-.44.76l.2.75h-.11c-.08.12,0,.19.07.22-.16-.05,0,.61-.08.92l.14-.11a1.32,1.32,0,0,1,.08.55,1.29,1.29,0,0,1-.15.54c-.06.16-.12.3-.19.47a3.07,3.07,0,0,0-.14.52,2.43,2.43,0,0,1-.05.6l-.23,0c0,.16,0,.29-.1.4a.74.74,0,0,1-.37.39,5.2,5.2,0,0,1-1.43.51v0H64a.1.1,0,0,0,0,0l0,.06a.22.22,0,0,0,0,.08c.26.14.16.17.39.31a.51.51,0,0,1-.3,0,.45.45,0,0,1-.22-.19s.1.06.15,0a.57.57,0,0,1-.08-.13.26.26,0,0,1,0-.15h0a5.7,5.7,0,0,1-1,.07,3.47,3.47,0,0,1-1.33-.43,2.71,2.71,0,0,1-1-1s0,.1,0,.21c-.14-.4-.27-.72-.39-1,0-.07-.06-.16-.08-.2l-.07-.13a1.88,1.88,0,0,0-.12-.18.61.61,0,0,0-.31-.13.68.68,0,0,1-.36-.22.7.7,0,0,0,0-.14c-.17.06-.15,0-.14,0s0-.2-.14-.22a1.68,1.68,0,0,1-.08.54,1.48,1.48,0,0,0,0,.42c0-.06,0-.12,0-.21s-.18-.12-.17,0a1.58,1.58,0,0,1,.13.34v.11a.33.33,0,0,1,0,.14c0,.1,0,.2-.06.3a3.61,3.61,0,0,1-.64,1.19,2.65,2.65,0,0,0-.54.13,1.32,1.32,0,0,1-.71,0c0,.08-.11.25-.2.42a.8.8,0,0,0-.34.05.79.79,0,0,0-.29.18,4.44,4.44,0,0,0,.6-.16v0l.1-.05c.15-.06.23-.1.19-.1.36,0,0,.12.12.29-.26.11-.79.31-.87.17a1.62,1.62,0,0,1-.44,0,.66.66,0,0,1-.34,0l0,0s0,0-.06-.06a2,2,0,0,0-.43,0,3.62,3.62,0,0,0-.47,0,4.4,4.4,0,0,1-.88-.1c.51,0,0-.3.13-.45a2.64,2.64,0,0,0,1,.44.1.1,0,0,1,0-.06.17.17,0,0,1,0-.07,1.2,1.2,0,0,0-.34-.17L54,42.92a1.56,1.56,0,0,1-.8-.51c.05,0,.17.06.17,0a.78.78,0,0,0-.24-.2.91.91,0,0,0-.31-.09.74.74,0,0,0-.07-.43,2.3,2.3,0,0,0-.24-.5c-.22-.18-.3-.13-.39-.6a1.21,1.21,0,0,0,.24.21c0-.53-.27-.51-.18-.71-.05.1.08.09.1,0a.24.24,0,0,0-.09-.13.2.2,0,0,0-.15,0l-.09,0s-.16.21-.24.1c.13.08.17.15.17.18v.06a0,0,0,0,0,0,0c0,.07,0,.18,0,.28s-.1.36-.14.47a.19.19,0,0,0-.08-.24,2,2,0,0,1-.54,1.39,4.41,4.41,0,0,1-1.17.93l-.27-.18a1.15,1.15,0,0,0-.41.49.84.84,0,0,1-.22.27.66.66,0,0,1-.35.16l.18-.17a3.19,3.19,0,0,1-1.23.07,3.41,3.41,0,0,1-1-.34l.1-.17a4.07,4.07,0,0,1-.9-.34c-.12-.39-.62-.77-1-1.41l-.11-.21-.06-.13a.31.31,0,0,1,0-.13,3.75,3.75,0,0,1,.09-.55c-.09.18-.16.36-.24.55v0h0l0,0-.05,0a3,3,0,0,1-.09-.41h0c0-.28-.05-.28-.09-.21s-.08.19-.13.17a1,1,0,0,0,.13.49s-.09,0-.09,0a.19.19,0,0,0,0,.08l-.12.27a2.22,2.22,0,0,1-1.2,1.21,4.18,4.18,0,0,1-1.39,1,2.68,2.68,0,0,1-.88.2,2.51,2.51,0,0,1-1-.11l0,0a2.57,2.57,0,0,1-.77-.44c-.22-.19-.33-.41-.24-.53a6.16,6.16,0,0,1-1-.71,2.29,2.29,0,0,1-.41-.52l-.08-.15,0-.08a.14.14,0,0,1,0-.09l.11,0a.06.06,0,0,0,0-.06L37.08,41h0l0,0,.09-.13c.07-.2-.06,0-.1,0l.08-.14c0-.14,0-.26-.13-.26a.23.23,0,0,0-.14,0,.24.24,0,0,0-.1.1.52.52,0,0,0-.08.34.67.67,0,0,1,0,.2.37.37,0,0,0-.16-.17l.13.23,0,.17a2.3,2.3,0,0,1-.12.34,5.55,5.55,0,0,1-.66,1c.05-.13.08-.24.12-.34a1,1,0,0,1-.71.56,1.64,1.64,0,0,0-.81.38,4,4,0,0,0,.59-.07c-.38.15-.68.32-.54.43-.25,0-.28,0-.34-.07s-.15,0-.49,0c0-.08.47-.16.23-.23a3.12,3.12,0,0,1-.91-.17s0,0,0,0c.29.11.19.17,0,.22s-.33.09-.12.19c-.26-.08-.22-.16-.13-.23s.24-.14.21-.18a2.18,2.18,0,0,0-.35,0c0,.21-.19.19-.32.16s-.22-.06,0,.2a3.05,3.05,0,0,1-1.58-1,8.12,8.12,0,0,1-1-1.38.54.54,0,0,0,.1-.16.55.55,0,0,0,0-.18,2.85,2.85,0,0,0,0-.41,1.3,1.3,0,0,1,0-.73.43.43,0,0,0-.26-.09.39.39,0,0,0-.26.09A.68.68,0,0,0,29,40a.75.75,0,0,0,0,.33s.07-.13.12-.21c0,.28-.19.53-.19.64a2.09,2.09,0,0,1,.21-1.2,1,1,0,0,0-.24.29.88.88,0,0,0-.1.36,1.46,1.46,0,0,0,0,.55,1.24,1.24,0,0,0-.23-.17c.12.42-.22.1-.12.59l.11,0a5.24,5.24,0,0,0-.3.78,1.43,1.43,0,0,1-.43.7l0-.1a2.65,2.65,0,0,0-.34.33.55.55,0,0,1-.2.15A.43.43,0,0,1,27,43a3.87,3.87,0,0,0,.43-.27c-.14-.12-.49,0-.68,0-.43.23,0,.35-.28.47-.17-.14-.05-.08.06-.31l-.27.11a.77.77,0,0,1,.07.17c0,.56-.38.12-.46.5l.19.5h-.11c-.08.08.05.13.07.15-.16,0-.05.41-.08.61l.14-.08c.34.57-.35.9-.18,1.35l.25.31-.21.07c.12.18.28.22.21.52-.37,1.06.08,2.21-.15,3.28,0,0,.06,0,.09-.11-.52.95.54,1.48.13,2.33l-.08-.06c0,.44-.08,0-.19.26.25.06.2.55.29.8-.05,0-.05-.12-.08-.2s-.21.07-.17.2c.37.27.33.87.44,1.31-.17.05-.31.43-.59.63a2.32,2.32,0,0,0,.32.2c-.11.16,0,.28.07.39v-.35a.06.06,0,0,0,0,0l0,0,0,0c0-.07,0-.11,0-.09.16-.18.13,0,.33,0,0,.14.06.44-.09.48a1,1,0,0,1-.05.23l0,.09a.28.28,0,0,1,0,.09l0,0-.06,0c-.08.28.21.67.34.91-.24-.23-.28.06-.45.06,0-.21,0-.42,0-.62l-.05,0h-.07c-.19.3.17.53,0,1,0,0-.07-.09-.13-.07A.31.31,0,0,0,26,58a.26.26,0,0,0,.16.13.49.49,0,0,0-.21.24.47.47,0,0,0,0,.31c.15.15.2.13.2.4L26,59c-.09.29.12.28.09.46,0,0-.09,0-.11,0,.07.33.14.34.38.57l-.19,0c.12.28.35.82.09.82.4-.09.2.62.2.86a.14.14,0,0,0-.14-.11,1.32,1.32,0,0,1,.11.78v.13l0,.06a.57.57,0,0,0,0,.14l-.29.22c0,.09.2,0,.37-.16l.16-.15.07-.06-.13.14.13,0-.1.07h.09l.16,0v.19c.16-.09.34-.09.5-.18.35.48,1.39-.25,2,.28l0-.36c.25,0,.57-.07.68.21H30c0,.27.25,0,.4.06s.23-.21.13-.26c.68.2,1.63,0,2,.33a7.23,7.23,0,0,1,1.85-.37v0c.24,0,.71.14.71.45.51-.06.83-.48,1.44-.34l-.13.11c.15.06.41-.13.46-.12s0,.07,0,.11.22-.06.34-.09l-.05.11c.38.16.93-.06,1.45-.13,0,0,0,0,0-.06l0,.05h.08c.08-.21.23-.48.1-.59.07,0,.2.15.28,0-.1-.21.07-.05.2-.17,0-.2-.29,0-.19-.34,0,0-.1,0-.15,0,.09-.21,0-.32.09-.52,0,.08-.1.15-.18,0,.14.05.13-.16.21-.24L39,61c.09-.07.12,0,.15.05s0,0,0,.06.38.06.41-.1-.3-.14-.38-.11c.09-.23-.38-.21-.25-.43,0,0,.33-.22.36-.38-.19-.08-.14.2-.3.11.48-.26-.28-.54,0-.88l.23,0a.53.53,0,0,0,0-.25l-.12.12c-.06-.08,0-.27.16-.21-.17-.18-.06-.22,0-.39,0,.18,0,0,.09.14.13-.2,0-.21,0-.34.08,0,.2,0,.2-.1s-.11-.32-.19-.49h.07c-.08-.26.14-.53.06-.78,0,0,0,.09-.07.09l.06-.1s0-.06,0-.09v0c-.22.1-.16-.22-.24-.31s.14,0,.14-.08c-.2,0-.1-.11-.2-.15.08-.1.24,0,.24-.15s-.12-.07-.2-.07a.38.38,0,0,0,.13-.09.64.64,0,0,0,.08-.14c.05,0,0,.07,0,.09s.06,0,.2,0-.19,0-.12-.13l.16.09s0-.09,0-.11.21,0,.3,0c-.12-.23-.43-.06-.61-.06.13-.21-.1-.38-.1-.55l.19,0a.31.31,0,0,0,0-.1h0l0,0,0,0h0l0,0h0v-.1a.22.22,0,0,0,.13.08.37.37,0,0,0,.15,0c-.05-.14,0-.33-.26-.36h0c.09-.18.15-.54.23-.54s0-.29-.05-.38-.21,0-.21-.05h.07c-.06-.11.32-.3,0-.38.17-.14.07,0,.26,0,.17-.13-.26-.27.1-.31-.11-.16-.07,0-.23,0,.34,0,.05-.3.24-.45-.13-.06-.08.07-.22,0a.09.09,0,0,0,.11-.09l-.22,0,.52-.15c-.24-.22-.36.05-.45-.25v0c.22-.09-.16-.22,0-.43,0,.07.1,0,.17,0l-.09-.12h.05c.16-.11-.09-.09.06-.22,0,.09.2.06.27,0l-.23-.18.29.08c0-.18-.44-.43,0-.52l0,.09c.06,0,.22,0,.15-.15s-.06,0-.09,0h0l0,0,0,0h0c-.23-.22-.16-.53-.14-.84l0,0v0l.06,0a.2.2,0,0,0,0-.11.23.23,0,0,0-.1-.07c0-.07.18-.35.3-.39.33,0,.07.37.3.45l.28-.18v.1c0,.08.09,0,.09-.07,0,.17.22.05.34.08l0-.14c.32-.33.51.36.78.18l.18-.24,0,.21c.1-.13.12-.29.3-.22.61.37,1.27-.08,1.9.15,0,0,0,0-.06-.08.55.52.86-.54,1.35-.13l0,.07c.25,0,0,.08.15.2,0-.26.32-.2.46-.29,0,0-.07,0-.11.08s0,.21.11.16c.16-.36.5-.33.76-.43,0,.16.25.31.36.58a2.93,2.93,0,0,0,.12-.31c.09.1.16,0,.23-.08h-.24a.09.09,0,0,0-.08,0c-.1-.18,0-.15,0-.34.09,0,.26-.06.28.09a.24.24,0,0,1,.14,0s0,0,0,0h.06l0,0s0,0,0,.06.39-.2.53-.34c-.13.25,0,.28.05.46a1.2,1.2,0,0,0-.38,0,.15.15,0,0,1,0,.11c.09.1.16,0,.25,0l.21-.06a.58.58,0,0,1,.23,0s-.05,0-.06.06a.19.19,0,0,0,0,.07c.1,0,.26-.09.34-.2a.16.16,0,0,0,0,.12.25.25,0,0,0,.08.1.21.21,0,0,0,.12,0,.17.17,0,0,0,.12,0c.21-.15.25-.2.47-.2l-.2.12c.12.08.26,0,.38-.09s0,.06,0,.15c0-.14-.08,0-.1.07s.13.14.38.21l-.2.08a1.41,1.41,0,0,1,.19.39c0,.16,0,.31-.1.34.2-.1.26.05.26.26V51l0,.09,0,.15c0-.06-.09-.06-.13-.06.25.3,0,.6,0,.9l-.3.05c0,.16.58.2.58.38l-.14-.06a1.57,1.57,0,0,1,0,.68h-.2c.1.08.1.2.19.29-.48.2.24.8-.28,1.17l.36,0c0,.14.07.32-.21.39v0c-.28,0,0,.15-.07.23s.21.14.27.08c-.2.38,0,.94-.34,1.17.12.39.41.66.38,1.07h0c0,.14-.15.41-.45.41.05.3.48.5.34.83l-.12-.07c-.06.09.13.24.12.27s-.06,0-.11,0,.07.13.1.2l-.11,0c-.21.28.2.72.15,1.08,0-.06-.14,0-.19,0,.34.15.26.55.34.7l-.13-.09c.22.29-.36.25-.14.55l.2-.17c-.06.12,0,.22.16.19-.11.14-.26,0-.29.22-.1,0-.07-.15-.19-.08l-.26.29s0,0,0,.14c.44,0,0,.24.44.09v.15l0,.19c0,.16-.05.31-.07.46a1.27,1.27,0,0,0,0,.2c.29-.05.55-.25.74-.12l-.06,0c.28.27.74-.25.8.2.13.09-.31,0-.09.21.42.14.28-.38.65-.25,0,0,0,0,0,.05.31,0,.62-.05.93-.1.37.37,1.13-.09,1.55.34-.13-.15.11-.18.11-.25a.08.08,0,0,0,0,0,0,0,0,0,0,0,0c.15,0,.17-.13.23-.19.12.13.42-.14.5,0,0-.1.13-.07.27-.07-.28.1-.09.19-.22.34.42.05.48-.41.9-.34l.24.18c.05-.26.43-.16.43-.26.08.08.17.13.17.27.16-.07.43.07.5-.09L57.55,63c.53.1.84-.29,1.25-.11v.41c.27.17.5-.22.73,0-.08-.13-.1-.09.08-.23-.11,0-.3.08-.47.08l.37-.24-.57.12c.25-.16.22-.12.13-.29.36-.13.36.2.7,0,.13,0,0,.2.13.28.29-.14.56.3.77.08.07,0-.11,0-.11.11.19,0,.33,0,.38-.15l-.16,0c.14,0,.17-.16.44-.06.16-.09.25-.3.07-.3.07,0,.23.08.17.21.43,0,.2-.44.61-.24,0,0,0,0,0,0a.39.39,0,0,0,.26,0c-.36,0,.11.33-.31.26,0,.21.32,0,.45.13.22-.15,0-.32.13-.42l0,.05,0,0a.94.94,0,0,1,0-.16s0,0,0,0a.09.09,0,0,1,0,.07.74.74,0,0,0,.12.13c.05.06.14.08.11,0s.06.2.23.29,0,0,.07,0,.13.15.22.15c0-.28-.3-.27-.2-.48,0,0-.09,0-.13,0a.28.28,0,0,0,0-.18,1.09,1.09,0,0,1,.06-.44c0,.15-.1.27-.18.06.14.09.13-.29.21-.42l-.08,0c.09-.11.12,0,.15.1s-.05,0-.05.09.38.11.42-.16-.3-.25-.38-.2c.09-.4-.38-.37-.25-.74,0-.08.33-.37.36-.64-.19-.14-.14.33-.3.18.47-.45-.28-.93,0-1.53l.23.08a1.55,1.55,0,0,0,0-.43l-.13.2c-.05-.12,0-.44.17-.34-.18-.34-.07-.39,0-.68,0,.31,0,0,.09.23.13-.32,0-.35,0-.57.08,0,.2-.08.2-.17s-.11-.56-.19-.86h.07c-.09-.49.23-1,0-1.51h0c-.22.17-.15-.38-.24-.53s.15,0,.15-.13c-.2,0-.11-.2-.2-.27.07-.17.23,0,.23-.27,0-.11-.12-.11-.2-.11a.63.63,0,0,0,.21-.4c.06.05,0,.14,0,.17s.07-.08.21-.08-.19-.06-.12-.23l.16.16c0-.07,0-.15,0-.19s.2.07.3.07c-.12-.39-.44-.07-.61-.09.12-.38-.1-.67-.1-1l.19.06a.3.3,0,0,0,0-.15.35.35,0,0,0-.1-.11v0l-.07-.07.07,0v-.14a.24.24,0,0,0,.11.13.25.25,0,0,0,.16,0c0-.23,0-.56-.25-.61h0c.09-.31.14-1,.23-.94-.07-.28,0-.61-.11-.72s-.19,0-.19-.08h.1c0-.2.3-.48,0-.61.16-.24.07,0,.25.06.17-.24-.26-.48.11-.56-.11-.27-.08.07-.24,0,.34-.06,0-.52.25-.77-.14-.12-.09.12-.23-.09.08,0,.11-.08.11-.13l-.21-.06.52-.26c-.25-.38-.36.06-.46-.41.19-.15-.17-.37,0-.74,0,.13.1.05.16.09l-.09-.2s0,0,.05,0c.16-.19-.08-.16.06-.38,0,.15.2.11.28,0l-.24-.3L64,45c0-.3-.44-.74-.05-.89l.05.15c.07,0,.28-.1.13-.3s-.19-.11-.19,0l.07-.15c.18.07.23.45.29.68-.08-.07-.14-.25-.26-.2.06.21.19.4.25.6a.92.92,0,0,0-.27-.16c-.1.22.15.16.15.33s-.13.11-.19.07a.63.63,0,0,1,.07.3.67.67,0,0,1-.07.31s-.14-.26-.25-.12c.12.42.35.5.48.94.31.51-.2,1,0,1.36.09,0,.15-.27.21,0-.18,0-.11.16-.18.16.25.25-.06.37.11.55-.06-.05-.12.1-.18.2-.21,0-.08.28-.38-.09.31.38-.08.67.4.95l.06-.09-.1.38a.48.48,0,0,1,0,.23.49.49,0,0,1-.14.18c-.06-.11-.06-.24-.11-.34-.17.2.17.42.17.65-.16,0-.06-.24-.24-.17s.09.3.13.45l-.09,0c-.2.4.42.16.14.45a.38.38,0,0,0,.15,0c-.08.11-.24.36-.34.11a.45.45,0,0,0,0,.2.48.48,0,0,0,.12.16c.13-.11.07-.14.23-.18l.08.55c0,.07-.08,0-.08-.12-.45.65.38,1.32-.16,2,.14-.08.12.06.22.13a5.71,5.71,0,0,1-.09.82L64,55a4.09,4.09,0,0,1,.21,1.33s-.14,0-.17-.07c.18.27-.36.6,0,.68l0-.1a9.52,9.52,0,0,0,.25,1.72c-.21.13,0-.33-.28-.21-.09.39.1.78,0,1.21,0-.07,0,0-.06-.08-.16.42.22,0,.18.31-.1,0-.13,0-.19.12l.18.1h-.11A.21.21,0,0,1,64,60c.23.16.07.64.29.76,0,0-.26,0-.34,0a.49.49,0,0,0,0,.24.36.36,0,0,0,.11.21c-.16.13-.13.46-.16.39-.08.35.12.06.26.32l.1-.28,0,.49-.1-.19a.47.47,0,0,0,0,.33,1.32,1.32,0,0,1,.08.44l.12-.17.08.48c-.26,0-.06.56-.36.19a2.45,2.45,0,0,0,0,.81,3.73,3.73,0,0,1-1,.2s0-.06,0-.09a1.06,1.06,0,0,0-.53,0,1,1,0,0,0-.28.17c0-.08.1-.11.1-.17-.34,0-.21.14-.59.22.11-.11.08-.16,0-.19s-.07.16-.14.19c.29-.52-.42-.21-.24-.62,0,.11-.61.33-.44.54l.1,0c0,.14-.12.1-.23.1.05,0,.11-.06.11-.09-.53.17-1.09,0-1.7.14.06,0,.3-.14.14-.18-.59-.08-.94.19-1.54.32,0-.33.65,0,.67-.36a16.88,16.88,0,0,0-2,.34c-.25-.48-.69.2-1.13-.18,0,.16-.18.23-.41.23.08-.14-.17-.14-.1-.23-.21.15-.81.2-.79-.11,0,.3-.44,0-.62.2-.26-.11-.55.07-.89,0,.12.19-.33.09-.45.17,0,0,.09,0,.09-.06s-.38.14-.57,0,0-.19-.11-.19-.5.29-.68.13c.08,0,.09-.07.14-.12-.89.22-1.82,0-2.72.22l.16-.23c-.56-.29-.37.38-.81.34A17.6,17.6,0,0,0,44,64.42c-.09.07.06.09.06.18s-.13-.22-.27-.1l0,.12c-.54-.33-1.56.23-2-.29a2.7,2.7,0,0,1-1,0h0a1.4,1.4,0,0,0-.49.12c-.14-.07,0-.15,0-.19a.05.05,0,0,1,0,0h-.06l-.59.19,0,0a1.25,1.25,0,0,1-1,0h0a1.89,1.89,0,0,0-1.18-.12l0,0c0-.09-.13-.19-.24-.16s0,.09.1.16a5.32,5.32,0,0,1-1.26.18c.21-.12-.2-.11-.22-.28-.13.11.07.18-.22.27a4.94,4.94,0,0,1-1.14-.19c-.15.15-.34.11-.34.31-.47,0-.73.08-1.3.08v-.06c-.15.22-.5-.15-.61,0,0-.09.07-.13.07-.19l-.27.07c.13-.08.2-.31,0-.34-.22.17.06.12,0,.26l-.07-.22a.15.15,0,0,0-.09.06.15.15,0,0,0,0,.11.14.14,0,0,0,0,.1.15.15,0,0,0,.09.06c-.58,0-1.15.11-1.66.07l.06-.14a1.28,1.28,0,0,1-.84-.08s-.08.12,0,.17c-.34.2,0-.24-.41,0,.09,0,.23-.08.23-.17l-.68.18a.86.86,0,0,0-.33-.23.73.73,0,0,0-.39,0,.17.17,0,0,0,.14.16l-.18.05-.15-.25-.27.22v-.21c-.2,0-.28.31-.44.29a2.14,2.14,0,0,1-.34-.09l-.05,0-.08,0-.13,0c-.16-.06-.27-.13-.55-.23-.18.3-.69.17-1,.17,0-.14,0-.22-.11-.2a6.6,6.6,0,0,0,.15-.87,2,2,0,0,0,0-.42v-.38A9,9,0,0,1,25,61.21l0,.06c.19-.32-.31-.37-.23-.71l.06.09A2.39,2.39,0,0,0,24.75,59c.06.08.18,0,.18-.1s-.29.12-.21-.13c0,.07.13,0,.13,0l-.2-.23a5.24,5.24,0,0,0,.17-2c.07-.12.14,0,.21,0,0-.5-.21-1-.25-1.46L25,55c0-.23-.36-.14-.15-.43,0-.07,0,.19.12.27.18-.44-.23-.25-.21-.68l.27.11c.16-.33-.14-.37-.3-.49-.31-.46.51-.33.28-1-.15-.1-.21,0-.34-.06.07-.44-.12-.49-.05-.93.39-.24,0,.22.37,0l-.09.34c.21-.29,0,.26.29.22.06-.22-.13-.55-.21-.83.18,0,0,.33.26.2l-.07-.15s.11,0,.11.13c.16-.05,0-.17,0-.31a1,1,0,0,0-.34,0l.07,0c-.27-.29-.06-.77-.27-1,0,0,.07,0,.11,0,0-.17-.22-.34-.29-.58.13-.12.39.08.32-.29-.15-.07-.4.1-.4-.21,0,0,.12.27.24.16-.1-.3.05-.1.21-.37-.21-.16.08-.31-.26-.34.22-.1.14-.08.3-.27-.18.1-.18-.34-.4-.34.25-.08.31.32.57.08-.16-.18-.23-.49-.5-.52.06-.13.16-.19.19-.39,0,0,0,.07.06.09-.2-.36,0-.9-.34-1.1.39.08.05-.77.41-.49a.85.85,0,0,0-.25-.44c.31,0,.08-.38.26-.54-.17-.08-.12-.35-.21-.52,0,0,0,0,0,0l0,0,.05,0H25c-.13-.19,0-.14.14-.3-.1-.25-.24,0-.38-.1.07-.22.19,0,.32-.08l-.31-.32a.27.27,0,0,1,.07-.08.24.24,0,0,1,.1-.05l-.06-.1.15-.1h0l-.15,0v.08l0-.07h0a0,0,0,0,1,0-.06c-.29-.09-.59-.1-.86-.16a1.06,1.06,0,0,1-.63-.34l.12,0a3.36,3.36,0,0,0-.65-.6c-.23-.18-.37-.39-.2-.55,0-.13,0,0,.11.08s.16.14.14-.06a.67.67,0,0,0-.37-.46.41.41,0,0,1-.22-.19.49.49,0,0,1-.06-.29c0,.08,0,.06.08.08a2.45,2.45,0,0,1-.08-.37c0-.12,0-.24-.05-.37s-.07-.5-.1-.73c.34-.56-.1-1.71.34-2.33-.15.2-.17-.16-.24-.2s0,0,.07,0c0-.28-.12-.36-.19-.51a1,1,0,0,0,0-.53,5.79,5.79,0,0,1-.07-.6H22c-.09-.09.23-.06.56-.06-.29,0-.3.1-.26.16s.12.12.06.19h.12a2.26,2.26,0,0,1,.36-.66,5,5,0,0,1,.22-.72.74.74,0,0,0,0-.23c-.08,0-.21-.13-.19-.18a.25.25,0,0,1,.12,0c0-.25.5-.49.27-.75.26-.23.07,0,.21.15.27-.22,0-.65.34-.62,0-.37-.09.05-.21-.11.34,0,.27-.59.55-.84-.08-.17-.13.11-.18-.17.07,0,.13-.07.16-.13L24,31.09l.6-.15c-.07-.55-.37,0-.25-.67v0c.26-.1,0-.5.31-.89-.09.14.07.1.11.17v-.28s0,0,.05,0c.2-.16,0-.21.2-.42,0,.19.15.19.25.14l-.1-.45.22.25c.16-.35-.1-1,.34-1.08l0,.19a.25.25,0,0,0,.12,0,.25.25,0,0,0,.1-.08.18.18,0,0,0,0-.1.24.24,0,0,0,0-.12c0-.09-.15-.19-.17-.09l.12-.16c.14.15,0,.61,0,.91-.05-.12,0-.35-.16-.32,0,.27,0,.54,0,.8a.81.81,0,0,0-.19-.29c-.18.23.06.24,0,.45-.1,0-.16.07-.2,0a1.16,1.16,0,0,1-.27.69s0-.35-.19-.22c-.06.53.12.71.06,1.28.08.72-.6,1.13-.53,1.63.07.05.25-.27.21,0-.15-.11-.16.12-.24.12.13.37-.2.41-.11.68,0-.07-.16.08-.26.18-.2-.1-.21.3-.34-.23a1,1,0,0,1-.08.65c-.06.18-.12.41.09.54l.09,0-.2.26c0,.06,0,.1-.08.14a1.72,1.72,0,0,1-.27.27c0-.06,0-.2,0-.29-.14.14-.14.26-.1.34s.12.12.09.21c-.2.13,0-.18-.26,0a.56.56,0,0,0,0,.12s0,0,0,.07a2.34,2.34,0,0,0,.24-.09,2,2,0,0,1,.41-.14,1.12,1.12,0,0,1,.41,0l.09,0v0l.22,0h.14a3.09,3.09,0,0,1,.47-.1l0,0,0,0L25,35c.11.09.27.14.25.27a1.14,1.14,0,0,1,.37,0l.34-.06,0,0-.25-.07c.79.1,1.27-.29,1.88-.11v.17c.21,0,.43,0,.64,0v0l.45-.2-.85.12c.36-.16.33-.12.18-.29.52-.13.56.2,1.06,0,.14.05.06.15.12.23a3,3,0,0,1,.66,0s0,.07,0,.13h0a.66.66,0,0,1,.41.08.44.44,0,0,0,.15,0c.08,0-.07,0-.13.06l.08,0,.23,0a.09.09,0,0,0,0-.06l-.13,0h.33l-.25-.05c.22,0,.25-.15.66-.06.23-.09.37-.3.11-.3.1,0,.33.09.25.21.63,0,.3-.44.92-.24,0,0-.09,0-.07.05a.86.86,0,0,0,.39,0c-.24,0-.23.09-.21.15h0c.08.1,0,.11-.12.12h0a.49.49,0,0,0-.14,0c.12.13.46,0,.64.09.31-.15,0-.31.19-.42,0,.07.12.07.28.1l-.15-.17a1.39,1.39,0,0,0,.41,0l-.26.06a2.33,2.33,0,0,0,1.21.13c-.14.07-.4.2-.06.29s.3,0,.3,0c.19,0,.37,0,.44-.13s0,.13,0,.22c.08-.08.07-.16.58-.1.09,0,0-.09-.08-.14a6.29,6.29,0,0,0,1,0H37s0-.07.13-.11c-.08.08.13.11.35.14a1.24,1.24,0,0,1,.27,0l-.14-.13.37-.08c0,.24.47,0,.27.34h.15c.28-.09.36-.33.78-.24a.81.81,0,0,1,.24.1,2.59,2.59,0,0,1,.59-.1c-.1,0-.08.05-.09.09h0a1.33,1.33,0,0,0,.4,0,1,1,0,0,0,.38-.19c0,.08-.13.11-.13.17.43,0,.26-.14.74-.22-.13.11-.09.16,0,.19s.09-.16.17-.19a.41.41,0,0,0-.08.19,1.52,1.52,0,0,1,.7,0l-.11.24s0,0,0,0c.21-.12.45-.25.32-.38l-.13,0c0-.14.16-.1.29-.1-.07,0-.14.06-.14.09.67-.17,1.38,0,2.14-.15-.06.06-.37.15-.17.19a6.37,6.37,0,0,0,2-.32c0,.33-.82,0-.85.36A20.42,20.42,0,0,0,48,34.63c.3.48.86-.19,1.42.18-.06-.16.22-.22.52-.22-.1.13.21.13.12.23.27-.15,1-.21,1,.1.07-.3.56,0,.77-.2h0a.55.55,0,0,1-.21-.12l.28.09s0,0,0,0c.32.09.69-.07,1.09,0-.14-.19.42-.09.57-.17,0,0-.13,0-.11.06s.48-.14.71,0,0,.19.15.19c0-.13.63-.29.87-.13-.11,0-.11.07-.18.12,1.11-.22,2.29,0,3.42-.22l-.2.23c.7.3.46-.37,1-.34a27.84,27.84,0,0,0,4.62.29c.11-.06-.06-.08-.08-.17s.16.22.34.1l0-.13a1.22,1.22,0,0,0,.75.09c.07,0,0-.06.22,0l.21.07c-.16-.17-.13-.2-.13-.3v-.12l0-.12a2.27,2.27,0,0,0-.27-.48c0-.27.28.23.22-.11L64.64,33l0,0c-.56-.57-.13-1.91-.63-2.69l0,0c.09,0,.13-.21.07-.34s-.08.07-.13.17a8.69,8.69,0,0,1-.61-1.48c.2.24,0-.26.2-.34-.15-.12-.15.16-.34-.18a3.14,3.14,0,0,1-.15-.74l0-.34V26.9c-.16,0-.14-.07-.29.1a.22.22,0,0,0-.11.05H62l0-.06c-.19.22-.63-.14-.76,0,0-.09.1-.12.08-.19l-.34.08c.15-.08.24-.32,0-.34-.28.17.08.12-.06.26l-.08-.23c-.2,0-.26.27,0,.34-.73,0-1.44.1-2.09.06l.07-.15a1.92,1.92,0,0,1-1.06-.08c0,.05-.09.13,0,.17-.42.2,0-.24-.51,0,.12-.06.27-.08.29-.17l-.88.18a1,1,0,0,0-.9-.26c0,.06.09.16.18.16l-.23.05-.18-.26-.34.23V26.6c-.25,0-.35.3-.56.3a3.71,3.71,0,0,1-1.14-.41c-.07.4-.86,0-1,.27a10.47,10.47,0,0,0-2.72-.21l.08,0c-.4-.19-.46.31-.9.22l.11-.05a3.65,3.65,0,0,0-2.07.15c.11-.07,0-.18-.12-.18s.14.28-.16.21c.07,0,0-.14,0-.14l-.3.21a8,8,0,0,0-2.48-.18c-.15-.07,0-.15,0-.21-.64,0-1.27.21-1.85.24l0-.23c-.28,0-.18.36-.54.15-.09,0,.23,0,.34-.12-.57-.18-.34.23-.88.2l.15-.27c-.42-.16-.48.14-.63.3-.58.31-.41-.51-1.2-.28-.12.14,0,.2-.08.34-.56-.07-.62.11-1.18,0-.3-.39.28,0,0-.37l.42.09c-.36-.21.34-.05.28-.28-.27-.07-.69.13-1,.2,0-.18.42,0,.25-.26l-.18.07c0-.05.06-.11.17-.11-.07-.16-.22,0-.39,0a.56.56,0,0,0,0,.34.15.15,0,0,0,0-.06c-.35.26-1,.06-1.27.26.06-.05,0-.07,0-.11-.21,0-.44.22-.73.29-.16-.13.09-.39-.37-.32-.08.15.12.4-.27.4,0,0,.34-.12.2-.24-.38.1-.13,0-.47-.22-.2.21-.38-.07-.43.27-.13-.23-.1-.15-.34-.31.11.18-.44.18-.44.4-.1-.25.41-.3.1-.57-.22.16-.62.23-.65.5a1.67,1.67,0,0,0-.5-.19s.09,0,.12-.06c-.46.2-1.13,0-1.39.34.09-.39-1,0-.62-.41a1.19,1.19,0,0,0-.56.25c0-.31-.47-.08-.68-.26-.1.17-.44.11-.65.21.11,0,.14-.09.11-.17-.24.12-.18,0-.38-.14-.31.09.06.23-.13.37-.27-.07,0-.19-.09-.32l-.41.31-.1-.07a.23.23,0,0,1-.07-.1c-.13.09-.27.22-.47.07h.34L27,26.55l-.41.19c-.6-.22-.41-.55-.37-.88l.25-.05c0-.11-.18-.18-.29-.18s.4-.35.66-.39c.72,0,.15.38.64.46l.63-.19v.11c.1.08.16,0,.18-.07,0,.16.52.05.77.08L29,25.52c.72-.34,1.14.36,1.7.18l.4-.24.08.21c.24-.13.28-.29.66-.22,1.34.37,2.78-.07,4.14.16,0,0-.06-.05-.14-.08,1.19.52,1.87-.54,2.94-.13l-.07.08c.54,0-.08.08.32.19.09-.25.7-.19,1-.28-.05.05-.16,0-.25.08s.08.21.24.16c.35-.36,1.11-.33,1.66-.43.07.17.55.31.79.58a2.51,2.51,0,0,0,.26-.31.39.39,0,0,0,.26,0,.38.38,0,0,0,.23-.11h-.45v0l-.08,0c-.12,0-.18,0-.15,0-.23-.18,0-.15,0-.34.18,0,.56-.06.6.09a.93.93,0,0,1,.29.05.45.45,0,0,1,.23,0l0,0a.1.1,0,0,0,0,.06c.36.09.85-.2,1.15-.34-.29.25.07.28.07.46a5.09,5.09,0,0,0-.78,0,.12.12,0,0,1,0,.05.13.13,0,0,1,0,.06c.4.19.67-.16,1.24,0,0,0-.11.06-.08.13a.37.37,0,0,0,.25,0,.33.33,0,0,0,.18-.17c0,.18.47.3.68.23s.17-.2.51-.2l-.15.13c.35.09.34-.12.58-.09-.06,0,0,.09,0,.11a1.14,1.14,0,0,0,.45-.06,1.24,1.24,0,0,0,.39-.25l-.06.19c.34-.11,1-.35,1-.08-.11-.41.78-.21,1.09-.21a.19.19,0,0,0-.1.05.15.15,0,0,0,0,.09,5.22,5.22,0,0,1,2,0l.1.29c.35,0,.45-.57.83-.57l-.14.14a7.31,7.31,0,0,1,1.48,0v.2c.19-.1.44-.09.63-.18.44.47,1.75-.25,2.56.28l.05-.36c.31,0,.71-.07.85.21h-.07c0,.28.31,0,.51.07s.29-.21.16-.27c.82.2,2,0,2.55.34a9.07,9.07,0,0,0,1-.21,6.42,6.42,0,0,1,.75-.1c.31,0,.65-.06,1-.06.06.19.12.41.18.65h0c0,.14.06.31.09.5a1.08,1.08,0,0,1,0,.27v.21c0,.19-.07.37-.22.41.25.59.76.87.85,1.64l-.16-.13a1,1,0,0,0,.27.53c0,.06,0,0-.1,0,0,.2.14.26.21.39l-.12,0c0,.64.64,1.45.81,2.22-.07-.13-.16,0-.19,0,.41.2.58,1.07.75,1.36L66.55,33a.62.62,0,0,1,.14.28.55.55,0,0,1,0,.31,1.09,1.09,0,0,0,0,.25.75.75,0,0,0,0,.16,2.07,2.07,0,0,0,.15.34v-.45l0-.1a1.59,1.59,0,0,0,.14.47c.07.15.15.22.21.15,0,.3,0,.3-.09.34s-.07.12,0,.5c-.11,0-.23-.55-.3-.34s0,.38,0,.57c0,0,.11.1.18.21S67.2,36.16,67.24,36ZM43.07,25.18c0-.06-.06-.08-.18-.06h0a.14.14,0,0,0,0,.07A.79.79,0,0,1,43.07,25.18Zm1.43,1.3c-.11-.06-.29-.1-.26-.13s-.1.06-.08.13ZM25.22,57c0-.06-.06-.08-.13-.06v.26h0C25.15,57.06,25.19,56.92,25.22,57ZM47.56,49.2s0-.06-.07-.05,0,.05,0,.08Zm-8.09,4.66,0,0Zm1.42,9h.16l-.15-.11s0,0,0,0S40.87,62.84,40.89,62.86Zm7.18-12.35h.16v0c-.05-.05-.14-.09-.13-.11S48.07,50.45,48.07,50.51ZM40.15,61.12l.1-.16,0,.28-.1-.11c-.09.13.1.26.1.41l.12-.07.08.17c-.24,0,0,.22-.34.13a.49.49,0,0,0,0,.21.5.5,0,0,0,.08.2l.11.19a.2.2,0,0,1,.06.09s-.05,0-.1,0,.08.13.21.1l-.17,0c0,.09.14,0,.22,0a.48.48,0,0,0-.11.09h0l.1-.07-.09.07.09,0c.06-.06.05,0,.07,0l0,0h0a.66.66,0,0,1,.27-.06l-.06,0h.12l.06,0,0,0c.13,0,.22-.07.18-.18.18.08.12.19.22.25a2.6,2.6,0,0,1,.44-.23c0,.27-.27.12-.36.25l.09,0s0,.06-.1.08a6.53,6.53,0,0,0,1.14-.35c.14.48.39-.19.65.18,0-.16.1-.22.24-.22,0,.13.1.13.06.23.11-.15.45-.21.45.1,0-.3.24,0,.34-.2.15.11.33-.06.52,0-.08-.19.19-.09.26-.17s0,0,0,.06c.07.17.23-.14.34,0s0,.17.07.19c0-.13.29-.3.4-.13,0,0,0,.07-.08.12.51-.22,1,.05,1.57-.22l-.1.23c.33.29.22-.37.48-.34a3.29,3.29,0,0,1,.43.09l.21,0a.21.21,0,0,0,0,.06.49.49,0,0,0,.28.13.32.32,0,0,0,0-.14c-.07,0-.09,0-.18-.11s.22.13.1,0l-.12-.07c.16.08.07,0,.07,0v-.12a.33.33,0,0,1,0-.14.64.64,0,0,1,.08-.14.33.33,0,0,1,.14-.1c-.2-.29.14-.51-.15-.87.11-.12.21.13.24,0l-.19-.34,0,0c-.37-.33.41-.86.14-1.27h0c.09,0,.22-.12.16-.14s-.09,0-.16.06a1.87,1.87,0,0,1-.18-.74c.13.13.11-.12.28-.12-.11-.08-.18,0-.27-.13a1.88,1.88,0,0,1,.19-.68c-.15-.08-.11-.19-.31-.19,0-.27-.08-.41-.08-.75h.06c-.22-.08.14-.28,0-.34l.19,0-.07-.15c.08.08.31.12.34,0-.17-.13-.12,0-.26,0l.23,0c0-.09-.27-.12-.34,0a8.18,8.18,0,0,1-.07-1l.15,0a.46.46,0,0,1,0-.26.54.54,0,0,1,.11-.23.25.25,0,0,0-.17,0c-.2-.19.25,0,0-.23,0,.05.08.13.17.13l-.18-.4c.11,0,.35-.25.25-.42l-.09,0s-.05,0-.06.07l-.06-.11.26-.08-.23-.16h.22c0-.12-.32-.16-.3-.26.13-.34.21-.27.41-.52-.41,0,0-.4-.28-.46.31-.33.12-.82.21-1.24l0,0C49,51,49,51,48.87,51s-.19,0-.15,0h.06c.17-.13.08-.3,0-.24a1,1,0,0,0-.15.11c.06-.06.17-.18.12-.18l-.16.19a.71.71,0,0,0,.07-.11,1.66,1.66,0,0,0-.16.21.21.21,0,0,0,0-.11.11.11,0,0,0-.06-.07s0,0-.09,0h-.14a1.26,1.26,0,0,0-.28,0c-.07-.07,0-.14,0-.21-.3,0-.58.21-.85.25l0-.24c-.13,0-.07.36-.24.15,0,0,.11,0,.15-.12-.26-.18-.15.23-.4.21l.07-.27c-.19-.16-.22.14-.29.3-.26.31-.19-.52-.55-.28-.06.14,0,.21,0,.34-.25-.07-.28.12-.54.05-.14-.4.13,0,0-.37l.2.09c-.17-.21.15-.06.12-.29-.14-.07-.31.13-.48.21,0-.18.19,0,.12-.26l-.09.07s0-.12.08-.12c0-.16-.1,0-.18,0a1,1,0,0,0,0,.34h0a1.21,1.21,0,0,0,0,.18c-.21,0,0,0,0-.17a.14.14,0,0,1,0-.06c-.17.27-.45.06-.59.27,0-.06,0-.07,0-.12s-.21.23-.34.3c-.07-.13,0-.39-.17-.32,0,.15.06.39-.12.39a.2.2,0,0,0,0-.29c-.18.1-.06,0-.22-.22-.09.21-.17-.07-.19.27-.06-.23,0-.14-.16-.31.05.19-.2.19-.2.41,0-.25.19-.31,0-.57-.09.16-.29.23-.29.5-.08-.06-.11-.16-.23-.19s.05,0,.05-.06c-.21.19-.52,0-.63.34.05-.39-.45,0-.29-.42-.09,0-.23.18-.26.26,0-.31-.21-.08-.31-.26,0,.17-.2.11-.3.21a.17.17,0,0,0,0-.17c-.1.12-.08,0-.17-.14-.15.09,0,.23-.06.37-.13-.06,0-.19,0-.32l-.13.22h0v0l0,0-.06.09a.34.34,0,0,1-.08-.17l0,.07-.06-.16-.12.12a.2.2,0,0,1,.08,0h.09l0,0a.88.88,0,0,1,.13.28c-.07,0-.13-.15-.25-.12.06.11.19.23.25.34a1.43,1.43,0,0,0-.27-.09c-.1.12.12.09.15.19s-.13.06-.19,0a.27.27,0,0,1,0,.34s-.14-.15-.25-.06c.13.23.34.28.47.54.32.3-.19.58,0,.79.08,0,.15-.16.2,0-.17,0-.1.08-.17.08.24.15-.06.22.11.32-.06,0-.12.06-.18.12s-.09.16-.38,0c.31.21-.08.39.4.55l.06-.06-.1.22c0,.1,0,.11-.19.24-.06,0-.06-.13-.11-.19-.17.12.17.25.17.37s-.05-.13-.24-.09c0,.09.09.17.13.26h-.08c-.2.23.41.09.13.26h.15c-.08.06-.24.2-.34.06a.35.35,0,0,0,0,.13.36.36,0,0,0,.12.08c.12-.07.06-.08.22-.11l.09.32s-.09,0-.09-.07c-.45.38.38.76-.16,1.19.14,0,.13,0,.22.07s0,.35-.09.48l-.1,0c.12.33.27.55.21.77,0,0-.14,0-.16,0,.18.16-.37.35,0,.4l0-.06c-.06.32.2.66.25,1-.22.07,0-.19-.29-.13-.08.23.1.46,0,.71a.09.09,0,0,0-.07-.05c-.15.24.22,0,.19.18-.11,0-.14,0-.19.07l.17.06A.39.39,0,0,1,40,60c.23.11.07.37.28.45-.05,0-.25,0-.33,0s0,.18.1.25c-.16.08-.13.27-.16.23C39.81,61.12,40,61,40.15,61.12ZM26.44,55.87l-.07,0a1,1,0,0,1,0,.16c.06,0,.08,0,.06-.14ZM56.3,43.51s.09.08.26,0h0a.15.15,0,0,0,0-.09A1.31,1.31,0,0,1,56.3,43.51ZM52,36.22a.37.37,0,0,1,.15,0,1.27,1.27,0,0,0-.18-.06Zm8.07-.3,0,0v0Zm-17.42.17a.23.23,0,0,0-.16.1l.21,0a.29.29,0,0,0-.14,0c.13,0,.28,0,.19-.16Zm-5.5.22h0l-.12,0ZM37,35.07l.22,0-.18-.05Zm-8.84.16,0,.05.61-.11C28.61,35.16,28.39,35.22,28.17,35.23Zm26.81,7a1.15,1.15,0,0,1-.31-.11c.08.1.24.18.19.21S55,42.3,55,42.23Zm10.44-5.81-.55,0a3.23,3.23,0,0,0-1.16,0,.72.72,0,0,0-.53-.2,2.1,2.1,0,0,1-.24.06L63,36.2c-.32,0-.63,0-.72-.18a1.62,1.62,0,0,1-.62-.05l.08,0a1.39,1.39,0,0,0-.52.25c.08,0,.19,0,.28,0-.11.13-.63.15-.85.15a3.42,3.42,0,0,0,1-.42,6.22,6.22,0,0,0-.71.19,2.69,2.69,0,0,1-.47.14,2.32,2.32,0,0,1-1.33,0,1.06,1.06,0,0,1-.46.12l0-.11a.93.93,0,0,0-.27,0c.05.07.35.13.05.18,0-.14-.11-.13-.19-.15h-.11c-.33.16-.5-.07-.75.09.06-.06-.16-.13-.31-.19,0-.12-.11-.13-.13-.17a3.37,3.37,0,0,0-.6.23v-.06a1.19,1.19,0,0,0-.46.06l.05,0h-.08c-.24.07-.46.16-.63.06l.09,0c-.38-.26-1,.26-1-.2-.13-.06.14,0,.18-.08l-.18,0c0-.07.09-.08.16-.1a.12.12,0,0,0,0,0c-.54-.14-.35.38-.83.25.07,0,0,0,.07,0l-.43,0a0,0,0,0,1,0,0h0l-.41,0,0,0-.79.09v0c-.2.06-.19-.12-.1-.19a5.63,5.63,0,0,0-1.82.09h-.28c-.15,0-.3.11-.37.06s-.16.07-.33.07c.24-.07.19-.14.2-.23L49.12,36h0c.09.12-.09.11-.19.2h-.17a.63.63,0,0,1-.47.11L48,36.18h0c-.07.22-.45.17-.51.23h0s0,0,0,0-.23-.13-.21-.27l-.14,0-.48.06h0l.21.07c-.67-.1-1.07.29-1.58.11V36c-.17-.06-.3-.08-.35.08l.15,0a4.24,4.24,0,0,0-.71,0l-.11.07c.13,0,.37-.08.58-.08l-.46.24.72-.12c-.31.16-.28.12-.16.29-.44.13-.47-.2-.89,0-.14,0,0-.2-.16-.28a.5.5,0,0,1-.27,0,10.86,10.86,0,0,1-1.11.14.08.08,0,0,1,0-.07.53.53,0,0,1-.24,0l-.06.09,0,0c-.13.1-.18.24,0,.24-.09,0-.28-.08-.21-.21-.54,0-.26.44-.77.24,0,0,.07,0,0,0a.65.65,0,0,0-.34,0c.46,0-.14-.33.4-.26,0-.15-.22-.11-.38-.1s-.08,0-.21,0,0,0,0,0c-.23.14,0,.3-.15.4,0-.06-.1-.06-.23-.09l.13.16a1,1,0,0,0-.34,0l.21-.07c-.24,0-.6-.29-1-.13.11-.06.28-.18.11-.26s-.09,0-.12,0,0,0,0-.06c-.32.06,0-.09-.29-.21-.45,0-.07.29-.74.19-.08,0,0,.1.06.14-.4-.07-.63,0-1,0h-.05c.12,0,.16.09,0,.14.1-.11-.25-.12-.46-.18h-.1l0,0a.14.14,0,0,1,0,0h-.15l.17.13-.43.08c0-.13-.18-.13-.29-.15a.44.44,0,0,1-.41.08A3.53,3.53,0,0,1,35,36.2l-.24,0c.11,0,.22.07.11.15a.8.8,0,0,0-.21-.13,4.32,4.32,0,0,1-.91.15c.08,0,.09,0,.09,0a1.67,1.67,0,0,1-.71.07,1.57,1.57,0,0,0-.23.09.68.68,0,0,1,.12-.12h-.07l0,0c-.39,0-.26.15-.79.22.16-.11.11-.16,0-.19,0,.09-.1.16-.21.19.31-.37-.16-.32-.34-.41l-.11,0h.08a.1.1,0,0,1,0-.13h0l-.32.16s0,0-.06.05v0c-.17.08-.31.18-.24.27-.8.17-1.64,0-2.54.15.08-.06.44-.15.21-.19a9.86,9.86,0,0,0-2.32.34c0-.33,1,0,1-.36a28.08,28.08,0,0,0-3,.34.37.37,0,0,0-.15-.13.41.41,0,0,0-.19-.05.64.64,0,0,0-.31.05s-.06.06-.09.06-.08,0-.22-.11l.09.1a.45.45,0,0,1,.12.2c-.13-.09-.13,0-.23-.06a.42.42,0,0,1,.09.14,0,0,0,0,1,0,0v.1a.67.67,0,0,1,0,.2c0,.26-.08.45-.23.45.3.09,0,.66.19.91a.71.71,0,0,1,.13-.26l-.09.33,0-.05c-.12.38.07.81,0,1.27.16-.15.13.32.19.48,0,0,0,0,0,0s0,.15,0,.23.18.15.16.25-.17.06-.11.19c.06,0,.19,0,.31.11s.24.18.27.31c-.07-.06-.12,0-.19,0a4.42,4.42,0,0,0,1.43.45,1.36,1.36,0,0,0,.69-.08,1.33,1.33,0,0,0,.55-.42,1.31,1.31,0,0,1,0,.28c.34-.06.37-.22.34-.37s-.11-.3,0-.45a1.44,1.44,0,0,0,.18-.25.62.62,0,0,0,.1-.22c0-.15.06-.33.1-.49a2.16,2.16,0,0,1,.73-1.24,1.7,1.7,0,0,1,.54-.34,1.44,1.44,0,0,1,.68-.08,2.17,2.17,0,0,1,.66.19,1.74,1.74,0,0,1,.47.38,2.14,2.14,0,0,1,.25.41,1.86,1.86,0,0,1,.1.25c0,.09.06.17.09.28s.09.44.15.65l0,.16v.07l.06.13c.11.05.05-.08.14-.14,0,.11-.14.22,0,.29l.09-.09a.65.65,0,0,0,.2.45,1.54,1.54,0,0,0,.47.31c.34.15.69.2.89.47.28-.09.5-.1.75-.16a1,1,0,0,0,.39-.2.83.83,0,0,0,.26-.36c.24-.07,0,.34.21.15a2.87,2.87,0,0,0,.23-.64v0a1.15,1.15,0,0,1,0-.26.06.06,0,0,1,0-.06v-.16c0-.12,0-.24.07-.36a2.31,2.31,0,0,1,.2-.68,1.73,1.73,0,0,1,.3-.41,1.65,1.65,0,0,1,.87-.49,2.7,2.7,0,0,1,1.06,0h-.06c0,.06.18.28.32.4s0-.14-.09-.28A1.35,1.35,0,0,1,38,39l.25.49a2.19,2.19,0,0,1,.17.62l.1.38a2,2,0,0,0,.08.22c-.1-.1-.11,0-.1.07s0,.23,0,.28c.18,0,.11-.15.37,0a3.05,3.05,0,0,0,.9.89c.2-.09.39,0,.43-.2a1.53,1.53,0,0,0,.6-.05,2.81,2.81,0,0,0,.62-.26l.05,0c0-.14.12-.18.24-.22s.24-.08.23-.18c0,.08,0,.15.09.18a1.23,1.23,0,0,0,.12-.26c0,.14.1.37.28.18,0-.32-.13,0-.17-.2l.23.07c.09-.2-.12-.35-.29-.2a1.47,1.47,0,0,0,.2-.42,11,11,0,0,1,.21-1.17,1.85,1.85,0,0,1,.39-.73,1.49,1.49,0,0,1,.63-.42,1.46,1.46,0,0,0-.07.19,1.48,1.48,0,0,1,.92-.19,1,1,0,0,1,.37.1,1,1,0,0,1,.31.24s.16,0,.1-.14c.3.08.26.17.26.24a.29.29,0,0,0,0,.13l.07.07.06,0,.07.09s-.05-.08-.09-.1l-.08-.06c-.06,0-.11,0-.14,0l.19.19.15.31.17.32.08.17s0,0,0,.08L46,40a1.73,1.73,0,0,0-.06.68.77.77,0,0,0,0,.15A.37.37,0,0,0,46,41a.54.54,0,0,0,.15.22c.06,0,.07-.15,0-.22l.16.13c0,.09-.07.19-.1.28a1.26,1.26,0,0,0,.38.06l-.14.17c.21.12.44-.07.57,0s.36.27.45.36a1.25,1.25,0,0,0,.41.28c0-.22.23-.2.43-.22s.42-.06.42-.22a1.33,1.33,0,0,0,.52-.13,1.26,1.26,0,0,0,.42-.34,2.54,2.54,0,0,0,.52-1.1v-.08l0-.19,0,.14a5,5,0,0,0,.12-.76,1.09,1.09,0,0,1,.12-.36.74.74,0,0,1,.29-.34l-.1.17.35-.21a1.39,1.39,0,0,1,.28-.12,1.1,1.1,0,0,1,.4,0,1.39,1.39,0,0,1,.6.21,2.92,2.92,0,0,1,.4.29,1.9,1.9,0,0,1,.38.37,1.34,1.34,0,0,1,.19.48c0,.08,0,.2,0,.24l0,0,0,0,.1.17c-.08-.08-.2,0-.15.13s.24-.18.24.07c-.06,0-.11,0-.11.09a1.51,1.51,0,0,0,.29.13,1.74,1.74,0,0,0,.55.88,1.44,1.44,0,0,0,1,.34c.14.08,0,.14,0,.21a1.31,1.31,0,0,0,.44-.07,2.14,2.14,0,0,0,.42-.16,2.51,2.51,0,0,0,.63-.45l.18.15c.1-.08.06-.18,0-.25s0-.13.16-.2-.1.18-.1.31c.24-.13.24-.24.21-.34l0-.17a.67.67,0,0,1,.07-.24,2.11,2.11,0,0,1,.19.23.31.31,0,0,0,.13-.17.41.41,0,0,0,0-.22c0-.1-.15-.14-.17-.34a1.72,1.72,0,0,1,.09-.71.78.78,0,0,1,.26-.22,1.41,1.41,0,0,0,.29-.18c.1-.09.2-.25.43-.48s-.13-.16,0-.38a2.72,2.72,0,0,1,1-.15,1.37,1.37,0,0,1,.94.38c.1.35,0,.26-.07.19s-.15-.14,0,.2a1.54,1.54,0,0,0-.52-.43c.24.21.11.17-.06.12s-.42-.05-.38.07a4,4,0,0,1,.68.19,1.32,1.32,0,0,1,.6.47c-.06.07-.13-.06-.21-.15s-.13-.13-.13.07l.17.15c-.07,0-.11,0-.18-.09-.05.22.13.25.2.48a.78.78,0,0,0,.25-.36.27.27,0,0,0,0,.12.83.83,0,0,1,.24.44,5.54,5.54,0,0,0,.14.55c.09.21.18.38.34.43-.07,0-.07,0-.09.07s.4.17.62.26c0,.17-.33.26.06.44.14-.09.14-.38.39-.24,0,0-.29,0-.25.13.34.05.06.1.29.37.23-.14.33.17.42-.17.07.25,0,.17.26.34-.1-.17.39-.2.34-.43a.3.3,0,0,1-.08.3c-.05.08-.1.16.07.28.2-.18.54-.36.46-.63a.7.7,0,0,0,.47,0s-.06.08-.06.11c.13-.18.33-.33.47-.49s.2-.35.09-.5c.15.12.25,0,.29-.18s.07-.28.23-.13a1,1,0,0,0-.08-.34.84.84,0,0,0-.13-.27c.31,0,.1-.54.28-.77-.17-.13-.11-.53-.21-.77,0,.13.09.17.17.13-.12-.27,0-.21.14-.44-.1-.37-.23.07-.38-.15.07-.33.19,0,.32-.11l-.32-.48a.35.35,0,0,1,.07-.12.28.28,0,0,1,.1-.09L65.43,37l.15-.16ZM25.69,28.9s0,0-.05,0a.08.08,0,0,1,0,0,.07.07,0,0,1,0,.06A.11.11,0,0,0,25.69,28.9Zm21.68-3.45h.07S47.38,25.44,47.37,25.45ZM42.6,34.83h0C42.78,34.8,42.69,34.8,42.6,34.83ZM26.17,27.74l0-.06h0l0,0Zm0-.32v.17C26.19,27.54,26.22,27.47,26.18,27.42Zm-.58,2.12,0,0c.05.12-.32.34-.23.5C25.39,29.88,25.58,29.73,25.6,29.54Zm-1.88,2.39.21-.43c-.1.06-.23.13-.18-.08C23.35,31.91,24,31.36,23.72,31.93Zm-.58,1.35c.05-.25-.11,0-.14-.06C23,33.39,23,33.44,23.14,33.28ZM32.91,35l-.08.16.27,0Zm1.3,1.39.33-.06-.24,0Zm1.54-1.29h.11l0,0Zm27,1.25a.08.08,0,0,0,0-.08l0,.06-.06,0h.1v0l.16-.05-.15,0Zm2.6,3.54h0S65.34,39.85,65.34,39.89ZM21.91,36.34l0,0a.39.39,0,0,1,0-.26A.76.76,0,0,0,21.91,36.34Zm0,3v-.1l0,.16S21.93,39.36,21.94,39.34Zm38.94.12c0-.09.13,0,.18,0s0,0-.13-.36A.86.86,0,0,1,60.88,39.46ZM23.45,36.89v0a.36.36,0,0,1,0,.1Zm22.75,4,.06.06a.05.05,0,0,0,0,0ZM30.85,36.45h0ZM65.42,37h0ZM36.58,41.22ZM65.42,37v-.4A.36.36,0,0,0,65.42,37ZM23.49,40.41l0,.05Zm7.53-4-.16,0,0,0s-.08.06-.16.08C30.83,36.54,31,36.59,31,36.44Zm25.77,6.74.06,0h-.11l0,.08Zm-10.1-1.72h.08l0,0Zm6.54-5.26,0,0-.06,0S53.22,36.2,53.23,36.2Zm-22.58.34h-.07C30.42,36.59,30.53,36.57,30.65,36.54Zm33.64-.14v0l-.08,0Zm-2.94-.07a1.88,1.88,0,0,0,.62.11l0-.06C61.88,36.5,61.5,36.21,61.35,36.33ZM21.72,38.84l.22-.07C21.9,38.61,21.65,38.58,21.72,38.84Zm6.94,2.21a.75.75,0,0,0-.1.2c.07,0,.16-.15.19-.16a.15.15,0,0,0,0-.15A.31.31,0,0,1,28.66,41.05Z" fill="#161614"/>
  <path class="mapIcon__innerRing" d="M44,8.31A35.71,35.71,0,1,1,18.77,18.77,35.7,35.7,0,0,1,44,8.31ZM44,6A38,38,0,1,0,58.55,8.87,38.12,38.12,0,0,0,44,6Z" fill="#161614"/>
  <path class="mapIcon__outerRing" d="M55.05,64.54l-.34,0A1.87,1.87,0,0,0,55.05,64.54Zm-26.81-.19-.07,0h0Zm25.52.19a.49.49,0,0,0-.18-.14l0,0Zm-26.19-.09v0l-.06,0Zm33.37-.14h0C60.79,64.35,60.86,64.34,60.94,64.31Zm-18.64,0a.29.29,0,0,0,0-.09A.29.29,0,0,0,42.3,64.34ZM26.59,26.08c0-.08-.17-.09-.2.06l.19.17Zm-.72.79c.05.2.17.45.4.41-.15-.23-.05-.24-.24-.5,0-.15.16-.22.23-.17s.12-.2,0-.32a.55.55,0,0,0-.24.28.5.5,0,0,0,0,.36C26,27,25.91,26.89,25.87,26.87Zm3.77,0v0S29.61,26.84,29.64,26.85Zm-3.48-1h.05v-.11Zm11.3.89a.57.57,0,0,1-.12-.18C37.38,26.73,37,26.78,37.46,26.77Zm18.45,0-.09,0h0Zm-13.24-1.4a0,0,0,0,1-.05,0l.07.05.05-.06Zm12.39,1.49v0l-.07,0Zm2-1.74.16-.07-.29.06ZM24.65,8,23.17,5.24A43.31,43.31,0,0,1,41.91.05l.15,3.12A40.35,40.35,0,0,0,24.65,8ZM5.79,29.44,2.88,28.32A44,44,0,0,1,21.42,6.22L23,8.9a41.24,41.24,0,0,0-12.75,12A40.55,40.55,0,0,0,5.79,29.44ZM2.92,59.79A43.72,43.72,0,0,1,0,44H3.12A40.89,40.89,0,0,0,5.84,58.67Zm6.15,11A43.89,43.89,0,0,1,3.6,61.43l2.86-1.24a41,41,0,0,0,5.1,8.67ZM44,88A43.95,43.95,0,0,1,10.75,72.82l2.36-2A40.86,40.86,0,0,0,44,84.88Zm3.48-.14-.25-3.11a41.87,41.87,0,0,0,5-.69l.62,3.06A46,46,0,0,1,47.48,87.86Zm12-2.64-1.1-2.92A41.82,41.82,0,0,0,63.47,80c.58-.31,1.17-.65,1.75-1a41.17,41.17,0,0,0,8.92-7.34l2.31,2.1a43.92,43.92,0,0,1-9.61,7.9c-.62.38-1.26.74-1.89,1.08A43,43,0,0,1,59.43,85.22ZM78.5,71.31l-2.44-1.94c.59-.75,1.16-1.53,1.69-2.32a40.7,40.7,0,0,0,7.13-23c0-.84,0-1.7-.08-2.53a40.64,40.64,0,0,0-3.54-14.3l2.85-1.29a43.69,43.69,0,0,1,3.8,15.4c.06.9.09,1.82.09,2.72a43.75,43.75,0,0,1-7.67,24.81C79.76,69.66,79.14,70.5,78.5,71.31ZM77.23,20.19A41.8,41.8,0,0,0,74,16.25,41,41,0,0,0,44,3.12V0A44,44,0,0,1,79.77,18.37Z" fill="#161614"/>
</svg>
