<svg class="mapIcon" xmlns="http://www.w3.org/2000/svg" viewBox="0 0 88 88">
  <path d="M80.39,49.91A36.86,36.86,0,1,0,38.1,80.39,36.85,36.85,0,0,0,80.39,49.91Z" style="fill: #ebd7c0"/>
  <path class="mapIcon__innerRing" d="M44,8.31A35.71,35.71,0,1,1,18.77,18.77,35.7,35.7,0,0,1,44,8.31ZM44,6A38,38,0,1,0,58.55,8.87,38.12,38.12,0,0,0,44,6Z" fill="#161614"/>
  <path d="M43.76,54.83l-.14,0,.09-.1Zm-.44.51a.48.48,0,0,0,.22.12.43.43,0,0,0,.25,0,.49.49,0,0,1-.17-.06,1.18,1.18,0,0,0-.19-.11v-.06l0-.06,0,0h.06s0-.13-.06-.18l.11-.12-.06,0a.09.09,0,0,1,0-.08L43.3,55a.09.09,0,0,1,0,.06.08.08,0,0,1,0,.07h0l.06-.07s0,0,0,.07a.5.5,0,0,0,0,.12.28.28,0,0,0,.08.11S43.37,55.35,43.32,55.34Zm4.43-6.12c-.07,0,0,.11,0,.19Zm0,3.17s0-.09,0-.13l0,.05ZM46,53.68a.3.3,0,0,0,.07.1c.05,0,0-.18,0-.25v.08Zm-2.7,1v0h-.1Zm0-14.76a1.22,1.22,0,0,1,0-.27c0-.1,0-.19-.08-.19s0,.14,0,.25S43.2,40,43.26,39.94Zm-.09,7.79h0Zm.56,7.89a1.68,1.68,0,0,1-.2,0v.12s.11-.09.15-.09.07,0,0,0l0,.07.08-.14Zm0,.15h0Zm-3-5.19s-.06,0-.07,0h.07Zm3.09,5,0,0Zm-3.74-5.86a.77.77,0,0,1,.15,0A.22.22,0,0,0,40.06,49.71Zm5.9,1.5s0,0,0,0A.05.05,0,0,0,46,51.21Zm-2.05-8.55Zm4,2.67a.47.47,0,0,0,0,.2.34.34,0,0,0,.07.19c.06.09.12.23-.11.41,0-.05,0-.05,0-.09a.92.92,0,0,1-.56.34.9.9,0,0,1-.68-.13v0l0,0h0v0l-.06-.07.05,0a2.78,2.78,0,0,1-.16-.4,2.17,2.17,0,0,1-.07-.24.65.65,0,0,1,0-.2.86.86,0,0,1,0-.59c-.07.15-.18,0-.23,0a.05.05,0,0,0,.05,0c0-.09-.16,0-.22,0h0a.06.06,0,0,1,0-.07s0,0,0,0-.25-.08-.25-.15-.1,0-.17-.06c.2,0,.15-.11.31-.15-.23-.23-.49.09-.71-.09A.85.85,0,0,0,45,44c-.11.21-.34,0-.36.13,0-.09-.09-.15-.05-.26-.14,0-.31-.12-.38,0l.11.08a.59.59,0,0,0-.47,0,.48.48,0,0,1-.2.07.44.44,0,0,1-.2,0l0-.36c-.11-.06-.2,0-.28.07s-.16.11-.28,0c.09.09.08,0,0,.21.08,0,.19-.13.31-.16l-.2.27.37-.19c-.15.18-.13.13,0,.27-.19.16-.29-.12-.45.09-.09,0-.06-.17-.18-.2s-.18.09-.29.08-.22,0-.22.13.06-.06,0-.12c-.1.11-.18.16-.14.27l.11,0c-.07.06,0,.17-.17.23,0,.13.11.28.16.21s-.12,0-.2,0c-.14.2.27.29,0,.36,0,0,0,0,0,0h0a.11.11,0,0,0,0,.1c0-.07-.06-.09-.12-.1s-.11,0,0-.11c-.18-.05-.1.16-.18.21.11.14.27,0,.36.11-.06,0-.07,0-.09.07l.14,0a.09.09,0,0,0,0,0l0,0-.06,0s-.07.08-.1.15a.08.08,0,0,0,0,0,.13.13,0,0,0,0,.06l0,0,.05,0c-.06,0-.23,0-.23.1.18.14,0,.06,0,.24,0,0,0,.06.08.06a.14.14,0,0,0,.11,0c.06,0,.1,0,.2.15s.06-.06.06-.12c.12.21.29.21.44.41-.07-.08-.11-.16,0-.16-.11.08.11.18.18.28l0-.06c.05.11,0,.11-.11.11a0,0,0,0,0,0-.07c-.13,0-.22.28,0,.39h.11l.09-.06a.41.41,0,0,0,0-.09.2.2,0,0,0,0-.11c.27.16.34-.25.58-.09.06,0,.24.33.46.38.13-.16-.26-.15-.12-.28.34.45.86-.18,1.36.18l-.11.19a2.54,2.54,0,0,0,.37.1l-.15-.16c.14,0,.42.12.28.23.32-.06.36,0,.58.22-.25-.14,0,0-.22,0,.23.21.27.16.47.23-.06,0,0,.19,0,.24.23,0,.46.2.7.34l0,0a1.23,1.23,0,0,1,.4.55,2,2,0,0,0,.34.59v0c.11-.22.25.3.34.43s-.1.07-.1.15c.17,0,.12.17.21.23-.06.17-.22,0-.2.27a.14.14,0,0,0,0,.06l0,0,.06,0h.06a.72.72,0,0,0-.23.36s0-.12,0-.16-.07.07-.19.06.16.07.07.21L47.71,51c-.05,0,0,.14,0,.17s-.16-.11-.24-.11c0,.33.36.14.51.19-.18.31-.12.63-.25.9l-.12-.13a.39.39,0,0,0,0,.14.32.32,0,0,0,0,.14l-.12.18a.22.22,0,0,0,0-.16.18.18,0,0,0-.1-.11c-.08.2-.29.39-.17.58l0,0c-.24.17-.73.5-.77.42-.19.24-.59.3-.5.49-.15.14-.54-.08-.57.22-.24-.08,0-.05,0-.23h-.12a.41.41,0,0,0-.11.07c-.05.05-.09.09-.15.05a.26.26,0,0,1-.09-.09c-.16.14.08.05.08.2-.17-.24-.47-.06-.59.1.12.18.08,0,.2.18-.07-.06-.09,0-.09,0l.18.1a1.25,1.25,0,0,0-.46.09c.22.36.32,0,.41.37-.17.13.15.3,0,.64,0-.13-.08-.06-.14-.1a.89.89,0,0,1,.06.2h0c-.07.07-.08.11-.07.16s0,.1-.1.16c0-.15-.12-.15-.2-.15a.39.39,0,0,1,0,.3.57.57,0,0,0-.08-.25c-.05,0-.11.16-.24.22s-.27,0-.18-.19h.08l0,0c.09,0,.17-.15.12-.19a.46.46,0,0,1,.06.23c.13.05,0-.13,0-.16s.11,0,.14.08a.62.62,0,0,1,.11-.37s.1.2.21.1c-.07-.35-.3-.42-.41-.79a.32.32,0,0,1,0-.09.55.55,0,0,1-.17,0,1.48,1.48,0,0,1-.42,0l-.05-.15a.17.17,0,0,0-.11.06.2.2,0,0,0,0,.13s-.11,0-.19-.14a.83.83,0,0,1-.16-.12.34.34,0,0,1,.06-.12.39.39,0,0,1,.1-.08c.08,0,.19-.09.19-.21s0,0,0,0a.5.5,0,0,0-.38,0l.05-.09c0-.07-.1,0-.12,0s0-.09-.1-.11a2.14,2.14,0,0,1-.34-.09l0,.14a.7.7,0,0,1-.35,0,.64.64,0,0,1-.25-.24c-.12-.18-.21-.36-.41-.41h-.36L41,53c-.2,0-.33.06-.47-.2a12.05,12.05,0,0,1-.68-1.4,2.39,2.39,0,0,1-.14-.79.93.93,0,0,1,.11-.49,1.3,1.3,0,0,1,.18-.23.71.71,0,0,1,.26-.13l0,0a1.12,1.12,0,0,1,.32,0,1.65,1.65,0,0,1,.38.05,1.19,1.19,0,0,1,.35.19,1.11,1.11,0,0,1,.25.32c0,.05.05.14.07.16l.06.09.1.17a.52.52,0,0,1,0,.37h-.08c.16.23-.07,0-.07.23.2-.07.35.2.54.22,0,0-.08,0-.14,0s-.1.16,0,.19a.82.82,0,0,1,.49,0,3,3,0,0,0,.52.08c0,.16.22.36.34.62a2.35,2.35,0,0,0,.19-.25c.1.11.2,0,.28,0h-.38c-.1-.16,0-.11,0-.28.1,0,.31,0,.31.11l.15,0,.05,0h.07l0,0,0,.05c.21.07.43-.24.52-.39-.08.24.11.22.16.37,0,0-.18,0-.43.07a.14.14,0,0,1,0,.1.32.32,0,0,0,.17,0,.34.34,0,0,0,.14-.09.7.7,0,0,1,.37-.17.07.07,0,0,0,0,.06.08.08,0,0,0,0,.07c.13,0,.18-.18.15-.27a.24.24,0,0,0,.11.06.25.25,0,0,0,.12,0l.12,0a.24.24,0,0,0,.09-.08c0-.17,0-.2.11-.32v.14c.21-.09.08-.21.17-.29a.07.07,0,0,0,.09.06c.09-.22,0-.27-.11-.46l.14.09a1,1,0,0,0-.08-.29c0-.07,0-.13.09-.13-.18,0-.23,0-.24-.1a1.74,1.74,0,0,0-.05-.22s.1,0,.13,0a.61.61,0,0,1-.33-.28,1.22,1.22,0,0,0-.34-.34l.07-.25c-.19-.09-.43.36-.59.3l.11-.1a2.85,2.85,0,0,1-.41-.09l-.39-.1,0-.17c-.14.06-.3,0-.44.11-.23-.46-1.22.09-1.76-.59l-.15.28c-.26-.1-.59-.22-.56-.49l0,0c.15-.19-.21-.13-.3-.27s-.3,0-.25.09c-.21-.27-.47-.54-.7-.87a1.34,1.34,0,0,1-.29-.92,5.83,5.83,0,0,1-.42-.87,1.9,1.9,0,0,1,0-1h0c.08-.24.35-.7.6-.58a3.38,3.38,0,0,0,.08-.34,2.21,2.21,0,0,1,.06-.34,1,1,0,0,1,.16-.36.9.9,0,0,1,.28-.27.78.78,0,0,0,0,.16c.14-.05.21-.36.26-.39s.07,0,.07.07c.17,0,.14-.18.22-.27v.1a2.58,2.58,0,0,0,.75-.45,2.15,2.15,0,0,1,.89-.42c-.1,0,0,.14,0,.17a.44.44,0,0,1,.14-.13l-.06-.08-.15-.2c-.15-.17-.08-.16-.1-.22v-.14a1.31,1.31,0,0,1,0-.28,2,2,0,0,1,0-.34l0-.11v0a.36.36,0,0,0,0-.1l.05.31c0-.33.09-.25.18-.18s.17.12.17-.2l-.18-.1c.09,0,.12-.23,0-.41.14,0,.13.34.25.16,0,.12,0,.26,0,.34h.18s0,0,.11-.14,0-.25.07-.29.11-.06,0-.2a.84.84,0,0,1,.38-.08.73.73,0,0,1,.35.09.84.84,0,0,1,.3.22,1.27,1.27,0,0,1,.13.19.42.42,0,0,0,.11.16,2.28,2.28,0,0,0,0,.78,1,1,0,0,1,0,.43,1.05,1.05,0,0,1-.17.39.85.85,0,0,0,0,.23.37.37,0,0,0,0,.11s0,0,0,.07l0,.08a.27.27,0,0,1,.08-.07l.16-.1a.12.12,0,0,0-.16,0s0-.06.07-.06a.54.54,0,0,1,.18,0,2,2,0,0,1,.34.06,3.06,3.06,0,0,0-.4.07.66.66,0,0,0-.2.06l-.1.09A3.31,3.31,0,0,0,45,42l.4,0v.28c.28-.08.1.25.41.12v-.08c.38.2.51,0,.89.22l-.07.06c.09.12.41.08.37.34l-.22-.17c-.08.15,0,.34,0,.46.22.15.26-.13.38,0-.08.16-.06.07-.23.11a5.6,5.6,0,0,0,.85.59l0,0h0c.14.31.51.54.43.8l0-.07c-.15.32.32.72-.09.82,0,.08,0,0,0-.09S48,45.23,47.88,45.33Zm-4.13,6.6s0-.07-.09,0l0,0Zm.24-9.6c0,.07,0,.14-.06.24H44v-.08C44,42.39,44,42.33,44,42.33Zm0,.1,0,.14h0C44,42.45,44,42.26,44,42.43Zm-.34-.07.06.28.23-.06c0-.11,0-.18,0-.2s0,0-.07.09-.05,0-.17-.46c0,.27,0,.26,0,.27s0,.11,0,.34a.87.87,0,0,1-.07-.17C43.64,42.38,43.62,42.33,43.62,42.36ZM40.93,43.9c0,.14.16.07.12.27a1,1,0,0,1-.13.17l.1-.06c.1-.09.2-.16.28,0,0,0,0-.19,0-.34a1,1,0,0,0,0-.16l-.12.16C41.23,43.77,41.06,44,40.93,43.9Zm.1,2.53c-.05-.06-.09-.12-.14-.17s-.19.06-.15.16c.21.06.07-.08.21-.08l-.15.14C40.86,46.55,41,46.5,41,46.43Zm1.12,1Zm.12.07h.08l-.05,0ZM44.5,53l.25,0c-.1,0-.23,0-.21-.08S44.47,53,44.5,53Zm-1.93-.1s0,0,0,0l0,0Zm-.47-.25L42,52.62l-.07.05h.14Zm-1.24-1.44a.19.19,0,0,0,0-.07l-.05.09A.1.1,0,0,0,40.86,51.23Zm-.13-.35h0Zm.17-.23h0Zm-.41-.18h.06l0,0s0,0,0,0v0a.11.11,0,0,1,0,.05h0s0,0,0,0l0,0h.12l-.07-.13s.11,0,.11.11,0-.18,0-.22ZM42.6,53l.07,0a.15.15,0,0,0-.09,0Zm.84.2h-.21a.16.16,0,0,0,0,.07C43.4,53.24,43.43,53.2,43.44,53.16Zm.5.72s0,0,0-.06,0-.06.07-.1a.09.09,0,0,0,0,0,1.11,1.11,0,0,1-.09.19S43.93,53.88,43.94,53.88Zm3.39-3a1,1,0,0,1,0-.24l0-.1c-.11.27-.18.6-.32.92a6.34,6.34,0,0,1-.42.82.09.09,0,1,0-.17,0c-.07.13.23.12,0,.23,0-.07-.07-.1-.11-.07s-.06.2-.1.3a12.16,12.16,0,0,1-2,.52c-.12,0,0-.12,0-.19a3,3,0,0,1-.52.07s-.14.06-.15.13a1.08,1.08,0,0,1,.5.09.29.29,0,0,1,0,.13.54.54,0,0,1-.05.11l.12.1a.88.88,0,0,1,.12-.15.85.85,0,0,0,.25-.17c0-.08-.38,0-.16-.14.06.14.23,0,.27.08a.33.33,0,0,1,.14-.12.54.54,0,0,1,.25,0c.08,0,.11,0,.15-.08s.1.08.19.1c0,.18.24,0,0,.34a.6.6,0,0,1,.34-.27.35.35,0,0,0,.17-.15.4.4,0,0,0,0-.22h-.09l.29-.07a.36.36,0,0,1,.17-.07.41.41,0,0,1,.19,0c0,.09-.12.16-.16.24.24,0,.19-.32.31-.44.08.1-.11.15,0,.24.12-.07.13-.23.18-.34l0,.06c.34-.12-.2-.31.14-.33,0,0-.06-.09-.1-.09s.34-.12.3.11a.49.49,0,0,0,.06-.17.47.47,0,0,0,0-.17c-.14,0-.1.07-.24,0a2.5,2.5,0,0,0,.11-.39s.06.06,0,.11C47.38,51.47,47.38,51.18,47.33,50.92Zm-1.15-2.44a1.11,1.11,0,0,0-.5-.24c.21.24.48.44.73.69a2,2,0,0,1,.65,1l-.05,0a.34.34,0,0,0,0,.2.33.33,0,0,0,.12.16.35.35,0,0,1,.14.2v0a1.22,1.22,0,0,1,.1-.34c-.1.08-.11,0-.2-.05s-.14-.4-.14-.58h.1c-.3-.34-.58-.44-.76-.68,0,0,.08-.09.14-.07-.25,0-.17-.56-.41-.34Zm-.83-.29c.1,0,.19.07.26,0h0Zm-1.08-.4a1.67,1.67,0,0,1,.23.12c.09.07.15.14.32.27a.18.18,0,0,1,.12-.11H45c.07,0,.17,0,.15-.12C44.89,47.79,44.58,47.86,44.27,47.79Zm-.16-.08.1,0,.06,0C44.15,47.67,44.12,47.68,44.11,47.71Zm-.42,0,0,.19c.12,0,.2-.13.29-.19s0,0,0,0l-.1.15a.25.25,0,0,1,0-.19A.27.27,0,0,1,43.69,47.72Zm-.3,0,0,.15.24-.17Zm-.55-.22a.07.07,0,0,1,0,0,.54.54,0,0,0,.5.26.14.14,0,0,0,0-.06.16.16,0,0,0-.09,0,.24.24,0,0,1,0-.13l0,0h0a.31.31,0,0,0,0-.15.54.54,0,0,0-.21-.05A.49.49,0,0,0,42.84,47.52Zm-.51-.16s-.07.17.11.09l-.11,0,.06,0h.17l-.09-.05a.33.33,0,0,1,.14,0h.16v0l.06,0c-.09-.15-.35-.22-.29-.22C42.36,47.16,42.42,47.29,42.33,47.36Zm-.12,0ZM42,47.32l.08.1h.08A.44.44,0,0,0,42,47.32Zm-.19-4.13,0,0-.06,0h-.07a.09.09,0,0,0,0,0s0,.05.09.06Zm2.23-.41,0,0,0,0v-.07h-.08v0h0v0h0a.64.64,0,0,0-.2,0h0s0,.06-.12.13A4,4,0,0,1,44.06,42.78Zm-.37-.09Zm.9,12.11h0v0ZM43.5,52.09h0l0,0,0-.05Zm.23-4.35h0v0Zm.1,7.76s0,0,0,0Zm.08-.34a.77.77,0,0,1-.07.16s-.05.06,0,.09h.05s0,0,0-.08S44,55.2,43.91,55.16ZM44.84,54a.27.27,0,0,0-.12,0,.18.18,0,0,0-.09.08c.08,0,.18,0,.17.12s.11,0,.05-.08S44.68,54,44.84,54Zm.9,0c.09-.11.11-.12,0-.12S45.73,53.93,45.74,54Zm.63-6.44c-.15-.06,0,0-.1.12Zm-1.47.41h-.18l.1.12Zm-.81-1.21.07,0-.24,0Zm2-.84.15-.14C46.17,45.63,45.93,45.63,46.09,45.89Zm-.22-3.82a.17.17,0,0,0-.06-.06l-.09,0h-.09c.12.05.21.18.27.18A.16.16,0,0,0,45.87,42.07Zm-3.95,7h.25l-.1,0Zm13.9,11.4c-.12.06-.24,0-.23-.11s-.2,0-.25.13a.53.53,0,0,0,.15.08.47.47,0,0,0,.17,0,.44.44,0,0,0,.16-.06.34.34,0,0,0,.12-.12c.06,0,0,.11,0,.15a.43.43,0,0,0,.13-.26A.41.41,0,0,0,56,60C56,60.23,55.91,60.14,55.82,60.44Zm-.57-20.16c0,.06.08.07.09.06S55.26,40.27,55.25,40.28Zm3.45,7.55c-.07,0,0,.14,0,.24ZM57.11,59.29l0-.08,0,0A.2.2,0,0,0,57.11,59.29Zm-2,1.45h0a.21.21,0,0,0,0,.11Zm-10.75-.85a.66.66,0,0,1,.12.17C44.39,59.93,44.75,59.88,44.31,59.89Zm12.91-.64a.13.13,0,0,1,0-.1l0,.06A0,0,0,0,0,57.22,59.25Zm-3.07.68h.34A.25.25,0,0,0,54.15,59.93ZM59,57.43l-.57.21c.07.25.16.26.22.27s.11,0,.05.38v0c-.13.06-.14.17-.16.34a.69.69,0,0,1-.08.28.84.84,0,0,1-.18.24c.12-.12-.05-.11-.08-.19a1.34,1.34,0,0,1-.07.27s0,0,0,0c-.27.1-.07.22-.34.34.08-.17-.08-.21-.18-.21a2.35,2.35,0,0,1-.13.43,2.11,2.11,0,0,0-.1-.3.63.63,0,0,0-.16.23c0,.09-.1.18-.16.27s-.26.28-.43.16l.11-.13-.08,0a.18.18,0,0,0-.1,0l-.1,0-.06.08a.17.17,0,0,0,0,.18h-.13c0-.19.32-.43.48-.61,0,.1-.14.25,0,.32a3.56,3.56,0,0,0,.34-.6,1.13,1.13,0,0,0,.05.32c.25-.1,0-.22.16-.36s.18,0,.18.07a1.16,1.16,0,0,1,.41-.56s-.05.32.13.24c.16-.49,0-.67,0-1.17a1.82,1.82,0,0,1,0-.33,2.81,2.81,0,0,1,.08-.31,1.85,1.85,0,0,0,.15-.57v0a.57.57,0,0,0,0-.26c-.08,0-.17.3-.2,0,.16.07.12-.16.18-.16-.22-.32.08-.44-.07-.66.05,0,.13-.12.19-.23.2,0,.1-.33.37.12-.28-.47.13-.81-.34-1.15l-.06.12.11-.45h0a.58.58,0,0,1,0-.26.54.54,0,0,1,.15-.22c0,.11,0,.28.09.39.19-.24-.15-.51-.15-.77.15,0,0,.28.23.2a1.52,1.52,0,0,0-.12-.53l.08,0c.18-.48-.41-.19-.14-.53,0,0-.1,0-.15,0,.09-.14.23-.43.34-.14a.6.6,0,0,0-.18-.43c-.11.15-.05.18-.21.23l-.1-.65c0-.08.08.05.08.14a1.51,1.51,0,0,0,.11-.59,1.45,1.45,0,0,0-.13-.59,3.9,3.9,0,0,1-.14-.59,1.6,1.6,0,0,1,.08-.65c-.11.12-.13,0-.23-.1,0-.27-.15-.67-.15-1L58,48a8.94,8.94,0,0,1-.67-1.42c-.05,0,.12,0,.18,0-.27-.25.07-.81-.29-.76l0,.12a9.39,9.39,0,0,0-1.06-1.75c.13-.24.19.34.36.1-.13-.46-.5-.8-.68-1.28.06.06.08,0,.11.06-.12-.51-.17.15-.34-.24.1,0,.12-.06.1-.21l-.21,0,.09-.06h.12c-.28-.06-.43-.63-.68-.65,0-.06.25-.07.29-.16a.7.7,0,0,0-.13-.24.68.68,0,0,0-.21-.17v0c-.09,0-.13,0-.17-.12l.17.12c0-.22-.17-.52-.11-.46-.15-.39-.13,0-.41-.19l.09.34-.34-.46.21.14c-.06-.28-.37-.4-.53-.66l0,.18-.25-.25c.2-.17-.18-.4.16-.4-.25-.62-.78-.78-1.12-1.24.06.07.08,0,.13,0a1,1,0,0,0-.26-.31.78.78,0,0,0-.35-.18c.09,0,.15,0,.21,0-.25-.33-.25-.12-.59-.42.16,0,.18,0,.12-.15-.06.08-.17,0-.24,0,.6,0-.15-.52.29-.59-.09,0-.7-.36-.73-.08l.1.07c-.09.1-.16-.06-.24-.15a.22.22,0,0,0,.15.05c-.53-.38-.85-1-1.42-1.36.07,0,.34.13.24,0a1.63,1.63,0,0,0-.68-.51,1.69,1.69,0,0,0-.66-.16.29.29,0,0,1,.06-.1,1.29,1.29,0,0,0-.39,0,.11.11,0,0,1,0-.09c-.3,0-.6.09-.91.16a.29.29,0,0,0-.14-.13c0,.07-.06.12-.16,0s0,0,.08,0a.33.33,0,0,0-.14,0c0,.07-.08.14-.2.13l0-.11-.24.06,0,.08c-.13.14-.18,0-.24-.06a.65.65,0,0,1-.31-.11c0,.07,0,.11-.09.15a.2.2,0,0,1,0,.07c-.28-.07-.31.11-.59,0-.13-.32.06-.1,0-.24a1.28,1.28,0,0,1-.23.06s0,0,0,.05-.12,0-.1,0a.87.87,0,0,1-.47,0,.26.26,0,0,0-.16.09s0-.06,0-.11-.22.22-.37.29c-.07-.12,0-.35-.16-.31h0a.53.53,0,0,0,0,.13l.1.05-.1,0c0,.12,0,.24-.12.24s.18-.12.08-.19c-.17.09-.1,0-.19-.15h-.08c-.09.1-.16-.09-.18.21-.05-.16-.05-.16-.09-.21h-.09c-.05.09-.21.13-.21.3a.38.38,0,0,1,.07-.29,1.31,1.31,0,0,1-.28,0,.34.34,0,0,0-.08.23l-.14-.12a1.31,1.31,0,0,0-.42.05s.12,0,.1-.07h0c-.16,0-.33,0-.41.24a.15.15,0,0,0,0-.17.4.4,0,0,1-.19,0,.13.13,0,0,1,0,0c-.06,0-.09,0-.06-.13h0l0,0a.21.21,0,0,1-.1.08.44.44,0,0,0-.09.11s0-.05,0-.07a.79.79,0,0,1-.59,0l-.07,0a.22.22,0,0,0,0-.08.06.06,0,0,0,0-.06h0s0,0,0,0l-.15,0a.2.2,0,0,1,0,.17c-.08,0-.08-.1-.06-.17h-.1l-.1.15a.26.26,0,0,1-.06-.13H40v0h-.13l-.06,0-.11.06a2.7,2.7,0,0,0-1,1l0-.29c-.66.25,0,.56-.39.9a14,14,0,0,0-2.83,3.2c0,.12.1,0,.19,0-.09.08-.26,0-.26.21l.12,0c-.63.34-.82,1.66-1.5,1.79-.15.62-.65.83-.76,1.62-.21.15,0-.34-.23-.08s-.12.45-.17.68v0c0,.75-1.18,1.37-1.29,2.25v0c-.06-.06-.23.06-.26.2s.1,0,.2-.05a11.73,11.73,0,0,1-.42,1.43c0-.28-.18.17-.34.14.05.18.19,0,.16.34A10.12,10.12,0,0,1,30.26,49c.09.2,0,.39.18.46a5.1,5.1,0,0,0-.13.68c0,.1,0,.23,0,.33a2,2,0,0,0,0,.37h-.07c.22.19-.16.55,0,.68-.08,0-.11-.08-.18-.08l.07.3c-.09-.15-.31-.25-.34,0,.16.27.11-.06.24.07l-.22.07c0,.2.27.26.34,0,0,.67.1,1.34.08,1.94L30,53.81a1.76,1.76,0,0,1,0,1s.13.09.17,0c.21.39-.23.06,0,.49-.06-.11-.09-.26-.18-.26l.22.81a.93.93,0,0,0-.21.87.15.15,0,0,0,.11-.06.17.17,0,0,0,0-.12,1.27,1.27,0,0,0,.13.19l-.25.17a3.07,3.07,0,0,0,.26.25h0v0l0,0-.16,0c.07.2.37.21.37.36v.34a.67.67,0,0,1,0,.2,1.42,1.42,0,0,0,0,.46c.18-.08.26.08.36.22s.19.32.34.25a1,1,0,0,0,.26.44,1.25,1.25,0,0,0,.42.3,3.71,3.71,0,0,0,1.07.34l-.07,0c.31.21.41-.29.81-.21l-.1.06a3.49,3.49,0,0,0,2-.15c-.1.06-.05.18.11.18s-.13-.28.15-.21c-.07,0,0,.13.06.13l.27-.2a7.61,7.61,0,0,0,2.38.17c.14.07,0,.14,0,.21.61,0,1.21-.21,1.75-.25l.06.23c.27,0,.17-.35.51-.14.06,0-.24,0-.34.11.54.18.32-.22.83-.2l-.13.26c.39.16.44-.13.59-.29.55-.3.39.51,1.14.28.12-.13,0-.19.08-.32.53.07.59-.12,1.12-.05.28.39-.27,0,0,.36l-.4-.09c.34.21-.32.06-.27.29a2.85,2.85,0,0,0,1-.21c0,.18-.39,0-.24.26l.18-.07c-.05.05-.06.11-.16.11.06.15.2,0,.37,0a.78.78,0,0,0-.05-.34s0,0,0,.06c.34-.26.92-.06,1.21-.26-.06.05,0,.07,0,.11.19,0,.4-.22.68-.29.13.13-.11.39.34.31.07-.14-.12-.38.25-.38,0,0-.33.11-.13.21.36-.09.11.05.45.21.19-.2.36.09.4-.25.12.22.09.14.32.29-.1-.18.42-.17.42-.39.09.25-.39.3-.09.56.2-.15.58-.23.62-.49a1.28,1.28,0,0,0,.47.18s-.09,0-.11.06c.43-.18,1.07,0,1.32-.32-.09.39.93,0,.59.41a1.15,1.15,0,0,0,.52-.25c0,.3.46.07.65.25.1-.17.43-.11.62-.21-.1,0-.13.09-.1.17.21-.12.15,0,.34.14.3-.09-.05-.23.13-.37.26.07,0,.19.09.31l.38-.3a.26.26,0,0,1,.1.07.36.36,0,0,1,.07.1l.1-.07.13.15.39-.19c.26.1.36.22.39.36h0l.18-.07a2,2,0,0,1-.07.23H55.1l0,0c0,.12,0,.25-.06.37l-.23.06c0,.1.17.17.27.17s-.37.34-.62.39c-.68,0-.14-.37-.61-.45l-.6.18V61c-.09-.07-.15,0-.18.08,0-.16-.48-.06-.73-.08l.09.14c-.68.32-1.07-.35-1.61-.18l-.38.24L50.33,61c-.22.12-.26.28-.62.21-1.28-.36-2.65.08-3.94-.15,0,.05,0,.06.13.09-1.13-.51-1.78.53-2.8.13l.07-.08c-.52,0,.07-.08-.3-.19-.08.25-.67.2-1,.29.05-.05.15-.05.24-.08-.06-.06-.08-.21-.23-.16-.33.36-1,.32-1.58.43-.08-.17-.52-.31-.75-.58a3.64,3.64,0,0,0-.25.31.4.4,0,0,0-.24,0,.38.38,0,0,0-.23.11h.43v0l.08,0c.11,0,.18,0,.15,0,.21.16,0,.13,0,.32-.18,0-.54.06-.57-.09a.87.87,0,0,1-.28,0,.42.42,0,0,1-.22,0l0,0-.05-.06c-.33-.08-.81.21-1.09.34.27-.24-.07-.27-.07-.45a4.54,4.54,0,0,0,.74,0,.1.1,0,0,1,0,0,.14.14,0,0,1,0-.06c-.37-.19-.64.16-1.18,0,0,0,.11-.06.08-.12a.4.4,0,0,0-.24,0,.46.46,0,0,0-.17.17.68.68,0,0,0-.68-.22c-.18.14-.15.19-.48.19l.15-.12c-.34-.09-.34.11-.55.09,0,0,0-.09,0-.11-.38.07-.39.13-.68.37l.06-.19c-.34.12-1,.35-1,.09a.17.17,0,0,1,0,.12.3.3,0,0,1-.08.08l-.13,0a.54.54,0,0,1-.18,0,3.89,3.89,0,0,1-.84-.15.2.2,0,0,0,.11,0,.18.18,0,0,0,.08-.09,1.46,1.46,0,0,1-.59,0,2.61,2.61,0,0,1-.54-.24,8.75,8.75,0,0,1-.89-.72l.11-.29c-.25-.26-.76,0-1-.34l.2,0c-.12-.15-.22-.3-.3-.41A3,3,0,0,1,29,59a3.31,3.31,0,0,1-.25-.75l.18,0a5.62,5.62,0,0,1-.34-.64.84.84,0,0,0,.1-.54,2,2,0,0,0,0-.34v-.15l0-.17A1.92,1.92,0,0,1,28.7,55l-.36,0c0-.3-.09-.68.17-.82h0c.28,0,0-.3.06-.49s-.22-.27-.27-.15c.15-.79,0-2,.34-2.48,0-.22,0-.4-.06-.61s0-.43,0-.61a3.5,3.5,0,0,1,.18-1.2l0,0c.12-.27.39-.8.68-.7.14-.61-.1-1.13.31-1.77l0,.19a1,1,0,0,0,.11-.57s.07,0,.11,0c.16-.13.06-.28.09-.43l.06.1c.43-.45.46-1.47.86-2.12,0,.14.1.12.17.1-.16-.45.32-1.15.41-1.47l0,.24c.11-.65.56-.29.68-.93l-.34.21c.17-.19.23-.41.07-.43.24-.2.23.1.48-.26.09,0-.1.3.08.24l.37-.28c-.21.06,0-.43-.23-.3.25-.22.25.17.32.23l.06,0s.07-.06.15-.24c-.38-.18.25-.44-.25-.4.42-.74,1-1.2,1.31-1.91.5,0,.86-1.18,1.24-.81a1.62,1.62,0,0,0,.36-1c-.09,0-.1.16-.13.25,0-.17.25-.58.39-.74a3.35,3.35,0,0,0-.25,1,11,11,0,0,0,.45-1.07l.27.1c0-.37.34-.07.34-.48h-.1c.4-.42.2-.61.56-1l.06.09c.16-.1.2-.49.5-.44l-.25.26c.15.11.4,0,.56,0,.25-.29-.1-.32,0-.47h0l0,0,.06,0h0c.18.08.09.06.09.28.06-.08.15-.17.22-.25a.52.52,0,0,1,.16-.17l.63-.66s0,.07,0,.07L39.7,33a1.41,1.41,0,0,1,.22-.06,1.67,1.67,0,0,0,.3-.08.46.46,0,0,1,.23-.06.64.64,0,0,1,.24,0l-.08,0c.34.26.89-.24,1,.2.16.08-.37,0-.11.2.52.14.34-.37.79-.25-.06,0,0,0-.06.06.31,0,.7,0,1-.09h.08c.42.35,1.25,0,1.77.29l0,0c0-.08.17-.11.17-.16s0,0,0,0v0a1,1,0,0,1,.21-.1l0,0h0l0,0c.15.12.51-.14.61-.06,0-.09.15-.06.31-.06-.32.09-.12.19-.25.33a1.26,1.26,0,0,0,.31-.09.12.12,0,0,1-.08.06c.29-.09.43-.36.85-.3l.28.17c0-.1.11-.14.21-.17s0,0,0,0h.23s.07,0,.07,0a.63.63,0,0,1,.17.2l0,0h.06l0,.06c.09,0,.21,0,.33-.11h0l.25-.22a.25.25,0,0,0,0,.27,2.83,2.83,0,0,1,.4.08l.25.08.15.05a.08.08,0,0,1,.07-.08v.1h0l0,0c.08,0,0-.19.1-.16-.06,0,0,.09.05.09s0-.2-.13-.39l.15.12c-.07-.07-.1-.54.13-.41-.38-.14,0-.45.08-.58,0,.05.06.1.09.13-.07-.42.31-.59.46-.89l.28.09c.08-.16-.4-.47-.3-.63l.09.12a1.73,1.73,0,0,1,.38-.64l.16.09c0-.13,0-.24,0-.37.52,0,.21-.9.86-1l-.3-.2c.08-.13.11-.34.38-.28l0,0c.24.15.08-.13.18-.19s-.11-.23-.19-.2c.36-.28.48-.92.89-1a3.18,3.18,0,0,0,.06-.62c0-.1,0-.2,0-.3s0-.1,0-.15l0,0h0a2.52,2.52,0,0,1,.46-.1c0-.09-.16-.14-.28-.15s-.17,0-.17-.09l.1-.05c0-.09-.15,0-.15,0s0-.06.06-.09-.08,0-.11,0l0-.09c0-.13-.13-.1-.2,0l-.06.06s0,0-.06.06a1,1,0,0,1-.29.11c.06-.05,0-.15-.05-.19-.08.36-.53.4-.68.51l.07-.15c-.26.29-.36-.27-.61,0l.22.14c-.14,0-.23.07-.16.2-.18-.07-.08-.24-.31-.21,0-.09.14-.11,0-.2l-.37-.16s-.06,0-.15,0c.13.39-.26.09,0,.43-.43.14-.85,0-1.19.25-.25-.34-.75.17-.84-.34a.54.54,0,0,0-.29.15.62.62,0,0,0-.17.28c.06,0,.1,0,.13-.08,0,.14-.27.23-.38.25a1.64,1.64,0,0,0,.37-.53,3.58,3.58,0,0,0-.51.44l-.11-.25c-.12.23-.19-.17-.29.13l0,.07c-.3.05-.24.31-.51.41v-.1c-.1,0-.18.26-.33.05l.18-.05c-.07-.18-.23-.23-.31-.3-.18.09,0,.31-.09.36-.07-.16,0-.09,0-.27a1.15,1.15,0,0,0-.6.55v-.07c-.23,0-.35.38-.52.27l0,0c-.25-.2-.4.35-.55-.07-.12-.05.19,0,0-.2s-.2.06-.24.16-.09.2-.26.13c0,0,0,0,0-.05A2.55,2.55,0,0,1,44,27l-.27,0h0c-.12-.41-.72-.13-.85-.6,0,.16-.12.14-.14.2a.14.14,0,0,0,0-.06c-.08,0-.13.07-.18.12h0v0s0,0,0,0h0c-.06-.15-.32.05-.34-.05,0,.07-.1,0-.18,0,.2-.05.11-.17.23-.29-.24-.12-.41.3-.65.15l-.09-.21c-.1.25-.31.07-.34.16,0-.09-.07-.16,0-.28-.13,0-.25-.14-.34,0l.08.1c-.29-.2-.6.11-.79-.14l.12-.38c-.1-.21-.37.12-.44-.16,0,.14,0,.11-.12.2.06,0,.21,0,.31,0l-.29.15h.38c-.2.11-.16.08-.16.25-.25.06-.17-.26-.42-.17-.06-.07.06-.19,0-.29-.22.08-.25-.38-.44-.22,0-.05.07,0,.09-.08-.13,0-.21,0-.27.06l.08.07c-.08,0-.15.12-.28,0-.14.06-.24.23-.14.27s-.11-.13,0-.23c-.26-.09-.25.37-.44.11,0,0,0,0,0-.05l-.07,0h-.08c.23,0,0-.33.26-.18,0-.21-.18-.1-.24-.21-.17.1-.11.29-.2.37s0-.08-.09-.12v.17a.28.28,0,0,0-.18,0l.13,0c-.12-.06-.21-.36-.45-.27.07-.05.21-.14.1-.26s0-.08-.11-.24c-.24,0-.13.27-.42.07,0,0,0,.09,0,.14-.19-.14-.35-.07-.53-.25.09.07.15.15,0,.18.09-.11-.14-.17-.2-.28l0,.08c0-.09,0-.13.09-.13a0,0,0,0,0,0,.06c.13,0,.18-.34,0-.41s-.18.25-.18.34-.11,0-.13.12a.22.22,0,0,1-.08.12,1.54,1.54,0,0,0-.12-.14c-.06-.07-.15-.13-.21-.11.05.18.17.06.2.23-.17-.18-.22-.06-.21.08s.1.21,0,.24l-.21-.1a.2.2,0,0,0,0,.08.11.11,0,0,0,0,.08l.13-.05c0,.05,0,.14-.18.11.19.12.08.12.06.26,0-.13,0,0-.1-.07s0,.12,0,.16,0,0,.11.09a.19.19,0,0,0-.13.19c.19.06.26.27.42.4l-.06,0c.22.24.07.69.41.88v0s0,0,.06,0v0a0,0,0,0,1,0,0h0c.11,0,.2.2.3.23s-.12.1-.09.15.14.06.25.06-.22.1-.13.26.15,0,.21,0a.51.51,0,0,0-.07.15.48.48,0,0,0,0,.17s0-.1,0-.1,0,.08-.16.14.17,0,.17.08h-.19c0,.05.07.08.09.08s-.2.05-.28.1c.22.17.4-.15.56-.22,0,.27.27.34.37.51l-.18.05a.22.22,0,0,0,.09.07h.11l.07.12a.26.26,0,0,0-.15,0,.27.27,0,0,0-.15.05c.11.1.16.27.37.23,0,.22.15.61.07.64.17.14.16.44.38.34.11.08-.13.43.19.37-.08.21-.06,0-.24.08-.08.21.36.16.06.36.18.11,0-.08.22-.08-.28.18.09.31,0,.54.15,0,0-.1.22-.05l0,0s0,0,0,0,0,0,0,0a0,0,0,0,0,0,0l.2-.06-.38.38c.33.11.29-.2.53,0h0c-.15.17.25.14.22.42,0-.09-.11,0-.17,0l.13.08s0,0,0,0c-.09.17.12.05.06.24-.08-.07-.21,0-.26.1l.3.07-.29,0c0,.09.18.16.29.22s.18.11.09.29l-.11,0s-.15.26.08.26c.06,0,.19-.11.13-.14a.61.61,0,0,0,0,.12c-.15.13-.44-.05-.6-.21.1,0,.25.11.3,0l-.24-.13-.21-.14a1.42,1.42,0,0,0,.29,0c0-.17-.17,0-.23-.13s.08-.12.14-.12a.32.32,0,0,1-.14-.14.34.34,0,0,1,0-.2s.2.08.25,0c-.21-.2-.43-.15-.68-.34-.42-.16-.12-.66-.42-.76-.08,0-.06.22-.17.11.16-.05,0-.13.11-.16-.29,0-.06-.24-.26-.27.06,0,.08-.11.1-.19.19-.08,0-.2.36-.12-.38-.08-.12-.42-.63-.36l0,.08,0-.26c0-.11-.07-.1.05-.32.08,0,.12.11.19.14.1-.2-.26-.17-.34-.3.14,0,.12.12.26,0,0-.1-.16-.13-.24-.19l.08,0c.05-.31-.41.09-.25-.2,0,0-.1,0-.13.07s.1-.32.27-.22a.35.35,0,0,0-.11-.1.4.4,0,0,0-.15,0c-.07.12,0,.11-.14.2L35.77,29s.08,0,.11,0c.2-.56-.71-.58-.46-1.24-.09.11-.12,0-.22,0,0-.16-.16-.34-.16-.5h.1c-.26-.29-.51-.44-.57-.68,0,0,.12-.06.17,0-.23-.09.15-.52-.19-.4v.07a.76.76,0,0,0-.13-.23,3.28,3.28,0,0,1-.2-.31,1.36,1.36,0,0,1-.18-.79c.11,0,.11,0,.11.11s0,.16.14.12.08-.31.11-.47a.76.76,0,0,1,.27-.43c0,.06,0,.07,0,.1.33-.15-.19-.12,0-.32.06.09.09.09.19.09l0-.19a.3.3,0,0,1,.1.19c0-.12.09-.21.2-.28s.24-.11.27-.23c0,.06,0,.27.07.34s.23-.06.33-.13c.11.15.32.19.27.19.21.13.08-.1.28-.18a1.14,1.14,0,0,0-.16-.15l.34.05-.14.07c.11.11.3,0,.45,0l0-.15h.2c-.06.25.21.13,0,.38.29.22.61,0,.91.05,0,0,0,0-.07.07.16.11.31,0,.45-.07,0,.07-.09.08-.11.14.21.07.17-.1.42-.1-.1.08-.09.14,0,.19a.18.18,0,0,1,0-.1.2.2,0,0,1,.09,0c-.32.42.2.28,0,.62.05-.08.47-.2.43-.42h-.07c0-.14.1-.05.17-.05s-.1,0-.1.06c.38-.06.68.19,1.08.19-.05,0-.22.08-.14.15.36.19.63,0,1,0-.08.31-.41-.08-.52.21A7.28,7.28,0,0,0,42,25c0,.5.48,0,.64.38,0-.16.17-.17.32-.13-.08.11.07.16,0,.24.17-.1.55,0,.45.24.12-.27.27.1.43-.07.13.16.37.05.54.2,0-.19.07-.07.1-.15a.14.14,0,0,0,0,.06c0,.08,0,.06,0,0s0-.12,0,0,0,.17.07.17.24-.35.4-.22c-.06,0,0,.07-.06.13.49-.36,1.14-.24,1.63-.64l0,.24c.42.19.13-.41.42-.45a7.14,7.14,0,0,0,2.33-.3c0-.07,0-.07-.08-.16s.14.19.19.06l0-.12c.42.23.92-.46,1.29,0,.27-.27.58,0,.9-.39.15.07-.09.23.08.23l.32-.28v0c.13-.22.38-.19.65-.14a.2.2,0,0,0,.11,0h.15l.29,0a3.43,3.43,0,0,0,.56,0h0c0,.08.07.21.16.23s0-.1,0-.19a1.55,1.55,0,0,1,.66.24,1.63,1.63,0,0,1,.43.44c-.12-.06-.1,0-.09.08s0,.2-.06.25c.16.07.15-.16.34.1a1.31,1.31,0,0,1,0,.59,1.41,1.41,0,0,1-.21.56c.11.18,0,.34.15.43-.16.31-.16.46-.34.8l-.06,0c.17.19-.26.21-.17.33-.07,0-.08-.09-.15-.12v.19c0-.11-.2-.25-.29-.14.08.2.12,0,.21.14L54,27.75c0,.11.18.26.3.17-.18.32-.25.69-.44,1l-.11-.11a.56.56,0,0,1-.32.44s.08.1.14.1c.06.28-.22-.1-.15.21,0-.07,0-.15-.08-.2l-.05.47c-.1-.06-.44.08-.44.28a.14.14,0,0,0,.09,0,.16.16,0,0,0,.09,0v.13l-.27,0,.11.25-.18-.1c0,.14.18.31.12.39-.29.29-.33.19-.63.34.34.23-.22.37,0,.57-.44.18-.52.73-.83,1.12v-.06c-.26.1.16.35,0,.51l0-.08a.41.41,0,0,0-.19.18l-.24.36a2.2,2.2,0,0,1-.2.23c.17,0,.16,0,.16-.14.42.22.21.47.61.66.07.15-.14.14-.09.31.36.18.23.71.57.77,0,.08-.1-.11-.16,0,.17.16.27.29.4.27l-.09-.18c.1.14.25,0,.39.38.19.09.41,0,.29-.12.07.06.1.27,0,.29.31.41.5-.06.65.45,0,0-.08,0-.08,0a.83.83,0,0,0,.19.26c-.29-.34-.17.3-.43-.16-.14.19.2.34.23.53.27.11.27-.16.43-.12-.06,0,0,.12.06.24l.06-.2a1,1,0,0,0,.23.26l-.18-.14c.12.21.12.64.46.89-.12-.06-.35-.16-.26.11.33.31,0,.12,0,.4.27.34.28-.1.55.49,0,.06.08,0,.08-.12a6.55,6.55,0,0,1,.53,1c-.07-.18-.1-.33.1-.16-.17,0,.09.37.09.55h.1c0,.16-.11.06-.19,0s0,0,0-.12-.39.08-.25.38.41.09.45,0c.17.45.55.19.68.66,0,.09-.07.55.07.85.24.06-.08-.43.15-.34-.15.71.79.87.87,1.65l-.24,0a2.23,2.23,0,0,0,.22.47v-.28c.12.13.25.51,0,.46.31.27.25.4.34.74-.13-.35,0,0-.19-.22a1.05,1.05,0,0,0,.29.63c-.11,0-.15.17-.11.26a3.72,3.72,0,0,1,.56.91l-.06,0c.29.53.19,1.24.53,1.77v0c.15-.26.26.42.38.59,0,0-.14.09-.12.19.2,0,.15.22.25.29,0,.23-.24,0-.18.37a.14.14,0,0,0,0,.07l.06,0a.07.07,0,0,0,.06,0h.07a.91.91,0,0,0-.16.51c0-.06,0-.17,0-.21s-.06.11-.19.11c0,.17.19.06.14.27l-.18-.18c0,.08.06.18.06.22,0-.12-.21-.09-.3-.06.14.46.43.07.61.07-.1.47.13.83.15,1.17l-.19-.06a.48.48,0,0,0,0,.17.38.38,0,0,0,.1.12v0l.09.12-.08,0v.22c-.07-.15-.13-.2-.28-.2.06.28,0,.66.27.73h0c-.09.38-.15,1.16-.23,1.13,0,.29,0,.63,0,.81s.26.06.26.12a.32.32,0,0,1-.13,0c0,.24-.34.59,0,.78-.18.27-.07,0-.25-.09-.18.28.22.59-.14.66.09.34.08-.07.23,0-.21,0-.21.24-.21.47a.75.75,0,0,1-.09.44c.11.16.1-.14.21.13-.08,0-.13.09-.13.16Zm.1-2.83a.11.11,0,0,0,.09.1s0,0,0-.05S59.12,54.62,59.1,54.6ZM39,61.46c0,.06.06.08.17.06h0s0,0,0-.07A.75.75,0,0,1,39,61.46Zm-1-1.27a1.6,1.6,0,0,1-.31,0c.11.05.28.11.24.13S38,60.26,37.92,60.19ZM49,33v0h0Zm.4,1.52h0l-.32-.08H49l0,0C49.14,34.46,49.28,34.56,49.38,34.48Zm1.25-.36c.17,0,.32.1.49.15l-.48-.34-.18.22c.18.1.39.15.41.4,0-.16,0-.15.23-.09C51,34.36,50.79,34.26,50.63,34.12ZM34.89,61.22h0Zm19.26-1.29Zm2.29.25h0ZM51.13,36.46l0,0C51,36.36,51.05,36.41,51.13,36.46Zm5.16,23.33a0,0,0,0,1,0,0l.05,0Zm-.13.17a.47.47,0,0,0,.1-.1S56.17,59.9,56.16,60Zm1.58-1.53c-.07.09-.26.17-.31.31l0,0c0-.07.06-.11.15-.16S57.76,58.5,57.74,58.43ZM59,56.65a.28.28,0,0,1,0-.09l0,.1v0L59,57c.08-.08.19-.19.2,0C59.39,56.48,59.05,57.06,59,56.65Zm.19-1.5c0,.25.11,0,.15,0C59.32,55,59.3,55,59.23,55.15Zm-1.44-10,.17-.05C57.86,44.92,57.89,45.11,57.79,45.13Zm-1.63-1.37,0,.21h.18Zm.63-1.52-.2-.24.14.18ZM43.66,32.82l.05.21C43.85,33,43.87,32.76,43.66,32.82Zm-7.07,2.59a.28.28,0,0,0-.12.2c.14-.1.31-.19.34-.27A.29.29,0,0,0,36.59,35.41ZM28.38,55.54v-.13l-.08-.14Zm7.75-31s0,0,0,0,.08,0,.06,0Zm-.32,2.54v-.14C35.75,27,35.8,27,35.81,27.08Zm2.13,6,0,0h0Zm-1.07-4.3a.17.17,0,0,0,.1,0l-.1,0Zm.54,1.36.07,0a.41.41,0,0,0,.11-.07s-.18,0-.26.07ZM51,25.81c-.18-.13.18-.27-.08-.4C51,25.48,50.79,25.75,51,25.81ZM38,33c-.05,0-.07,0-.09,0l0,0A.09.09,0,0,0,38,33Zm15.11-2.95a0,0,0,0,0,0,0v0S53.06,30.07,53.06,30.06Zm-9.17-4.5-.11-.12a.56.56,0,0,0,.07.16ZM40,34.43Zm-3-5.22Zm3,5.22h-.17C39.89,34.53,39.94,34.49,40,34.43Zm8-1.63h0Zm5-2.35,0,0,0,.05ZM39.34,24.31h0C39.43,24.28,39.39,24.28,39.34,24.31Zm-3.42-.55.14-.08C36,23.66,35.92,23.65,35.92,23.76Zm.25-.09h-.11c.07,0,.13.06.2,0Zm2.4,10.14-.12,0S38.51,33.86,38.57,33.81Zm-.94-1.3c0,.07-.05.22,0,.28h.05C37.6,32.8,37.76,32.51,37.63,32.51Zm.22-1.45.06.24c.05-.07.11-.16.18-.08C38.15,30.85,38,31.35,37.85,31.06Zm-.24-.71c.09.1.1-.05.14-.06S37.63,30.24,37.61,30.35Zm-2.26-4.83c0-.05-.06,0-.16.07Zm-1-.91-.15.1.13.1A1.5,1.5,0,0,1,34.34,24.61Zm9.13,2.48,0-.21C43.43,26.9,43.35,27.12,43.47,27.09Zm4.33-.71c-.09,0-.19,0-.23,0S47.76,26.51,47.8,26.38Zm4.07,2.41,0-.05,0-.11Z" fill="#161614"/>
  <path class="mapIcon__outerRing" d="M24.65,8,23.17,5.24A43.45,43.45,0,0,1,41.91.05l.15,3.12A40.35,40.35,0,0,0,24.65,8ZM5.79,29.44,2.88,28.32A44,44,0,0,1,21.42,6.22L23,8.9a41.24,41.24,0,0,0-12.75,12A40.55,40.55,0,0,0,5.79,29.44ZM2.92,59.79A43.72,43.72,0,0,1,0,44H3.12A40.89,40.89,0,0,0,5.84,58.67Zm6.15,11A43.89,43.89,0,0,1,3.6,61.43l2.86-1.24a41,41,0,0,0,5.1,8.67ZM44,88A43.95,43.95,0,0,1,10.75,72.82l2.36-2A40.86,40.86,0,0,0,44,84.88Zm3.48-.14-.25-3.11a41.87,41.87,0,0,0,5-.69l.62,3.06A46,46,0,0,1,47.48,87.86Zm12-2.64-1.1-2.92A41.82,41.82,0,0,0,63.47,80c.58-.31,1.17-.65,1.75-1a41.17,41.17,0,0,0,8.92-7.34l2.31,2.1a43.92,43.92,0,0,1-9.61,7.9c-.62.38-1.26.74-1.89,1.08A43,43,0,0,1,59.43,85.22ZM78.5,71.31l-2.44-1.94c.59-.75,1.16-1.53,1.69-2.32a40.7,40.7,0,0,0,7.13-23c0-.84,0-1.7-.08-2.53a40.64,40.64,0,0,0-3.54-14.3l2.85-1.29a43.69,43.69,0,0,1,3.8,15.4c.06.9.09,1.82.09,2.72a43.75,43.75,0,0,1-7.67,24.81C79.76,69.66,79.14,70.5,78.5,71.31ZM77.23,20.19A41.8,41.8,0,0,0,74,16.25,41,41,0,0,0,44,3.12V0A44,44,0,0,1,79.77,18.37ZM39.35,61.26h0l-.07,0,0,.06Z" fill="#161614"/>
</svg>
