<svg class="mapIcon" xmlns="http://www.w3.org/2000/svg" viewBox="0 0 88 88">
  <path d="M80.39,49.91A36.86,36.86,0,1,0,38.1,80.39,36.85,36.85,0,0,0,80.39,49.91Z" style="fill: #b483af"/>
  <path d="M33.26,54.54c.11.06.25.11.21.16ZM23.52,46.2l0,0a.35.35,0,0,0-.12-.07ZM64.85,41c.07.34-.46-.28-.3.19C64.57,41.08,65,41.33,64.85,41Zm-8.74,12.9,0,0,.07,0Zm-.14.07.08,0s0,0,0,0A.18.18,0,0,1,56,53.94Zm2.25-1.32.13,0h-.06ZM30.76,35.71a.45.45,0,0,1-.18-.07C30.69,35.72,30.38,36,30.76,35.71ZM23.48,46.24s0,0,.06,0l0,0-.06-.06S23.48,46.22,23.48,46.24Zm33.68,5.67a.06.06,0,0,0,0-.06l-.26.09A.57.57,0,0,0,57.16,51.91ZM35.48,32.07h0ZM66.77,43.76a.54.54,0,0,0,0,.18,4.23,4.23,0,0,0-.44.51l-.34.47c-.19.25-.36.42-.5.28a2.1,2.1,0,0,0-.44,1c.08,0,.11-.18.14-.27,0,.16-.3.62-.44.8a4.7,4.7,0,0,0,.34-1,9.81,9.81,0,0,0-.53,1.14l-.25-.06c-.1.37-.33.1-.39.51H64c-.44.47-.26.64-.66,1.1l0-.08c-.18.12-.23.49-.52.49l.27-.28c-.15-.09-.41.08-.56.11-.26.33.09.29,0,.46-.17,0-.08,0-.08-.25a5.53,5.53,0,0,0-.82,1.19s0,0,0,0a2.43,2.43,0,0,0-.44.52.94.94,0,0,1-.4.34l.06-.08c-.44.07-.66.8-.95.55-.18,0,.34-.25,0-.21-.52.24-.12.46-.59.67.06,0,0,0,0-.07-.3.21-.67.53-1,.78a1.94,1.94,0,0,0-.93.43,4.76,4.76,0,0,1-.49.28,1,1,0,0,1-.51.1c.22,0-.06.2,0,.25s0,0,0,0c-.2.09-.15.21-.2.29s-.45.36-.58.36c0,.07-.13.12-.3.19.3-.23,0-.2.14-.38-.52.19-.44.58-1,.76H54c0,.25-.51.34-.46.42-.12,0-.27,0-.29-.13-.2.13-.56.14-.61.3l.24,0c-.69.18-1,.59-1.59.61l-.08-.34c-.39,0-.6.38-1,.24.14.09.15,0,0,.22a4.19,4.19,0,0,0,.59-.22,4.23,4.23,0,0,1-.42.32,6.29,6.29,0,0,0,.71-.3c-.27.23-.26.19-.09.28-.43.25-.54,0-.94.21-.17,0,0-.17-.23-.2-.35.21-.77-.05-1,.16-.09,0,.16,0,.13-.11-.25.08-.43.09-.49.2h.22c-.19,0-.19.17-.57.15-.2.11-.29.3-.06.27-.09,0-.31,0-.25-.14-.57.08-.22.42-.8.32,0,0,.08,0,0-.06a1,1,0,0,0-.34,0c.49-.08-.18-.25.41-.25-.09-.18-.45,0-.64-.05-.26.15,0,.27-.14.37,0-.05-.11-.05-.25-.05l.14.12a1.61,1.61,0,0,0-.37.07l.23-.08c-.14,0-.29,0-.48-.07a1.3,1.3,0,0,0-.62,0c.12-.06.35-.18,0-.24-.48.1-.11-.06-.39-.15l-.12,0-.08.13s0,0-.07-.06l0,0h0c.08.07-.31.28-.53.31s-.3-.08-.31-.15c-.28,0-.56,0-.84-.07.21,0,.36.09.08.15.11-.11-.38-.12-.56-.19l-.05.06c-.15-.08,0-.1.13-.12h0s0,0,.1,0,0,0-.1,0,.05,0,.12,0,.16-.09.12-.17-.33,0-.45-.06l.05.13a.58.58,0,0,1-.23,0s0,0,0,0c-.52-.12-.52.27-1,.11a7,7,0,0,0-.83-.4c-.11.06,0,.11.11.16s.21.07.1.12a1.27,1.27,0,0,0-.45-.19,1.16,1.16,0,0,0-.49,0,1.88,1.88,0,0,1-1.1-.13l.14-.17a4,4,0,0,0-.57-.14l.25.17c-.19,0-.61-.14-.44-.25a1.35,1.35,0,0,1-.88-.19c.4.11,0,0,.32,0a1.74,1.74,0,0,0-.74-.2c.07,0-.06-.2-.16-.23A4.94,4.94,0,0,1,35,55.26l0,0a4.66,4.66,0,0,1-.95-.4,4.69,4.69,0,0,0-.46-.21,2.13,2.13,0,0,0-.49-.15h0l0,0c.14.26-.52-.1-.74-.11,0-.06,0-.14-.1-.19-.08.15-.28,0-.4,0-.17-.16.11-.17-.23-.34-.14-.06-.21,0-.21.08a1.05,1.05,0,0,0-.4-.41c.09,0,.16.11.21.11s-.06-.1,0-.2c-.16-.1-.14.11-.32-.05l.26,0a.38.38,0,0,0-.24-.09c.13,0,.18-.1.21-.18-.51-.16-.27.27-.37.39a5.68,5.68,0,0,0-1.15-.59l.14-.1a.58.58,0,0,0-.35-.07l.05,0h-.16l.09,0-.25-.15c.19,0,.26,0,.34-.07-.29-.12-.62-.4-.8-.27l0,0c-.3-.31-1-.84-.92-.89-.27-.15-.53-.41-.71-.5s-.19.14-.24.09a.31.31,0,0,1,.05-.1.16.16,0,0,0,.1,0,.11.11,0,0,0,.08,0c-.07,0-.13,0-.17,0-.25-.13-.37-.64-.68-.57-.14-.32,0-.06.2-.11-.15-.31-.62-.26-.49-.56-.33-.17,0,.12-.16.12.14-.26-.48-.48-.6-.85-.19,0,.06.16-.21.06.07,0,0-.15-.07-.2l-.17.08,0-.55c-.51-.23-.14.29-.68-.15l0,0c0-.27-.43-.29-.65-.76.08.15.11,0,.18,0l-.24-.16c.05,0,.05,0,.05,0-.06-.27-.2-.12-.29-.41.15.13.21,0,.21-.11s-.27-.13-.4-.19l.29,0c-.22-.32-.89-.55-.74-.91l.14.13s.12-.24-.14-.38c-.08,0-.22,0-.15.08,0-.07-.05-.13-.07-.2.18,0,.51.35.73.57-.12,0-.3-.2-.34-.08.21.19.45.33.65.5a.85.85,0,0,0-.32,0c.12.27.22.11.37.27s0,.17-.07.17a1.4,1.4,0,0,1,.52.61s-.31-.18-.26,0a12.28,12.28,0,0,0,1.12.67,1.8,1.8,0,0,1,.7.67l.26.34a.85.85,0,0,0,.32.21c.06,0-.18-.32.08-.15-.14.07.07.19,0,.24.39.07.33.36.6.41-.07,0,0,.17.1.29-.15.11.22.3-.3.17.54.13.65.61,1.18.53l-.07-.12.34.38v0a.89.89,0,0,1,.34.45c-.12,0-.27-.13-.4-.18.12.29.54.22.78.38-.09.1-.3-.14-.3,0a2.2,2.2,0,0,0,.54.25l-.06,0c.34.43.36-.17.54.24,0,0,.09,0,.09-.1.07.14.3.42,0,.32a.86.86,0,0,0,.49.13c-.08-.16-.14-.14-.12-.28l.66.31c.07,0-.08,0-.17,0a1.59,1.59,0,0,0,.49.44,6.62,6.62,0,0,0,.62.24,2.58,2.58,0,0,1,1.2.71c-.05-.15.1-.06.22-.1.27.18.71.33,1,.52l-.12,0a9.09,9.09,0,0,1,1.7.46s0,.1-.13.1c.39,0,.67.53.86.27L36,55a5.21,5.21,0,0,0,1.09.25,10,10,0,0,1,1.13.12c.13.22-.41-.08-.32.17a2.93,2.93,0,0,0,.77.16c.15,0,.3,0,.45.07l-.53-.24,0,0-.29,0,.09-.09a4.08,4.08,0,0,1-.72-.37,2.63,2.63,0,0,1-.66-.49s0,.07.05.13a1.67,1.67,0,0,0-.42-.46,1.42,1.42,0,0,0-.56-.25,1.54,1.54,0,0,1-.91-.71h.09c-.33-.29.09,0-.06-.29-.2.1-.5-.3-.73-.44.06,0,.12.07.19.11s.09-.17,0-.23a.8.8,0,0,1-.31-.09,1.46,1.46,0,0,1-.28-.21c-.18-.17-.35-.38-.52-.53.06-.13,0-.52.06-.81a2.68,2.68,0,0,0-.34,0s0,0,0,0v.07l0,0,0,0h.06a.35.35,0,0,0-.25-.28l.2.3h0l0,0c.05.09.08.12.08.09,0,.23-.09,0-.23.15-.07-.12-.28-.37-.19-.46a.63.63,0,0,1-.08-.23.28.28,0,0,1-.11-.15l0,0s0,0,0-.06c-.07-.29-.47-.55-.68-.72.31.13.2-.15.34-.21a4.23,4.23,0,0,0,.25.58.14.14,0,0,1,0-.06l0,0a.54.54,0,0,0,0-.22.59.59,0,0,0-.13-.18.79.79,0,0,1-.24-.5.08.08,0,0,0,.12,0,.32.32,0,0,0-.27-.27c.12-.09.15-.48,0-.58s-.2-.08-.26-.34l.12.08c0-.33-.19-.21-.19-.49,0,.1.09.08.09,0-.14-.31-.19-.3-.46-.49h.17c-.15-.26-.42-.78-.2-.82-.32.16-.29-.6-.27-.86a.08.08,0,0,0,0,.07.11.11,0,0,0,.08,0,3,3,0,0,1,0-1.6l.25-.07c0-.28-.47-.39-.45-.71l.11.13a4.49,4.49,0,0,1,.19-1.21l.16,0a3.07,3.07,0,0,1-.05-.53c.24-.13.28-.48.34-.88a1.5,1.5,0,0,1,.5-1l-.27-.15c.08-.23.18-.57.44-.57l0,0c.21.12.12-.22.23-.34s-.06-.3-.14-.23c.2-.26.43-.6.64-.94a3.68,3.68,0,0,1,.34-.44,1,1,0,0,1,.34-.24c.16-.29.26-.59.4-.86a3.38,3.38,0,0,1,.59-.8l0,0c.19-.16.62-.42.79-.23a3.55,3.55,0,0,0,.38-.62,1.35,1.35,0,0,1,.57-.54l-.05.16c.15-.05.25-.34.32-.36s.06,0,.06.07c.16,0,.16-.18.25-.26v.1a1.8,1.8,0,0,0,.4-.25l-.4.07a4.84,4.84,0,0,0-.6.22c-.16,0-.07-.11,0-.18a9,9,0,0,0-.9.38c-.29.15-.56.3-.83.41l-.12-.16c-.28.1-.06.34-.48.3-.09,0,.23-.09.29-.21-.6.06-.25.3-.76.5l0-.27c-.44,0-.4.3-.48.48-.44.48-.57-.22-1.21.32-.07.16.1.13,0,.28-.51.22-.51.37-1,.61-.43-.13.25-.15-.19-.25l.41-.15c-.2,0-.14,0,0-.11s.24-.16.17-.24c-.29.06-.57.44-.85.68-.08-.13.36-.23.11-.32l-.14.15c0-.06,0-.12.11-.17-.12-.09-.19.11-.34.2a.5.5,0,0,0,.2.23.11.11,0,0,0-.07,0,1.72,1.72,0,0,1-.51.46,1.39,1.39,0,0,0-.47.43c0-.07,0-.05-.06-.07-.19.12-.27.4-.48.62-.19,0-.12-.34-.46,0,0,.14.32.19,0,.43,0,0,.21-.29,0-.2-.26.31-.12,0-.49.15-.06.26-.36.19-.21.44-.22-.08-.15-.06-.43,0,.18,0-.25.42-.12.55-.22-.09.15-.47-.24-.43-.08.26-.36.57-.23.76a1.23,1.23,0,0,0-.48.22c.05,0,.05-.09.05-.13-.24.44-.83.81-.83,1.19-.17-.31-.68.7-.68.22a1.41,1.41,0,0,0-.22.57c-.18-.19-.39.31-.62.38.05.18-.22.42-.29.64,0-.1,0-.18,0-.18-.08.25-.12.14-.34.23-.15.3.19.07.16.3-.22.18-.16-.07-.27-.1a2.73,2.73,0,0,0-.05.5.31.31,0,0,1-.1,0,.24.24,0,0,1-.12,0c0,.17,0,.33-.22.43l.2-.3-.19,0-.11.44c-.51.39-.63.08-.83-.11l.11-.23c-.08,0-.19.1-.3.16s0-.51.14-.76c.46-.63.36,0,.7-.34.09-.22.19-.42.29-.63l.07,0c.12,0,.08-.15.08-.19.08.12.38-.39.57-.59h-.16c.3-.77,1-.69,1.32-1.24,0-.14.1-.29.15-.43L25,39c.11-.25,0-.38.38-.62a10.46,10.46,0,0,0,.89-.64c.28-.23.55-.48.83-.73a9.22,9.22,0,0,1,1.8-1.29s-.08,0-.17,0a2.89,2.89,0,0,0,1.36-.89,2.41,2.41,0,0,1,1.29-.82l0,.09c.5-.28-.05.11.38,0,0-.22.58-.49.86-.69,0,.06-.14.1-.22.17.08,0,.16.1.3,0a1.59,1.59,0,0,1,.62-.56c.29-.17.6-.33.87-.46.12.1.65,0,1,.17a2.11,2.11,0,0,0,.16-.34.49.49,0,0,0,.27,0,.52.52,0,0,0,.22-.17l-.46.16v0l-.07,0h0c-.11.05-.17.08-.14.08-.27-.05,0-.11-.09-.26l.34-.14.1,0-.08,0a.15.15,0,0,0,0,.09l.22-.09s0,0-.06,0,.1,0,.12,0A1.64,1.64,0,0,1,36,32,.47.47,0,0,1,36.2,32l0,0a.09.09,0,0,0,.06,0c.39,0,.84-.43,1.13-.59-.26.25.13.19.16.34a.83.83,0,0,0-.22,0,3,3,0,0,0-.59.15l.06,0,0,0c.44,0,.66-.31,1.28-.34,0,0-.1.08-.06.12a.51.51,0,0,0,.24-.07.52.52,0,0,0,.17-.19.76.76,0,0,0,.76,0,.62.62,0,0,1,.51-.25l-.15.13c.44,0,.32-.2.68-.18-.14,0-.14.1,0,.1a1.43,1.43,0,0,0,.43-.17s0,0,0,0h0a1.29,1.29,0,0,0,.3-.22l0,.16C41.26,31,42,30.74,42,31c-.14-.34.82-.21,1.16-.21a.15.15,0,0,0-.09,0,.1.1,0,0,0-.05.08,5.6,5.6,0,0,1,2.12,0l.1.25c.37,0,.51-.46.91-.41l-.15.1a8.42,8.42,0,0,1,1.58.19l0,.16c.2,0,.46,0,.68,0a.81.81,0,0,0,.47.23c.21,0,.46.06.72.1a2.63,2.63,0,0,1,1.45.49l.13-.28c.32.09.75.17.83.43l-.07,0c-.1.21.32.11.5.21s.35-.06.24-.15a11.57,11.57,0,0,0,1.35.6,3,3,0,0,1,1.06.68l.62.17.58.18a5.17,5.17,0,0,1,1.18.52l0,0c.25.21.76.62.62.83a5.46,5.46,0,0,1,1.78.85l-.2,0a1.66,1.66,0,0,0,.56.29c.06.05,0,.05,0,.07.1.2.27.16.41.24l-.1,0a3.24,3.24,0,0,0,.94.74,7.44,7.44,0,0,1,1.06.81c-.12-.09-.12,0-.12.11.45,0,1.06.77,1.36,1l-.24-.08c.63.36.19.63.78,1l-.13-.41c.14.26.34.39.39.26.15.3-.14.17.16.56,0,.06-.27-.24-.24,0s.18.43.26.65c0,0,0,.1.2.26.24-.26.35.43.42,0a7,7,0,0,1,.73,1.13c.11.19.21.36.32.53s.14.21.25.34S66.65,43.62,66.77,43.76ZM51.85,35.07h0c-.12-.24-.45-.27-.64-.52,0,.21-.28-.13-.41-.13,0,0,.09,0,.09,0s-.36-.08-.46-.24.1-.12,0-.19c-.06.1-.51,0-.59-.23.06,0,.09,0,.15,0a6,6,0,0,1-1.15-.47,3.87,3.87,0,0,0-1.21-.32l.2-.14c-.44-.37-.42.21-.8.09l-.39-.15-.41-.11c-.27-.07-.54-.17-.82-.23l-.18,0,.16.1-.08.05c0,.08.08,0,.1,0s.11.25.15.38l.08-.1c.43.19,0,.65.29.84l.27.09-.14.12c.15.06.28,0,.31.23,0,.74.61,1.31.64,2,0,0,0,0,0-.1a.67.67,0,0,0,0,.42.66.66,0,0,0,.24.33c.18.18.37.37.27.68l-.07,0c.1.26-.07,0-.12.2.2,0,.23.31.34.46,0,0-.06-.08-.1-.12s-.16.08-.1.15c.34.11.38.51.52.77-.13.06-.2.33-.41.49l.26.09,0-.05v0c0-.06,0-.07,0-.07s.11,0,.27,0c0,.11.09.3,0,.34a.26.26,0,0,1,0,.15l0,0v0l0,0c0,.19.23.42.36.56-.22-.13-.23.06-.38.08a1.35,1.35,0,0,0,0-.4.13.13,0,0,1-.09,0c-.13.22.18.33.1.63l0,0H48c0,.11.1.21.19.21a.18.18,0,0,0-.09.06.22.22,0,0,0-.07.09.36.36,0,0,0,0,.11.43.43,0,0,0,0,.11c.13.08.19.07.19.24l-.11-.06c-.07.21.17.16.09.33,0-.07-.07-.07-.09,0,.07.22.13.22.34.36l-.16,0c.1.19.32.53.1.53.33-.07.18.4.18.56,0-.07-.08-.07-.12-.07.23.34,0,.68,0,1l-.25,0c0,.18.5.25.48.44l-.12-.07a2.21,2.21,0,0,1-.06.77l-.16,0c.07.1.06.23.13.34-.42.19.14.93-.37,1.3l.31.06c0,.16,0,.37-.24.41v0c-.23-.05,0,.16-.09.25s.15.18.21.12c-.21.4-.18,1-.51,1.26a3.33,3.33,0,0,1,0,1.26h0c-.08.13-.24.41-.49.34,0,.33.23.65,0,1l-.06-.12c-.07.08,0,.29,0,.32s0,0-.08,0,0,.16,0,.24l-.08-.06c-.26.24-.13.83-.34,1.2,0-.07-.09-.07-.14-.07.19.27-.07.67-.1.85l0-.14c0,.38-.39.12-.39.5l.24-.09c-.13.1-.13.23,0,.26-.16.11-.19-.09-.34.11-.07,0,0-.16-.09-.16l-.29.15c.14,0,0,.25.23.2-.16.1-.21-.12-.27-.18h0s0,0-.09.13c.16.08.13.14.1.2s-.07.11.14.11A6.61,6.61,0,0,1,45,56a5.5,5.5,0,0,1,.75-.17c-.11,0-.06,0-.08.09a1.22,1.22,0,0,0,.8-.26c0,.08-.11.11-.11.16.44,0,.25-.15.73-.26,0,.05-.07.08-.07.1a.38.38,0,0,1,.15,0,.28.28,0,0,1,.14-.12.66.66,0,0,0-.06.12l.12,0s-.07,0-.11,0,.22.08.35.1a1.67,1.67,0,0,1,.3-.22,1,1,0,0,1,.16-.12c0-.05,0-.07.11-.07a1.09,1.09,0,0,1,.24-.07s.06,0,0,0l.11,0c.21,0,.44,0,.55-.2s-.28,0-.1-.14c0,.14.16,0,.19.07.13-.29.34-.11.42-.31,0,0,.14,0,.25,0,.06.16.2.05.13.22l.07,0,0-.07.2-.13a.35.35,0,0,0,.18-.16.45.45,0,0,0,.07-.25h-.11l.34-.11a.57.57,0,0,1,.42-.08c0,.09-.16.16-.21.25.26,0,.26-.35.43-.48.08.11-.14.17,0,.26.14-.07.19-.23.28-.34l0,.07c.4-.1-.1-.36.28-.34,0,0,0-.08-.08-.1h0c.13,0,.35-.06.24.16a.51.51,0,0,0,.17-.34c-.15,0-.14.06-.26,0l.34-.4s0,.08,0,.13a.91.91,0,0,0,.42-.23,2.71,2.71,0,0,0,.28-.41,1.86,1.86,0,0,1,.28-.41,1.37,1.37,0,0,1,.45-.3c-.13,0,0-.1-.07-.2a4.86,4.86,0,0,1,.53-.58l0,.1a5.27,5.27,0,0,1,.52-1.17s.09.06.09.12c0-.3.54-.38.29-.58l-.06.07a2,2,0,0,0,.27-.76,7.25,7.25,0,0,1,.16-.81c.21-.08-.09.29.15.26.22-.33.15-.74.31-1.12,0,.07,0,.06,0,.09.21-.38-.19,0-.08-.33.08,0,.11,0,.18-.08l-.12-.13a.16.16,0,0,1,.1,0,.13.13,0,0,1,.07.06c-.15-.19,0-.62-.12-.76,0,0,.21.08.28,0a.51.51,0,0,0,0-.44l0,0s0-.07,0-.14a.53.53,0,0,0,0,.12c.12-.13.11-.38.13-.31.07-.32-.1-.07-.2-.32l-.1.25V44.6l.08.19c.09-.22-.06-.44-.05-.68l-.11.11a1.31,1.31,0,0,0-.06-.27c.21,0,0-.36.29-.21.07-.53-.19-.85-.3-1.3,0,.08.05.06.09.06a.64.64,0,0,0-.07-.31.7.7,0,0,0-.19-.26c.07,0,.1.08.16.08-.06-.32-.14-.17-.29-.51.11.08.15,0,.15-.06s-.15,0-.19-.09c.49.17.07-.42.45-.34-.1,0-.42-.49-.54-.28l.05.08c-.11,0-.1-.09-.13-.19,0,.05.07.09.1.09a3.77,3.77,0,0,1-.32-.71,2.43,2.43,0,0,0-.34-.73c.06,0,.23.2.2,0a1.86,1.86,0,0,0-.37-.62l-.24-.25a3.7,3.7,0,0,1-.28-.28c.11-.08.19,0,.29.18s.15.27.27.22l-.11-.19-.14-.18-.3-.34-.31-.36-.37-.34c.18-.42-.49-.41-.53-.9-.08.12-.25,0-.4-.16h0c.08,0,0-.19.06-.19-.21-.07-.66-.39-.46-.57-.19.14-.3-.23-.5-.25a.58.58,0,0,1,0,.19ZM47.18,55.74s0,0,0,0h-.12A.24.24,0,0,0,47.18,55.74ZM43.25,33.16h0v0Zm.59,22.71h-.13a.18.18,0,0,0,.14.08A.22.22,0,0,1,43.84,55.87Zm4.09-16.34h0c-.07.12,0,.18.1.24l0-.23s0,0,0,0Zm.25.15s.06,0,0-.1h-.06Zm2.6-6.52s-.06,0,0,.11.28.11.4.08Zm-13.43-.45c-.14,0-.31,0-.29-.05s-.09.09-.05.13ZM33,50.59s0,.07,0,.14h.07Zm.55-1.28c0-.07-.07-.15-.1-.23h0c0,.09,0,.23,0,.22S33.48,49.35,33.52,49.31Zm6,5.29c0,.23-.38.11-.27.41.21-.06.49,0,.61-.18.09.09.11.19.27.27,0,0-.07,0-.09,0,.36,0,.78.3,1,.08-.17.29.66.21.34.44a.75.75,0,0,0,.44-.1c0,.12,0,.16.15.19s.24,0,.3.11c.1-.13.34,0,.51-.1a.12.12,0,0,0-.1.13c.18-.08.12,0,.26.16.24,0,0-.2.13-.3.19.08,0,.17,0,.28l.32-.25.07.07s0,0,0,0l.14,0h0a.12.12,0,0,1,.13,0,.53.53,0,0,1,0-.17.59.59,0,0,0-.23-.24.67.67,0,0,0-.31-.1c0,.08.09.11.14.14s-.15-.06-.24-.16A1,1,0,0,1,43,55c.07,0,.19.15.31.2a.48.48,0,0,0,.31.08l-.32-.23a1.68,1.68,0,0,0-.28-.18l.17-.17c-.23-.06.09-.21-.19-.24l0,.06c-.14-.28-.33-.18-.5-.43l.09,0c0-.12-.28-.15-.14-.34l.09.17c.14-.08.14-.24.18-.34-.13-.16-.27.05-.33,0,.11-.1.07,0,.23,0a1.43,1.43,0,0,0-.58-.45l.06,0c-.07-.23-.41-.32-.34-.5l0,0c.15-.25-.36-.39,0-.55,0-.1.06.2.18,0s-.36-.07-.34-.34c0,0,0,0,.06,0a5.6,5.6,0,0,0-.27-.55v-.07l0,0c.16-.3-.28-.68,0-1-.1.11-.16,0-.21,0h0c0-.11-.13-.08-.19-.11s0,0,0-.05a0,0,0,0,1,0,0s0,0,0-.08-.15-.16-.11-.2-.08-.07-.1-.15c.13.15.18,0,.32.07,0-.27-.4-.23-.4-.52l.12-.18c-.23,0-.19-.26-.27-.24s.08-.14.2-.14c-.07-.1,0-.29-.13-.31l0,.12c0-.35-.33-.51-.21-.8l.34,0c.12-.19-.22-.3,0-.47-.11.06-.07.07-.19,0,0,.07.09.18.09.29L40.4,47l.14.34c-.16-.14-.12-.13-.25-.05-.14-.21.13-.26,0-.46,0-.08.17,0,.23-.11-.14-.17.22-.39,0-.51,0,0,0,.08.1.06s0-.21-.15-.23l0,.1c0-.09-.14-.09-.08-.27s-.25-.15-.25,0c0-.05.06-.15.16-.13,0-.27-.37-.1-.22-.38,0,0,0,0,.05,0a.25.25,0,0,0,0-.08.28.28,0,0,0,0-.09c0,.24.27-.09.22.19.18,0,0-.21.09-.3-.13-.13-.26,0-.35-.07.07,0,0,0,.07-.12L40,45a.48.48,0,0,0,0-.18l.06.11c0-.13.23-.32.09-.53.06.06.18.17.25,0-.1-.23,0-.06.15-.19s-.24,0-.16-.38c0,0-.08,0-.12,0,.08-.25,0-.36.08-.59,0,.1-.09.18-.15,0,.11.06.11-.19.18-.28l-.07,0c.08-.07.1,0,.13.07s0,0,0,.06.31.07.33-.1a.12.12,0,0,0,0-.08.16.16,0,0,0-.08-.06l-.09,0a.17.17,0,0,0-.1,0c.08-.26-.31-.26-.19-.5,0-.06.31-.22.34-.4-.15-.1-.13.21-.26.1.41-.26-.2-.62.07-1l.19.06a1.24,1.24,0,0,0,0-.27l-.12.12c0-.09,0-.3.17-.22-.14-.22,0-.25,0-.43,0,.2,0,0,.06.16.12-.2,0-.22,0-.37a.14.14,0,0,0,.11,0,.11.11,0,0,0,.07-.08c-.1-.15,0-.37-.07-.57h0c0-.33.3-.62.2-1h0c-.2.07-.08-.28-.13-.38s.14,0,.14-.07c-.17,0-.06-.13-.13-.2.09-.09.2.06.23-.12s-.08-.11-.14-.11a.3.3,0,0,0,.13-.09.45.45,0,0,0,.1-.13c0,.05,0,.09,0,.11s.07,0,.18,0-.15-.07-.06-.17l.1.14c.05,0,0-.1,0-.13s.05.06.09.08l0-.12c-.11,0-.28,0-.37,0,.17-.21.05-.44.09-.62l.14.07a.22.22,0,0,0,0-.11l-.07-.09,0-.13a.25.25,0,0,0,.19.17c0-.15.11-.34-.08-.44h0c.13-.17.31-.55.37-.51,0-.23.22-.44,0-.52,0-.15.38-.21.17-.4.18-.08.06,0,.18.12.19-.09-.08-.37.22-.3,0-.2-.07,0-.18-.09.27.07.18-.28.4-.37-.07-.13-.1,0-.15-.13.06,0,.1,0,.12,0l-.15-.11.29,0a1.09,1.09,0,0,0,.08-.15c-.08-.06-.17,0-.11-.26v0c.2,0,0-.27.23-.42-.08,0,.05.07.08.12V33s0,0,0,0,0-.12.16-.18c0,0,0,.05,0,.07l.09-.16v0l0,0,.24-.36a.1.1,0,0,0-.14,0l0,.11a1,1,0,0,0-.44-.08,4.48,4.48,0,0,0-.5.11,1.12,1.12,0,0,1-.45.07.92.92,0,0,1-.43-.11,1.41,1.41,0,0,1-.63.2,1.3,1.3,0,0,0-.34.08,1.36,1.36,0,0,0-.34.23c-.2,0,.14-.24-.1-.18l-.45.34,0,0a.58.58,0,0,1-.17.14,1,1,0,0,1-.21.11,3.81,3.81,0,0,1-.51.12,1.58,1.58,0,0,0-1,.44v0c0-.07-.18-.08-.26,0s.07.07.16.07l-.28.25-.19.19-.41.34c.1-.2-.2,0-.31-.07,0,.16.15.08,0,.31a4.81,4.81,0,0,1-.9.59c0,.19-.14.29,0,.41-.14.16-.23.3-.34.44l-.17.23c-.06.09-.12.18-.2.28l0,0c.07.23-.36.3-.33.45,0,0,0-.11-.09-.13l-.09.22c0-.13-.1-.29-.24-.13s.11,0,.16.15l-.19-.05a.11.11,0,0,0,0,.11.21.21,0,0,0,.06.1.14.14,0,0,0,.11,0,.11.11,0,0,0,.09-.06c-.26.46-.47.94-.68,1.36l-.09-.1a1.4,1.4,0,0,1-.38.68s.07.1.12.08c0,.34-.2,0-.15.34,0-.1,0-.2-.06-.25l-.07.65c-.05,0-.16.06-.25.17a.68.68,0,0,0-.14.41s.13,0,.15-.1v.18l-.23.08.12.28-.18,0c0,.19.19.31.16.45-.2.53-.25.41-.47.78.31.08-.07.64.17.76a1.63,1.63,0,0,0-.15.44,1.5,1.5,0,0,0,0,.24v.26c0,.35,0,.73,0,1.07l0,0c-.11.32.31.29.29.63l-.06-.07a1.1,1.1,0,0,0,0,.36,1.19,1.19,0,0,0,.11.41,3.22,3.22,0,0,0,.37.68c-.08-.07-.21,0-.13.12s.2-.17.2.07c0,0-.09,0-.09.06l.23.15a7.86,7.86,0,0,0,.17.9,3.15,3.15,0,0,0,.41.82c0,.13-.1.09-.16.09a2.93,2.93,0,0,0,.44.56,5.17,5.17,0,0,1,.42.51l-.14.14c.13.17.33-.07.34.25,0,.06-.11-.14-.23-.14.13.41.3.07.52.41l-.24.05c.09.33.3.21.47.21.49.13-.12.51.43.81.14,0,.09-.14.24-.14.23.33.39.24.65.55-.06.4-.16-.13-.19.26l-.18-.27c.08.31-.21-.13-.32,0,.12.18.46.27.7.4-.1.11-.24-.2-.28,0l.14,0c-.06,0-.1.06-.15,0-.06.14.11.12.21.21a.63.63,0,0,0,.16-.26.09.09,0,0,0,0,.07c.34,0,.6.38.88.38a.07.07,0,0,0,0,.08.41.41,0,0,0,.26.07,1.3,1.3,0,0,1,.34,0c0,.16-.25.25.09.37.12-.07.1-.33.34-.18,0,0-.26,0-.17.1.28.07.06.08.21.34.2-.07.22.19.38,0,0,.21,0,.14.1.34C39.07,54.6,39.44,54.77,39.51,54.6ZM41,49.86s0,0,0,0S41.05,49.87,41,49.86ZM65.3,44a.6.6,0,0,0-.08-.08c-.07,0-.06.06-.14.06s.17-.09,0-.1A.16.16,0,0,1,65,44a1.7,1.7,0,0,0-.25-.55,4.81,4.81,0,0,0-.44-.57,1.89,1.89,0,0,1-.58-1.06,3.39,3.39,0,0,1-.63-.68,2.32,2.32,0,0,0-.75-.71c-.11-.24.34.1.11-.17l-.64-.43h0a1.41,1.41,0,0,1-.49-.38,5,5,0,0,1-.46-.57,7,7,0,0,0-.48-.6,2.12,2.12,0,0,0-.59-.44h0c.06,0,0-.23-.17-.3s0,.09,0,.19L59,37.26l-.64-.41c.29.08-.15-.22-.09-.36-.19,0,0,.18-.36,0a13.26,13.26,0,0,1-1.17-.93c-.22,0-.4-.14-.49,0-.54-.27-.86-.37-1.52-.71v-.06c-.27.11-.54-.35-.72-.3,0-.06.14-.06.14-.12l-.34-.07c.17,0,.33-.13.09-.27s0,.12-.15.17V34c-.21-.07-.34.11-.12.27-.34-.14-.69-.26-1-.37l-1-.33.11-.1a2.82,2.82,0,0,1-.31-.07h-.06l.8.49a.55.55,0,0,0,.2.3,2.8,2.8,0,0,0,.31.28,1.17,1.17,0,0,1,.48.65c0-.18.21-.07.21-.07s0,0,0,0,.2.06.27.06c0,.16.38.23.38.34.06-.05.13,0,.23.16-.26-.15-.19,0-.37,0,.25.33.57.14.79.53l0,.28c.22-.11.39.28.45.23s0,.22-.1.27c.15.12.19.39.34.39l0-.18a1.62,1.62,0,0,0,.42.55.89.89,0,0,1,.28.53l-.31.14c0,.31.39.38.3.68.07-.11,0-.12.2,0,0-.11-.18-.24-.25-.4l.34.25-.34-.48c.23.16.19.16.27,0,.27.28,0,.4.27.67,0,.14-.16.06-.18.22.2.24,0,.61.2.75,0,.08-.05-.11-.12-.07.1.18.12.31.23.34v-.17c0,.14.16.13.16.41.12.13.31.18.27,0,0,.07,0,.24-.13.21.09.43.4.12.34.57,0,0-.05,0-.05,0a.46.46,0,0,0,0,.26c-.09-.36-.26.17-.26-.28-.16.09,0,.34,0,.49.15.19.26,0,.37.07,0,0,0,.09,0,.2l.12-.12a.89.89,0,0,0,.07.28l-.08-.17a2.38,2.38,0,0,1-.06.37.89.89,0,0,0,0,.23.69.69,0,0,0,.05.24c-.06-.09-.18-.25-.24,0,.11.36,0,.09-.15.3s.25,0,.19.59c0,.06.09,0,.12-.06a3.67,3.67,0,0,1-.09.93c0-.15.1-.28.15-.06-.08-.08-.11.14-.15.3s0,0,0,0,0,0,0,0a.66.66,0,0,1,0,.11l.07,0c-.09.11-.11,0-.13-.11s0,0,0-.09-.29-.13-.34.14.24.27.31.22c-.1.39.27.41.11.78,0,.09-.33.33-.4.59.13.17.17-.32.28-.13a.72.72,0,0,0-.2.31.77.77,0,0,0,0,.37,1.18,1.18,0,0,1-.15.82l-.16-.13a2,2,0,0,0-.16.4l.17-.16c0,.15-.15.45-.25.3,0,.35-.07.38-.22.63.11-.28,0,0,0-.24a1,1,0,0,0-.22.53c0-.06-.19,0-.23.08a2.52,2.52,0,0,1-.24.84l0,0a3.32,3.32,0,0,1-.44.62l-.23.3a1.35,1.35,0,0,0-.17.34v0l0,0c.25,0-.12.39-.16.56,0,0-.13,0-.18,0,.13.11,0,.22,0,.31-.17.08-.15-.14-.34.08a.08.08,0,0,0,0,.05v.06a.05.05,0,0,0,0,0,.08.08,0,0,0,0,0,.62.62,0,0,0-.4.18c0-.07.1-.1.12-.13s-.1,0-.18-.06c-.1.09.08.15-.08.24V52.7c-.07,0-.1.13-.1.16s-.06-.18-.13-.23c-.19.36.21.31.3.43-.33.19-.44.51-.65.72l-.07-.16a.43.43,0,0,0-.11.28,1.07,1.07,0,0,1-.16.14.24.24,0,0,0,0-.14.25.25,0,0,0,0-.15c-.13.19-.38.32-.34.51-.3.13-.84.48-.87.39a2.26,2.26,0,0,1-.42.29,3.39,3.39,0,0,0,.39-.18l.89-.49c.13.27-.79.29-.74.55a8,8,0,0,0,1.16-.51c.38-.2.78-.39,1.17-.64.45.23.74-.51,1.38-.47-.1-.08.13-.27.39-.41,0,.14.25,0,.2.11.18-.24.85-.64.94-.41-.08-.26.5-.29.6-.56.34-.1.6-.42,1-.61-.21,0,.3-.3.39-.45,0,0-.09.11-.06.11.19,0,.34-.37.57-.45s.07.14.22,0c-.05-.09.35-.59.63-.63-.08.06-.06.11-.08.19.19-.22.4-.41.61-.61l.65-.59a6.4,6.4,0,0,0,1.18-1.31v.28c.68-.35.1-.55.49-1,.26-.26.53-.5.78-.77s.49-.53.74-.8L64.6,45l.34-.44.28-.4A1,1,0,0,0,65.3,44Zm-9.87,8.74,0,0,0,0ZM24,46.66H24c.11,0,.15.44.33.47C24.23,47,24.18,46.79,24,46.66Zm1,2.47c.33.59,0-.18.47.28-.12-.12-.22-.24-.34-.38C25.13,49.14,25.17,49.28,25,49.13Zm1.56,1.39c-.23-.15,0,.08-.09.09C26.65,50.68,26.69,50.69,26.56,50.52Zm9.86,5.26-.06.13C36.56,56,36.37,55.86,36.42,55.78Zm3.21,1h0ZM58,52.94l-.15-.12C57.76,52.92,57.84,53.11,58,52.94Zm6.28-5.58a.39.39,0,0,0,.13-.2c-.12.13-.3.24-.34.31A.43.43,0,0,0,64.29,47.36ZM50.69,31.59l-.31,0,.13,0Zm4,19.88.16-.11C54.84,51.29,54.79,51.39,54.72,51.47ZM52.7,54l0-.13,0,0A.14.14,0,0,0,52.7,54ZM41.84,55.5v0S41.86,55.5,41.84,55.5ZM53.71,35.14v0s.06,0,.08.09S53.77,35.18,53.71,35.14Zm-1.44-1.23,0,0,0-.09ZM36.72,53.23c.05-.11.28.05,0-.17A.47.47,0,0,1,36.72,53.23ZM33,40.89s0,0,0,0v0ZM52.08,54.26h0s0,0,0,0ZM32.92,41.49l0-.05h0Zm22.76-.9c-.08-.08,0,0,0,0Zm.39,8.72.13.08C56.24,49.24,56.15,49.37,56.07,49.31Zm-.16-1.73-.13.11.1.1ZM57.16,47l0-.27,0,.19ZM52.58,34.15c.09,0,.25-.1.07-.17ZM31.94,39.62l0-.1v-.15Zm8.51,3.49s0-.06,0-.06S40.43,43.11,40.45,43.11ZM41,38.59,41,38.7C41,38.72,41,38.65,41,38.59Zm.33-2-.07-.05.07.09ZM42,35.25c-.06,0-.08-.08-.08-.11a.53.53,0,0,0-.12,0S42,35.21,42,35.25ZM48.19,40h0v0Zm-5.83-5.72.15-.2c-.08,0-.18,0-.14-.08C42.06,34.18,42.52,34,42.36,34.26Zm-.38.66c0-.13-.08,0-.11-.05S41.9,35,42,34.92Zm-1.31,5.27-.15,0C40.53,40.27,40.58,40.17,40.67,40.19Zm-.46,1.62v0l0,.17Zm1.14,9c-.06-.07-.25,0-.17.08Zm1.53,3.7c-.06.08-.05.21.06.22S42.92,54.58,42.88,54.56ZM48.35,47l0,.09,0-.16ZM43.66,21H43.6C43.66,21,43.64,21,43.66,21Zm1,5.51h-.15C44.58,26.48,44.62,26.51,44.61,26.48Zm.1-3.84s0,0,0,0,0,0,0,0Zm.09,4,.05,0S44.83,26.68,44.8,26.67Zm-.4-4.87h0Zm-.8,1.93s0,0,0,0c-.37,0,0,0-.37,0,0-.06.21-.12.05-.17.34,0,0-.11.45-.11,0,0-.08-.06-.26-.08,0,0,0,0,0,0h0s0,0,0,0a.07.07,0,0,1,0,0l.11,0h0l.25.05-.26-.08h.22c-.16,0,.19,0,0-.05h-.07s-.21,0-.24-.08h.1s-.18-.05,0-.05v0a1.55,1.55,0,0,0,.31,0l-.28,0h.23a.6.6,0,0,0-.31-.1h.06s-.25-.06-.12-.08h0c.22,0-.21-.08.17-.08.07,0,0,0,.17,0s-.32,0-.21-.06h.05a.38.38,0,0,0-.09-.09c.31,0-.08-.1.28-.14H43.6s-.1,0-.15,0-.12-.05-.05-.05-.06,0-.06,0l.3,0s-.35-.05-.29-.09l.15,0c-.22,0-.14,0-.22,0h.23c-.06,0,.06,0-.08,0h-.06c.09-.05-.24-.08-.09-.11h.34c.14,0-.19,0,0-.07a.61.61,0,0,1-.19,0s.06,0,.06,0l-.2,0,.1.05a.49.49,0,0,0-.24,0c-.11,0,.16,0,0-.06h.24c-.12,0,.25-.06.07-.08h.09s0,0-.12,0h0s-.13,0,0,0h-.08c0-.06-.37,0-.2-.06h0s0,0,0,0,.28,0,.22,0c.18,0,0,0,.11,0h-.4s0,0,0,0h.06s.24,0,.11-.07h.24c-.09,0,0,0,.16,0s-.25,0-.16-.05h-.12c.07,0,0,0,.07-.09a.19.19,0,0,1-.15,0c.11,0,.11,0,.17,0h0c.07,0-.31,0-.21-.07l0,0h0a1.45,1.45,0,0,0,.3-.06c-.15,0-.11,0-.25,0,.4,0-.23-.09,0-.14h.2s0,0,0,0l-.11,0s0,0,0,0,0,0,0,0h.15c-.14,0,0,0,0-.07s0,0,.08,0,0,0,0-.06h.17c-.12,0-.1-.05-.16-.08h.06c-.08,0,.19-.09,0-.14h0c-.18,0-.13-.05-.2-.05a.28.28,0,0,0,.13,0c-.17,0-.1,0-.17,0s.19,0,.19,0h-.17a.39.39,0,0,0,.18,0h.17s-.16,0-.1,0h-.16c.11,0-.08-.06-.08-.09h.16a.3.3,0,0,0-.13,0v0h.23s0-.06-.21-.06h0c.08,0,.13-.09.19-.09s.06-.07-.15-.07.2-.05,0-.06h0s-.29,0-.11,0h.17l0,0c.08,0,.05,0,.17,0s-.22,0,.09,0c-.09,0-.06,0-.2,0,.29,0,0-.05.21-.07h-.28l.44,0c-.21,0-.31,0-.39,0,.18,0-.14,0,0-.07h.14l-.08,0h0c.13,0-.08,0,.05,0a.88.88,0,0,0,.23,0l-.2,0h.24s-.21-.06-.16-.07h0s0,0,.1,0,0,0,.08,0h0a.5.5,0,0,1,.13,0h0a.74.74,0,0,0-.21,0l.21.06a.59.59,0,0,0-.23,0c-.08,0,.12,0,.12,0h-.15c.07,0,.08,0,0,.06a.74.74,0,0,0-.21,0c.1,0,.29,0,.4.08.26.05-.17.1,0,.13s.12,0,.17,0h-.15c.21,0-.05,0,.09,0l-.15,0a.86.86,0,0,1-.32,0c.27,0-.07.07.34.09h0l-.08,0s0,0-.17,0,0,0-.08,0,.13,0,.13.06H44s.08.05.11.05H44c-.16,0,.35,0,.11,0a.86.86,0,0,1-.16,0,.32.32,0,0,0,.14,0l.19,0,.07.06h-.07c-.38.06.32.12-.13.19a.54.54,0,0,1,.18,0s0,.06-.08.08h-.08c.1.05.23.09.17.12h-.13c.15,0-.31.07,0,.07h0c0,.05.17.1.21.16-.18,0,0,0-.23,0s.08.08,0,.12h-.06c-.12,0,.18,0,.15,0h-.19c.19,0,.06.07.24.07a1.31,1.31,0,0,0-.28,0c-.06,0,0,0,.09,0-.14,0-.08,0-.14,0s.11,0,.22,0l.06,0,0,0h.1l.06,0a1.23,1.23,0,0,1-.29,0c-.09,0,.09.11.16.13a0,0,0,0,0,0,0c-.05,0,.06.06.17.06h-.14s.12,0,.19.06h0c-.43,0-.17,0-.51,0a2.28,2.28,0,0,0,.45,0h0c.12,0,.08,0,.08,0h-.07c.14.06,0,.11.12.16a.43.43,0,0,0-.16,0c-.07.06.16.09.26.15-.27,0,0-.06-.29-.06a1.19,1.19,0,0,0,.29.18c-.4,0,.17.07-.15.11.14,0,.19,0,.19,0h-.19c.12,0,.17.08-.09.08.25,0,0,.06.17.06-.1,0,0,.05,0,.08.17,0,.08,0,.15,0h-.06c-.14,0,.12.05,0,.05h-.16c.11,0,.25.07.11.07h-.1c.18.08,0,.17.18.25h-.19c-.25.06.32,0,.29.08s-.37.23-.24.34h.15s-.19,0-.09,0h.09c-.29.05.18.14-.26.18.17.05-.11.08.13.14-.09,0-.17,0-.2,0l.16.06h0c.31,0-.35.14-.13.2-.07,0-.15,0-.13,0h.14c.12.06.13.07.15.11s-.09,0-.24,0l.23,0s-.11.08-.16.11a1.07,1.07,0,0,0,.25,0s.08.07.08.12h-.06c.19,0-.11.06,0,.06h-.15l.06,0h0c0,.06.09.11.06.15H44.6s0,.08-.06.08h.14c.17,0-.2,0,0,0l-.14,0,.15.06c-.09,0-.29,0-.22.07a.33.33,0,0,0,.14,0l0,0h-.21l.19,0h-.18a1.57,1.57,0,0,0,.25,0,2.14,2.14,0,0,1-.34.09c.34,0,0,.07.23.07-.26.06-.1.13-.17.2h0c-.15,0,.26,0,.19.07h-.05c-.17,0,0,.1.1.14s.09,0,0,0h-.11l.17,0c-.12.06-.24.13-.14.19H44.4s.18.09.21.13h-.2s.3,0,.13,0,0,0-.1,0,.19,0,.17.06h-.22c-.14.05.11.05.24.05s-.43,0-.23.09h.27c-.05,0,.1,0,0,.08a1.5,1.5,0,0,0-.3,0l.07,0c-.18,0,0,0-.24,0s.11.05.17.08h-.25c-.14,0,0,0,0,0h.24c.22,0,.05.07.22.09h-.09s.19,0,.25.06H44.7l-.06,0s0,0,0,0-.15,0-.14,0h0c.18,0-.06,0,.22,0l-.25,0c.15,0,.15,0,.34,0h-.48a2,2,0,0,0,.42.05l-.16,0h0c.15,0,0,.08.28.1-.33,0,0,.08-.34,0a.71.71,0,0,0,.21,0c-.26,0-.07,0-.22,0,.15,0,.09.05.18.05h-.15c.11,0,0,0-.11,0s0,0,0,0l.25,0h-.21l.13,0v0s.07,0,0,0h0a3,3,0,0,1-.73,0h0a.39.39,0,0,0-.15,0,1.27,1.27,0,0,1-.34-.05s.32,0,.38,0l-.16-.05h0c.14,0,.05,0,.07-.06h-.12c-.28-.05.3-.08.15-.13l-.2,0h.18c-.11,0-.25,0-.18-.05.3-.1-.07-.21.12-.31h-.07c.44-.09-.45-.14-.11-.22h.07s.06,0,.16,0c-.22,0-.17-.05-.25-.08h.21a.5.5,0,0,1-.37-.12c.15,0,.27,0,.49-.06l-.26,0c.09,0,0,0-.06,0v0a1.77,1.77,0,0,1-.23,0s0-.05.07-.05.07,0,0,0h0s-.17-.06-.29-.08h.38s0,0,0,.06h.1c.16,0-.14-.05,0-.1h.1c.05,0-.07,0-.16,0,.14,0,.25-.05.18-.05s-.16,0-.16,0h.11c.08,0-.16,0-.07-.05h.09a1.26,1.26,0,0,0-.33-.05h.17c-.1,0-.3-.07-.08-.07-.34,0-.17-.06-.17-.09a.24.24,0,0,0,.12,0c-.22,0,0-.09,0-.14h.24s-.48,0-.48-.06h.12c0-.05,0-.07,0-.11h.16c-.07,0-.07-.05-.15-.05.4,0-.21-.13.24-.19h-.31s-.06-.06.18-.06,0,0,.05,0a.81.81,0,0,0-.22,0c.15-.06,0-.15.27-.19-.1-.06-.35-.1-.31-.17h0a.83.83,0,0,1,.38-.07s-.41-.07-.29-.13h.09c.05,0-.07-.05-.1-.05h.09c.09,0,0,0-.07,0h.09c.17,0-.18-.11-.13-.17h.16c-.28,0-.22-.09-.28-.11h.11c-.16,0,.15,0,.15-.07h0l0,0-.16,0s0,0-.14,0c.1,0,.22,0,.25,0h.16ZM44.23,26a.21.21,0,0,0,.11,0v0A.2.2,0,0,1,44.23,26Zm.28.69s0,0,0,0h.29l-.1,0h-.19Zm.06.53h0Zm-1.06-3.83h0Zm.86-1.8h-.09s0,0,0,0h0Zm-.14-1.7h-.1l.09,0C44.27,19.88,44.3,19.87,44.23,19.86ZM43.42,26h0Zm1.24-.86h0Zm-.42-3.59s0,0,0,0S44.22,21.59,44.24,21.59Zm.13-1.45s.13,0,.09,0h-.05C44.5,20.11,44.27,20.13,44.37,20.14Zm-.95.28h.13S43.45,20.42,43.42,20.42Zm.89.93h0Zm-1,1.4h.19S43.25,22.74,43.32,22.75ZM43.19,25h-.06l0,0Zm0,36.55h.15C43.26,61.57,43.22,61.54,43.23,61.57Zm-.11,3.84h0v0Zm.33.81h0Zm-.13-4.83h-.08c-.12,0-.26,0-.26,0a.61.61,0,0,0,.12,0C43.2,61.4,43.32,61.41,43.32,61.39Zm-.27,0,.14,0-.09,0Zm1.37.61h0Zm-1.13-1.13h0Zm1.06,3.83h0S44.37,64.72,44.35,64.72Zm-1.13-3.27a0,0,0,0,1,0,0h0Zm.41,6.75h.1l-.08,0C43.59,68.18,43.55,68.19,43.63,68.2Zm.64-3.85s0,0,0,0c.36,0,0,0,.36,0,0,.07-.21.13,0,.18-.35,0,0,.11-.46.11,0,0,.08.06.26.08,0,0,0,0,0,0s.09,0,.09,0a1.53,1.53,0,0,0-.36-.07l.27.08h-.23c.17,0-.19,0,0,0h.07s.21,0,.24.09h-.09s.18,0,0,0v0a1.55,1.55,0,0,0-.31,0l.28,0a.89.89,0,0,1-.23,0,.57.57,0,0,0,.31.1h-.06s.25.07.12.09h0c-.22,0,.21.07-.17.07-.07,0,0,0-.17,0s.31,0,.21.06H44.3a.2.2,0,0,0,.09.09c-.31,0,.06.11-.28.15a.66.66,0,0,1,.14,0s.12,0,.16,0,.12,0,.05,0,.06,0,.06,0l-.3,0s.35.05.29.09l-.15,0c.22,0,.13,0,.22,0l-.23,0c.06,0-.06,0,.08,0h.06c-.09,0,.24.08.09.12h-.34c-.14,0,.19,0,0,.06h.19s-.06,0-.06,0l.2,0-.1-.06a.49.49,0,0,0,.24,0c.11,0-.17,0,0,.07h-.24c.12,0-.25,0-.07.07h-.09s0,0,.13,0h0s.13,0,0,0h.08c0,.06.37,0,.2.06h0s0,.05,0,0-.27,0-.21,0c-.18,0,0,0-.11,0h.4s0,0,0,0l-.05,0s-.25,0-.12.08a1,1,0,0,0-.24,0c.09,0-.06,0-.16,0s.25,0,.16,0a.24.24,0,0,0,.12,0c-.07,0,0,0-.07.09a.2.2,0,0,1,.15,0c-.11,0-.11,0-.18,0h0a1,1,0,0,0-.34,0,1.71,1.71,0,0,0,.32,0c-.07,0,.32,0,.21.07a1.59,1.59,0,0,0-.3.06c.16,0,.12,0,.25,0-.4,0,.24.09,0,.14h-.19s0,0,0,0l.1,0s0,0-.14,0c.15,0,.06,0,0,.06s0,0-.07,0,0,0,0,0a.48.48,0,0,0-.17,0c.12,0,.09,0,.16.08h-.06c.08,0-.19.09,0,.14h0c.18,0,.13,0,.2,0h-.12c.16,0,.08,0,.16,0s-.19,0-.19,0a.48.48,0,0,0,.17,0,.39.39,0,0,0-.18,0c-.05,0,0,0,0,0H44s.16,0,.1,0a.86.86,0,0,0,.16,0c-.1,0,.08.06.08.09h-.16a.3.3,0,0,0,.13,0v0a.89.89,0,0,0-.23,0s0,0,.21,0h0c-.08,0-.12.09-.19.09s-.06.07.16.07c.06,0-.27.06,0,.06-.14,0-.08,0-.22,0s.22.06-.08.06c.09,0,.06,0,.19,0-.28,0,0,0-.2.07h.28l-.44,0c.21,0,.3,0,.39,0h0c-.19,0,.14,0,0,.07H44l.07,0h0c-.13,0,.07,0,0,0h-.24l.2,0h-.24s.37.09,0,.09h-.12a.38.38,0,0,1-.16,0l.21,0-.21-.06.23,0c.08,0-.12,0-.12,0a.38.38,0,0,1,.15,0c-.07,0-.08,0,0-.06A.74.74,0,0,0,44,68c-.1,0-.29,0-.4-.09-.26,0,.17-.09,0-.12s-.12,0-.17,0h.15c-.21,0,.05-.06-.1-.06a.41.41,0,0,0,.16,0h.32c-.26,0,.06-.06-.34-.09h0l.08,0s0,0,.17,0,0,0,.09,0-.14,0-.14-.06h.2s-.07,0-.11,0h.07c.16,0-.35,0-.11,0a.43.43,0,0,1,.16,0s-.06,0-.14,0l-.19,0-.07,0s.07,0,.07,0c.38-.06-.31-.13.14-.2h-.19s0,0,.08-.07h.08c-.1-.06-.22-.09-.17-.13h.14c-.16,0,.3-.06,0-.06h0s-.17-.11-.21-.16c.18,0,0,0,.24,0s-.09-.08,0-.12h0c.12,0-.18,0-.15,0h.19c-.19,0-.06-.07-.24-.07a1.31,1.31,0,0,0,.28,0c.06,0,0,0-.08,0,.13,0,.06,0,.13,0s-.11,0-.22,0l-.08,0,0,0h.09c.07,0-.09,0-.09-.06h-.1l-.07,0a1.37,1.37,0,0,1,.3,0c.09,0-.09-.1-.16-.12h0s-.06,0-.17-.06h.14s-.12,0-.18-.05c.43,0,.17,0,.51,0l-.45,0h0c-.11,0-.08,0-.08,0h.07c-.14-.05,0-.1-.11-.16a.38.38,0,0,0,.15,0c.07,0-.16-.09-.27-.14.28,0,0,.06.31.06a1.17,1.17,0,0,0-.3-.19c.4,0-.17-.06.15-.1-.14,0-.19,0-.19,0a.6.6,0,0,0,.19,0c-.12,0-.17-.07.09-.07-.25,0,0-.06-.17-.06.1,0,0,0,0-.08-.14,0-.07,0-.14,0h.06c.14,0-.13-.05,0-.05a.43.43,0,0,0,.16,0c-.11,0-.25-.06-.11-.06h.1c-.18-.09,0-.17-.18-.26l.19,0c.24-.06-.32,0-.29-.08s.37-.23.24-.34h-.14s.18,0,.08,0h-.11c.28,0-.19-.15.25-.19-.16,0,.12-.08-.13-.14.1,0,.18,0,.21,0l-.16,0c-.31-.06.34-.14.12-.21a.24.24,0,0,0,.14,0h-.14c-.12-.06-.13-.07-.15-.12s.09,0,.24,0a1,1,0,0,1-.24,0s.12-.07.17-.1l-.26,0s-.07-.06-.07-.12h.06c-.19,0,.11,0,0,0h.16l-.07,0h0c0-.05-.09-.1-.06-.15h.12s0-.06.07-.08h-.14c-.17,0,.2,0,0,0a.32.32,0,0,0,.14,0L43.15,63c.09,0,.3,0,.21-.07h-.13l0,0h.21l-.19,0h.18a1.41,1.41,0,0,0-.25,0,1.07,1.07,0,0,1,.34-.09c-.34,0,0-.07-.23-.07.26-.06.1-.13.17-.2h0c.14,0-.26,0-.19-.07h0c.17,0,0-.1-.11-.14s-.08,0-.05,0h.11l-.17,0c.12-.06.24-.13.14-.19h.18s-.18-.09-.21-.13h.2s-.3,0-.12,0c0,0,0,0,.09,0s-.19,0-.17-.06h.23c.13,0-.12,0-.25,0s.43,0,.23-.09h-.27c.06,0-.1,0,0-.08a1.6,1.6,0,0,0,.31,0l-.08,0c.18,0,0,0,.24,0s-.1,0-.17-.08c.15,0,0,0,.22,0h0c.13,0,0,0,0,0h-.23c-.22,0,0-.07-.22-.09h.09l-.09,0s.07,0,.19,0c-.1,0-.07,0-.08,0h-.08l.19,0c-.15,0-.15,0-.34,0a3.84,3.84,0,0,0,.48,0,2,2,0,0,0-.42,0l.16,0h0c-.15,0,0-.08-.27-.1.31,0,0-.07.33,0a.49.49,0,0,0-.21,0c.26,0,.07-.06.22-.06-.14,0-.1,0-.18,0h.14c-.1,0,0,0,.12,0h0l-.26,0h.21l-.13,0h0s-.07,0,0,0h0a3.57,3.57,0,0,1,.73,0h0a.26.26,0,0,0,.15,0,1.33,1.33,0,0,1,.34,0s-.32,0-.39,0l.16,0h0c-.14,0,0,0-.06.06h.11c.28.05-.29.08-.15.13l.21,0H44.2c.1,0,.24,0,.18.05-.31.1.07.21-.13.31h.08c-.44.09.45.14.11.22h-.07s-.07,0-.16,0c.21,0,.17.05.24.08l-.07,0a.69.69,0,0,1-.13,0,.48.48,0,0,1,.36.12l-.49.06h.27c-.1,0,0,0,.06,0v0h.24s.05,0-.07,0-.07,0,0,0h0c-.07,0,.17.07.29.09h-.39s0,0,0-.06h-.1c-.16,0,.14.05,0,.09h-.11s.08,0,.17,0c-.15,0-.25,0-.19,0s.17,0,.17,0h-.11c-.08,0,.16,0,.07.05H44.3a.91.91,0,0,0,.32.06h-.16c.1,0,.3.08.08.08.33,0,.17,0,.17.08h-.12c.21,0,0,.09,0,.14h-.25s.49,0,.49.06h-.12c0,.06,0,.07,0,.11h-.17l.16.05c-.4,0,.21.13-.24.19h.31s0,.06-.18.06,0,0-.06,0h.23c-.16.06,0,.15-.27.19.1.06.34.1.31.17h0a.72.72,0,0,1-.38.07c.06,0,.41.08.3.14h-.1c-.05,0,.07,0,.1,0h-.09c-.09,0,0,0,.08,0h-.09c-.17,0,.17.12.13.17h-.17c.29,0,.22.09.29.12H44.7c.18,0-.3,0-.11.08l.16,0s0,0,.13,0c-.09,0-.22,0-.24,0h-.16Zm-.68-2.28h-.11v0h0Zm-.41.8h0Zm1.35,2.42h-.19S44.59,65.31,44.53,65.29Zm-.19-.58c.09,0,.15,0,.06,0S44.32,64.71,44.34,64.71Zm.3-1.68h.06l-.05,0ZM26.38,24.2s-.11.11-.09.11l.15-.13Zm-.1.15c-.09.08-.08.12,0,.07s0-.06.08-.1S26.37,24.27,26.28,24.35Zm0,.07Zm-.09.08a1.58,1.58,0,0,0,.34-.29c-.13.12-.09.07-.25.21h0A.28.28,0,0,1,26.18,24.5Zm.44-.22-.05,0h0Zm4.67,4.4-.09.11C31.28,28.72,31.33,28.7,31.29,28.68Zm-2.64-2.83v0s0,0,0,0S28.66,25.86,28.65,25.85Zm0,.15,0-.06-.06.09ZM27,26.17h0l-.06,0Zm1-.46h0l.06-.05S28.12,25.62,28,25.71Zm2,3.63h0s0,0,0,0l0,0h0S30.06,29.35,30.06,29.34ZM26.23,25c-.05,0-.18.19-.09.05s.07-.07.11-.12v0l.26-.3c-.17.13-.21.22-.3.25.12-.14-.12.07-.05-.05,0,0,.06-.06.1-.09l-.06,0,0,0c.07-.11-.07,0,0-.06a1.29,1.29,0,0,0,.16-.17l-.16.12.18-.16s-.31.21-.08,0l0,0a.33.33,0,0,0,.1-.11l.09-.05a.7.7,0,0,0-.16.14l.19-.11a.8.8,0,0,0-.18.15c0,.07.09-.06.11-.06l-.1.11c.06,0,.08,0,0,0a1.07,1.07,0,0,0-.16.14c.09,0,.24-.17.34-.22s-.05.18.11.07.08-.12.12-.12-.05.07-.09.11c.16-.13,0,.06.1,0l-.1.12a.81.81,0,0,1-.23.22c.21-.17,0,.1.31-.17l0,0,0,.09s0,0-.09.14,0,0-.08,0,.12-.05.14-.05,0,0-.15.13.07-.05.1-.05l-.05.05c-.08.14.26-.24.11-.05l.09-.09a.8.8,0,0,1-.2.21s.07,0,.13-.07a.57.57,0,0,1,.12-.15h.09l-.06,0c-.23.31.31-.14,0,.23a.49.49,0,0,1,.13-.12s0,.05,0,.11l-.06.05c.11,0,.21-.09.21,0s-.08.09-.1.09-.18.26,0,.05v0c0,.06.13,0,.22,0l.05,0,0,0h0c-.11.16,0,0-.18.16s.1,0,.1.06l-.05,0c-.05.12.13-.13.13-.09l-.1.12.11-.09-.13.13c.15-.13.08,0,.22-.13,0,0-.17.15-.2.2s0,0,.09,0-.05.06-.07.12.08-.07.18-.13l0-.08h.05l-.07.06c0,.07.11,0,.11,0l.06-.09.07,0c-.15.15,0,.05-.2.22,0,.1.13,0,.2,0a0,0,0,0,0,0,0c0,.06.07,0,.16-.08l-.11.09s.1-.07.17-.09a.43.43,0,0,0-.11.12l.12-.11c-.31.29-.08.16-.33.38a2.22,2.22,0,0,0,.33-.28h0c.11-.05.07.06.18,0s-.11,0-.12.1.18-.05.3-.09c-.2.2-.07,0-.26.17a1.3,1.3,0,0,0,.34-.08c-.27.3.16-.07,0,.18a.25.25,0,0,1,.16-.1c-.09.07-.07.09-.13.14.11-.08.18-.07,0,.11.18-.17,0,0,.16-.07-.06.07.07,0,0,.07.11-.12.07,0,.13-.07l-.05,0c-.09.1.1,0,.07,0a1,1,0,0,1-.11.13c.09-.08.21-.14.13,0l-.09.07c.2-.08.09.15.32,0l-.15.13c-.14.21.26-.2.26-.15s-.1.41.07.41,0,0,.1-.11-.12.14-.05.08l.08-.08c-.16.24.23,0-.05.31.15-.09,0,.13.19,0,0,.08-.14.11-.14.15l.15-.08c.26-.18-.14.34.06.24-.05.05-.11.11-.08.11l.09-.11a.35.35,0,0,1,.19,0c-.09.06,0,.08-.16.19a1.22,1.22,0,0,1,.18-.16s0,.14,0,.2a1.66,1.66,0,0,0,.21-.16s.1,0,.14,0l0,0c.15-.13-.05.11.05,0l-.12.11.07,0a.64.64,0,0,0-.2.2c.12-.09.06-.08.15-.15l-.12.14a.8.8,0,0,0,.2-.21s.15,0,.15.07l-.09.08s.07,0,0,.1a.5.5,0,0,0,.11-.1c.12-.09-.16.15,0,.05a.36.36,0,0,0-.12.08l.15-.06c-.06.07-.18.24-.1.2a.39.39,0,0,0,.08-.1l.05,0-.15.16.15-.12-.12.13s.21-.17.21-.15a2,2,0,0,1-.19.31c.25-.24,0,.05.22-.11-.15.21,0,.16,0,.26h0c-.09.13.21-.16.18-.09l0,0c-.1.15.07.08.2,0,0,0-.15.16-.1.12l.13-.12-.07.08.13-.1c0,.12-.08.25,0,.23a.68.68,0,0,1-.12.12,2,2,0,0,0,.24,0l-.14.14s.23-.2.12-.06,0,0-.09.06.17-.12.17-.08l-.17.15c-.07.12.11-.06.21-.14s-.28.33-.1.23.11-.12.2-.19.09,0,.09,0c-.22.25,0,0-.22.22l0-.07c-.1.15-.05,0-.18.15s.11,0,.17-.06c-.1.1,0,0-.16.13l.05,0L31,29c-.09.1,0,0,0,0l.21-.22,0,.05c.17-.14.09,0,.23-.1l-.07.07s.16-.11.21-.14-.24.21-.17.21.24-.24.25-.22a.63.63,0,0,0-.12.11c.08,0,0,0-.1.15.13-.11,0,.07.18-.13a1,1,0,0,0-.17.19c.1-.11.13-.08.26-.21-.12.11-.23.22-.34.34a3,3,0,0,0,.34-.26l-.08.13,0,0c.14-.09.07.05.27-.13-.23.23,0,.08-.21.28a.71.71,0,0,0,.18-.12c-.18.19,0,.07-.12.19.11-.09.09,0,.16-.09a.87.87,0,0,0-.11.09c.09-.06,0,0-.06.1s.14-.13.23-.21a1.09,1.09,0,0,1-.18.19l.2-.16-.09.11c.06,0,.14-.1.06,0h0l-.08.1.13-.09a3.6,3.6,0,0,1-.5.54l-.05,0a.38.38,0,0,0-.09.12,1.64,1.64,0,0,1-.26.2c0-.05.21-.23.24-.31l-.15.08.06-.06c0-.05-.05,0-.05,0s0-.06,0-.09L31,29.9c-.26.15.13-.27,0-.19l-.17.12L31,29.7c-.08.06-.18.16-.16.09.15-.3-.19-.1-.13-.3l0,.06c.25-.38-.42.22-.23-.08l.05,0c-.06,0,.05,0,.1-.13-.16.14-.16.08-.23.12l.06,0s.12-.13.09-.11a.51.51,0,0,1-.34.17c.09-.1.16-.21.3-.39l-.2.18c0-.06,0,0,0,0s0,0,0,0h0l-.19.19s-.05,0,0-.08l0,0h0s0,0,0,0h0l0,0c0-.07-.17.07-.26.14a1.66,1.66,0,0,0,.26-.27s0,0,0,.06l.06-.08c.09-.13-.13.07-.08,0l.08-.07s-.08,0-.14.09c.09-.1.19-.26.09-.17s-.14.12-.14.1L30,29c0-.1-.12.08-.08,0s.06,0,.06-.06a1.15,1.15,0,0,0-.26.19l.12-.12c-.09.06-.26.16-.11,0-.23.25-.18.09-.18.07l.09-.08c-.19.13-.07-.06-.11-.09l.17-.18s-.39.33-.39.3l.09-.08c-.06,0-.06,0-.06-.09l.12-.12c-.06.05-.08,0-.14.08.26-.3-.24,0,0-.3l-.22.21s-.07,0,.08-.17,0,0,0-.06a.73.73,0,0,0-.16.14c.05-.16-.12-.11.05-.33-.11,0-.31.16-.34.09l0,0a.87.87,0,0,1,.22-.32c-.07,0-.34.24-.3.12l.08-.06s-.08,0-.11,0a.23.23,0,0,1,.07-.07c.05-.07-.05,0-.08,0l.06-.06c.1-.16-.21,0-.21,0a.43.43,0,0,0,.12-.11c-.22.18-.22.09-.28.12l.09-.07c-.18.1.17-.24,0-.14l-.1.14c0-.05,0,0-.11.07,0-.08.14-.16.14-.2s.06,0,.13-.1v0a.41.41,0,0,0-.1.09,1.14,1.14,0,0,1,.11-.11l.09-.15s0,0,0,0c-.25.25,0,0-.27.25-.06,0,.07-.23-.09-.15.23-.27-.07-.09.25-.4,0,0-.1,0-.24.13s0,0,0,0a.15.15,0,0,1-.14.05,3.37,3.37,0,0,0,.31-.21l-.25.13.16-.17c-.14.11.11-.14-.06,0l-.05.06c0-.05-.18.1-.23.1l.06-.06s-.13.1,0-.06h0a1.12,1.12,0,0,0,.19-.24s-.19.18-.21.18a.83.83,0,0,1,.17-.15.54.54,0,0,0-.29.15.08.08,0,0,1,0,0s-.22.13-.14,0h0c.13-.17-.2.1.06-.17,0-.06,0,0,.13-.12s-.24.21-.19.11l0,0a.24.24,0,0,0-.12,0c.19-.24-.13,0,.1-.3l-.15.14,0,0s-.08,0-.12.09,0,0,0,0,0,0,0,0h0c.07-.08-.11.06-.07,0s-.06,0-.06,0l.23-.2c0-.05-.28.22-.26.15l.09-.13c-.17.16-.13.07-.19.13l.15-.17c-.05,0,0-.09-.08,0l0,.06c0-.1-.22.11-.14,0l.24-.24c.08-.11-.17.11,0-.06a.47.47,0,0,1-.15.13c0,.05.08,0,.08,0l-.17.12.11,0a.58.58,0,0,0-.18.17c-.1,0,.1-.15,0-.07s.12-.12.16-.18.14-.22,0-.1c0,0,0,0,.07-.06s0,0-.11.06v0s-.1.08-.07,0l-.18.17s0-.06.11-.13-.27.25-.18.1l0,0s0,0,0,0,.17-.2.17-.13c.12-.13,0,0,0-.11s-.18.19-.25.25a.25.25,0,0,0,0-.07l-.09.1s0,0,0,0l.05,0s.14-.2,0-.13l.15-.05c-.09,0,0-.05.09-.14s-.18.17-.15.08a.24.24,0,0,0-.08.09c0-.07-.05,0,0-.12a.29.29,0,0,1-.1.12c.1-.08.06-.1.1-.16l0,0,0,0a1,1,0,0,0,.23-.26.8.8,0,0,0-.23.22c0-.08-.25.2-.2.09A2.2,2.2,0,0,0,27,26c-.12.1-.06.1-.17.19.24-.31-.23.11-.1-.1l.14-.13s0,0,0,0l-.06.09c-.05,0,0,0,.07-.13-.13.09-.07,0-.05,0s0,.05.06,0,0,0,0,0a.76.76,0,0,0,.11-.14c-.1.06-.11,0-.18.06l.05,0c-.09,0,.07-.21-.09-.12s-.11.07-.18.11l.09-.1c-.14.12-.08.05-.14.1s.15-.15.12-.15a.69.69,0,0,0-.13.11.4.4,0,0,0,.1-.15c.07-.06,0-.05.12-.13s-.12.11-.08.06l.1-.09s0,0,0,0a1.54,1.54,0,0,0,.19-.17,2.41,2.41,0,0,0-.37.34c0-.09-.1,0-.12,0l.11-.11a.28.28,0,0,0-.11.08v0a.9.9,0,0,0,.18-.15s0,0-.19.11l0,0c0-.08,0-.15.08-.2s0-.09-.16.06.08-.13,0-.1l-.13.12.07-.07h0c.08-.11.07-.05.16-.15s-.19.12,0-.1c-.09.05,0,.05-.14.14.19-.19,0-.06.09-.19-.09.07,0,.05-.14.13.06,0,.06-.08.06-.08l-.1.09h0Zm4.43,3.57s.05,0,.08-.07h0A.3.3,0,0,1,30.66,28.59Zm-4.35-4.08a.3.3,0,0,1,.08-.08s0,0-.05,0Zm.11-.12,0,0,.07-.05Zm1.64,1.32h0Zm-.19-.07h0Zm2.54,2.08,0,0,0,0Zm-2.83-2.24s0,0-.07.05Zm1.07.37Zm-2.16-1.61,0,0S26.52,24.21,26.49,24.24Zm.16.13s.07-.11,0-.09l0,0C26.72,24.26,26.57,24.44,26.65,24.37Zm-.48.87a.28.28,0,0,0,.1-.09S26.2,25.22,26.17,25.24Zm.54.57s0,0,.11-.1Zm1,1.16.12-.13S27.71,27,27.75,27Zm.51.33s0-.07,0-.06S28.19,27.36,28.26,27.3Zm1,1.35-.05,0,.05,0ZM61.4,63.79s.11-.12.09-.11l-.15.13Zm.2-.31a2.35,2.35,0,0,0-.33.3c.14-.12.1-.07.25-.21h0A.39.39,0,0,1,61.6,63.48Zm-.08.15c.08-.07.08-.11,0-.06s0,0-.08.1S61.43,63.71,61.52,63.63Zm0-.06h0Zm-.34.11,0,0,.05,0ZM60,61.21v0S60.06,61.2,60,61.21Zm-3.55-1.9.09-.11C56.5,59.28,56.46,59.28,56.49,59.31Zm2.64,2.83v0s0,0,0,0A0,0,0,0,0,59.13,62.14ZM59,62.05l.07-.09,0,0Zm2.35,1.45Zm.24-.34s-.06.06-.1.09l.07,0,0,0c-.08.11.06,0,0,.06a.87.87,0,0,0-.17.16l.16-.12-.18.16h0l-.11.09a.58.58,0,0,1,.1-.12c-.06,0-.08,0,0,0a1.07,1.07,0,0,0,.16-.14c-.09,0-.24.17-.34.22s.05-.18-.11-.07-.08.12-.12.12l.09-.11c-.16.13,0-.06-.1,0l.1-.12c.12-.12,0-.07.23-.22-.21.17,0-.09-.31.17l0,0,0-.08s0,0,.09-.14.05,0,.08,0-.12,0-.14,0,.05,0,.15-.13-.07,0-.1.05l0-.05c.09-.14-.26.24-.11.05l-.09.09a1,1,0,0,1,.2-.21S61,63,61,63a.83.83,0,0,1-.11.15h-.09s0,0,0,0c.23-.3-.3.14,0-.22a.69.69,0,0,1-.13.11s0,0,0-.1l.06-.06c-.11,0-.21.1-.21,0l.1-.09c-.12.08.18-.27,0,0v0c0-.07-.2,0-.26,0,.12-.15,0,0,.18-.15s-.1,0-.1-.06l0,0c.06-.11-.13.14-.13.09a.29.29,0,0,0,.1-.12l-.11.1.13-.13c-.14.12-.08,0-.22.12a1.26,1.26,0,0,0,.2-.2s0,0-.09,0,.05-.11.07-.11-.08.06-.18.12l0,.08h-.06l.07-.05c0-.08-.11,0-.11,0l-.06.08-.07,0c.15-.16,0-.06.2-.23,0-.1-.13,0-.2,0l0,0c0-.06-.07,0-.16.08l.11-.1s-.1.07-.17.09a.57.57,0,0,0,.11-.11l-.13.1c.32-.28.09-.15.34-.38-.12.09-.23.19-.34.29h0c-.07.08-.07,0-.07,0l.06,0c-.14.06-.08-.07-.2,0,0,0,.12,0,.12-.1s-.17,0-.29.09c.19-.2.07,0,.26-.17a1.21,1.21,0,0,0-.34.08c.27-.3-.17.07,0-.18-.1.11-.15.11-.16.11s.07-.09.13-.14c-.12.07-.19.06,0-.12-.19.18,0,0-.16.08.05-.08-.08,0,0-.08-.11.13-.08,0-.14.07a.09.09,0,0,0,.05,0c.09-.09-.1,0-.07,0s.11-.1.11-.12-.21.14-.12,0l.08-.06c-.2.08-.09-.15-.31,0l.15-.13c.13-.21-.26.21-.26.16s.1-.42-.07-.42,0,.05-.1.11.12-.14,0-.08l-.07.08c.16-.24-.24,0,0-.31-.15.09,0-.13-.19,0,.05-.07.14-.11.14-.14l-.15.07c-.26.19.15-.34-.06-.23.05,0,.11-.11.08-.11a.31.31,0,0,0-.09.11c-.13,0-.14,0-.19,0s0-.08.16-.19c-.08.06-.11.12-.18.15s0-.13,0-.19a1.16,1.16,0,0,0-.21.16s-.1,0-.14,0l0,0c-.15.13.05-.11,0,0l.12-.11-.06,0a.73.73,0,0,0,.19-.2c-.11.09-.06.07-.15.15l.12-.14a.8.8,0,0,0-.2.21s-.15,0-.15-.07l.09-.08s-.07,0,0-.1l-.1.09c-.13.1.15-.14,0,0l.11-.08-.15.05c.06-.07.18-.24.1-.2a.27.27,0,0,0-.08.1l-.05,0,.15-.16-.15.11.12-.13s-.2.17-.2.15a1.49,1.49,0,0,1,.18-.3c-.25.24,0-.06-.22.11.15-.22,0-.16,0-.26h0c.09-.14-.21.16-.18.08l0,0c.1-.16-.07-.09-.2,0,0,0,.15-.15.1-.11s-.16.18-.13.12a.27.27,0,0,0,.07-.08l-.13.1c0-.12.08-.25,0-.23l.12-.13c-.05,0-.19.06-.24.06l.14-.15s-.23.21-.12.06,0,0,.09-.05-.17.12-.17.08l.17-.15c.07-.12-.11.06-.21.14s.28-.33.1-.23-.11.12-.2.19-.09,0-.09,0c.22-.25,0,0,.22-.23l0,.08c.1-.15,0,0,.19-.15s-.12,0-.18.06c.1-.1,0,0,.16-.14l-.05,0,.08-.06c.09-.11,0,0,0,0l-.21.22,0-.05c-.17.14-.09,0-.23.1l.07-.07s-.16.11-.21.13.24-.22.17-.2a2.16,2.16,0,0,1-.25.22.38.38,0,0,0,.09-.13c-.08,0,0,0,.1-.15-.13.11,0-.06-.18.14a1.63,1.63,0,0,0,.17-.2c-.11.11-.14.08-.26.22l.33-.34a1.64,1.64,0,0,0-.33.26.64.64,0,0,0,.08-.14l0,0c-.13.08-.06-.06-.26.12.23-.22,0-.08.21-.28l-.18.12c.18-.18,0-.06.12-.18-.11.09-.09,0-.16.09a.47.47,0,0,0,.1-.1c-.08.06,0,0,.07-.1a2.22,2.22,0,0,0-.23.22.86.86,0,0,1,.18-.2l-.2.16L56,58.7c-.06,0-.14.12-.06,0h0l.08-.1-.13.09a4.21,4.21,0,0,1,.5-.54l0,0a.4.4,0,0,0,.1-.12,1.79,1.79,0,0,1,.26-.2c0,.05-.21.23-.24.31l.15-.08-.07.07s0,0,.06,0,0,.06,0,.09l.08-.09c.25-.14-.14.27,0,.2l.16-.13-.12.13c.09-.06.18-.15.16-.09-.14.29.19.1.13.31a.16.16,0,0,0,0-.07c-.24.38.42-.22.24.08l-.06,0c.06,0,0,0-.09.14.15-.15.15-.09.22-.12s0,0-.06,0-.12.13-.08.11a.49.49,0,0,1,.34-.17c-.1.1-.16.21-.31.39l.2-.18c0,.09,0,.06.06,0h0a1.8,1.8,0,0,1,.19-.2s.07,0,0,.09,0,0,0,0h0l0,0c0,.07.17-.08.27-.14a1.72,1.72,0,0,0-.27.27s0,0,0-.06l-.07.08c-.09.13.14-.07.09,0L57.6,59s.07,0,.14-.09c-.1.1-.19.25-.1.16s.15-.11.15-.09l-.08.07c-.05.09.12-.08.08,0s-.07,0-.07.06A1.2,1.2,0,0,0,58,58.9l-.12.11c.09,0,.26-.15.11,0,.23-.24.17-.08.17-.06l-.09.07c.2-.12.08.07.11.1L58,59.3s.38-.33.38-.3l-.09.07c.06,0,.06,0,.06.1l-.12.11.15-.07c-.26.3.24-.06,0,.3l.22-.22s.08,0-.08.17,0,0,0,.07a.61.61,0,0,0,.17-.15c-.06.16.11.12-.06.34.11,0,.32-.17.34-.1v0a.68.68,0,0,1-.22.31c.07,0,.34-.24.3-.11l-.08,0c0,.05.08,0,.11,0a.23.23,0,0,1-.07.07c0,.07.05,0,.08,0L59,60c-.1.16.21,0,.21,0a.34.34,0,0,0-.12.12c.22-.19.22-.1.28-.12l-.09.06c.18-.09-.16.25,0,.14l.1-.13s0,0,.11-.07c-.05.08-.14.15-.14.2l0,0-.1.09-.1.16s0,0,0,0c.25-.25,0,0,.27-.25.07,0-.06.24.09.16-.22.26.08.09-.24.4,0,0,.1,0,.24-.13s0,0,0,0,.14,0,.14,0a2.23,2.23,0,0,0-.3.2,1.12,1.12,0,0,0,.24-.13l-.15.17c.13-.1-.12.14.06,0l0,0s.18-.11.23-.11l-.06.06s.14-.1,0,.06h0a1.5,1.5,0,0,0-.2.24c.05,0,.19-.18.22-.18l-.17.16a.89.89,0,0,0,.29-.15l0,0s.22-.12.14,0h0c-.14.18.19-.1-.07.18,0,0,0,0-.13.11s.25-.21.2-.11,0,0,0,0a.24.24,0,0,0,.12,0c-.19.24.13,0-.1.3l.16-.13a.08.08,0,0,0,0,0,.67.67,0,0,0,.12-.1c-.06.08.12-.06.07,0s.06,0,.06,0a1,1,0,0,0-.22.19c0,.06.27-.22.26-.14l-.09.12c.16-.16.12-.07.18-.13a.8.8,0,0,1-.15.17c.05,0,0,.07.09,0l0,0c0,.1.23-.12.14,0l-.24.24c-.08.12.17-.1,0,.06a.58.58,0,0,1,.14-.13s-.08,0-.08,0l.17-.12-.11,0a.73.73,0,0,0,.18-.17c.1,0-.09.15,0,.07s-.13.12-.17.18-.14.21,0,.1c0,0,0,0-.06,0s0,0,.1-.06l0,0s.11-.08.07,0,.16-.17.18-.18,0,.07-.11.14.27-.25.18-.1a.05.05,0,0,0,0,0s-.17.2-.17.13c-.12.13,0,.05,0,.1a1.88,1.88,0,0,0,.25-.24.25.25,0,0,0,0,.07l.09-.1s0,0,0,0l-.05,0s-.14.2,0,.13a.69.69,0,0,0-.17.17c.09,0,0,0-.09.13s.18-.17.15-.07l.08-.09c0,.07.05,0,0,.11a.22.22,0,0,1,.1-.11c-.09.07-.06.09-.1.15s0,0,0,0a.06.06,0,0,0,0,0,1,1,0,0,0-.23.26.93.93,0,0,0,.23-.21c0,.08.25-.2.2-.1a2.33,2.33,0,0,0-.17.26c.12-.11.06-.11.17-.2-.24.31.23-.1.1.1l-.14.13s0,0,0,0l.05-.09s0,0-.07.12c.13-.09.07,0,0,0s0-.05-.06,0,0,0,0,0a.69.69,0,0,0-.11.13c.1-.06.11,0,.17-.06l0,0c.09,0-.07.21.09.12l0,0,0,0h0c.06,0,.07,0,.12,0l-.08.1c.14-.1.08,0,.14-.1s-.15.16-.13.16a.69.69,0,0,0,.13-.11.56.56,0,0,0-.1.15c-.06.06,0,0-.11.13s.11-.12.08-.06l-.1.08s0,0,0,0a1.8,1.8,0,0,0,.2-.19c0,.09.09,0,.12,0l-.12.11a.28.28,0,0,0,.11-.08h0a.93.93,0,0,0-.18.16s0,0,.19-.11l0,0c0,.08,0,.15-.08.2s0,.09.17-.06h0l.09-.09-.08.09h0s-.12.19,0,0c-.08.11-.07,0-.15.14s.18-.12,0,.1c.09-.05,0-.05.15-.14-.2.2,0,.07-.1.2.09-.07,0-.06.14-.13s0,.07,0,.07l.13-.12-.3.34c.18-.12.21-.22.31-.24C61.47,63.25,61.71,63,61.63,63.16ZM57.12,59.4s0,0-.08.07h0Zm2.11.9h0a.3.3,0,0,0,.08-.08Zm1.5,1.6h0l.05,0Zm-.81.49h0Zm1.56,1.13-.07.08s0,0,0,0Zm-.27.15.19-.11a1.07,1.07,0,0,1-.16.14s.06,0,.1-.06a.43.43,0,0,1,.09-.1h0c.21-.23,0,0-.07,0s0,0,0,0A.6.6,0,0,1,61.21,63.67Zm.16,0,0,0-.07,0S61.33,63.67,61.37,63.64Zm-3.62-5,0,0h0S57.77,58.61,57.75,58.61Zm-.38,1.65,0,0,0,0Zm2.83,2.25s0,0,.07,0Zm0,0s0,0,0,0S60.19,62.52,60.19,62.51Zm1.06,1.26s0,0,0,0Zm-.12-.15s-.07.1,0,.09l0,0C61.06,63.73,61.21,63.55,61.13,63.62Zm.4-.58s.09-.12.12-.12c.09-.16-.11.09-.12.06Zm.08-.29a.39.39,0,0,0-.1.08S61.58,62.77,61.61,62.75Zm-1.3,0-.05.07.1-.09Zm.65-.8H61ZM60,61l-.12.13S60.08,61,60,61Zm-.51-.34s0,.08,0,.07S59.59,60.63,59.52,60.68Zm-1-1.35.05,0-.05,0Zm3.43-34.58s-.11-.12-.11-.1l.14.15Zm-.22-.13h0Zm-.08-.07a2.89,2.89,0,0,0,.29.32l-.2-.25s0,0,0,0A.36.36,0,0,1,61.64,24.55Zm.15.08c-.08-.07-.12-.08-.07,0s.06,0,.11.08S61.87,24.7,61.79,24.63Zm0,.31v0l0,0ZM59.37,26.1s0,0,0,0S59.36,26.08,59.37,26.1Zm-1.91,3.56-.11-.1C57.43,29.64,57.44,29.69,57.46,29.66Zm2.68-2.6.06,0a.31.31,0,0,0-.09-.07Zm.32-.63v0l0,.06S60.55,26.51,60.46,26.43Zm-3.09,3.38s0,0,0,0l0,0Zm-.57-1.38h0l0,0Zm4.84-3.66h0Zm-1.6.61h0a.1.1,0,0,0,0-.05Zm.86-.32h0Zm-3.49,4.82.07.09S57.46,29.92,57.41,29.88Zm4.4-4.94a1.86,1.86,0,0,0-.11-.19,1.15,1.15,0,0,1,.14.17.6.6,0,0,0-.06-.11.43.43,0,0,1-.1-.09v0c-.24-.21,0,0,0,.07h0Zm-1.3,1.3a.14.14,0,0,0,0,.05A.15.15,0,0,0,60.51,26.24ZM56,29.31s.23.22.31.24l-.08-.15.05,0s0-.05,0-.05,0,0,.08,0l-.09-.08c-.16-.24.27.15.2,0l-.12-.17.13.12c-.07-.08-.16-.18-.1-.16.29.15.1-.19.31-.13l-.06,0c.37.24-.22-.42.08-.23l0,.05c0-.06,0,.05.13.1-.15-.16-.08-.16-.12-.23s0,0,0,.06.13.12.11.09a.61.61,0,0,1-.17-.34c.11.1.22.16.39.31l-.17-.2c.09.05,0,0,0-.07l0,0h0l-.1-.1v0s0,0,0,0,0,0,0-.05,0-.06.08,0,.05,0,.05,0,0,0,0,0l0,0c.07,0-.07-.17-.14-.26a3.45,3.45,0,0,0,.28.26s0,0-.06,0l.07.06c.13.09-.06-.13,0-.08a.6.6,0,0,0,.08.08s0-.08-.1-.14c.11.09.25.19.17.09s-.12-.14-.09-.14l.06.08c.1,0-.07-.12,0-.08s0,.07.06.07-.05-.11-.19-.27l.12.12c-.06-.09-.16-.26,0-.11-.25-.23-.07-.19-.07-.18s0,.07.08.09c-.13-.19.06-.07.09-.11l.18.17s-.33-.39-.3-.39l.08.1c0-.07,0-.07.09-.07l.12.12c0-.06,0-.07-.08-.14.3.26,0-.24.3,0l-.21-.22s0-.07.17.08,0,0,.06,0a.75.75,0,0,0-.15-.16c.17.05.12-.12.34.05,0-.11-.16-.31-.1-.34l0,0a.77.77,0,0,1,.32.22c0-.07-.24-.34-.12-.3l.06.07s0-.07,0-.1l.06.07c.07,0,0-.05,0-.08l.06.07c.16.09,0-.22,0-.22a1.36,1.36,0,0,0,.12.12c-.19-.22-.09-.22-.12-.28l.07.09c-.1-.17.24.18.14,0l-.14-.1s0,0-.07-.12c.08,0,.16.15.2.15s0,.05.1.12l.19.12s0,0,0,0c-.25-.25,0,0-.25-.27,0-.06.23.06.15-.09.27.22.09-.07.4.24,0,0,0-.1-.13-.24s0,0,0,.05,0-.14,0-.14a3.28,3.28,0,0,0,.2.31,1.51,1.51,0,0,0-.11-.22h0c-.06-.07,0,0,.06,0h0l.12.11c-.1-.13.15.12,0-.06l0,0s-.11-.18-.11-.24l.06.07s-.09-.14.06,0v0l.25.19c0-.05-.19-.19-.19-.21a1.21,1.21,0,0,1,.16.16.73.73,0,0,0-.15-.29.08.08,0,0,0,0,0s-.13-.21,0-.14v0c.17.14-.1-.19.17.07.06,0,0,0,.11.13s-.2-.25-.1-.19,0,0,0,0a.24.24,0,0,0,0-.12h0l-.1-.09c0-.05.07.05.11.1.21.15,0-.13.29.09a1.07,1.07,0,0,1-.14-.16s0,0,0,0-.06-.08-.1-.13-.06-.11,0-.06,0-.06,0-.06a1.37,1.37,0,0,0,.19.22c.06,0-.21-.26-.14-.26l.12.09c-.16-.16-.07-.12-.13-.18a1.19,1.19,0,0,1,.18.15c0-.05.07,0,0-.09l-.06,0c.1,0-.11-.23,0-.15l.24.25c.12.08-.1-.17.07,0a.5.5,0,0,1-.14-.15s0,.08,0,.08l-.11-.17,0,.11a.69.69,0,0,0-.16-.18c-.06-.1.14.09.06,0a.86.86,0,0,1,.18.16c-.06-.11.22.14.1,0,0,0,0,0,.06.07s0,0-.06-.12h0s-.08-.1,0-.06l-.17-.18s.06,0,.13.11-.25-.27-.1-.18l0,0c0,.05.2.18.13.18.14.12.05,0,.11,0s-.19-.19-.24-.26a.18.18,0,0,0,.07.05l-.11-.09s0,0,0,0l0,0s.2.14.13,0a.73.73,0,0,0,.17.18c0-.09,0,0,.13.09s-.17-.18-.07-.15l-.09-.08c.07,0,0-.05.11,0a.27.27,0,0,1-.11-.1c.07.09.1.06.15.09l0,.05a0,0,0,0,0,0,0,.92.92,0,0,0,.25.23,1.21,1.21,0,0,0-.21-.24c.08,0-.2-.24-.1-.19l.26.17c-.1-.12-.11-.06-.19-.17.31.24-.11-.23.09-.1l.14.14s0,0,0,0l-.09-.06s0,0,.12.08c-.09-.13,0-.06,0-.06s0,0,0,.07,0,0,0-.05a.45.45,0,0,0,.13.11.51.51,0,0,1,0-.17l0,0c0-.08.2.07.12-.08l0,0s0,0-.05,0l0,0c-.09-.08,0-.09-.08-.15l.1.08a1.18,1.18,0,0,0-.11-.13c.06,0,.16.14.16.12s-.06-.08-.11-.13a.4.4,0,0,0,.15.1,1.09,1.09,0,0,1,.13.11h0l0,.05s0,0,0,0L60.85,25l0,.05s-.07-.07,0-.06l-.1-.1c.1.05,0-.1,0-.12l.11.11-.07-.11a.9.9,0,0,0,.15.18c0-.05,0,0-.11-.19l0,0c.08,0,.15,0,.2.08s.09,0-.06-.16,0,0,0,0l-.11-.12.08.08s0,0,0,0,.11.07,0-.05c.11.08,0,.07.15.15s-.13-.18.09,0c0-.09,0,0-.13-.14.19.19.06,0,.19.09-.07-.09,0,0-.13-.14,0,.06.08.06.08.06l-.13-.13.34.29c-.12-.17-.22-.21-.24-.3.14.12-.07-.12,0-.05s.06.06.09.1l0-.06,0,0c.11.07,0-.07.06,0a.81.81,0,0,0,.16.16l-.12-.16.16.18h0s.09.09.09.11l-.12-.11c0,.06,0,.08,0,0a.67.67,0,0,0-.14-.15c0,.09.17.23.22.34s-.18-.05-.07.11.12.07.12.12l-.11-.1c.13.16-.06,0,0,.11l-.12-.1c-.12-.12-.07,0-.22-.23.17.21-.09,0,.17.3l0,0-.08,0s0,0-.15-.09,0-.05,0-.08.06.12.06.14,0-.05-.13-.16,0,.07.05.11l-.05-.05c-.14-.09.24.25.05.11l.09.09a1,1,0,0,1-.22-.2.44.44,0,0,0,.08.12l.14.12v.09l0-.06c-.31-.22.14.31-.23,0a.53.53,0,0,1,.12.14s0,0-.1,0l0-.06c0,.11.09.21,0,.21s-.09-.08-.09-.1-.27-.18,0,0h0c-.07,0,0,.17,0,.24l0,0h0l0-.05h0a.08.08,0,0,1,0,0h0l-.08-.09c-.06,0,0,.1-.06.1l0,0c-.11-.06.14.12.09.12a.58.58,0,0,0-.12-.1l.1.11a.8.8,0,0,1-.13-.13c.12.15,0,.09.12.22a1.26,1.26,0,0,0-.2-.2s0,0,0,.09-.11-.05-.11-.07.06.08.12.18l.08,0v.09l0-.08c-.08,0,0,.11,0,.11l.08.06,0,.07c-.16-.15-.06,0-.23-.2-.08,0,0,.11,0,.18h0c-.06,0,0,.07.08.16l-.1-.11s.07.1.09.18a.43.43,0,0,0-.11-.12.64.64,0,0,1,.1.13c-.28-.32-.15-.09-.38-.34.09.12.19.23.29.34v0c.07.14-.06.08,0,.2,0,0,0-.12-.1-.12s.05.17.09.29c-.2-.19,0-.07-.17-.26a1,1,0,0,0,.08.34c-.3-.27.07.16-.18,0,.11.09.11.14.11.16s-.1-.07-.15-.13c.07.11.07.19-.11,0,.17.18,0,0,.08.16-.08,0,0,.07-.08,0,.12.11,0,.08.07.13l0,0c-.1-.1.05.09,0,.06s-.1-.11-.12-.11.14.21,0,.13l-.06-.08c.07.19-.15.08,0,.31l-.13-.15c-.21-.14.2.26.15.26s-.41-.1-.41.07,0,0,.11.1-.14-.12-.08,0l.08.07c-.24-.16,0,.24-.31,0,.09.15-.14,0,0,.19-.08-.05-.11-.14-.15-.14l.08.16c.18.25-.34-.15-.23.05-.05-.05-.11-.1-.11-.07a.39.39,0,0,0,.1.08c.05.13,0,.15,0,.19s-.08,0-.19-.15c.06.08.11.1.15.18s-.13,0-.19,0a1.56,1.56,0,0,0,.16.2s0,.1,0,.14l0,0c.13.16-.11,0,0,0l-.11-.12,0,.07a.72.72,0,0,0-.2-.19l0,.05,0,0a.8.8,0,0,0,.2.21s0,.15-.06.15l-.09-.1s0,.07-.1,0l.1.11c.1.13-.14-.15,0,0a.94.94,0,0,0-.09-.12l.07.16c-.07-.07-.24-.18-.21-.11l.11.09,0,0-.16-.14.11.15-.12-.13s.17.21.14.21a1.49,1.49,0,0,1-.3-.18c.24.24,0,0,.11.21-.22-.16-.16,0-.27,0v0c-.14-.09.16.21.08.18l0,0c-.15-.1-.09.07,0,.2,0-.05-.16-.16-.12-.1s.18.16.12.13a.6.6,0,0,0-.08-.08l.11.14c-.13,0-.26-.08-.23,0a.8.8,0,0,1-.13-.13,1.84,1.84,0,0,0,.05.25l-.14-.14s.2.22.06.12,0,0,0-.09.11.17.07.17l-.15-.17c-.11-.07.06.11.14.21s-.32-.28-.22-.1l.18.19c-.07,0,0,.1,0,.1-.25-.22,0,0-.22-.22l.08,0c-.16-.1,0-.05-.16-.19s0,.1.06.17l0,0,0,0h0l0,0c.13.17,0,.09.09.23a.23.23,0,0,0-.07-.07s.11.16.14.21-.23-.24-.21-.17l.11.12s-.06-.06-.16-.13c.12.14-.06,0,.14.18a1.56,1.56,0,0,0-.2-.16c.12.1.09.13.22.26-.16-.14-.17-.2-.34-.34a2.78,2.78,0,0,0,.26.34.51.51,0,0,0-.13-.09l0,0c.09.13-.06.06.13.27-.23-.24-.08,0-.28-.22a.57.57,0,0,0,.12.18c-.19-.18-.07,0-.19-.11.09.1,0,.09.09.16a.52.52,0,0,0-.1-.11c.07.09,0,0-.1-.06a2.28,2.28,0,0,0,.22.22c-.06,0-.12-.11-.19-.18l.16.2a.47.47,0,0,1-.12-.09c0,.07.12.14,0,.07v0l-.09-.08.09.14a3.26,3.26,0,0,1-.54-.51l0,0a.3.3,0,0,0-.12-.09A1.05,1.05,0,0,1,56,29.31ZM57.55,29a.25.25,0,0,0,.08.09h0A.43.43,0,0,1,57.55,29Zm-.41.33a2.11,2.11,0,0,0,.15.15s0,0-.1-.12l0,.05-.06-.08C57.06,29.24,57.14,29.35,57.14,29.35Zm4.64-4.57,0,0,0,.06S61.81,24.83,61.78,24.78Zm-.12-.11a.54.54,0,0,1,.08.08s0,0,0-.05Zm-3.08,3.72v0Zm0,0,.09.08A.44.44,0,0,0,58.58,28.39Zm-1.68.15h0l0,0Zm1.52.23,0,0,0,0Zm2.2-2.9,0,.07S60.68,25.94,60.62,25.87ZM60.29,27ZM60.66,26s0,0,0,0Zm1.24-1.1,0,0S61.93,24.89,61.9,24.85Zm-.13.16s.11.07.09,0l0,0C61.89,25.08,61.71,24.93,61.77,25Zm-.58-.39c0-.05-.12-.1-.12-.12-.16-.1.11.1.06.12Zm-.3-.09a.28.28,0,0,0,.09.1S60.91,24.56,60.89,24.53Zm-.46.65-.1-.11S60.37,25.11,60.43,25.18Zm-.37,0v0l0,.06Zm-2.61,2.44,0,.05h0ZM25.84,63.24s.11.12.11.09l-.14-.14Zm.15.12c.08.07.12.08.07,0s-.06,0-.11-.08S25.91,63.29,26,63.36Zm.07,0Zm-.21-.25.21.25.08.07C26.05,63.33,26,63.22,25.85,63.12Zm1.25-.22.06,0S27.12,62.91,27.1,62.9ZM26,63.06s0,0,0,0l0,0Zm4.37-4.73.11.1C30.35,58.35,30.34,58.3,30.32,58.33ZM27.49,61h0Zm.15,0-.06,0a.22.22,0,0,0,.09.07Zm4.13-2.28c-.05,0-.23-.22-.3-.24l.07.15-.06-.07c-.05,0,0,0,0,.06s-.06,0-.08,0l.08.07c.15.24-.27-.15-.19,0l.12.16-.13-.12c.06.09.16.19.1.16-.31-.14-.1.2-.31.13a.46.46,0,0,0,.07.07c-.37-.25.22.41-.07.23l-.05-.06c0,.06,0,0-.13-.09.15.15.08.15.12.22s0,0,0-.06-.12-.12-.1-.08a.61.61,0,0,1,.17.34c-.11-.1-.22-.16-.39-.31l.17.2c-.07,0,0,0,0,.07v0h0l0,0h0v0l.19.19s0,0,0,0h0l0-.05s0,0,0,0l0,0h0s-.05,0-.05,0v0l0,0c-.07,0,.08.17.15.26a1.69,1.69,0,0,0-.28-.26s0,0,.06,0l-.07-.06c-.14-.09.06.13-.05.08l-.07-.08s0,.08.1.14c-.11-.09-.26-.19-.17-.09s.12.14.09.14l-.07-.08c-.09,0,.08.12,0,.08s0-.06-.06-.06a1.57,1.57,0,0,0,.19.26l-.11-.12c0,.09.15.27,0,.11.25.24.09.18.06.18a.31.31,0,0,0-.07-.09c.12.19-.07.07-.1.11l-.18-.17s.33.39.3.39l-.07-.09c0,.06,0,.06-.1.06l-.11-.12c0,.06,0,.08.07.14-.3-.26,0,.24-.3,0l.22.22s0,.07-.17-.08,0,0-.07,0a.8.8,0,0,0,.15.17c-.17-.06-.11.11-.34-.06,0,.11.17.31.1.34l0,0a.66.66,0,0,1-.32-.22c0,.08.23.35.12.31l-.07-.08s.05.08.05.1l-.07-.06c-.07-.06,0,0,0,.07l-.06-.06c-.15-.09,0,.21,0,.21A.43.43,0,0,0,29.5,61c.19.21.1.21.13.28l-.08-.09c.11.18-.24-.17-.13,0l.13.09c-.05,0,0,0,.07.12-.08,0-.15-.15-.19-.15s0,0-.11-.12L29.14,61s0,0,0,0c.24.26,0,.05.24.28,0,.06-.23-.07-.15.09-.26-.23-.09.07-.4-.25,0,0,0,.1.13.24s0,0,0,0,0,.13,0,.13a2.61,2.61,0,0,0-.2-.3,1.51,1.51,0,0,0,.11.22l0,0c0,.05,0,0,0,0h0l0,0h0l-.13-.13c.11.14-.14-.12,0,.06l.05,0s.11.18.11.23l-.06-.07c-.06,0,.1.14-.06,0v0a1.59,1.59,0,0,0-.24-.2s.18.2.18.22l-.15-.17a.62.62,0,0,0,.15.29l0,0s.13.22,0,.14v0c-.17-.14.1.2-.17-.06-.06,0,0,0-.11-.13s.2.24.1.19l0,0a.24.24,0,0,0,0,.12h0l.12.11s-.1-.08-.13-.12c-.19-.14,0,.13-.28-.08a.67.67,0,0,1,.14.15l0,0s.06.09.1.13.06.11,0,.07,0,0,0,0a2,2,0,0,0-.19-.22c-.06,0,.21.26.14.26L28.25,62c.16.17.07.13.13.19L28.2,62s-.07,0,0,.08l.06,0c-.1,0,.11.23,0,.15L28,62.05c-.12-.08.1.16-.07,0a.43.43,0,0,1,.13.14s0-.07,0-.07l.12.17,0-.11a.69.69,0,0,0,.16.18c.06.1-.14-.1-.07,0a1.54,1.54,0,0,0-.18-.16c.07.1-.21-.15-.09,0,0,0,0,0-.06-.07s0,0,.06.1l0,0s.08.11,0,.07.16.16.17.18-.06,0-.13-.11.25.27.1.18l0,0s0,0,0,0-.2-.17-.13-.17c-.13-.13,0,0-.11,0s.19.19.25.26l-.08,0,.11.1v0l0,0s-.2-.15-.13,0a.46.46,0,0,0-.17-.17c0,.08,0,0-.13-.1s.17.18.08.15,0,.06.08.08,0,0-.11,0a.2.2,0,0,1,.11.11c-.07-.1-.09-.06-.15-.1l0,0,0,0a.79.79,0,0,0-.25-.23,1.21,1.21,0,0,0,.21.24c-.07,0,.2.24.1.19a2.36,2.36,0,0,0-.26-.17c.11.12.11.07.19.17-.3-.23.11.23-.09.11l-.13-.15s0,0,0,0l.08.06s0,0-.12-.08c.09.14,0,.07,0,.06s.05,0,0-.07,0,0,0,0a.45.45,0,0,0-.13-.11c.06.1,0,.1.06.17l0,0c0,.08-.21-.07-.12.08s.08.12.1.17a.05.05,0,0,0-.05,0l0,0,0,0,0,0-.13-.12s.11.12.06.09l-.09-.11s0,0,0,0a1,1,0,0,0-.17-.18,2.37,2.37,0,0,0,.34.37c-.1-.05,0,.09,0,.12L27,63.09a.41.41,0,0,0,.07.11.65.65,0,0,0-.15-.18s0,0,.11.2l0,0c-.08,0-.15,0-.2-.08s-.09,0,.06.17-.16-.11-.07,0l.1.12s-.06,0-.08-.08h0c-.09-.08,0-.07-.13-.15s.12.18-.1,0c0,.09,0,0,.14.15-.2-.2-.07,0-.2-.1.07.09.05,0,.13.14s-.08,0-.08,0l.11.1h0l0,0,0,0s.21.2.06.11-.07-.07-.12-.12h.05l-.31-.27c.12.18.22.21.24.31-.14-.12.08.12-.05,0,0,0-.05-.06-.09-.1l0,.07,0,0c-.11-.07,0,.07-.06,0a.61.61,0,0,0-.16-.16l.12.16-.16-.18s.21.31,0,.08v0L26,63.16s-.05-.07-.06-.1a1.07,1.07,0,0,0,.14.16A1.86,1.86,0,0,0,26,63a.59.59,0,0,0,.15.17c.08,0-.06-.08-.06-.1a.52.52,0,0,1,.11.1c0-.06,0-.08,0,0a1.07,1.07,0,0,0,.14.16c0-.09-.17-.23-.21-.34s.18.05.06-.11-.12-.08-.12-.12.08,0,.12.09c-.13-.16.06,0,0-.1a.38.38,0,0,0,.13.09,1.92,1.92,0,0,1,.22.24c-.18-.21.09,0-.18-.31l0,0,.08,0s0,0,.15.09,0,0,0,.08-.06-.12-.06-.14,0,.05.13.15,0-.07,0-.1l0,0c.14.09-.24-.26,0-.11l-.09-.09a.7.7,0,0,1,.22.2s0-.07-.08-.12l-.14-.12v-.09l0,0c.31.23-.14-.3.23,0a.49.49,0,0,1-.12-.13s0,0,.1,0l.06.06c0-.11-.1-.21,0-.21l.1.1c-.09-.12.26.18,0,0h0c.06,0,0-.11,0-.2l-.05-.06.05,0a.08.08,0,0,1,0,0c.15.12,0,0,.15.18s0-.1.07-.1l0,0c.11.05-.13-.13-.09-.13a.58.58,0,0,0,.12.1l-.1-.11.13.13c-.12-.14,0-.08-.12-.22l.09.1s0-.05,0-.05a.21.21,0,0,0,0,.06.46.46,0,0,0,.1.1s0,0,0-.09.11,0,.11.06-.06-.08-.12-.17l-.08,0v-.06l.05.07c.08,0,0-.1,0-.1l-.08-.07,0-.07c.16.16.06,0,.23.2s0-.11,0-.18,0,0,0,0,0-.08-.08-.17l.1.11s-.07-.1-.09-.17a.57.57,0,0,0,.11.11.58.58,0,0,1-.1-.12c.28.31.15.09.38.34a2.37,2.37,0,0,0-.29-.34h0c-.05-.12.06-.08,0-.19s.07.13.1.13,0-.18-.09-.3c.2.19,0,.08.17.26a1.05,1.05,0,0,0-.08-.34c.3.27-.07-.16.18,0-.11-.09-.11-.14-.11-.16s.1.07.15.13c-.07-.11-.07-.18.11,0-.17-.18,0,0-.08-.16.08.05,0-.07.08,0-.12-.11,0-.08-.07-.13l0,0c.1.1-.05-.1,0-.06l.12.11c-.08-.08-.14-.21,0-.12l.07.08c-.08-.2.15-.09,0-.31l.13.14c.21.14-.2-.26-.15-.26s.41.1.41-.06-.05,0-.11-.11.14.13.08,0l-.08-.07c.24.17,0-.23.31.05-.09-.15.13,0,0-.19.08.05.11.14.15.14L28.62,60c-.19-.26.34.14.23-.06,0,.05.11.1.11.08a.41.41,0,0,0-.1-.09.3.3,0,0,1,0-.19c.06.09.08,0,.19.15-.06-.07-.12-.1-.15-.18s.13,0,.19,0a1.16,1.16,0,0,0-.16-.21s0-.1,0-.14l0,0c-.13-.16.11,0,0-.05l.11.12,0-.07a.76.76,0,0,0,.2.2c-.09-.12-.07-.07-.15-.16l.14.13a1,1,0,0,0-.21-.21s0-.15.07-.15l.09.1s0-.07.09,0l-.09-.11c-.1-.13.14.16,0,0a.5.5,0,0,0,.08.12l-.06-.15c.07.06.24.18.2.1a.39.39,0,0,0-.1-.08l0,0,.16.14-.11-.15.12.12s-.17-.2-.14-.2l.3.18c-.24-.24,0,0-.11-.22.22.15.16,0,.26,0v0c.14.09-.16-.21-.08-.18l0,0c.15.1.09-.07,0-.2,0,0,.16.15.11.1l-.11-.13.08.07-.1-.13c.12,0,.25.08.22,0a.74.74,0,0,1,.13.12,2,2,0,0,0-.05-.24l.14.14s-.2-.22-.06-.12,0,0,.05.09-.12-.17-.07-.17l.15.17c.12.07-.06-.11-.14-.21s.32.28.22.1-.11-.11-.18-.2,0-.09,0-.09c.25.22,0,0,.22.22l-.07,0c.15.1,0,.05.15.18s0-.1-.06-.16l0,0,0,0h0v0h0c-.13-.17,0-.09-.09-.23l.07.07a1.86,1.86,0,0,0-.14-.21c.09.07.23.23.21.16l-.11-.11s.05.05.16.12c-.12-.13.06,0-.14-.18a1,1,0,0,0,.2.16c-.12-.1-.09-.13-.22-.26l.34.34a2.18,2.18,0,0,0-.26-.34l.14.08s0,0,0,0,.06-.06-.12-.27c.22.24.07,0,.27.21a.94.94,0,0,0-.12-.18c.19.19.07,0,.19.12-.09-.11,0-.09-.09-.16a.52.52,0,0,0,.1.11c-.07-.09,0,0,.1.06s-.14-.13-.22-.23A1.8,1.8,0,0,1,31,58l-.17-.2a.47.47,0,0,1,.12.09c-.05-.07-.12-.15,0-.07v0l.09.09-.09-.14a3.68,3.68,0,0,1,.54.5v0a.41.41,0,0,0,.12.09A1.05,1.05,0,0,1,31.77,58.65ZM30.23,59l-.07-.08h0Zm.41-.32-.15-.16c0,.05,0,0,.1.13l0,0,.06.08C30.72,58.75,30.64,58.64,30.64,58.64ZM26,63.19l0,0,0-.06S26,63.15,26,63.19Zm1.31-1.64h0Zm-.05.21a.07.07,0,0,0,0,0ZM26.14,63.3a.6.6,0,0,1-.08-.08l0,.05Zm1-.16s0,0,0-.08A.22.22,0,0,1,27,63S27.13,63.11,27.18,63.14Zm3.2-5A.76.76,0,0,1,30.3,58S30.33,58.07,30.38,58.13ZM27.1,63l0,0,0,0-.06,0Zm.24-1.45v0a.21.21,0,0,1,0-.06S27.25,61.49,27.34,61.57Zm3.07-3.4v0l0,0Zm-3.23,4.91Zm.53-.46h0l.05.05Zm3.3-3h0Zm-3.79,3.5s0,0,0,0h0Zm2.14-3.89,0,0,0,0Zm-3.48,3.93,0,0S25.85,63.1,25.88,63.14ZM26,63s-.11-.07-.09,0l0,0C25.89,62.91,26.07,63.06,26,63Zm.87.46a.2.2,0,0,0-.09-.09S26.86,63.42,26.88,63.44Zm.46-.63.11.11S27.41,62.88,27.34,62.81Zm.38,0v0l0-.06Zm2.61-2.43,0,0h0Z" fill="#161614"/>
  <path class="mapIcon__innerRing" d="M44,8.31A35.71,35.71,0,1,1,18.77,18.77,35.7,35.7,0,0,1,44,8.31ZM44,6a38.09,38.09,0,1,0,14.55,2.9A38,38,0,0,0,44,6Z" fill="#161614"/>
  <path class="mapIcon__outerRing" d="M21.7,43.75c-.08,0-.16.07-.05.18h.22Zm.27,1c.17.1.42.18.5,0-.24,0-.21-.12-.5-.16-.1-.11-.09-.25,0-.27s-.1-.22-.24-.23a.63.63,0,0,0,.1.36.68.68,0,0,0,.27.26C22.08,44.81,22,44.79,22,44.8Zm-.15-1.63,0-.05-.07-.06Zm1,2,0-.06h0Zm-.07,0-.06-.05S22.7,45.1,22.72,45.1Zm-.18-.16.12.11S22.61,44.94,22.54,44.94Zm21.35,23.2a2.07,2.07,0,0,0-.43,0,1.43,1.43,0,0,1,.33,0,.21.21,0,0,1-.13,0c.05,0,0,0,.08,0s.15,0,0,0Zm.3-1h0Zm.1-.68h0Zm.22-.1Zm-.32.78.06,0C44.19,67.06,44.2,67.09,44.19,67.09Zm.19.5h0Zm.33-1.49ZM43.44,68Zm1-2h0Zm-.83,1.54-.05,0ZM43.29,66Zm.37.49-.07,0S43.58,66.48,43.66,66.48Zm-.06,0s0,0,0,0S43.62,66.45,43.6,66.44Zm-.13,1.47s-.13,0-.09,0h0C43.32,67.94,43.57,67.92,43.47,67.91Zm.73-.18-.05,0h.17C44.5,67.73,44.17,67.77,44.2,67.73Zm.09-.1h.13A.15.15,0,0,0,44.29,67.63Zm0-.79h.15A.66.66,0,0,0,44.29,66.84Zm-.77-.15-.09,0h.14Zm1.06-.09h0l-.05,0ZM24.65,8,23.17,5.23A43.44,43.44,0,0,1,41.91.05l.15,3.12A40.35,40.35,0,0,0,24.65,8ZM5.79,29.43,2.88,28.32A44,44,0,0,1,21.42,6.22L23,8.9a41.24,41.24,0,0,0-12.75,12A40.72,40.72,0,0,0,5.79,29.43ZM2.92,59.79A43.72,43.72,0,0,1,0,44H3.12A40.89,40.89,0,0,0,5.84,58.67Zm6.15,11A43.89,43.89,0,0,1,3.6,61.43l2.86-1.24a41,41,0,0,0,5.1,8.67ZM44,88A44,44,0,0,1,10.75,72.82l2.36-2A40.86,40.86,0,0,0,44,84.88Zm3.48-.14-.25-3.11a41.87,41.87,0,0,0,5-.69l.62,3.06A46,46,0,0,1,47.48,87.86Zm12-2.64-1.1-2.92A41.82,41.82,0,0,0,63.47,80c.58-.31,1.17-.65,1.75-1a40.6,40.6,0,0,0,8.92-7.34l2.31,2.11a44.2,44.2,0,0,1-9.61,7.9c-.62.38-1.26.74-1.89,1.08A44.44,44.44,0,0,1,59.43,85.22ZM78.5,71.31l-2.44-1.94c.59-.75,1.16-1.53,1.69-2.32a40.7,40.7,0,0,0,7.13-23c0-.84,0-1.7-.08-2.53a40.64,40.64,0,0,0-3.54-14.3l2.85-1.29a43.69,43.69,0,0,1,3.8,15.4c.06.9.09,1.82.09,2.72a43.77,43.77,0,0,1-7.67,24.81C79.76,69.66,79.14,70.5,78.5,71.31ZM77.23,20.19A41.8,41.8,0,0,0,74,16.25,41,41,0,0,0,44,3.12V0A44,44,0,0,1,79.77,18.37Z" fill="#161614"/>
</svg>
