<svg class="mapIcon" xmlns="http://www.w3.org/2000/svg" viewBox="0 0 88 88">
  <path d="M80.39,49.91A36.86,36.86,0,1,0,38.1,80.39,36.85,36.85,0,0,0,80.39,49.91Z" style="fill: #f5ce9d"/>
  <path d="M42.66,60.08l.06,0-.12,0Zm13.13-1.8-.3.07C55.5,58.43,55.65,58.33,55.79,58.28ZM39.11,59.44h0ZM31.6,56.92s0,0,0-.12A.24.24,0,0,0,31.6,56.92Zm-1.86-2.36v0S29.73,54.54,29.74,54.56Zm0,.16a.14.14,0,0,0,0-.09.05.05,0,0,0,0-.05A.22.22,0,0,1,29.77,54.72Zm-.21-3.17v.11l0-.17A.21.21,0,0,0,29.56,51.55ZM63.1,33.75a.54.54,0,0,1,.08.21C63.18,33.82,63.66,34,63.1,33.75ZM60.42,44.1a.14.14,0,0,1,0,.06v-.11h0a.49.49,0,0,0-.06-.17.47.47,0,0,0,0,.16h0a.08.08,0,0,0-.08,0Zm9.15-6.42a.37.37,0,0,0-.06-.25,1.64,1.64,0,0,1,0,.44v.27l0,.14a1.67,1.67,0,0,1-.23.57,3.13,3.13,0,0,1-.36.44l-.34.32a.4.4,0,0,0-.1.12l-.06.11c-.07-.39-1.18.58-.93,0a2,2,0,0,0-.56.55c-.1-.28-.59.21-.93.16,0,.11-.18.21-.25.27a2.26,2.26,0,0,0-.29.23l0,.08h-.06s0,0,0,0,0,.15,0,.22l.09,0c.19.21-.21.33-.11.5l.14.11-.12,0c.07.07.17.08.12.19-.21.39.05.81-.08,1.2,0,0,0,0,.05,0-.31.35.32.54.08.85l-.05,0c0,.16,0,0-.11.1.15,0,.11.2.17.29s0-.09,0-.07-.13,0-.1.07c.22.1.2.32.26.48s-.18.16-.34.23l.19.07c-.07.06,0,.1,0,.14v-.13s0,0,0,0l0,0c.1-.06.08,0,.2,0s0,.13,0,.16h0s0,0,0,0h0a.16.16,0,0,1,0,.09s0,0,0,0v0h0c0,.11.12.26.2.34-.14-.08-.16,0-.27,0a.55.55,0,0,0,0-.22h-.06c-.12.12.09.2,0,.36l0,0h0c0,.06.06.12.12.12-.11,0-.22.15-.14.21s.12,0,.12.14l-.07,0c-.06.11.1.09,0,.19s0,0-.07,0,.08.12.23.21h-.12c.06.1.21.3.06.3.23,0,.12.22.12.31s-.06,0-.09,0c.15.19,0,.39,0,.58l-.17,0c0,.09.34.13.34.23l-.08,0a1,1,0,0,1,0,.43h-.12c.05.06.05.13.11.18-.29.13.15.51-.17.74l.22,0c0,.09,0,.2-.13.25v0c-.16,0,0,.09,0,.14s.13.09.16,0c-.11.24,0,.59-.19.74.07.24.24.42.22.68h0c0,.08-.08.26-.26.26,0,.18.29.3.21.52l-.07-.05c0,.06.07.15.07.17s0,0-.07,0,.06.09.06.13l-.07,0c-.12.18.13.45.1.68,0,0-.09,0-.12,0s.13.2.13.34a2.49,2.49,0,0,1-.09.37l0-.12a.18.18,0,0,1,0,.14.22.22,0,0,1-.13.08.21.21,0,0,0-.13,0,.21.21,0,0,0-.07.12.71.71,0,0,0,.2,0c-.11.07-.16.17-.08.21-.15,0-.11-.11-.29,0s.1-.11,0-.13h-.29s0,0-.1,0c.11.24-.19.07,0,.27a.89.89,0,0,1-.56,0c-.16,0-.3-.12-.47-.16,0-.14-.11-.23-.19-.34s-.11-.21,0-.28a.76.76,0,0,0-.3-.29s0,.07,0,.1-.13-.25-.13-.32c.07.1.16.29.29.31-.07-.1-.19-.31-.22-.36l.16,0c-.12-.1.13-.08,0-.18h0c0-.17-.15-.17-.17-.34h.07s-.13-.13,0-.19v.11c.11,0,.16-.1.21-.13s-.19,0-.19-.1,0,0,.16,0a.73.73,0,0,0-.22-.39h0c0-.14-.17-.26-.08-.34v0c.16-.11-.14-.27.12-.3,0,0,0,.12.12,0s-.22-.11-.15-.24h0a1.09,1.09,0,0,0,0-.26h0l0,0a.13.13,0,0,1,0-.06c.21-.14-.06-.41.19-.57-.08,0-.1,0-.14,0h0c0-.05-.08-.06-.11-.08s-.09-.16,0-.18,0,0,0-.1.11,0,.2.08c0-.17-.24-.19-.2-.34l.11-.09c-.16,0-.1-.16-.16-.16a.26.26,0,0,1,.16-.06c0-.06,0-.16,0-.18l0,.06c.06-.2-.17-.31-.07-.46h.25c.08-.1-.15-.18,0-.27-.09,0-.06,0-.14,0s0,.11,0,.17l-.14-.13.07.21c-.1-.09-.07-.08-.17,0-.08-.12.12-.13,0-.25s.12,0,.17-.05.18-.2.05-.28,0,0,.06,0,0-.11-.08-.13l0,.06s-.09-.06,0-.16-.18-.09-.18,0,.05-.08.12-.06c0-.16-.26-.08-.14-.23h0l0,0s0,0,0-.05c0,.14.2,0,.16.12.12,0,0-.12.07-.17s-.19,0-.25,0,0,0,.06-.07l-.1,0a.16.16,0,0,0,0-.1l0,.06c0-.06.17-.17.08-.29s.12.08.17,0,0,0,.11-.11-.17,0-.11-.21c0,0-.06,0-.09,0,0-.14,0-.21,0-.34,0,0-.06.09-.1,0s.07-.1.12-.15.06,0,0,0-.06,0,0,0,.24,0,.24-.06-.18-.08-.22-.07-.23-.13-.15-.27.19-.13.21-.23-.08.12-.18.06c.29-.16-.16-.34,0-.55l.14,0a.38.38,0,0,0,0-.15l-.07.07c0-.05,0-.17.09-.13-.09-.11,0-.14,0-.22s-.07,0-.08,0h.08c0,.06,0,0,.06.06.07-.12,0-.13,0-.21s.12,0,.12-.06-.07-.21-.11-.31h0c-.06-.18.13-.38,0-.56-.14.07-.09-.14-.14-.19s.09,0,.09,0-.06-.07-.12-.1.14,0,.14-.09-.07,0-.12,0l.08-.06a.41.41,0,0,0,0-.09s0,.06,0,.06,0,0,.12,0-.11,0-.07-.08l.09.06s0-.1,0-.07l.07,0v-.06a1.86,1.86,0,0,0-.26,0c.07-.11,0-.21,0-.3h0l-.06,0h.05v0l.11,0,0-.06-.06,0v-.08a.24.24,0,0,0,.08.06h.09c0-.09,0-.2-.16-.23h0a1,1,0,0,0,.07-.21l-.13.13a1.68,1.68,0,0,1-.59,0h-.19l-.12,0-.1,0,0,0h-.17c-.09.06-.21.09-.24.15,0-.1-.18-.12-.34,0-.08.34-.17.28-.26.58a.22.22,0,0,1-.12-.22l0,0s0-.11,0-.11c-.28-.15-.39.09-.55.25l.19-.05c0,.11-.13.24-.3.38l-.12.1v0l0,0-.05,0h0l-.08-.14a.2.2,0,0,0,.11,0h0a.36.36,0,0,0,.31-.18c.06-.06,0-.19,0-.19a.34.34,0,0,1-.47,0,.16.16,0,0,1,0,.12.27.27,0,0,1,.12,0l-.1.07,0,0,0,0h0l0,0h0v0l0,0h0l0,0h0l.06.08h0v0a.58.58,0,0,0,0,.19l.06.22a1.29,1.29,0,0,1,.06.25,1,1,0,0,0-.27-.28c-.1.37.13.28.14.56-.07.11-.12.18-.18.11a2,2,0,0,1,0,1s-.13-.42-.24-.19c.13.68.34.82.46,1.56.31.86-.19,1.66,0,2.26.08,0,.14-.44.2-.06-.18-.07-.11.23-.18.25.25.42-.05.62.11.92-.05-.06-.12.18-.18.34-.2-.05-.08.46-.37-.15.31.63-.08,1.11.4,1.58l0-.16-.1.63v0a1.1,1.1,0,0,1-.19.68c-.05-.16-.05-.39-.1-.55-.18.34.16.7.16,1.08-.15,0-.05-.39-.23-.28a4.66,4.66,0,0,0,.09.75l-.08,0c-.12.32,0,.4.05.46s.15.09,0,.31c0,0,.09.07.14,0-.13.18-.39.54-.37.1a1.55,1.55,0,0,0,0,.64c.21-.14.16-.21.34-.23a4.48,4.48,0,0,1-.34,1c-.06.1,0-.11,0-.24a11.62,11.62,0,0,0-1.13,1.39,2.43,2.43,0,0,1-1.55,1c.19,0,0,.14-.08.29a7.6,7.6,0,0,1-1.28.55l.07-.13a7.41,7.41,0,0,1-2,1s0-.13.07-.19c-.4.32-1.09-.06-1.11.32l.17,0c-.9.19-1.85.65-2.79.85-.25-.19.54-.12.3-.34-.66,0-1.29.31-2,.31.11-.05.08-.07.13-.09-.72-.06.11.21-.5.24,0-.11,0-.13-.21-.16l-.16.18a.14.14,0,0,1,0-.11.24.24,0,0,1,.06-.11c-.23.26-1.05.16-1.25.39-.05-.06.09-.27,0-.34a1.36,1.36,0,0,0-.74.13c-.23-.13-.77-.1-.66-.13-.57-.06-.09.12-.52.26l.46.09c-.27,0-.54,0-.81,0l.34-.1c-.37-.09-.76.1-1.19.07l.19.13-.5.06c0-.25-.63-.09-.34-.37a18.73,18.73,0,0,0-2.37,0c.12,0,.09,0,.12-.08a1.88,1.88,0,0,0-1.1.06c.08-.07.21-.08.21-.15-.58-.09-.38.09-1,.06.21-.07.16-.14,0-.2,0,.1-.15.14-.27.14.56-.41-.66-.34-.29-.68,0,.1-1.06.1-.83.36h.18c0,.13-.23,0-.41,0,.1,0,.21,0,.21,0a15.72,15.72,0,0,1-2.84-.68c.1,0,.53,0,.29-.09-.93-.43-1.58-.43-2.58-.83.06-.15.31,0,.58.11s.54.25.63.11c-.51-.21-1-.42-1.55-.67a8.69,8.69,0,0,1-1.64-1c0-.33-.26-.53-.54-.79a1.72,1.72,0,0,1-.4-.49,1.55,1.55,0,0,1-.18-.6c-.1.16-.35-.22-.47-.68.17.12.05-.35.17-.24a2,2,0,0,1-.25-.9,1.2,1.2,0,0,1,0-.42.17.17,0,0,1,.16-.14c-.29-.09,0-.69-.18-1a.88.88,0,0,1-.12.26l.08-.36,0,0c.1-.42-.06-.9,0-1.44-.18.2-.08-.53-.16-.73,0,.06,0,.17.06.14s-.14-.62,0-.93c.07-.14.19,0,.19-.2-.13,0-.29-.81-.13-1.13,0,.14.07.14.12.23-.21-1.44,0-3-.21-4.46l.22.24c.15-.53.05-.46-.08-.46a.47.47,0,0,0-.25.11l-2.5-1.51a21.6,21.6,0,0,0-2.66-1.38c-.17,0,0,.11,0,.2-.12-.1-.08-.28-.34-.28v.13A4.75,4.75,0,0,0,21,40a3.89,3.89,0,0,1-.42-.19,2.63,2.63,0,0,1-.48-.31,1.35,1.35,0,0,1-.37-.42,1.21,1.21,0,0,1-.16-.53,1.59,1.59,0,0,1-.25-.93,1.84,1.84,0,0,1,.26-.88,4.29,4.29,0,0,1,1.41-1.2c.34,0-.29.33.14.2l.84-.53-.05,0c.73-.67,2.45-.51,3.45-1.18l0,0c0,.09.27.1.43,0s-.09-.06-.22-.08a16.55,16.55,0,0,1,1.89-.93c-.28.25.35,0,.45.13.16-.18-.18-.12.23-.39a13.18,13.18,0,0,1,1.84-.5c.16-.23.46-.3.4-.48.72-.3,1.1-.53,2-.87l.05.05c.15-.31.81-.19.93-.38,0,.09-.08.16,0,.21l.37-.23c-.16.14-.18.4.16.29.28-.29-.14-.07,0-.26l.18.16c.25-.14.23-.4-.11-.34.89-.34,1.73-.78,2.54-1.06l0,.17a3.37,3.37,0,0,1,1.32-.43c0-.05.08-.18,0-.18.45-.38.14.2.63-.22-.12.1-.28.2-.28.29l1-.58a1.67,1.67,0,0,0,1.2-.2c0-.05-.16-.09-.28-.05l.27-.17.31.15.34-.37.08.19c.3-.16.32-.45.58-.53a6.16,6.16,0,0,1,1.55-.18.35.35,0,0,1,0-.14.24.24,0,0,1,.11-.09l.17-.09.23-.07c.38-.13.82-.11,1-.23a4.24,4.24,0,0,1,.5.18l.24.11.19.1.81.34c.58.23,1.2.45,1.77.71H48c.43.37.68-.06,1.18.22H49a6.55,6.55,0,0,0,2.6.86c-.16,0-.14.15.08.21s-.07-.32.27-.11c-.12,0-.08.11,0,.15l.44-.05a13.81,13.81,0,0,0,3,1.36c.16.14,0,.15-.07.2.8.27,1.63.41,2.35.65v.25c.34.12.34-.25.71.12.09.07-.3-.1-.46-.06.63.43.49-.05,1.14.23l-.27.18c.46.34.63.1.87,0,.81,0,.31.67,1.36.83.2-.05,0-.19.22-.25.65.33.8.17,1.46.51.23.51-.34-.13-.08.36l-.49-.28c.38.37-.44-.11-.44.13A5.46,5.46,0,0,0,63,34c-.06.16-.51-.18-.39.12l.24,0c-.08,0-.11.08-.24,0,0,.19.26.11.48.19a.51.51,0,0,0,0-.34.2.2,0,0,0,0,.08c.53-.07,1.2.4,1.65.36-.08,0,0,.06,0,.11.26.11.62,0,1,.08.14.19-.25.31.34.47.16-.1,0-.43.47-.24,0,0-.46,0-.25.14.5.08.14.1.5.42.32-.1.44.25.62,0,.07.26.06.18.29.43,0-.11.11-.1.29-.09s.43.06.46,0c0,.15-.17.14-.3.17s-.23.08-.06.28l.32,0a3.25,3.25,0,0,1,.4.15c.25.12.46.29.59.26a1.08,1.08,0,0,1,.09.5A3.39,3.39,0,0,1,69.57,37.68Zm-15.23-7c.12.11.33.23.26.25.09,0,.14,0,.14-.08Zm5.57,12.7a.37.37,0,0,1,0-.18v0a.38.38,0,0,1-.18,0v-.1c-.21.22-.35.43-.55.45,0,0,0-.12,0-.15-.08.21-.45-.21-.34.13h.06c-.28.06-.47.42-.71.58-.14-.17.15-.09,0-.3-.23,0-.34.25-.57.27V44c-.25,0,.11.19-.07.23s-.05-.12-.13-.15l0,.18a.48.48,0,0,1-.07-.2c0,.24-.27.2-.24.42,0-.05-.07-.25-.13-.31s-.14.08-.17.18c-.12-.11-.27,0-.25-.06-.18,0,0,.12,0,.3l.16,0-.2.14,0-.13c-.13,0-.17.18-.29.23l.11.09-.11.13c-.12-.23-.2,0-.24-.28-.31,0-.34.37-.57.49,0,0,0-.06,0-.1-.16,0-.19.16-.22.32,0-.08,0-.12,0-.18s0,.18-.19.32c0-.12,0-.16-.09-.16a.3.3,0,0,1,0,.1.36.36,0,0,1,0,.1c-.07-.53-.28-.1-.36-.51,0,.1-.16.43,0,.58l0-.06c.06.13,0,.1-.07.13a.12.12,0,0,0,0-.1c-.18.27-.51.24-.74.48,0-.06.09-.2,0-.2-.32.06-.37.37-.61.61-.14-.29.29-.18.18-.46a5,5,0,0,0-.8.72c-.3-.38-.26.32-.6.07.09.14,0,.24-.1.29,0-.14-.14-.09-.14-.19,0,.18-.3.36-.41.07.09.28-.22.08-.22.31-.17,0-.24.17-.43.15.13.15-.12.15-.14.25s0-.06,0-.08-.12.21-.25.16-.06-.15-.13-.15-.12.37-.27.26c0,0,0-.08,0-.14-.32.39-.87.32-1.19.75v-.23c-.37-.16,0,.41-.24.47a4.82,4.82,0,0,0-1.84.49c0,.08.06.06.1.14s-.16-.17-.16,0l.06.1c-.19-.09-.35,0-.51.14l-.09.05-.12.06-.22.08a.28.28,0,0,1-.18,0,.33.33,0,0,1-.16-.07l0,0a1.06,1.06,0,0,1-.58-.17.85.85,0,0,0-.22-.09.54.54,0,0,0-.25,0c0-.13.19-.15.07-.23l-.34.08h0c-.4.23-.58-.62-1-.53,0-.08,0-.24-.06-.19s0,.09,0,.17a1.74,1.74,0,0,1-.68-.07c.16-.07-.05-.14,0-.3-.1.08,0,.18-.2.22s-.33-.27-.48-.39c-.12.12-.19,0-.26.23-.23-.08-.38,0-.66-.16l0-.06c-.16.19-.2-.21-.3-.1,0-.07.08-.09.1-.16l-.15,0c.08,0,.19-.24.1-.3-.17.11,0,.12-.11.23l0-.22c-.09,0-.2.21-.12.32-.28-.07-.55-.15-.82-.24l.08-.13a.37.37,0,0,1-.38-.22s-.07.1-.07.15c-.23.13.06-.23-.19-.09.06,0,.13,0,.17-.12l-.4,0c0-.1-.08-.4-.25-.36a.11.11,0,0,0,0,.08.16.16,0,0,0,0,.09h-.11v-.26l-.2.16.07-.2c-.11,0-.24.24-.31.19-.25-.23-.16-.28-.3-.54-.16.37-.32-.14-.47.11-.17-.38-.63-.36-1-.58l0,0c-.08-.23-.29.22-.42.08l.06,0c-.14-.28-.58-.23-.84-.15.06,0,.08-.18,0-.18s0,.28-.13.17,0-.13,0-.13l-.19.14a1.41,1.41,0,0,0-.88-.5c0-.09,0-.14.07-.21-.26,0-.56,0-.79,0l.06-.22c-.11,0-.19.31-.26.06,0,0,.1,0,.17-.06-.15-.24-.2.16-.4.06L32.8,45c-.11-.21-.23.06-.34.18-.33.21,0-.53-.36-.42-.1.1-.06.18-.15.28-.18-.14-.28,0-.46-.12,0-.4.11.05.11-.34l.13.14c-.07-.24.14,0,.2-.22s-.3,0-.47,0c.06-.16.17,0,.19-.2l-.1,0s.07-.09.11-.09c0-.16-.08,0-.15-.06a1.46,1.46,0,0,0-.1.34v-.06c-.23.18-.39-.08-.57.06a.13.13,0,0,0,0-.1c-.08,0-.25.14-.38.16,0-.14.17-.34,0-.34s-.09.41-.24.34c0,0,.17-.06.16-.2-.18,0,0-.06-.1-.26-.15.16-.12-.13-.26.18A.45.45,0,0,0,30,44c0,.18-.23.1-.3.31.05-.25.26-.23.23-.51-.1.08-.21.11-.31.2a.5.5,0,0,1,0,.21.55.55,0,0,1-.1.22V44.1l0,0a.94.94,0,0,1-.06-.15,2.2,2.2,0,0,0-.28.55c0,.51.31.16.33.41-.17.13-.09,0-.26-.13a5.4,5.4,0,0,0,.36,1.73s-.07,0-.07,0c0,.6.29,1.11.14,1.49l0-.12c-.26.5.24,1.24-.2,1.36-.08.23,0-.52-.2-.14-.14.71.37.45.25,1.08,0-.08,0-.05-.06-.08,0,.45.06,1.05.1,1.55a2.57,2.57,0,0,0-.14,1.26c0,.23,0,.47,0,.7a1.75,1.75,0,0,1-.14.6c.12-.23.2.13.26.13s0,0-.06,0c0,.24.18.24.25.3-.08.23.31.56.29.68.08,0,.13.14.23.31-.28-.3-.24,0-.45-.12a.81.81,0,0,0,.19.29.79.79,0,0,0,.3.2,1.3,1.3,0,0,1,.54.42c0,.13.08.24.12.37.24-.13.63.31.68.21.06.13.15.27.06.36.26.1.54.43.72.34l-.2-.19c.68.52,1.31.39,1.82.81l-.17.36c.34.33.83.12,1.11.46-.08-.17-.12-.14.18-.17-.14-.09-.47-.09-.73-.19l.64,0c-.3-.06-.6-.14-.89-.22.42,0,.37,0,.29-.18.54.07.47.39,1,.41.16.11-.07.2.11.34.51,0,.8.53,1.19.4.09.06-.2,0-.2.06.3,0,.53.11.64,0l-.25-.1c.23.07.3-.09.71.1.27,0,.45-.2.18-.26.12,0,.34.16.23.26.68.13.4-.35,1-.05,0,0-.1,0-.08,0a1.15,1.15,0,0,0,.41.08c-.58-.07.13.34-.54.15,0,.23.51.14.71.25.36-.09.09-.3.27-.38,0,.07.13.09.29.14L40,59.64a1.64,1.64,0,0,0,.44,0l-.28,0a2.49,2.49,0,0,0,1.28.27c-.15.06-.44.16-.1.28.6-.05.12.08.46.23.59,0,.12-.28,1-.13.09,0,0-.09-.08-.14.58.1.91,0,1.48.12-.25,0-.45-.1-.11-.17-.14.12.34.13.6.18h0l.07,0,.06-.08c.18.08,0,.12-.16.16,0,0,0,0-.15,0-.28.06-.19.38.27.4s.4-.3.32-.38c.64.05.58-.38,1.19-.29a5.85,5.85,0,0,0,1.08.28c.21-.21-.56-.09-.32-.27.77.38,1.48-.43,2.47-.3l-.09.25A5.07,5.07,0,0,0,50.1,60l-.34-.07c.21-.09.74-.13.6.07a1.82,1.82,0,0,1,1.07-.23c-.48.08,0,0-.34.16a1.68,1.68,0,0,0,.91-.22c0,.09.18.16.32.13a8.49,8.49,0,0,1,1.3-.58l0,.06a8.79,8.79,0,0,0,2.3-.92l0,0-.06,0c-.34-.07.48-.42.64-.62.07,0,.14.09.26,0-.09-.17.21-.25.25-.38.26-.09.11.22.48,0,.11-.12.07-.22,0-.27a.93.93,0,0,0,.6-.25c0,.09-.16.14-.19.18s.14,0,.23.06c.17-.14-.06-.19.17-.34l-.06.3a.49.49,0,0,0,.18-.25c-.08.15.05.24.13.29.18-.29.12-.38,0-.42s-.28,0-.34-.11a2.23,2.23,0,0,0,.68-1.25l.14.15a.57.57,0,0,0,0-.42.24.24,0,0,0,0-.08.43.43,0,0,0,0-.11.21.21,0,0,1,0,.06c0-.06,0-.12.05-.18,0,.2,0,.28.19.34.07-.36.19-.86,0-1h0c.14-.44.17-1.55.26-1.51a9.51,9.51,0,0,0-.09-1.19c-.08,0-.17-.06-.17-.12l.07,0c0-.33.29-.81,0-1,.17-.39.07,0,.25.1.17-.39-.25-.79.11-.92-.11-.46-.08.11-.23-.05.32-.09.05-.85.24-1.27-.14-.2-.09.2-.22-.14.08,0,.1-.14.1-.23l-.21-.09.52-.43c-.25-.65-.36.13-.46-.73l0,.05c.21-.22-.16-.62,0-1.23,0,.21.1.08.16.15L59.62,45s0,0,.05,0c.15-.3-.09-.28,0-.62.05.25.2.17.28.07L59.76,44l.28.2A5.82,5.82,0,0,0,59.91,43.35Zm-25.73,2.1c0-.07-.08-.13,0-.17s-.08,0-.08.11A.52.52,0,0,1,34.18,45.45Zm27.07-3.06.06-.1a.13.13,0,0,1,0-.17.14.14,0,0,0-.08.1.27.27,0,0,0,0,.12S61.23,42.39,61.25,42.39Zm.13,0s0,0,0,0l-.11-.08S61.3,42.4,61.38,42.43Zm.35-.3s0,0,0,0,.09-.07,0-.19-.11.14-.16.21l0-.08c-.26-.09.09.4-.16.21l0,.09A.89.89,0,0,1,61.73,42.13Zm.17-.06h0c0-.07.09-.1.11-.16s-.14.08-.18.2Zm2-1.39v0S63.88,40.66,63.88,40.68Zm-1.3.91s0,0,0,0a.06.06,0,0,0,0,0ZM65.44,41l0,0,0,.08A.08.08,0,0,0,65.44,41Zm2.94-3.47a.51.51,0,0,0,0-.21.49.49,0,0,0-.14-.18A.64.64,0,0,0,68,37a1.69,1.69,0,0,0-.28-.12l-.66-.22a16.84,16.84,0,0,1-2.54-1s0,.08.14.15c-1.27-1-2.48-.4-3.65-1.29l.12,0c-.68-.23.11,0-.34-.34-.2.2-.94-.15-1.36-.21a1,1,0,0,1,.34,0c0-.08,0-.23-.24-.27a5.41,5.41,0,0,1-2.19-.39c0-.18-.56-.55-.77-.92l-.36.15,0,0H56.2l-.08,0h0a.82.82,0,0,0-.26-.14.74.74,0,0,0-.33,0l.56.2h0l.1,0c.15,0,.23.07.2,0,.22.25-.06.11-.12.29-.22-.09-.7-.21-.7-.36a2.27,2.27,0,0,1-.34-.19.6.6,0,0,1-.29-.08H55a.2.2,0,0,0,0-.08A3.74,3.74,0,0,0,53.42,32c.44-.08,0-.29.07-.45a10,10,0,0,0,.95.4l0-.06a.11.11,0,0,1,0-.08c-.42-.36-.88-.16-1.53-.56.05,0,.14,0,.14-.07a.63.63,0,0,0-.29-.1.67.67,0,0,0-.31.07c0-.2-.48-.5-.77-.53a.82.82,0,0,1-.35,0A.76.76,0,0,1,51,30.5l.23,0c-.41-.25-.47-.06-.75-.19.07,0,.09-.07,0-.12a1.62,1.62,0,0,0-1,0l.14-.15c-.48-.07-1.38-.17-1.3-.41,0,.41-1-.19-1.4-.34a.25.25,0,0,0,.12,0,.16.16,0,0,0,.09-.07,3.64,3.64,0,0,1-1.24-.38l-.59-.29L45,28.38l-.15-.06-.11,0a1.63,1.63,0,0,0,0-.31c-.16,0-.27.11-.34.26s-.09.3-.22.34l.05-.16-.46.2-.43.17-.87.28-.06-.18c-.2.17-.5.29-.7.47-.72-.23-2.07,1.06-3.25,1l.07.36c-.38.14-.84.4-1.12.21l.09,0c-.06-.27-.38.14-.64.18s-.28.32-.11.32c-1.07.22-2.5,1-3.24.92a18.5,18.5,0,0,1-2.72,1.46v-.05c-.39.08-1.16.28-1.27,0-.75.37-1.11,1-2.09,1.19l.16-.18a1.83,1.83,0,0,0-.68.38c-.08,0,0,0,0-.09-.27,0-.34.19-.51.29l0-.12c-.82.1-1.85.92-2.83,1.26.17-.1,0-.18-.06-.18-.27.46-1.38.81-1.75,1l.2-.21a1.15,1.15,0,0,1-.43.21h-.24a.41.41,0,0,0-.22,0,.16.16,0,0,0-.08.06.2.2,0,0,0,0,.11h.25c-.15,0-.09.1,0,.17a.49.49,0,0,0-.16,0c-.05,0-.13,0-.13.14-.11,0,0-.22-.18-.14a.94.94,0,0,0-.16.43c0-.09.1-.05.16,0s.15,0,.19-.06a.15.15,0,0,1,0,.12.2.2,0,0,1-.11.06c-.08,0-.18,0-.21,0h0s0,.1.16.22c.13-.16.2-.1.29,0s.12.07.12-.17l.27.16.36.2.68.41a6,6,0,0,0,1.38.66c.18.54,1.79.9,1.45,1.31a2.59,2.59,0,0,0,1.39.34.81.81,0,0,0-.36-.12,3,3,0,0,1,1.08.37,5.73,5.73,0,0,0-1.36-.2c.48.19,1,.37,1.46.52V42h0a.58.58,0,0,1,.36-.23c.27.12-.07.37.09.51l.22-.06v0h0l.06,0v0s0,0,.07,0h0a1.59,1.59,0,0,0,.27.12v-.08c.21-.12.28,0,.35.2l.09,0a1.43,1.43,0,0,1,.21.12l.17-.11,0,.2c.12-.08.2-.22.32-.1.38.53,1.08.32,1.52.73a.06.06,0,0,0,0-.06l0-.05c.27.65.9-.22,1.17.31l-.06.06c.22,0-.06.06.06.22.11-.22.33-.08.48-.12,0,0-.12,0-.12,0s0,.2,0,.18c.26-.29.54-.14.78-.16,0,.16.11.36.11.65l.2-.26c0,.13.13.07.22,0l-.18,0h-.11c0-.18,0-.12.11-.3.07,0,.24,0,.2.17a.2.2,0,0,1,.09.09.08.08,0,0,1,.08,0v.06c.11.13.4-.07.55-.15-.19.18-.06.27-.12.43a1.11,1.11,0,0,0-.29-.14.2.2,0,0,1,0,.11c.08.24.31,0,.48.15a.12.12,0,0,0,0,0,.16.16,0,0,0,0,.06c.07.07.18,0,.24-.13,0,.17.08.35.19.31s.13-.17.25-.11l-.1.09c.11.14.18,0,.26,0s-.05.08,0,.1c.18,0,.21-.06.41-.24l-.09.17c.17-.06.51-.18.42.06.1-.37.37-.08.49,0,0,0-.08.07-.1.11.34-.15.5.18.75.27l-.06.28c.14,0,.38-.48.51-.41l-.1.11a1.31,1.31,0,0,1,.56.23l-.07.18c.1-.06.19,0,.3-.08,0,.51.75,0,.88.63l.14-.34c.11.05.29,0,.25.31h0c-.11.25.11.05.17.13s.18-.15.15-.22c.25.29.78.29.86.66.34,0,.68-.16,1,0l0,0a.5.5,0,0,1,.19.24.51.51,0,0,1,0,.3c.26,0,.56-.3.81-.07l-.1.09c0,.08.23,0,.26,0s0,.06,0,.1.14,0,.2,0l-.06.09c.16.28.67,0,.95.19-.07,0-.07.13-.07.18.24-.27.55-.07.69-.09l-.12.09c.16-.06.19.05.21.15a.24.24,0,0,0,.05.13l0,0h0s0,0,.06,0,0-.15,0-.22a.15.15,0,0,0,.06,0h0a.88.88,0,0,0,0-.15,1,1,0,0,0,0,.29c0,.1-.06.05-.06.18s.05.13.07.19a.27.27,0,0,1,0-.12.67.67,0,0,1,0,.2,0,0,0,0,1,0,0s0,0,.08,0c-.07-.43.09-.07,0-.45a.23.23,0,0,0,.09,0,1.09,1.09,0,0,1,.25,0,.62.62,0,0,0,.23-.07.7.7,0,0,0,.19-.15c.27.32.57-.23.74.26A.48.48,0,0,0,47,48a.51.51,0,0,0,.06-.27s-.06.06-.09.09c0-.14.18-.24.26-.27a1.45,1.45,0,0,0-.19.54,2.56,2.56,0,0,0,.33-.48l.14.23c0-.24.19.15.21-.15l-.06-.06c.25-.08.15-.33.34-.45l0,.1c.09,0,.1-.27.27-.08l-.14.07c.09.17.23.2.31.26.14-.1-.06-.3,0-.35.11.15,0,.08.07.26a.87.87,0,0,0,.34-.54.16.16,0,0,1,0,.06c.18,0,.2-.4.36-.31l0,0c.24.16.25-.4.45,0,.1,0-.15,0,0,.2s0-.4.21-.36c0,0,0,0,0,.06a2.31,2.31,0,0,0,.36-.25l0,0h.07c.32.25.49-.31.86,0-.12-.11,0-.18,0-.24a.14.14,0,0,0,0,.06c.07,0,0-.14,0-.21s0,0-.06,0v0a0,0,0,0,1,.05,0h0c.12.09.15-.21.22-.15s0-.09.1-.11c-.09.15,0,.2,0,.36.21-.05,0-.48.29-.5l.18.12c-.09-.27.14-.25.1-.34s.14.08.18.21c.06-.1.23,0,.2-.18l-.11,0c.29,0,.29-.42.55-.34l.16.37c.17.09.13-.31.33-.13-.09-.11-.08-.07,0-.22s-.11.13-.19.16l.08-.29L53.1,45c0-.19.06-.16-.06-.28.11-.19.25.1.34-.12.08,0,.08.19.18.24.08-.19.39.15.39-.09,0,0-.05,0,0,.12.07-.08.14-.09.12-.21H54c.07,0,0-.17.18-.14,0-.12,0-.32-.08-.29s.13,0,.16.15c.19-.07-.08-.43.19-.34,0,0,0,0,0,0a0,0,0,0,0,0,0h.07a.12.12,0,0,0,0,0c-.16.11.18.28,0,.3.11.19.17,0,.27,0,0-.18-.1-.28-.1-.4,0,0,.06,0,.12,0l-.11-.12a.27.27,0,0,0,.12-.09l-.06.09c.09,0,.34.17.43,0,0,.08-.05.23.09.26.13-.16.07.05.21.12.16-.11-.08-.28.21-.29,0,0,0-.09-.08-.12.2,0,.24-.15.46-.11-.1,0-.17,0-.1-.15,0,.14.18.06.28.1v-.08c.07.06,0,.11,0,.16s0,0-.06,0,.09.37.23.34,0-.32,0-.38c.21,0,0-.42.25-.38,0,0,.3.22.44.19,0-.19-.2,0-.2-.23.4.33.33-.45.72-.32l0,.23a.52.52,0,0,0,.2-.09L57.68,43a.15.15,0,0,1,.06-.05h.08a.18.18,0,0,1,.07.05.19.19,0,0,1,0,.08c.08-.23.15-.16.31-.16-.15.05,0,0-.07.13.19,0,.17,0,.26-.13,0,.08.12.17.16.15s.23-.21.34-.34l0,.06c.2-.17.57,0,.73-.28h0c-.16-.17.13-.23.16-.34s.08.13.12.11c-.07-.19.05-.14.05-.24s.08.23.22.16,0-.14,0-.2l.12.08a.26.26,0,0,0,.15,0c0,.06-.08,0-.08,0s.07.05.12.17-.05-.18.06-.15v.18s.07-.06.07-.08,0,.2.08.29c.15-.19-.13-.41-.19-.57.23,0,.28-.22.41-.29l0,.18A.16.16,0,0,0,61,41.8a.41.41,0,0,0,0-.11l.1,0a.32.32,0,0,0,0,.14.83.83,0,0,0,0,.15c.09-.09.23-.12.19-.32.19,0,.51-.08.53,0,.08-.1.2-.13.26-.18s-.08-.24,0-.24l.06.11a.47.47,0,0,0,0,.12.12.12,0,0,0,0-.15c.06-.1.37.18.31-.13.07,0,.08.06.08.07l0,0a2.5,2.5,0,0,1,.34-.31s0-.06,0,0l0,0c.48-.24.51-.12.58,0l0,0v0c0,.05.07,0,.09,0h0c.05-.06.09-.2.23-.16l0,0c.12.08.1-.18.3-.14,0,0,0,.05,0,.09l.34-.3.06.09a.18.18,0,0,0,.18-.18c0,.09.17,0,.36-.09a2.43,2.43,0,0,1,.32-.18l.28-.13-.17-.07c.68-.69,1.47-.33,2-.84l.17-.22.08-.12,0-.1.19.12a.78.78,0,0,0,.07-.3.59.59,0,0,1,.07-.25v0a2.77,2.77,0,0,0,.1-.26A.93.93,0,0,0,68.38,37.49ZM34,44h0l0,.07h.08S34.08,44,34,44ZM55.84,32.66l.1,0h0l-.27-.08S55.68,32.63,55.84,32.66ZM60.3,43.21h0a.59.59,0,0,1-.11-.09h0l.12.08ZM50.44,30.27l-.09-.05Zm9.74,12.92h0ZM40.92,27.74l-.09,0,0,.05Zm-4.2,32.92h0Zm-.06,0ZM28.27,55l0,.07A.14.14,0,0,0,28.27,55ZM60.76,43.21l.08,0h0v0Zm.31-.28-.16.14C61,43,61.05,43,61.07,42.93Zm-.67,1.92.07,0,0,0Zm.12.07-.05,0c.1.11-.17.54,0,.71A2.24,2.24,0,0,0,60.52,44.92ZM59.43,48c-.23.79.16-.15.13.66l.06-.62C59.55,48.17,59.45,48.31,59.43,48Zm-.13,2.59c.07.19.09.24.15,0S59.34,50.61,59.3,50.61Zm-7.42,8.93v-.18C51.63,59.44,51.88,59.43,51.88,59.54ZM49.7,61l.09-.18-.36.1Zm-2-1.11.1,0-.41.1Zm-18-7.78-.22.08C29.59,52.35,29.83,52.38,29.77,52.09ZM27.89,41.76l.47.32a.43.43,0,0,0-.19-.23A.47.47,0,0,0,27.89,41.76ZM38.8,30.48l.33-.19-.17.05ZM56.22,43.84l0,0a0,0,0,0,0,0,0S56.19,43.82,56.22,43.84Zm3.23-1.35c0,.07.06,0,.12,0h0ZM61,41.71v-.09l0,.09Zm-29.59,3v-.18C31.37,44.66,31.21,44.66,31.39,44.72ZM51.08,47.5l.14,0a.29.29,0,0,0-.14-.08ZM43,48.88h0a0,0,0,0,0,0,0Zm18.31-7.26h0s0,0,0,0ZM35.63,44.87h0Zm-1.77-.69h0v0l0,0Zm4.21,3.11v0l0,0ZM54.5,45.85v0Zm2.25-1.36s.09,0,0-.12A.56.56,0,0,1,56.75,44.49Zm-4.91,2.77h0Zm4.86-2.72,0,0s-.09,0-.12,0Zm5.51-3.47c0,.09,0,.11,0,.14S62.22,41.11,62.21,41.07Zm-3.88,1.85-.06-.17C58.2,42.81,58.3,42.82,58.33,42.92Zm-.4,1.15.11.07L58,44ZM57,43.13l0,0-.1.11Zm-6.59,2.93.1.18C50.55,46.19,50.45,46,50.41,46.06Zm-3,1.44c.07,0,.17,0,.19,0S47.46,47.39,47.45,47.5Zm-8-1.52.09,0-.14,0Zm24-2.17,0,.07S63.42,43.84,63.43,43.81ZM65,54.51c-.14,0,.12-.2-.08-.23C65,54.32,64.82,54.51,65,54.51Zm-1.71-4.3s0,0,0,0Zm0,0s0,0,0,0Zm0-4h0s0,0,0,0Zm2.52-.64s0,0,0-.06h0Zm-2.33-1.78h0Zm-.29,1.88,0,0,0,.09Zm0,5.14h.13C63.29,50.74,63.15,50.73,63.18,50.8Zm.09,2.34s.06-.1,0-.13S63.21,53.1,63.27,53.14Zm2.6-3.48,0-.08v0Z" fill="#161614"/>
  <path class="mapIcon__innerRing" d="M44,8.31A35.71,35.71,0,1,1,18.77,18.77,35.7,35.7,0,0,1,44,8.31ZM44,6A38,38,0,1,0,58.55,8.87,38.12,38.12,0,0,0,44,6Z" fill="#161614"/>
  <path class="mapIcon__outerRing" d="M45.61,61.08l-.28.1C45.49,61.19,45.61,61.19,45.61,61.08Zm-.68.1a.68.68,0,0,0,.4,0A1.34,1.34,0,0,0,44.93,61.18ZM24.65,8,23.17,5.23A43.44,43.44,0,0,1,41.91.05l.15,3.12A40.35,40.35,0,0,0,24.65,8ZM5.79,29.43,2.88,28.32A44,44,0,0,1,21.42,6.22L23,8.9a41.24,41.24,0,0,0-12.75,12A40.72,40.72,0,0,0,5.79,29.43ZM2.92,59.79A43.72,43.72,0,0,1,0,44H3.12A40.89,40.89,0,0,0,5.84,58.67Zm6.15,11A43.89,43.89,0,0,1,3.6,61.43l2.86-1.24a41,41,0,0,0,5.1,8.67ZM44,88A44,44,0,0,1,10.75,72.82l2.36-2A40.86,40.86,0,0,0,44,84.88Zm3.48-.14-.25-3.11a41.87,41.87,0,0,0,5-.69l.62,3.06A46,46,0,0,1,47.48,87.86Zm12-2.64-1.1-2.92A41.82,41.82,0,0,0,63.47,80c.58-.31,1.17-.65,1.75-1a40.6,40.6,0,0,0,8.92-7.34l2.31,2.11a44.2,44.2,0,0,1-9.61,7.9c-.62.38-1.26.74-1.89,1.08A44.44,44.44,0,0,1,59.43,85.22ZM78.5,71.31l-2.44-1.94c.59-.75,1.16-1.53,1.69-2.32a40.7,40.7,0,0,0,7.13-23c0-.84,0-1.7-.08-2.53a40.64,40.64,0,0,0-3.54-14.3l2.85-1.29a43.69,43.69,0,0,1,3.8,15.4c.06.9.09,1.82.09,2.72a43.77,43.77,0,0,1-7.67,24.81C79.76,69.66,79.14,70.5,78.5,71.31ZM77.23,20.19A41.8,41.8,0,0,0,74,16.25,41,41,0,0,0,44,3.12V0A44,44,0,0,1,79.77,18.37Z" fill="#161614"/>
</svg>
