<svg class="mapIcon" xmlns="http://www.w3.org/2000/svg" viewBox="0 0 88 88">
  <path d="M80.39,49.91A36.86,36.86,0,1,0,38.1,80.39,36.85,36.85,0,0,0,80.39,49.91Z" style="fill: #9ab97b"/>
  <path d="M62.86,50.11s0,.07,0,.06S62.86,50.15,62.86,50.11Zm-5.24,8,.08,0s0,0,0,0,0,0,0,0a0,0,0,0,1,0,0h0v0Zm5.27.16.07.09-.07-.16Zm-1.81.47a.28.28,0,0,0,0,.09s.06-.13.08-.18a.29.29,0,0,1-.09.09Zm-3-2.49v0S58,56.27,58,56.27Zm4.9-14.49c0,.06,0,.07,0,.11a.09.09,0,0,0,0-.09Zm0-1.41,0-.08,0,0ZM60.66,52.86a.37.37,0,0,1-.12.07C60.66,52.91,60.67,53.15,60.66,52.86Zm0-11.45a0,0,0,0,0,0,0s0,0,0,0ZM63.22,48l0-.13c0,.14-.2.37-.1.63,0-.07-.13-.21-.19,0s0,.06-.12.22.19,0,.12.47c0,0,.07,0,.1,0,0,.24,0,.48-.06.71,0-.12.07-.21.12,0-.09-.06-.08.23-.14.34l.06,0c-.07.09-.09,0-.11-.07s0,0,0-.08-.25-.09-.27.13.2.19.25.15c-.06.31.25.29.17.59,0,.06-.22.29-.24.51s.09-.27.2-.15c-.32.36.19.73,0,1.2l-.15-.06a1,1,0,0,0,0,.34l.08-.16c0,.11,0,.37-.11.29.11.24,0,.29,0,.52,0-.24,0,0-.07-.18a.69.69,0,0,0,0,.45s-.13.06-.13.13a2.62,2.62,0,0,1,.12.68h0c.08.39-.14.81,0,1.19h0s.06,0,.07,0,0-.13,0-.13l0,.13c0,.08,0,.34.08.42s-.1,0-.1.11.07.15.13.21-.15,0-.15.21.08.09.13.09a.5.5,0,0,0-.14.31s0-.1,0-.13,0,.06-.14.06.13,0,.08.18l-.11-.13c0,.06,0,.13,0,.15s-.14-.05-.2-.05c.07.31.29.07.41.07a.9.9,0,0,0,0,.4,2.54,2.54,0,0,1,.07.47l-.13-.1a.68.68,0,0,0,.11.34v.25a.49.49,0,0,0-.06-.17.53.53,0,0,0-.13-.13c0,.14,0,.3,0,.45s-.1.05-.08.12v0l-.68-.08c-.22,0-.31,0-.31-.08-.26.06-.6,0-.6.13-.16.05-.41-.21-.52,0-.19-.11,0,0,0-.17-.18-.11-.37.17-.43-.07-.22.07.05,0,0,.16-.05-.23-.4,0-.61-.17-.09.09.1.06-.06.15,0-.05-.07-.07-.11-.07l0,.15-.21-.34c-.3.16,0,.24-.32.3-.11-.12-.29.11-.58,0,.1,0,0-.07.07-.11l-.16,0v0c-.15-.11-.13.06-.3,0,.12,0,.09-.13,0-.18l-.24.16.1-.19c-.23,0-.58.29-.7,0l.12,0,0-.07-.06,0h-.08l-.07,0s-.07.13,0,.13l-.12,0c.06-.13.35-.16.53-.2,0,0-.2.09-.15.17s.32-.12.47-.16a.59.59,0,0,0-.13.18c.18.07.13-.1.27-.1s.08.08.05.13a.66.66,0,0,1,.48,0s-.2.09-.09.16c.32-.07.4-.23.74-.31s.79.13,1.07,0c0-.06-.21-.1,0-.14,0,.12.12.08.12.12.2-.16.29,0,.43-.07,0,0,.09.08.16.12s.22.05-.07.26c.3-.22.53.07.75-.27l-.08,0,.3.06a.44.44,0,0,0,.15,0l.07,0,.09.08s-.16,0-.24.07a.2.2,0,0,0,.24,0c.07,0,.12-.1.18-.1s-.13,0,0,.16.19-.06.27-.09l0,.06c.17.05.21.06.14,0s-.15-.17-.05-.17-.06-.09-.1-.09.17-.13.24.1a.47.47,0,0,0-.12-.31c-.08,0,0,.08-.14,0l0-.14a1.24,1.24,0,0,1,0-.16s.06,0,.06.09c.3-.5-.25-1,.11-1.61-.09.06-.08,0-.15-.1a4.48,4.48,0,0,1,.07-.64l.06,0a3.69,3.69,0,0,1-.14-1s.09,0,.11.06c-.12-.22.24-.48,0-.54l0,.08a9,9,0,0,0-.17-1.36c.15-.11,0,.26.19.17.06-.31-.06-.62,0-1,0,.07,0,0,0,.07.1-.34-.15,0-.13-.25.08,0,.09,0,.13-.09l-.11-.09h.07l.07,0c-.16-.13,0-.5-.2-.6,0,0,.18,0,.24,0a.54.54,0,0,0,0-.18.77.77,0,0,0-.07-.16.12.12,0,0,1,0-.11.41.41,0,0,0,.05.09.65.65,0,0,0,.09-.29c0-.27-.08,0-.17-.25l-.07.22,0-.38.07.15c.06-.18-.07-.36-.07-.56l-.08.1,0-.24c.17,0,0-.29.24-.16.08-.42-.14-.71-.16-1.1,0,.06,0,.06.07.06a.62.62,0,0,0,0-.27.55.55,0,0,0-.12-.24c.05,0,.07.09.11.09,0-.27-.09-.17-.15-.47.08.09.11.06.13,0s-.11,0-.13-.11c.35.23.15-.34.42-.19-.07,0-.23-.47-.36-.34l0,.08c-.09,0-.06-.1-.06-.18s0,.08.06.08c-.12-.42,0-.86-.1-1.33,0,0,.1.23.13.11a3.79,3.79,0,0,0-.22-1.22c.22,0,0,.51.24.53a14.19,14.19,0,0,0-.24-1.57c.33-.21-.13-.55.12-.89-.1,0-.15-.15-.15-.33,0,0,0,0,0,0h0c.05,0,.06-.13.12-.08-.1-.17-.14-.64.07-.62-.18,0,0-.29-.12-.44a.33.33,0,0,1-.07.13l.05-.18h0c.08-.21,0-.44,0-.7-.11.1-.06-.25-.11-.34s0,.07,0,.07-.1-.3,0-.45.13,0,.13-.09-.2-.39-.09-.54c0,.06.05.07.08.11a4.72,4.72,0,0,1-.06-1.06v-.42s0-.06-.08,0l.15-.1a.17.17,0,0,0,.06-.11c-.1,0-.31.3-.29.28s0,0-.05,0l-.37,0-.72-.09a6.94,6.94,0,0,0-1.44,0c-.06,0,.05.06.05.12s-.1-.15-.21-.07l0,.09c-.42-.23-1.22.14-1.54-.2A1.32,1.32,0,0,1,57,37h-.37l0,0a.07.07,0,0,0,0,.06l0,0a.13.13,0,0,1,0-.06s0-.06,0-.06l-.05.06a.19.19,0,0,0,0,.07c0,.08,0,.1,0,.12l0,0,0,0h0v.06a1.17,1.17,0,0,0-.08.37s0,.08,0,.11a1.58,1.58,0,0,0,0,.38c-.06,0-.13.1-.11.19s.06,0,.11-.08c0,.09,0,.17,0,.24s0,0,.07.07h-.05l0,0,0,.1s-.07.05-.1.11v.06a.47.47,0,0,1,.16-.15s.07,0,.13,0l.42.08c.11-.1.27-.07.27-.2.36,0,.56-.06,1-.06v0c.14-.15.39.1.48,0,0,.06-.05.08-.05.13l.21,0c-.1,0-.16.22,0,.22s0-.08,0-.18l0,.16c.13,0,.17-.19,0-.24l1.7,0v.54h-.1a4.42,4.42,0,0,1,0,.63c0,.1,0,.22,0,.28a.29.29,0,0,1-.05.13s.08.06.12,0c.13.27-.16,0,0,.32,0-.07-.06-.17-.11-.17l.12.54c-.08,0-.24.34-.18.57.05,0,.11-.06.11-.12l0,.15-.18.11.15.21h-.14c0,.16.2.22.2.34a2.23,2.23,0,0,1-.27.72c.27,0,0,.54.18.62a6.47,6.47,0,0,0-.14,1.7l0-.05c-.13.25.2.29.15.56l0-.07a2.22,2.22,0,0,0,.1,1.3.07.07,0,1,0-.12.07c.06.1.2-.09.14.1,0,0-.08,0-.08,0l.13.19A4.74,4.74,0,0,0,60.65,49c0,.08-.1,0-.15,0,0,.39.15.79.17,1.14l-.16,0c0,.18.25.11.11.34,0,.05,0-.15-.09-.21-.11.35.14.2.14.54l-.18-.09c-.1.26.1.3.2.39.21.36-.34.26-.19.75.09.08.14,0,.22,0,0,.35.08.4,0,.74-.25.18,0-.18-.25,0l.06-.26c-.14.23,0-.21-.2-.18a1.91,1.91,0,0,0,.14.66c-.11,0,0-.26-.17-.16l0,.12s-.08,0-.08-.11,0,.14,0,.25a.51.51,0,0,0,.24,0l0,0c.18.23,0,.6.18.79,0,0,0,0-.07,0s.15.27.2.46-.27-.06-.22.23a.28.28,0,0,0,.13,0c0,.11-.07,0-.17.22a.15.15,0,0,1,.06.09v.13a.17.17,0,0,0,0,.12.23.23,0,0,0,.1.07c-.15.09-.09.08-.2.27.12,0,.12.56.27.68-.09,0-.14-.18-.19-.3s-.11-.19-.19-.11l.09.31c-.12.06-.27.12-.22.24a4.13,4.13,0,0,0-.61-.13s0,0,.06,0l0,0a2.5,2.5,0,0,1-.38.06l-.27,0a.39.39,0,0,0-.21,0,.34.34,0,0,0-.17.11c.05-.27-.61,0-.39-.27a.61.61,0,0,0-.34.17c0-.21-.29-.05-.42-.18-.07.12-.28.08-.41.15.06,0,.09-.07.06-.12s-.1,0-.23-.1c-.19.07,0,.16-.08.26s0-.13-.06-.22l-.25.21a.18.18,0,0,1-.07-.05.16.16,0,0,1,0-.07c-.09.05-.16.15-.29.05h.14l-.09-.1-.09,0a2.78,2.78,0,0,1,.13.72c0-.08,0-.06-.08-.08a.93.93,0,0,0,0,.37,1,1,0,0,0,.16.33c-.06,0-.09-.12-.15-.12,0,.38.13.23.2.64-.1-.11-.15-.07-.17,0s.14.08.16.15c-.31-.22-.28.11-.35.25s.1,0,.13,0,0,.11.14.11c.11-.18.14-.12.25-.27.06.13-.06.27-.17.34s0-.07,0-.09a.34.34,0,0,1-.22.07.4.4,0,0,1-.2-.09s-.06,0-.12,0c.1,0,.29.67.47.48l0-.11c.12,0,.08.14.08.25,0,0-.05-.12-.07-.12l0,.24v0c0,.08,0,.15,0,.06.07.51,0,1,.09,1.6,0,0-.13-.32-.17-.15a6,6,0,0,0,.28,1.7c-.28,0,0-.72-.31-.74,0,.35.08.7.12,1.06l.09.58a1.74,1.74,0,0,1-.17,1c-.3.08-.46.31-.78.5a1.22,1.22,0,0,1-.55.17h-.25a.75.75,0,0,1-.18-.08c0,.13-.2.19-.46.19.09-.11-.19-.12-.11-.2-.23.13-.89.18-.86-.09-.06.26-.49,0-.68.17-.3-.1-.62.06-1,0,.13.16-.36.08-.49.15,0,0,.12,0,.1-.06s-.42.12-.62,0,0-.17-.13-.17-.55.26-.75.11c.09,0,.09,0,.15-.1-1,.19-2,0-3,.19l.18-.19c-.61-.26-.4.32-.89.29a24.83,24.83,0,0,0-4-.25c-.1.06.07.07.07.15s-.15-.19-.3-.08l0,.1c-.59-.28-1.71.2-2.15-.25-.57.17-1-.12-1.66.13-.22-.09.26-.18,0-.21l-.64.17h0c-.61.31-1.6-.34-2.37-.14,0-.07-.15-.15-.27-.13s0,.08.12.14a8.11,8.11,0,0,1-1.39.16c.24-.11-.22-.1-.24-.25-.15.1.08.16-.24.24a7.52,7.52,0,0,1-1.25-.17c-.15.13-.36.1-.36.27-.27,0-.47,0-.68,0a2.62,2.62,0,0,1-.56,0,1.66,1.66,0,0,1-.71-.3v-.06c-.19,0-.36-.23-.45-.46a3.74,3.74,0,0,0-.17-.54c.07,0,.13.12.18.07a2,2,0,0,1-.12-.48c.07.25.27.3.29,0-.15-.25-.11.06-.22,0l.19-.08c0-.18-.24-.23-.3,0,0-.63-.09-1.25-.06-1.82l.13.07a1.79,1.79,0,0,1,.06-.92s-.1-.09-.14,0c-.18-.38.21,0,0-.45,0,.1.07.23.14.24l-.15-.75a.91.91,0,0,0,.21-.37.85.85,0,0,0,0-.42s-.13.08-.13.16l-.05-.2.22-.16-.19-.3h.18c0-.21-.26-.3-.26-.48a3.16,3.16,0,0,1,.34-1c-.35-.06,0-.75-.23-.87a9.64,9.64,0,0,0,.18-2.36l0,.07c.16-.35-.27-.4-.2-.78l.05.09a3.25,3.25,0,0,0-.13-1.8c.05.1.15,0,.15-.1s-.24.12-.18-.14c0,.06.12,0,.12,0l-.18-.25A7.14,7.14,0,0,0,29,48.22c.06-.13.12,0,.18,0,0-.55-.18-1.1-.21-1.6l.2,0c0-.25-.31-.15-.13-.47,0-.07,0,.21.1.3.17-.49-.2-.29-.17-.76l.23.12c.13-.36-.12-.41-.26-.54-.27-.5.44-.36.24-1-.11-.11-.17,0-.28-.07.06-.48-.1-.54,0-1,.34-.26,0,.25.32,0l-.08.37c.18-.31,0,.29.25.24a2.56,2.56,0,0,0-.18-.91c.15,0,0,.36.22.22l-.06-.16s.1,0,.1.14c.14-.06,0-.19,0-.34a.61.61,0,0,0-.3,0,.1.1,0,0,0,.05,0c-.23-.31-.05-.84-.23-1.1.05,0,.06,0,.1,0,0-.19-.19-.38-.25-.64.11-.13.33.08.27-.32-.13-.07-.34.11-.34-.23,0,0,.1.29.26.12-.1-.33,0-.11.18-.41-.18-.17.06-.33-.23-.37.19-.11.12-.08.26-.29-.15.1-.15-.38-.34-.38.22-.08.27.35.5.08-.15-.19-.2-.53-.44-.56a1.33,1.33,0,0,0,.17-.43s0,.08.05.1c-.16-.4,0-1-.28-1.21.34.08,0-.84.34-.54a1.11,1.11,0,0,0-.22-.48c.26,0,.07-.41.22-.59-.15-.09-.1-.39-.18-.57,0,.1.07.12.15.1-.11-.22,0-.17.12-.34-.1-.28-.22,0-.34-.12.06-.24.17,0,.28-.08L28.91,34a.18.18,0,0,1,.06-.09.15.15,0,0,1,.09-.06l-.06-.1.13-.12-.08-.17h0l-.2-.12.13,0,0,0c.09-.24.2-.33.32-.36l.39-.38a.74.74,0,0,1,0,.21l-.17.17.17,0h0l.05,0h-.05l.05.2c.09,0,.15-.15.15-.25l0,0a1.05,1.05,0,0,1,.29.55,2,2,0,0,1,.5,0c.54.25,0,.33.37.54a5.42,5.42,0,0,0,.57,0v.09c.07.08.14,0,.17,0s.43.13.65.16l-.06-.11a1,1,0,0,1,.77.06.89.89,0,0,0,.68.07l.31-.24.1.15a2.13,2.13,0,0,1,.27-.22,1.88,1.88,0,0,1,.5-.18,6.31,6.31,0,0,0,.72-.18l0,0a.09.09,0,0,1,0,.07V35.2l0,.43a8.56,8.56,0,0,1,0,1.6.22.22,0,0,0,.07-.13c-.41,1.09.43,1.7.1,2.67l-.06-.06c0,.5-.06-.07-.15.29.2.07.16.63.23.92,0,0,0-.14-.07-.23,0,.06-.16.08-.13.23a1.17,1.17,0,0,1,.25.67,2,2,0,0,1,.05.43l0,.2v.1a.64.64,0,0,1,0,.07c-.14,0-.21.35-.29.64a.87.87,0,0,0,.32,0c0,.16.15.21.28.21a1.61,1.61,0,0,1-.23-.22h0s0,0,0,0h0v0s-.06-.07-.06,0c0-.19.09,0,.22-.14a.83.83,0,0,0,.12.16h0l-.06,0,.11.08v0a.12.12,0,0,1,0,.1l.12.14a.26.26,0,0,1,.13.06h0a.06.06,0,0,0,0,.06.42.42,0,0,0,.18.08.5.5,0,0,0,.21,0,1.73,1.73,0,0,0,.37-.16c-.19.19,0,.22,0,.36a3.53,3.53,0,0,1-.55-.1.08.08,0,0,1,0,0,0,0,0,0,1,0,.05.4.4,0,0,0,.2.09.38.38,0,0,0,.21,0,1.79,1.79,0,0,1,.51-.07s-.07.06,0,.11a.24.24,0,0,0,.18-.07.26.26,0,0,0,.09-.17c.07.13.44.06.53-.1a1.25,1.25,0,0,0,0-.19.57.57,0,0,1,.12-.18v.15c.26-.19,0-.27.2-.43-.07.06,0,.12.06.06a.39.39,0,0,0,0-.3.76.76,0,0,0-.18-.22l.15,0c-.07-.29-.28-.92-.07-.92-.32.1-.16-.71-.16-1a.11.11,0,0,0,0,.08.14.14,0,0,0,.08.05,5.44,5.44,0,0,1,0-1.8l.23-.09c0-.32-.45-.41-.45-.75l.11.12a6.77,6.77,0,0,1,0-1.35H39c-.07-.18-.07-.4-.14-.57.19-.21.14-.61.09-1a8.35,8.35,0,0,1,0-1,2,2,0,0,1,.16-.86l-.29-.43v-.07a3.71,3.71,0,0,1,1.4.58l-.11,0c0,.11.12.16.26.16a1.5,1.5,0,0,1,.42,0c.12,0,.26-.14.16-.19a3.06,3.06,0,0,0,1.12.12,3.21,3.21,0,0,1,1,0,14.87,14.87,0,0,0,1.7-1v0c.23-.08.68-.3.82-.11a.2.2,0,0,0,.09-.09s0,0,.1-.11l.26-.34c.17-.23.36-.49.58-.75a6.13,6.13,0,0,1,.79.82l-.23-.11a1.09,1.09,0,0,0,.37.34l.2.07s0,0-.05.07.23.11.34.15l-.08,0a1.36,1.36,0,0,0,.79.44c.33.1.68.15,1,.25-.11,0-.08.1,0,.15a1.11,1.11,0,0,1,.65-.08,3.21,3.21,0,0,0,.62,0l-.17.09c.51-.14.45.31,1,.11l-.31-.14c.23,0,.4,0,.34-.15.25.07,0,.21.42.18,0,.08-.26.09-.12.17a3,3,0,0,0,.52.1c-.32-.08.24-.25,0-.33.3,0,0,.27,0,.34h0s.08,0,.26,0c-.13-.31.41-.15.07-.38a3.68,3.68,0,0,0,1.77-.82.5.5,0,0,0,.34-.07c.12-.08.23-.17.34-.26s.37-.35.52-.19a1.14,1.14,0,0,0,.24-.41,1.06,1.06,0,0,0,0-.47.25.25,0,0,0,0,.07.52.52,0,0,1,0-.18c.06-.12.1-.27.14-.34a8.5,8.5,0,0,0-.07.87,2.41,2.41,0,0,0,.16-.54,3.36,3.36,0,0,0,.05-.45h.23a.22.22,0,0,1,0-.14.24.24,0,0,1,.08-.11c.06-.05.11-.1,0-.27l-.08,0a.81.81,0,0,0,0-.51,1.91,1.91,0,0,1-.12-.47h.09c0-.16-.19-.37,0-.54,0,.1,0,.2,0,.3s.18-.3.23-.42c-.1-.33-.25-.07-.32-.22.12-.1.07,0,.24,0a1.78,1.78,0,0,0-.68-.94s0,0,0,0a1.14,1.14,0,0,0-.15-.23l-.2-.16a.65.65,0,0,1-.27-.31l.06,0a.57.57,0,0,0-.12-.23.48.48,0,0,0-.22-.15c-.15-.11-.24-.19-.15-.34-.07-.15.24.23.18-.06a.36.36,0,0,0-.15-.15.38.38,0,0,0-.21,0,.31.31,0,0,1-.19,0,.23.23,0,0,1-.15-.11s0,0,.07,0a3.45,3.45,0,0,0-.43-.23,4.15,4.15,0,0,0-.48-.18,1.13,1.13,0,0,0-.73-.39c-.15-.05-.31-.07-.45-.12a1.3,1.3,0,0,1-.38-.22c.13.14-.14.12-.14.18v-.06c-.17,0-.2.08-.27.12s-.46.09-.54,0-.13.06-.28.06c.29-.09.09-.17.23-.29-.46,0-.5.34-.95.34L50,24.58c0,.21-.43.23-.4.31s-.23-.05-.23-.16c-.16.1-.46.1-.48.25h.19a1,1,0,0,0-.3.11,3.73,3.73,0,0,0-.39.25c-.27.2-.55.42-.82.58a2.09,2.09,0,0,1-.17-.41l.18-.36a.88.88,0,0,0-.28-.47.62.62,0,0,1-.22-.41c0,.13,0,.12-.2,0a1.22,1.22,0,0,0,.15.17,2.26,2.26,0,0,1,.23.31L47,24.62l-.11-.1-.09-.05a2.13,2.13,0,0,1,.25.34,3.47,3.47,0,0,1,.26.37c-.28-.26-.25-.27-.25,0a1.43,1.43,0,0,1-.3-.57.51.51,0,0,0-.07-.17.49.49,0,0,0-.13-.12c0-.13.13-.1.09-.25-.28-.17-.23-.61-.51-.66,0-.07.1.08.14,0-.17-.12-.28-.23-.38-.19l.1.14c-.11-.11-.2,0-.38-.27-.18,0-.35,0-.21.14-.07,0-.14-.19,0-.24-.37-.25-.36.16-.64-.18,0,0,.06,0,.06,0a.48.48,0,0,0-.23-.13c.34.17,0-.28.39,0,0-.19-.28-.23-.38-.34-.27,0-.14.21-.27.23s-.05-.09-.14-.14a.75.75,0,0,1,0,.16.7.7,0,0,0-.27-.08h.18l-.29-.24a.67.67,0,0,0-.45-.14c.1,0,.31-.07.1-.21-.4,0-.07-.07-.26-.22-.41-.07-.13.2-.68,0-.06,0,0,.07,0,.12a2.67,2.67,0,0,0-.48-.08,1.32,1.32,0,0,1-.48-.06c.16,0,.28.09.07.15.09-.12-.31-.1-.46-.16l0,.07c-.12-.07,0-.1.09-.13s0,0,.11,0,.12-.32-.2-.32-.25.26-.19.31c-.43,0-.35.34-.75.31a2.06,2.06,0,0,0-.74-.09c-.05.08,0,.08.14.08s.18,0,.12.09a.44.44,0,0,0-.39,0,.9.9,0,0,0-.34.2,1.7,1.7,0,0,1-.77.41l0-.2a2.42,2.42,0,0,0-.4.25,1,1,0,0,1,.24,0c-.1.11-.39.29-.39.11-.19.32-.28.3-.56.47.27-.22,0,0,.15-.22-.33.17-.3.24-.45.44,0-.07-.18,0-.25,0a1.71,1.71,0,0,1-.21.4,2.76,2.76,0,0,0-.25.44l-.05,0a5.15,5.15,0,0,1-.37.58,4.73,4.73,0,0,0-.39.74,1.37,1.37,0,0,0-.34-.07h0l0,0c.14.14,0,.13-.2.08l-.34-.07a.54.54,0,0,0-.18,0c0-.05,0-.15-.12-.15,0,.16-.22.05-.31.12s0-.2-.27-.22c-.13,0-.13.09-.13.15a.68.68,0,0,0-.43-.17c.06-.05.15,0,.19,0s-.09-.06-.09-.17-.06.15-.25.11l.17-.14c-.07,0-.17,0-.21,0s.09-.16.07-.24c-.45.11-.06.35-.09.49a1,1,0,0,0-.55,0c-.17.05-.31.12-.46.16l0-.16a.27.27,0,0,0-.14.07.35.35,0,0,0-.1.11l-.23.07c.12-.09.15-.15.12-.27-.23.11-.57.19-.57.41v0c-.34,0-1,.37-1,.31l-.23.17-.21.17c-.14.1-.2.2-.14.28s-.22.13-.34.2-.21.16-.16.3c-.27.11,0,0-.11-.18a.37.37,0,0,0-.15.13.36.36,0,0,0-.07.18c0,.1-.08.18-.23.14-.07.32.09,0,.15.13-.13-.05-.21.08-.3.22a1.48,1.48,0,0,1-.26.46c.05.15.11-.1.14.15-.06-.05-.1.06-.13.12l.15.1a4.68,4.68,0,0,0-.48.18c.06.24.13.23.19.24s.1,0,.1.28c-.17.14.09.4,0,.8,0-.14-.08,0-.14-.09a2.14,2.14,0,0,0,.1.22s0,0,0,0c-.09.22.09.16,0,.42-.07-.17-.18-.09-.22,0a3.83,3.83,0,0,0,.28.29L27.58,31a1.27,1.27,0,0,0,.34.51c.12.16.21.3.12.46l-.11-.14s-.14.22.09.36c.06.06.2,0,.14-.06a.64.64,0,0,1,.06.18c-.18,0-.46-.35-.62-.61.09.07.24.24.29.13a5.39,5.39,0,0,1-.47-.6.66.66,0,0,0,.27.12c0-.27-.17-.14-.24-.34s.06-.15.12-.12a.93.93,0,0,1-.12-.71s.14.28.2.11a4.49,4.49,0,0,1-.34-1.12,1,1,0,0,1,0-.48,3.25,3.25,0,0,1,.18-.43,2.12,2.12,0,0,0,.34-.67c0-.05-.27.24-.16-.05.09.12.16-.09.21-.09,0-.38.31-.36.34-.62,0,.07.17,0,.28-.1.1.14.26-.2.15.29a.8.8,0,0,1,.14-.31,1.26,1.26,0,0,1,.2-.2.79.79,0,0,0,.19-.22.74.74,0,0,0,.08-.28l-.12,0,.42-.21h0a.71.71,0,0,1,.51-.12,2.5,2.5,0,0,0-.29.27c.26,0,.36-.36.6-.49,0,.12-.23.17-.09.26a3.25,3.25,0,0,0,.42-.31v.07c.48,0,.06-.38.46-.27,0,0,0-.09,0-.12.15,0,.46,0,.21.22a.89.89,0,0,0,.38-.23c-.16-.07-.18,0-.27-.13.22-.06.43-.15.65-.2s0,.09-.14.09a1.36,1.36,0,0,0,.6,0,3.76,3.76,0,0,0,.6-.1,1.58,1.58,0,0,1,.65,0,1.65,1.65,0,0,1,.6.24c-.08-.14.08-.08.18-.14l.27.09.24.11,0,0,0,.13a2.73,2.73,0,0,0,.08-.34l0-.13a.89.89,0,0,1,.07-.19,1.94,1.94,0,0,1,.36-.62s.08.06,0,.14a.65.65,0,0,1,.34-.37c.14-.07.24-.14.16-.27l-.09.08a12,12,0,0,1,1.43-1.52c.23.07-.33.25-.09.34a7.08,7.08,0,0,1,1.28-.75c-.08.05-.05.07-.08.09.51-.09-.12-.14.29-.28,0,.1,0,.1.19.1l.07-.18a.16.16,0,0,1,0,.09.14.14,0,0,1,0,.09c.12-.24.71-.27.82-.46,0,0,0,.21,0,.26a.87.87,0,0,0,.51-.17h0c0-.07.07-.08.19-.08l-.17.08c.18.08.51,0,.44.06.4.05,0-.1.36-.21l-.34-.07a5.67,5.67,0,0,1,.58-.05l-.23.08a.94.94,0,0,0,.41,0,1.71,1.71,0,0,1,.45,0l-.14-.12.37,0c0,.2.45.12.22.32.62.2,1.09.07,1.67.28-.11,0-.08,0-.11,0a1.62,1.62,0,0,0,.78.17c-.07,0-.15,0-.18.06.38.2.28,0,.72.2-.16,0-.14.06,0,.15,0-.08.14-.06.23,0-.51.15.33.43,0,.57.07-.06.73.25.68,0l-.12-.06c.06-.1.17.05.27.13-.06,0-.13-.06-.15,0a3,3,0,0,1,.78.68c.11.14.23.27.33.42l.3.34-.11,0c-.05,0-.09,0-.05.05a1.2,1.2,0,0,0,.15.24.12.12,0,0,0,.05.05l.07,0a1.09,1.09,0,0,0,.13-.17l0-.08.06-.07c.07.11,0,.17-.08.2a.35.35,0,0,0-.16.25,2.37,2.37,0,0,1,.65-.43,9,9,0,0,1,1.24-.52c.19.15.39.08.63,0a1,1,0,0,1,.8,0c-.06-.13.22-.15.53-.15-.11.09.2.12.1.19a1.62,1.62,0,0,1,.62,0c.21.05.38.14.33.26.12-.22.48.1.74.07a.69.69,0,0,1-.18-.16l.25.15h0c.27.2.67.22,1,.49,0-.1.08-.07.2,0a3.13,3.13,0,0,0,.36.19s-.12,0-.12,0,.14.12.27.18a.74.74,0,0,1,.34.22c0,.11-.13.09,0,.21.06-.08.65.27.69.56-.07-.07-.11-.05-.19-.07a3.58,3.58,0,0,1,1,1.41,9.64,9.64,0,0,1,.56,1.75l-.2-.19c-.18.75.34.47.28,1.09a5,5,0,0,1-1,2.25,9.6,9.6,0,0,1-1.67,1.64c-.06.11.09,0,.15.07-.13.06-.24,0-.34.13l.09.06a1.31,1.31,0,0,0-.28.09l-.31.14-.63.32a1.46,1.46,0,0,1-1.18.17,2.14,2.14,0,0,1-.87.17,3.44,3.44,0,0,0-1,.11c-.24-.1.31-.16,0-.2a4.53,4.53,0,0,1-.74.08h0a1.91,1.91,0,0,1-1.27-.34,6.74,6.74,0,0,0-1.27-.68h0s-.07-.21-.19-.27,0,.09,0,.18a4.32,4.32,0,0,1-.76-.42l-.07,0,0,0-.07,0c0-.05,0-.1,0-.22a.36.36,0,0,1,0-.09.48.48,0,0,0,0,.17.3.3,0,0,1,0,.16l-.08.05h0l-.08,0-.15.09-.62.29c-.08.2-.3.28-.24.42a6.3,6.3,0,0,1-1.52.68l0-.05c-.14.25-.64.06-.75.18,0-.06.08-.11,0-.16l-.31.12c.15-.08.2-.26-.06-.26-.26.17.09.08,0,.21l-.11-.17c-.2,0-.24.25,0,.28a9.83,9.83,0,0,1-1.08.09l-.53,0-.25,0-.13,0-.08,0v-.06l0,0c-.08,0-.09,0-.14,0a.7.7,0,0,1-.17-.13,1.63,1.63,0,0,0,.11.17l0,0c.08.11-.21-.25,0,0,0-.06-.07-.12-.14-.21a1.09,1.09,0,0,0,.14.31.09.09,0,0,0-.07,0l0,0,0,0,0,0a1.11,1.11,0,0,0,0,.54c.05,0,.13-.09.13-.17l0,.21-.2.17.17.3h0v.06l0,0H40c0,.23.24.32.24.5a3.49,3.49,0,0,1-.34,1c.32.05,0,.78.22.9A10.61,10.61,0,0,0,40,40.92l0-.07c-.16.37.24.42.18.82l-.05-.1A1.62,1.62,0,0,0,40,42v.59a3,3,0,0,1-.36,1.2c.05-.14-.12-.16-.2,0s.29,0,0,.26c0-.09-.06-.09-.12,0a2.23,2.23,0,0,1-.2.33,3,3,0,0,1-1.43.34,4.1,4.1,0,0,1-1.42-.26c-.13-.13,0-.12.07-.15a3,3,0,0,1-.9-.59,1.93,1.93,0,0,1-.56-1l.17-.11a.46.46,0,0,0-.15-.27c0-.08-.08-.13,0-.3s0,.06,0,.09a.3.3,0,0,1,0,.13.61.61,0,0,0,.05.12l0-.19v-.11A.24.24,0,0,0,35,42a.42.42,0,0,1-.11-.18.38.38,0,0,1,0-.21l.21.13c.12-.38-.12-.43-.24-.57-.25-.52.41-.37.22-1.09-.1-.11-.15,0-.26-.07.06-.51-.09-.57,0-1.08.32-.27,0,.26.3,0l-.07.38c.16-.33,0,.3.23.25a3.45,3.45,0,0,0-.17-.95c.14,0,0,.38.21.23l-.06-.17c0,.05.09.05.09.15.13-.06,0-.19,0-.35a.45.45,0,0,0-.28,0,.1.1,0,0,0,.05,0c-.21-.33,0-.88-.21-1.16,0,0,.06,0,.09,0,0-.21-.18-.41-.23-.68s.31.09.25-.34c-.11-.07-.31.1-.31-.24,0,0,.09.31.2.19-.09-.35,0-.12.17-.43-.17-.18.06-.35-.21-.39l.14-.1a.28.28,0,0,0,.1-.09c-.12,0-.15,0-.23,0a.6.6,0,0,1,.11-.06.23.23,0,0,0,.14,0,.22.22,0,0,0,.09-.1c-.13,0-.18-.13-.39.15l.05-.1s0-.09,0-.08l.07-.07a.63.63,0,0,1-.24.16l0,0-.15.06a.56.56,0,0,0-.24.17c0-.16-.2-.13-.43-.12s-.39,0-.22-.14a1.66,1.66,0,0,0-.55.21c0-.25-.47-.08-.66-.25-.13.13-.46,0-.68.06.1,0,.13,0,.13-.11-.25,0-.18,0-.34-.19-.32,0,0,.19-.2.25-.23-.12,0-.15,0-.26l-.46.1-.08-.08a.36.36,0,0,1,0-.11c-.15,0-.32.07-.45-.13l.34.14-.07-.17c-.15,0-.3,0-.45,0l0-.05.05.19h-.09c-.07.08,0,.13.06.16-.14,0,0,.45-.07.68l.12-.09c.29.63-.3,1-.15,1.47l.21.34-.18.08c.11.2.24.23.18.57-.32,1.16.07,2.41-.13,3.59,0,0,.05,0,.08-.12-.45,1,.45,1.63.11,2.56l-.07-.07c0,.48-.06-.05-.16.29.21.06.17.6.25.88-.05,0,0-.14-.07-.22s-.19.07-.15.21c.32.3.29,1,.38,1.44-.14.05-.27.46-.5.68l.27.22s0,0,0,0l0,0v.1l0,0a.36.36,0,0,0,0,.17.41.41,0,0,0,.1.21v-.46c0-.1,0-.16,0-.14.14-.19.12,0,.29,0,0,.16.05.49-.08.52a1.09,1.09,0,0,1-.05.26.25.25,0,0,1,0,.17s0,0,0,0a1.72,1.72,0,0,0,.29,1c-.21-.25-.24.07-.39.07a5.15,5.15,0,0,0,0-.68.08.08,0,0,1,0,0l-.06,0c-.16.34.15.58,0,1.07,0,0-.05-.09-.1-.07a.34.34,0,0,0,0,.22.43.43,0,0,0,.14.16c-.14,0-.25.41-.19.6s.17.14.17.43l-.1-.12c-.09.34.15.28.06.57,0-.12-.06-.13-.09,0a1,1,0,0,0,.34.63l-.16,0c.1.31.3.9.07.9.35-.1.18.67.18.94a.12.12,0,0,0,0-.08l-.08,0a4.42,4.42,0,0,1,0,1.7l-.26.09c0,.31.5.38.5.72L30.47,56a6.08,6.08,0,0,1,0,1.28h-.17c.08.17.07.38.16.55-.41.38.21,1.52-.25,2.22l.32,0c0,.27.06.61-.18.74v-.06c-.24,0,0,.27-.06.43s.18.26.23.15a8.11,8.11,0,0,0-.09,1.21v.44a.08.08,0,0,1,0,.05l-.1.21a.26.26,0,0,0,.19.06.27.27,0,0,0,.19-.08h.06l.12,0,.25,0,.54,0v0c.26,0,.78.13.78.39.56-.06.9-.42,1.57-.3l-.14.1a.88.88,0,0,0,.5-.11c.06,0,0,.06,0,.1.16.09.26-.05.38-.08l0,.09c.53.18,1.36-.17,2-.13-.12,0,0,.13,0,.17.28-.29,1-.23,1.33-.29l-.18.11c.54-.19.47.31,1,.12l-.32-.17c.23,0,.42,0,.36-.14.27.1,0,.22.43.25,0,.08-.28.06-.15.16l.37.15c0-.08.33-.14.15-.25.25.08.05.22,0,.31h0s.08,0,.26,0c0-.37.46,0,.18-.37a10.55,10.55,0,0,0,2.09,0c.27.35,1.31,0,1.24.47a1.34,1.34,0,0,0,.91-.27c-.07,0-.17,0-.24,0,.09-.11.54-.13.73-.13a3.47,3.47,0,0,0-.84.37,8.48,8.48,0,0,0,1-.27l.09.23c.29-.17.24.19.53,0l-.06-.07c.53,0,.53-.22,1-.25l0,.1c.17,0,.42-.19.58,0h-.32c0,.17.28.24.39.32.34,0,.12-.27.29-.29.07.16,0,.08-.1.24a3.09,3.09,0,0,0,1.15-.32s0,.06,0,.06c.39,0,.74-.26,1-.12l-.08,0c.32.22.82-.21.88.17.15.07-.33,0-.09.18.46.12.3-.33.71-.22,0,0,0,0,0,0,.29,0,.68,0,1-.09.4.32,1.23-.08,1.69.29-.15-.13.12-.15.12-.21a0,0,0,0,0,0,.06.2.2,0,0,0,.2-.1h0l0,0s0,0,0,0l0,0c.14.11.47-.13.56,0s0-.06.09-.06h.14l0,0,0,0a.11.11,0,0,0,0,.08.19.19,0,0,1,0,.08.22.22,0,0,1-.05.08c.46,0,.31-.34.48-.4a.37.37,0,0,0,.21,0,.16.16,0,0,1-.08-.08.19.19,0,0,1,0-.1s0-.09,0-.09.06-.06.1-.1a.09.09,0,0,1,.06,0h.07c-.06-.2.07-.47-.08-.54l-.06.18c.09-.56-.25-.91-.09-1.36h.34c.14-.3-.19-.55,0-.81-.12.09-.08.11-.2-.08,0,.11.06.33.06.51l-.2-.4.1.63c-.14-.27-.11-.25-.25-.14-.11-.38.17-.41,0-.77,0-.15.17,0,.24-.15-.12-.32.25-.61.07-.84,0-.07,0,.13.09.11,0-.2,0-.35-.12-.41l0,.18c0-.16-.14-.18-.05-.48-.09-.18-.26-.27-.26-.08,0-.08.07-.25.18-.19,0-.47-.38-.23-.21-.68,0,0,0,0,.05,0a.66.66,0,0,0,0-.28c0,.39.28-.13.22.34.19-.05,0-.36.11-.5-.13-.23-.27,0-.37-.15.07,0,.07-.09.09-.2L55,57a1.45,1.45,0,0,0,0-.3l.05.19c0-.2.25-.52.12-.88.06.09.17.28.24,0-.09-.4.06-.09.17-.31,0-.4-.25-.07-.16-.65,0-.07-.09,0-.13,0,.08-.39,0-.61.08-1,0,.16-.09.3-.16.07.12.09.11-.32.18-.47l-.07,0c.08-.12.11,0,.13.11s0,0,0,.09a.07.07,0,0,1,0,.06h0c.08.12.29,0,.32-.22s-.28-.27-.34-.21c.07-.43-.33-.41-.22-.82,0-.09.28-.4.31-.7-.16-.14-.12.37-.26.2.41-.5-.24-1,0-1.67l.2.08a1.85,1.85,0,0,0,0-.47l-.1.22c0-.15,0-.5.14-.39-.15-.34,0-.41,0-.73,0,.33,0,0,.07.25a.86.86,0,0,0,0-.63c.07,0,.18-.08.18-.18a4.32,4.32,0,0,1-.17-.94h.06c-.07-.54.2-1.12,0-1.66h0c-.19.19-.13-.42-.21-.58s.13-.06.13-.15c-.17,0-.09-.21-.17-.29s.2,0,.2-.29a.11.11,0,0,0,0-.06.1.1,0,0,0,0,0,.08.08,0,0,0-.06,0h-.06a.7.7,0,0,0,.18-.44c.05.06,0,.15,0,.19s.06-.09.18-.09-.16-.06-.1-.25l.14.18c0-.08,0-.17,0-.21s.18.1.26.08c-.1-.44-.37-.08-.52-.1.1-.42-.09-.74-.09-1.06l.17.06a.47.47,0,0,0-.14-.29v-.24c.07.14.12.2.25.2,0-.26,0-.61-.23-.68h0c.08-.34.12-1,.2-1-.08-.37,0-.84-.16-.84a.74.74,0,0,1,.08-.39l-.21,0a.2.2,0,0,1,0,.05c0,.17-.07.13-.13,0s0,0,0,0l-.11,0a2.58,2.58,0,0,1,0-.68l.08.14a1.65,1.65,0,0,0-.08-.59c0-.08,0,0,.07,0,.07-.21,0-.24-.06-.33l.07,0a1.31,1.31,0,0,0,0-.68c0-.13-.05-.26-.07-.39v-.6c0,.17.1.1.13.06a2.69,2.69,0,0,1-.18-1l.56,0a.3.3,0,0,1,0-.13c0,.16.18.11.24,0l-.21-.34.25.14c0-.33-.37-.81,0-1l0,.15a.21.21,0,0,0,.1,0l.06-.09a.21.21,0,0,0,0-.11.19.19,0,0,0-.05-.09c0-.08-.17-.12-.17,0l.06-.16c.16.06.21.48.25.74-.06-.08-.12-.28-.22-.22,0,.23.16.45.22.67a.88.88,0,0,0-.24-.19c-.08.25.13.19.13.37s-.11.12-.16.07a1,1,0,0,1,0,.24.87.87,0,0,1,.42.07l.18.07a.42.42,0,0,0,.22,0l-.22-.13c.16,0,.3,0,.26-.11.18.08,0,.18.3.2,0,.06-.2,0-.11.13l.37.15c0-.06.23-.1.1-.18.15.05.07.13,0,.2h.1c0-.3.33,0,.13-.3a7,7,0,0,0,1.5,0c.19.28.94,0,.89.36a.9.9,0,0,0,.65-.21s-.12,0-.17,0,.39-.11.53-.11a2.38,2.38,0,0,0-.6.29,4.89,4.89,0,0,0,.72-.21l.06.18c.21-.13.16.15.38,0l0,0h0a.58.58,0,0,0-.19,0,.19.19,0,0,1,.15,0s.06,0,.09.05c.42,0,.54-.17,1.09-.19l-.09.07h.07c0,.15.12.33,0,.57v-.34a2.08,2.08,0,0,0-.25.52c0,.27.21,0,.22.19s-.06,0-.18-.05l0,.25c0,.08,0,.16,0,.23a1.13,1.13,0,0,0,.17.39h0c0,.28.2.53.1.7v-.06c-.18.23.16.59-.14.64-.06.1,0-.25-.14-.08-.09.34.25.22.17.52,0,0,0,0,0,0a6.33,6.33,0,0,0,.06.73c-.24.29.06.88-.22,1.22.1-.1.16.08.16.08h0c0,.13.08.14.12.19s.1.33,0,.39,0,.1,0,.21c-.08-.22-.14-.07-.24-.17,0,.33.28.37.23.71l-.12.19c.18,0,.11.34.18.34s-.1.13-.19.13,0,.33.06.39l.05-.14c-.07.42.2.67.07,1h-.27c-.11.21.15.4,0,.58.1-.07.07-.08.16.06,0-.08,0-.23,0-.37l.16.29-.08-.45c.11.19.08.18.19.1.09.27-.13.29,0,.55,0,.11-.14,0-.2.11.1.23-.19.44,0,.6,0,.06,0-.08-.07-.08s0,.26.1.3l0-.13c0,.11.1.13,0,.34s.2.19.2.06c0,0-.06.17-.14.13,0,.33.29.16.16.48a0,0,0,0,0,0,0,.67.67,0,0,0,0,.2c0-.28-.22.09-.17-.25-.14,0,0,.26-.08.36.1.17.21,0,.28.11s0,.06-.07.14l.11-.08A.78.78,0,0,0,63.22,48Zm-7.86,5.93h0Zm-25-6.42h-.06c0,.06,0,.12,0,.18S30.37,47.61,30.35,47.5Zm6.46-3.11a1.51,1.51,0,0,0,.33.07c-.11-.05-.29-.12-.23-.15S36.81,44.33,36.81,44.39Zm-7.51,4.3c0-.07-.06-.09-.11-.07v.27C29.24,48.8,29.27,48.64,29.3,48.69Zm1-14.93s0-.06,0-.09a.14.14,0,0,1,0,.07ZM60.37,48.62a.06.06,0,0,0,.09.05v-.21h0C60.42,48.53,60.4,48.65,60.37,48.62Zm-4.3-8.94a0,0,0,0,1,0,0H56c.08.32-.09.58.26.84l0-.11-.09.42v0a.62.62,0,0,1-.17.46c0-.11,0-.26-.09-.36-.16.22.15.46.15.7-.14,0-.05-.25-.21-.18a1.66,1.66,0,0,0,.11.49l-.07,0c-.17.44.36.17.11.49,0,0,.09,0,.13,0s-.2.4-.29.12a.53.53,0,0,0,.14.4c.11-.12.05-.16.19-.21l.08.62c0,.06-.08,0-.08-.14-.38.71.33,1.45-.13,2.25.11-.09.1.06.18.14a6.84,6.84,0,0,1-.08.9l-.08-.08a6,6,0,0,1,.18,1.46s-.12,0-.14-.08c.16.31-.32.67,0,.75l0-.11a13.87,13.87,0,0,0,.22,1.89c-.19.14,0-.36-.24-.23-.08.43.08.86,0,1.33,0-.07-.06-.06-.06-.09-.12.46.19-.06.16.33-.09,0-.12,0-.16.13l.15.12h-.1a.19.19,0,0,1-.09,0c.2.17.06.69.25.83-.05,0-.22,0-.3,0A.76.76,0,0,0,56,53a.67.67,0,0,0,.1.23c-.14.15-.12.51-.14.43-.06.37.11.06.22.34l.09-.3,0,.53L56.19,54c-.08.24.08.49.08.77l.11-.12.07.33c-.09,0-.11.08-.13.14.24.06,0,.24.27.29l.39-.12v.07a.08.08,0,0,0,.12,0c0,.11.32,0,.48,0l-.06-.09c.45-.22.72.24,1.06.12l.25-.16.05.14c.14-.09.17-.2.4-.14a1.25,1.25,0,0,0,.51.09,1.61,1.61,0,0,0,0-.31,1.27,1.27,0,0,1,0-.37,4,4,0,0,1,0-.91s0,0-.06.08c.35-.74-.36-1.15-.08-1.83l.05,0c0-.34,0,0,.13-.2-.17,0-.14-.43-.2-.63,0,0,0,.1.06.16s.14,0,.1-.15c-.24-.2-.22-.68-.29-1,.11,0,.21-.34.4-.5a1.7,1.7,0,0,0-.22-.15c.08-.13,0-.22,0-.31v.28a0,0,0,0,1,0,.05.31.31,0,0,1,0,.09c-.11.14-.09,0-.22,0s0-.35.06-.37a.63.63,0,0,1,0-.19.14.14,0,0,1,0-.11l0,0c.06-.22-.14-.54-.23-.72.17.18.19,0,.31,0a4.1,4.1,0,0,0,0,.49l0,0h.05c.12-.24-.11-.43,0-.77,0,0,0,.07.08,0a.3.3,0,0,0,0-.16.22.22,0,0,0-.12-.11c.12,0,.26-.31.16-.43s-.14-.1-.14-.31l.09.09c.07-.25-.12-.21,0-.41,0,.08,0,.09.06,0,0-.26-.08-.27-.25-.46l.13,0c-.06-.22-.24-.65-.06-.65-.27.07-.14-.48-.14-.68a.09.09,0,0,0,0,.06l.06,0a3,3,0,0,1,0-1.23l.2-.07c0-.22-.39-.28-.39-.51l.09.08a4.73,4.73,0,0,1,0-.92h.14c-.06-.12-.06-.27-.13-.39.26-.22,0-.78.07-1.25l0-.11,0,.07a.82.82,0,0,1,.11-.31l-.24,0V40a.38.38,0,0,1,.13-.09v0c.19-.06,0-.08,0-.14s-.14.07-.18.12l0,0s0,0-.06,0H59.2a1.35,1.35,0,0,1-.68-.15,6.28,6.28,0,0,1-1.46.25v0c-.18,0-.56-.09-.56-.3A2.31,2.31,0,0,0,56.07,39.68Zm3.54,9.82s0-.14,0-.13-.05,0,0,.1A.05.05,0,0,0,59.61,49.5Zm-3.3-11.32h0v0Zm2.45,20.46h0Zm2-4.17a.74.74,0,0,1,.08.15C60.86,54.51,60.82,54.48,60.78,54.47Zm-1.26-5.53h0s0,0,0,0Zm1.26,5.53a.18.18,0,0,0-.08-.09.45.45,0,0,0,0,.08Zm-1.05-4.83s0,0,0,0l0,0,0,0Zm1-7.72v0h0Zm1.57,16.2a0,0,0,0,0,0,0h0Zm-.23-11.69c0-.08,0,0,0,0ZM56.88,58.08v0l0,0Zm-.05,0s-.07,0-.09,0Zm1.6,0c-.08,0-.2-.11-.34-.08v0C58.15,58,58.35,58.2,58.43,58.13Zm1.47.58-.3,0c.06,0,.12.12,0,.13C60,58.94,59.51,58.69,59.9,58.71Zm.91.18c.09,0,.12-.06,0-.11S60.81,58.86,60.81,58.89Zm2-5.25.12,0C63,53.54,62.93,53.66,62.85,53.64Zm-.61-1.26-.08.12.11,0Zm.84-.74,0,0,0-.2Zm0-11.07-.14,0C62.92,40.69,63.09,40.71,63,40.57ZM56.17,33a.09.09,0,0,0-.14.11l.2.09Zm-.36.87c.09.15.26.34.44.22-.19-.15-.11-.18-.34-.34,0-.13.06-.22.14-.2s0-.2-.08-.27a.45.45,0,0,0-.12.29.48.48,0,0,0,.08.31S55.84,33.82,55.81,33.82ZM55.5,46.26l-.06.2C55.5,46.48,55.49,46.36,55.5,46.26Zm.73-10.86,0,.1h-.06l.05,0a.05.05,0,0,1,0,0v-.07h0A.27.27,0,0,0,56.23,35.4Zm-.89,7.46v-.07l-.08,0Zm.13-2.54a.2.2,0,0,1,0-.08.27.27,0,0,0-.12,0s.16.08.23.1ZM28.93,42.77a.4.4,0,0,1,.15-.1C29,42.7,28.92,42.37,28.93,42.77ZM52.4,64.88l.24.07a.56.56,0,0,0-.2-.12ZM30.33,48.05h0s0,0,0,0ZM29,33.77v-.3A.22.22,0,0,0,29,33.77Zm0,0Zm6,30.87h0ZM28.87,58v.06h.05Zm27.24-4.54c0-.1,0-.18-.08-.18A1.42,1.42,0,0,1,56.11,53.46Zm.19-19.07h0l0,0Zm-.08-.21,0,.14S56.27,34.21,56.22,34.18ZM55.39,49l-.15,0C55.26,49.17,55.3,49,55.39,49Zm.79,1.75.09-.17-.14-.08Zm-1.11,1,.06.28,0-.21ZM52.36,63.67c.11,0,.15-.25,0-.19Zm-7.08-.06c.15,0,.3.08.37.06a.27.27,0,0,0-.17-.1A.28.28,0,0,0,45.28,63.61Zm-14.9-3.78.06.13-.05-.25ZM28.69,33c.06,0,.12.19.26.15a.85.85,0,0,0-.15-.3.59.59,0,0,0-.28-.18c0-.07.07-.06.1-.07-.17-.06-.4-.13-.47.06.24,0,.21.1.48.1C28.74,32.82,28.75,33,28.69,33ZM41.38,21.59c-.06,0-.09,0-.09,0S41.39,21.62,41.38,21.59Zm-6,4.26,0,0-.25-.12.28.16A0,0,0,0,0,35.43,25.85Zm-8.09,5.28a.44.44,0,0,0,.08.11.37.37,0,0,1-.05-.11Zm4.23-5.36.09-.09H31.6Zm-2.12,1.09s-.05-.17-.07-.23a.11.11,0,0,1,0,.08.11.11,0,0,1,0,.08Zm22.19-2.31h0Zm.12,0h0Zm1.89.46.09.07a.06.06,0,0,0,0,0ZM34.83,38.57l.14-.11C34.85,38.5,34.82,38.16,34.83,38.57ZM27.42,31.1h-.05a.05.05,0,0,1,0,0l0,.08A0,0,0,0,0,27.42,31.1Zm7.25,4.14a.6.6,0,0,1,.11-.06S34.72,35.2,34.67,35.24Zm-6.84-5.83h0v0ZM36.42,43l0,.06A.07.07,0,0,0,36.42,43ZM56.11,31.06a.3.3,0,0,0,0,.16C56.07,31.16,56.1,31.12,56.11,31.06ZM35,25.64h0l0,0Zm11.59-3.09.05,0C46.78,22.64,46.71,22.59,46.62,22.55ZM27.88,32.34h0l0-.06Zm.2.16L28,32.39S28,32.49,28.08,32.5Zm0-4.14c.09,0,.19-.09.14.07.36-.37-.19.05.07-.41A2.39,2.39,0,0,0,28.11,28.36Zm1.08-1.21c.06-.12.07-.16-.08-.08S29.18,27.12,29.19,27.15ZM37,23.49l.08.12C37.17,23.48,37,23.57,37,23.49Zm.82-1.68V22a1.56,1.56,0,0,1,.2-.16Zm1.53.5.23-.14-.18.1Zm14,2.56c-.11,0-.2.17,0,.19Zm3.19,5a.32.32,0,0,0-.12.14.16.16,0,0,0,0,.09.16.16,0,0,0,0,.1,1.62,1.62,0,0,1,.1-.18A.33.33,0,0,0,56.54,29.85Zm-17.7,3.74-.06-.31,0,.52Z" fill="#161614"/>
  <path class="mapIcon__innerRing" d="M44,8.31A35.71,35.71,0,1,1,18.77,18.77,35.7,35.7,0,0,1,44,8.31ZM44,6a38.09,38.09,0,1,0,14.55,2.9A38.12,38.12,0,0,0,44,6Z" fill="#161614"/>
  <path class="mapIcon__outerRing" d="M27.25,30.53h0ZM27.18,30a1.23,1.23,0,0,0,0,.54h.05C27.1,30.44,27.28,30.08,27.18,30ZM24.65,8,23.17,5.23A43.44,43.44,0,0,1,41.91.05l.15,3.12A40.35,40.35,0,0,0,24.65,8ZM5.79,29.43,2.88,28.32A44,44,0,0,1,21.42,6.22L23,8.9a41.24,41.24,0,0,0-12.75,12A40.72,40.72,0,0,0,5.79,29.43ZM2.92,59.79A43.72,43.72,0,0,1,0,44H3.12A40.89,40.89,0,0,0,5.84,58.67Zm6.15,11A43.89,43.89,0,0,1,3.6,61.43l2.86-1.24a41,41,0,0,0,5.1,8.67ZM44,88A44,44,0,0,1,10.75,72.82l2.36-2A40.86,40.86,0,0,0,44,84.88Zm3.48-.14-.25-3.11a41.87,41.87,0,0,0,5-.69l.62,3.06A46,46,0,0,1,47.48,87.86Zm12-2.64-1.1-2.92A41.82,41.82,0,0,0,63.47,80c.58-.31,1.17-.65,1.75-1a40.6,40.6,0,0,0,8.92-7.34l2.31,2.11a44.2,44.2,0,0,1-9.61,7.9c-.62.38-1.26.74-1.89,1.08A44.44,44.44,0,0,1,59.43,85.22ZM78.5,71.31l-2.44-1.94c.59-.75,1.16-1.53,1.69-2.32a40.7,40.7,0,0,0,7.13-23c0-.84,0-1.7-.08-2.53a40.64,40.64,0,0,0-3.54-14.3l2.85-1.29a43.69,43.69,0,0,1,3.8,15.4c.06.9.09,1.82.09,2.72a43.77,43.77,0,0,1-7.67,24.81C79.76,69.66,79.14,70.5,78.5,71.31ZM77.23,20.19A41.8,41.8,0,0,0,74,16.25,41,41,0,0,0,44,3.12V0A44,44,0,0,1,79.77,18.37Z" fill="#161614"/>
</svg>
